<svg width="24" height="24" viewBox="0 0 24 24" fill="none" xmlns="http://www.w3.org/2000/svg"><g id="Broken / Transport, Parts, Service / Spedometer Low"><path id="Vector" d="M19 19L17.5 17.5" stroke="currentColor" stroke-width="1.5" stroke-linecap="round"/><path id="Vector_2" d="M19 5L17.5 6.5" stroke="currentColor" stroke-width="1.5" stroke-linecap="round"/><path id="Vector_3" d="M5 19L6.5 17.5" stroke="currentColor" stroke-width="1.5" stroke-linecap="round"/><path id="Vector_4" d="M5 5L6.5 6.5" stroke="currentColor" stroke-width="1.5" stroke-linecap="round"/><path id="Vector_5" d="M2 12H4" stroke="currentColor" stroke-width="1.5" stroke-linecap="round"/><path id="Vector_6" d="M19.9998 12L21.9998 12" stroke="currentColor" stroke-width="1.5" stroke-linecap="round"/><path id="Vector_7" d="M12 4.00021L12 2.00021" stroke="currentColor" stroke-width="1.5" stroke-linecap="round"/><path id="Vector_8" d="M13.7782 14.364C14.9497 13.1924 14.9497 11.2929 13.7782 10.1214C12.6066 8.94978 10.7071 8.94978 9.53551 10.1214C9.08987 10.567 8.77863 11.4921 8.56402 12.4675C8.24311 13.926 8.08265 14.6553 8.66345 15.2361C9.24425 15.8169 9.97352 15.6564 11.432 15.3355C12.4074 15.1209 13.3325 14.8096 13.7782 14.364Z" stroke="currentColor" stroke-width="1.5"/><path id="Vector_9" d="M9 21.5422C4.94289 20.2679 2 16.4776 2 12C2 6.47715 6.47715 2 12 2C17.5228 2 22 6.47715 22 12C22 16.4776 19.0571 20.2679 15 21.5422" stroke="currentColor" stroke-width="1.5" stroke-linecap="round"/></g></svg>