<svg width="24" height="24" viewBox="0 0 24 24" fill="none" xmlns="http://www.w3.org/2000/svg"><g id="Line Duotone / Money / Sale "><path id="Vector" opacity="0.5" d="M9.78182 3.89027C10.3457 3.40974 10.6276 3.16948 10.9224 3.02859C11.6042 2.70271 12.3968 2.70271 13.0786 3.02859C13.3734 3.16948 13.6553 3.40974 14.2192 3.89027C14.4436 4.08152 14.5558 4.17715 14.6757 4.25747C14.9504 4.4416 15.2589 4.56939 15.5833 4.63344C15.7249 4.66139 15.8718 4.67312 16.1658 4.69657C16.9043 4.7555 17.2735 4.78497 17.5816 4.89378C18.2941 5.14546 18.8546 5.70591 19.1062 6.41844C19.2151 6.72651 19.2445 7.09576 19.3035 7.83426C19.3269 8.12819 19.3386 8.27515 19.3666 8.41669C19.4306 8.74114 19.5584 9.04965 19.7426 9.32437C19.8229 9.44421 19.9185 9.55642 20.1098 9.78084C20.5903 10.3447 20.8305 10.6267 20.9714 10.9214C21.2973 11.6032 21.2973 12.3958 20.9714 13.0776C20.8305 13.3724 20.5903 13.6543 20.1098 14.2182C19.9185 14.4426 19.8229 14.5548 19.7426 14.6747C19.5584 14.9494 19.4306 15.2579 19.3666 15.5824C19.3386 15.7239 19.3269 15.8709 19.3035 16.1648C19.2445 16.9033 19.2151 17.2725 19.1062 17.5806C18.8546 18.2931 18.2941 18.8536 17.5816 19.1053C17.2735 19.2141 16.9043 19.2435 16.1658 19.3025C15.8718 19.3259 15.7249 19.3377 15.5833 19.3656C15.2589 19.4297 14.9504 19.5574 14.6757 19.7416C14.5558 19.8219 14.4436 19.9175 14.2192 20.1088C13.6553 20.5893 13.3734 20.8296 13.0786 20.9705C12.3968 21.2963 11.6042 21.2963 10.9224 20.9705C10.6276 20.8296 10.3457 20.5893 9.78182 20.1088C9.55739 19.9175 9.44518 19.8219 9.32534 19.7416C9.05063 19.5574 8.74211 19.4297 8.41767 19.3656C8.27613 19.3377 8.12917 19.3259 7.83524 19.3025C7.09673 19.2435 6.72748 19.2141 6.41942 19.1053C5.70689 18.8536 5.14643 18.2931 4.89476 17.5806C4.78595 17.2725 4.75648 16.9033 4.69755 16.1648C4.67409 15.8709 4.66236 15.7239 4.63442 15.5824C4.57037 15.2579 4.44257 14.9494 4.25845 14.6747C4.17813 14.5548 4.0825 14.4426 3.89125 14.2182C3.41072 13.6543 3.17045 13.3724 3.02956 13.0776C2.70369 12.3958 2.70369 11.6032 3.02956 10.9214C3.17045 10.6266 3.41072 10.3447 3.89125 9.78084C4.0825 9.55642 4.17813 9.44421 4.25845 9.32437C4.44257 9.04965 4.57037 8.74114 4.63442 8.41669C4.66236 8.27515 4.67409 8.12819 4.69755 7.83426C4.75648 7.09576 4.78595 6.72651 4.89476 6.41844C5.14643 5.70591 5.70689 5.14546 6.41942 4.89378C6.72748 4.78497 7.09674 4.7555 7.83524 4.69657C8.12917 4.67312 8.27613 4.66139 8.41767 4.63344C8.74211 4.56939 9.05063 4.4416 9.32534 4.25747C9.44518 4.17715 9.5574 4.08152 9.78182 3.89027Z" stroke="currentColor" stroke-width="1.5"/><path id="Vector_2" d="M9 15L15 9" stroke="currentColor" stroke-width="1.5" stroke-linecap="round"/><path id="Vector_3" d="M15.5 14.5C15.5 15.0523 15.0523 15.5 14.5 15.5C13.9477 15.5 13.5 15.0523 13.5 14.5C13.5 13.9477 13.9477 13.5 14.5 13.5C15.0523 13.5 15.5 13.9477 15.5 14.5Z" fill="#1C274C"/><path id="Vector_4" d="M10.5 9.5C10.5 10.0523 10.0523 10.5 9.5 10.5C8.94772 10.5 8.5 10.0523 8.5 9.5C8.5 8.94772 8.94772 8.5 9.5 8.5C10.0523 8.5 10.5 8.94772 10.5 9.5Z" fill="#1C274C"/></g></svg>