<svg width="24" height="24" viewBox="0 0 24 24" fill="none" xmlns="http://www.w3.org/2000/svg"><g id="Line Duotone / Security / Siren Rounded"><path id="Vector" opacity="0.5" d="M20 22V16C20 11.5817 16.4183 8 12 8C7.58172 8 4 11.5817 4 16V22" stroke="currentColor" stroke-width="1.5"/><path id="Vector_2" d="M14.291 11.5C15.2937 11.9059 16.0944 12.7065 16.5003 13.7092" stroke="currentColor" stroke-width="1.5" stroke-linecap="round"/><path id="Vector_3" d="M2 22H22" stroke="currentColor" stroke-width="1.5" stroke-linecap="round"/><path id="Vector_4" d="M12 2V5" stroke="currentColor" stroke-width="1.5" stroke-linecap="round"/><path id="Vector_5" d="M21 6L19.5 7.5" stroke="currentColor" stroke-width="1.5" stroke-linecap="round"/><path id="Vector_6" d="M3 6L4.5 7.5" stroke="currentColor" stroke-width="1.5" stroke-linecap="round"/><path id="Vector_7" d="M13.5 17.5C13.5 18.3284 12.8284 19 12 19C11.1716 19 10.5 18.3284 10.5 17.5C10.5 16.6716 11.1716 16 12 16C12.8284 16 13.5 16.6716 13.5 17.5Z" stroke="currentColor" stroke-width="1.5"/><path id="Vector_8" opacity="0.5" d="M12 19V22" stroke="currentColor" stroke-width="1.5" stroke-linecap="round"/></g></svg>