<svg width="24" height="24" viewBox="0 0 24 24" fill="none" xmlns="http://www.w3.org/2000/svg"><g id="Line Duotone / Like / Dislike"><path id="Vector" d="M20.9749 11.8148L20.2359 11.9426L20.9749 11.8148ZM20.2694 7.73505L19.5303 7.86285L20.2694 7.73505ZM6.93752 3.52293L6.19031 3.45832H6.19031L6.93752 3.52293ZM6.12535 12.9156L6.87257 12.9802L6.12535 12.9156ZM13.9947 18.7786L14.7348 18.6573V18.6573L13.9947 18.7786ZM13.332 14.734L14.0722 14.6128V14.6128L13.332 14.734ZM6.69789 14.3225L6.2083 14.8907H6.2083L6.69789 14.3225ZM8.13663 15.5623L8.62622 14.9942H8.62622L8.13663 15.5623ZM10.5178 19.2163L9.79183 19.4046L10.5178 19.2163ZM10.9935 21.0501L11.7195 20.8618L11.7195 20.8618L10.9935 21.0501ZM12.6673 21.9356L12.438 21.2216L12.438 21.2216L12.6673 21.9356ZM12.8123 21.8891L13.0417 22.6031L13.0417 22.6031L12.8123 21.8891ZM9.8617 17.5374L10.5232 17.184V17.184L9.8617 17.5374ZM13.9044 20.7525L13.1785 20.5642V20.5642L13.9044 20.7525ZM11.6739 21.8676L11.3484 22.5433L11.3484 22.5433L11.6739 21.8676ZM20.2359 11.9426L19.5303 7.86285L21.0084 7.60724L21.7139 11.687L20.2359 11.9426ZM13.2447 2.75H8.59609V1.25H13.2447V2.75ZM7.68473 3.58754L6.87257 12.9802L5.37814 12.851L6.19031 3.45832L7.68473 3.58754ZM19.5303 7.86285C19.0235 4.93226 16.381 2.75 13.2447 2.75V1.25C17.071 1.25 20.3706 3.91895 21.0084 7.60724L19.5303 7.86285ZM13.2546 18.8998L12.5919 14.8553L14.0722 14.6128L14.7348 18.6573L13.2546 18.8998ZM7.18748 13.7544L8.62622 14.9942L7.64703 16.1305L6.2083 14.8907L7.18748 13.7544ZM11.2438 19.0279L11.7195 20.8618L10.2675 21.2384L9.79183 19.4046L11.2438 19.0279ZM12.438 21.2216L12.5829 21.175L13.0417 22.6031L12.8967 22.6497L12.438 21.2216ZM10.5232 17.184C10.8352 17.768 11.0774 18.3866 11.2438 19.0279L9.79183 19.4046C9.65547 18.8789 9.45673 18.3711 9.20016 17.8908L10.5232 17.184ZM12.5829 21.175C12.8893 21.0766 13.1069 20.8399 13.1785 20.5642L14.6304 20.9408C14.4249 21.7328 13.8187 22.3535 13.0417 22.6031L12.5829 21.175ZM11.7195 20.8618C11.7545 20.9968 11.852 21.1209 11.9995 21.192L11.3484 22.5433C10.8164 22.2869 10.4168 21.8137 10.2675 21.2384L11.7195 20.8618ZM11.9995 21.192C12.1343 21.2569 12.2929 21.2682 12.438 21.2216L12.8967 22.6497C12.387 22.8135 11.831 22.7758 11.3484 22.5433L11.9995 21.192ZM14.1534 13.0158H19.3345V14.5158H14.1534V13.0158ZM14.7348 18.6573C14.8594 19.4174 14.8238 20.1952 14.6304 20.9408L13.1785 20.5642C13.3194 20.0208 13.3453 19.4539 13.2546 18.8998L14.7348 18.6573ZM8.59609 2.75C8.12218 2.75 7.72576 3.11302 7.68473 3.58754L6.19031 3.45832C6.29827 2.20975 7.34244 1.25 8.59609 1.25V2.75ZM8.62622 14.9942C9.30607 15.58 10.0389 16.2773 10.5232 17.184L9.20016 17.8908C8.85379 17.2423 8.30225 16.6951 7.64703 16.1305L8.62622 14.9942ZM21.7139 11.687C21.9693 13.1635 20.8338 14.5158 19.3345 14.5158V13.0158C19.9012 13.0158 20.333 12.5041 20.2359 11.9426L21.7139 11.687ZM12.5919 14.8553C12.4341 13.8924 13.1763 13.0158 14.1534 13.0158V14.5158C14.1036 14.5158 14.0637 14.561 14.0722 14.6128L12.5919 14.8553ZM6.87257 12.9802C6.84715 13.2742 6.9645 13.5622 7.18748 13.7544L6.2083 14.8907C5.61997 14.3837 5.31124 13.6247 5.37814 12.851L6.87257 12.9802Z" fill="#1C274C"/><path id="Vector_2" opacity="0.5" d="M3.9716 2.52911L3.22439 2.4645L3.9716 2.52911ZM3 13.7656L3.74721 13.8302C3.71261 14.2304 3.36893 14.5322 2.96767 14.5149C2.5664 14.4976 2.25 14.1673 2.25 13.7656L3 13.7656ZM4.71881 2.59372L3.74721 13.8302L2.25279 13.701L3.22439 2.4645L4.71881 2.59372ZM3.75 2.48709V13.7656H2.25V2.48709H3.75ZM3.22439 2.4645C3.2112 2.61704 3.33146 2.74983 3.48671 2.74983V1.24983C4.21268 1.24983 4.78122 1.87192 4.71881 2.59372L3.22439 2.4645ZM3.48671 2.74983C3.63292 2.74983 3.75 2.63139 3.75 2.48709H2.25C2.25 1.80457 2.80289 1.24983 3.48671 1.24983V2.74983Z" fill="#1C274C"/></g></svg>