<svg width="24" height="24" viewBox="0 0 24 24" fill="none" xmlns="http://www.w3.org/2000/svg"><g id="Line Duotone / Like / Like"><path id="Vector" d="M20.9749 12.1852L20.2359 12.0574L20.9749 12.1852ZM20.2694 16.265L19.5303 16.1371L20.2694 16.265ZM6.93752 20.4771L6.19031 20.5417H6.19031L6.93752 20.4771ZM6.12535 11.0844L6.87257 11.0198L6.12535 11.0844ZM13.9947 5.22142L14.7348 5.34269V5.34269L13.9947 5.22142ZM13.332 9.26598L14.0722 9.38725V9.38725L13.332 9.26598ZM6.69789 9.67749L6.2083 9.10933H6.2083L6.69789 9.67749ZM8.13663 8.43769L8.62622 9.00585H8.62622L8.13663 8.43769ZM10.5178 4.78374L9.79183 4.59542L10.5178 4.78374ZM10.9935 2.94989L11.7195 3.13821L11.7195 3.13821L10.9935 2.94989ZM12.6673 2.06435L12.438 2.77841L12.438 2.77841L12.6673 2.06435ZM12.8123 2.11093L13.0417 1.39687L13.0417 1.39687L12.8123 2.11093ZM9.8617 6.46262L10.5232 6.81599V6.81599L9.8617 6.46262ZM13.9044 3.24752L13.1785 3.43584V3.43584L13.9044 3.24752ZM11.6739 2.13239L11.3484 1.45675L11.3484 1.45675L11.6739 2.13239ZM20.2359 12.0574L19.5303 16.1371L21.0084 16.3928L21.7139 12.313L20.2359 12.0574ZM13.2447 21.25H8.59609V22.75H13.2447V21.25ZM7.68473 20.4125L6.87257 11.0198L5.37814 11.149L6.19031 20.5417L7.68473 20.4125ZM19.5303 16.1371C19.0235 19.0677 16.381 21.25 13.2447 21.25V22.75C17.071 22.75 20.3706 20.081 21.0084 16.3928L19.5303 16.1371ZM13.2546 5.10015L12.5919 9.14472L14.0722 9.38725L14.7348 5.34269L13.2546 5.10015ZM7.18748 10.2456L8.62622 9.00585L7.64703 7.86954L6.2083 9.10933L7.18748 10.2456ZM11.2438 4.97206L11.7195 3.13821L10.2675 2.76157L9.79183 4.59542L11.2438 4.97206ZM12.438 2.77841L12.5829 2.82498L13.0417 1.39687L12.8967 1.3503L12.438 2.77841ZM10.5232 6.81599C10.8352 6.23198 11.0774 5.61339 11.2438 4.97206L9.79183 4.59542C9.65547 5.12107 9.45673 5.62893 9.20016 6.10924L10.5232 6.81599ZM12.5829 2.82498C12.8893 2.92342 13.1069 3.16009 13.1785 3.43584L14.6304 3.05921C14.4249 2.26719 13.8187 1.64648 13.0417 1.39687L12.5829 2.82498ZM11.7195 3.13821C11.7545 3.0032 11.852 2.87913 11.9995 2.80804L11.3484 1.45675C10.8164 1.71309 10.4168 2.18627 10.2675 2.76157L11.7195 3.13821ZM11.9995 2.80804C12.1343 2.74311 12.2929 2.73181 12.438 2.77841L12.8967 1.3503C12.387 1.18655 11.831 1.2242 11.3484 1.45675L11.9995 2.80804ZM14.1534 10.9842H19.3345V9.4842H14.1534V10.9842ZM14.7348 5.34269C14.8594 4.58256 14.8238 3.80477 14.6304 3.0592L13.1785 3.43584C13.3194 3.97923 13.3453 4.54613 13.2546 5.10016L14.7348 5.34269ZM8.59609 21.25C8.12218 21.25 7.72576 20.887 7.68473 20.4125L6.19031 20.5417C6.29827 21.7902 7.34244 22.75 8.59609 22.75V21.25ZM8.62622 9.00585C9.30607 8.42 10.0389 7.72267 10.5232 6.81599L9.20016 6.10924C8.85379 6.75767 8.30225 7.30493 7.64703 7.86954L8.62622 9.00585ZM21.7139 12.313C21.9693 10.8365 20.8338 9.4842 19.3345 9.4842V10.9842C19.9012 10.9842 20.333 11.4959 20.2359 12.0574L21.7139 12.313ZM12.5919 9.14471C12.4341 10.1076 13.1763 10.9842 14.1534 10.9842V9.4842C14.1036 9.4842 14.0637 9.43901 14.0722 9.38725L12.5919 9.14471ZM6.87257 11.0198C6.84715 10.7258 6.9645 10.4378 7.18748 10.2456L6.2083 9.10933C5.61997 9.61631 5.31124 10.3753 5.37814 11.149L6.87257 11.0198Z" fill="#1C274C"/><path id="Vector_2" opacity="0.5" d="M3.9716 21.4709L3.22439 21.5355L3.9716 21.4709ZM3 10.2344L3.74721 10.1698C3.71261 9.76962 3.36893 9.46776 2.96767 9.48507C2.5664 9.50239 2.25 9.83274 2.25 10.2344L3 10.2344ZM4.71881 21.4063L3.74721 10.1698L2.25279 10.299L3.22439 21.5355L4.71881 21.4063ZM3.75 21.5129V10.2344H2.25V21.5129H3.75ZM3.22439 21.5355C3.2112 21.383 3.33146 21.2502 3.48671 21.2502V22.7502C4.21268 22.7502 4.78122 22.1281 4.71881 21.4063L3.22439 21.5355ZM3.48671 21.2502C3.63292 21.2502 3.75 21.3686 3.75 21.5129H2.25C2.25 22.1954 2.80289 22.7502 3.48671 22.7502V21.2502Z" fill="#1C274C"/></g></svg>