<svg width="24" height="24" viewBox="0 0 24 24" fill="none" xmlns="http://www.w3.org/2000/svg"><g id="Broken / Shopping, Ecommerce / Bag 5"><path id="Vector" d="M20.2058 14.9709C19.6686 17.6567 19.4 18.9996 18.5125 19.8646C18.3485 20.0244 18.1711 20.1699 17.9821 20.2994C16.96 21 15.5904 21 12.8514 21H11.1485C8.40944 21 7.03992 21 6.01774 20.2994C5.82882 20.1699 5.65136 20.0244 5.48734 19.8646C4.59987 18.9996 4.33129 17.6567 3.79412 14.9709C3.02292 11.1149 2.63732 9.18686 3.52498 7.82067C3.6857 7.5733 3.8733 7.34447 4.08434 7.13836C5.24992 6 7.2161 6 11.1485 6H12.8514C16.7838 6 18.75 6 19.9155 7.13836C20.1266 7.34447 20.3142 7.5733 20.4749 7.82067C20.986 8.60728 21.075 9.58013 20.9113 11" stroke="currentColor" stroke-width="1.5" stroke-linecap="round"/><circle id="Vector_2" cx="15" cy="10" r="1" fill="#1C274C"/><circle id="Vector_3" cx="9" cy="10" r="1" fill="#1C274C"/><path id="Vector_4" d="M9 6V5C9 3.34315 10.3431 2 12 2C13.6569 2 15 3.34315 15 5V6" stroke="currentColor" stroke-width="1.5" stroke-linecap="round"/></g></svg>