<svg width="24" height="24" viewBox="0 0 24 24" fill="none" xmlns="http://www.w3.org/2000/svg"><g id="Broken / Call / Call Dropped"><path id="Vector" d="M15.0001 4V5C15.0001 6.88562 15.0001 7.82843 15.5859 8.41421C16.1717 9 17.1145 9 19.0001 9H20.5001M20.5001 9L18.0001 7M20.5001 9L18.0001 11" stroke="currentColor" stroke-width="1.5" stroke-linecap="round" stroke-linejoin="round"/><path id="Vector_2" d="M15.1007 15.0272L15.6445 15.5437V15.5437L15.1007 15.0272ZM15.5561 14.5477L15.0123 14.0312V14.0312L15.5561 14.5477ZM17.9728 14.2123L17.5987 14.8623H17.5987L17.9728 14.2123ZM19.8833 15.312L19.5092 15.962L19.8833 15.312ZM20.4217 18.7584L20.9654 19.275L20.9654 19.2749L20.4217 18.7584ZM19.0011 20.254L18.4573 19.7375L19.0011 20.254ZM17.6763 20.9631L17.7499 21.7095L17.6763 20.9631ZM7.81534 16.4752L8.35913 15.9587L7.81534 16.4752ZM3.75179 6.92574C3.72959 6.51212 3.37629 6.19481 2.96267 6.21701C2.54905 6.23921 2.23175 6.59252 2.25395 7.00613L3.75179 6.92574ZM9.19068 8.80507L9.73448 9.32159L9.19068 8.80507ZM9.4775 8.50311L10.0213 9.01963L9.4775 8.50311ZM9.63422 5.6931L10.2466 5.26012L9.63422 5.6931ZM8.37324 3.90961L7.76084 4.3426V4.3426L8.37324 3.90961ZM4.71764 3.09213C4.43237 3.39246 4.44459 3.86717 4.74492 4.15244C5.04524 4.4377 5.51996 4.42549 5.80523 4.12516L4.71764 3.09213ZM11.0631 13.0559L11.6069 12.5394L11.0631 13.0559ZM10.664 19.8123C11.0148 20.0327 11.4777 19.9271 11.6981 19.5764C11.9185 19.2257 11.8129 18.7627 11.4622 18.5423L10.664 19.8123ZM15.1129 20.0584C14.7075 19.9735 14.31 20.2334 14.2251 20.6388C14.1402 21.0442 14.4001 21.4417 14.8055 21.5266L15.1129 20.0584ZM15.6445 15.5437L16.0999 15.0642L15.0123 14.0312L14.5569 14.5107L15.6445 15.5437ZM17.5987 14.8623L19.5092 15.962L20.2574 14.662L18.3469 13.5623L17.5987 14.8623ZM19.8779 18.2419L18.4573 19.7375L19.5449 20.7705L20.9654 19.275L19.8779 18.2419ZM8.35913 15.9587C4.48301 11.8778 3.83283 8.43556 3.75179 6.92574L2.25395 7.00613C2.3532 8.85536 3.13838 12.6403 7.27155 16.9917L8.35913 15.9587ZM9.73448 9.32159L10.0213 9.01963L8.93371 7.9866L8.64689 8.28856L9.73448 9.32159ZM10.2466 5.26012L8.98563 3.47663L7.76084 4.3426L9.02183 6.12608L10.2466 5.26012ZM9.19068 8.80507C8.64689 8.28856 8.6462 8.28929 8.6455 8.29002C8.64527 8.29028 8.64456 8.29102 8.64409 8.29152C8.64314 8.29254 8.64217 8.29357 8.64119 8.29463C8.63922 8.29675 8.63718 8.29896 8.63509 8.30127C8.63089 8.30588 8.62644 8.31087 8.62176 8.31625C8.61241 8.32701 8.60213 8.33931 8.59114 8.3532C8.56916 8.38098 8.54429 8.41511 8.5182 8.45588C8.46589 8.53764 8.40915 8.64531 8.36111 8.78033C8.2634 9.0549 8.21016 9.4185 8.27669 9.87257C8.4074 10.7647 8.99196 11.9644 10.5193 13.5724L11.6069 12.5394C10.1792 11.0363 9.82759 10.1106 9.76084 9.65511C9.72864 9.43536 9.76136 9.31957 9.7743 9.28321C9.78157 9.26277 9.78633 9.25709 9.78167 9.26437C9.77942 9.26789 9.77492 9.27451 9.76736 9.28407C9.76357 9.28885 9.75902 9.29437 9.75358 9.30063C9.75086 9.30375 9.74792 9.30706 9.74474 9.31056C9.74315 9.31231 9.7415 9.3141 9.73979 9.31594C9.73894 9.31686 9.73807 9.31779 9.73718 9.31873C9.73674 9.3192 9.73606 9.31992 9.73584 9.32015C9.73516 9.32087 9.73448 9.32159 9.19068 8.80507ZM10.5193 13.5724C12.0422 15.1757 13.1923 15.806 14.0698 15.9485C14.5201 16.0216 14.8846 15.9632 15.1606 15.8544C15.2955 15.8012 15.4022 15.7387 15.4823 15.6819C15.5223 15.6535 15.5555 15.6266 15.5824 15.6031C15.5958 15.5913 15.6077 15.5803 15.618 15.5703C15.6232 15.5654 15.628 15.5606 15.6324 15.5562C15.6346 15.554 15.6367 15.5518 15.6387 15.5497C15.6397 15.5487 15.6407 15.5477 15.6417 15.5467C15.6422 15.5462 15.6429 15.5454 15.6431 15.5452C15.6438 15.5444 15.6445 15.5437 15.1007 15.0272C14.5569 14.5107 14.5576 14.51 14.5583 14.5093C14.5585 14.509 14.5592 14.5083 14.5596 14.5078C14.5605 14.5069 14.5614 14.506 14.5623 14.5051C14.564 14.5033 14.5657 14.5015 14.5674 14.4998C14.5708 14.4965 14.5739 14.4933 14.577 14.4904C14.583 14.4846 14.5884 14.4796 14.5932 14.4754C14.6028 14.467 14.6099 14.4616 14.6145 14.4584C14.6239 14.4517 14.6229 14.454 14.6102 14.459C14.5909 14.4666 14.5 14.4987 14.3103 14.4679C13.9077 14.4025 13.039 14.0472 11.6069 12.5394L10.5193 13.5724ZM8.98563 3.47663C7.97204 2.04305 5.94382 1.80119 4.71764 3.09213L5.80523 4.12516C6.32806 3.57471 7.24849 3.61795 7.76084 4.3426L8.98563 3.47663ZM18.4573 19.7375C18.1783 20.0313 17.8863 20.1887 17.6026 20.2167L17.7499 21.7095C18.497 21.6357 19.1015 21.2373 19.5449 20.7705L18.4573 19.7375ZM10.0213 9.01963C10.9889 8.00095 11.0573 6.40678 10.2466 5.26012L9.02183 6.12608C9.44397 6.72315 9.37924 7.51753 8.93371 7.9866L10.0213 9.01963ZM19.5092 15.962C20.33 16.4345 20.4907 17.5968 19.8779 18.2419L20.9654 19.2749C22.2704 17.901 21.8904 15.6019 20.2574 14.662L19.5092 15.962ZM16.0999 15.0642C16.4854 14.6584 17.086 14.5672 17.5987 14.8623L18.3469 13.5623C17.2485 12.93 15.8861 13.1113 15.0123 14.0312L16.0999 15.0642ZM11.4622 18.5423C10.4784 17.9241 9.43143 17.0876 8.35913 15.9587L7.27155 16.9917C8.42557 18.2067 9.5689 19.1241 10.664 19.8123L11.4622 18.5423ZM17.6026 20.2167C17.056 20.2707 16.1912 20.2842 15.1129 20.0584L14.8055 21.5266C16.054 21.788 17.0742 21.7762 17.7499 21.7095L17.6026 20.2167Z" fill="#1C274C"/></g></svg>