<svg width="24" height="24" viewBox="0 0 24 24" fill="none" xmlns="http://www.w3.org/2000/svg"><g id="Broken / Video, Audio, Sound / Camera Minimalistic"><circle id="Vector" cx="12" cy="13" r="3" stroke="currentColor" stroke-width="1.5"/><path id="Vector_2" d="M2.99998 12.9999C2.99998 10.191 2.99983 8.78673 3.67395 7.77783C3.96578 7.34107 4.34079 6.96607 4.77755 6.67423C5.78644 6.00011 7.1909 6.00011 9.99983 6.00011H13.9998C16.8088 6.00011 18.2132 6.00011 19.2221 6.67423C19.6589 6.96607 20.0339 7.34107 20.3257 7.77783C20.9998 8.78673 21 10.191 21 12.9999C21 15.8088 21 17.2133 20.3259 18.2222C20.034 18.6589 19.659 19.0339 19.2223 19.3258C18.2134 19.9999 16.8089 19.9999 14 19.9999H9.99998C7.19105 19.9999 5.78659 19.9999 4.7777 19.3258C4.34094 19.0339 3.96593 18.6589 3.6741 18.2222C3.44226 17.8752 3.29016 17.4815 3.19036 16.9999" stroke="currentColor" stroke-width="1.5" stroke-linecap="round"/><path id="Vector_3" d="M18 10H17.5" stroke="currentColor" stroke-width="1.5" stroke-linecap="round"/><path id="Vector_4" d="M14.5 3.5H9.5" stroke="currentColor" stroke-width="1.5" stroke-linecap="round"/></g></svg>