<svg width="24" height="24" viewBox="0 0 24 24" fill="none" xmlns="http://www.w3.org/2000/svg"><g id="Broken / Video, Audio, Sound / Volume Small"><path id="Vector" d="M18 9C18 9 18.5 9.9 18.5 12C18.5 14.1 18 15 18 15" stroke="currentColor" stroke-width="1.5" stroke-linecap="round"/><path id="Vector_2" d="M1.95851 8.57679C2.2447 8.04563 2.79227 7.53042 3.33985 7.27707C3.93918 6.99979 4.62614 6.99979 6.00005 6.99979C6.51212 6.99979 6.76816 6.99979 7.01617 6.95791C7.26135 6.9165 7.50043 6.84478 7.72792 6.74438C7.95803 6.64283 8.17178 6.50189 8.59929 6.22002L8.81822 6.07566C11.3612 4.39898 12.6327 3.56063 13.7 3.92487C13.9047 3.9947 14.1028 4.09551 14.2797 4.21984C15.2024 4.86829 15.2725 6.37699 15.4127 9.3944C15.4646 10.5117 15.5 11.4679 15.5 11.9998C15.5 12.5317 15.4646 13.4879 15.4127 14.6052C15.2725 17.6226 15.2024 19.1313 14.2797 19.7797C14.1028 19.9041 13.9047 20.0049 13.7 20.0747C12.6327 20.4389 11.3612 19.6006 8.81822 17.9239L8.59929 17.7796C8.17178 17.4977 7.95803 17.3567 7.72792 17.2552C7.50043 17.1548 7.26135 17.0831 7.01617 17.0417C6.76816 16.9998 6.51212 16.9998 6.00005 16.9998C4.62614 16.9998 3.93918 16.9998 3.33985 16.7225C2.79227 16.4692 2.2447 15.9539 1.95851 15.4228C1.64528 14.8414 1.60844 14.237 1.53476 13.0282C1.52384 12.849 1.51513 12.6722 1.50916 12.4998" stroke="currentColor" stroke-width="1.5" stroke-linecap="round"/></g></svg>