<svg width="24" height="24" viewBox="0 0 24 24" fill="none" xmlns="http://www.w3.org/2000/svg"><g id="Broken / Video, Audio, Sound / Volume"><path id="Vector" d="M5.95851 8.57679C6.2447 8.04563 6.79227 7.53042 7.33985 7.27707C7.93918 6.99979 8.62614 6.99979 10.0001 6.99979C10.5121 6.99979 10.7682 6.99979 11.0162 6.95791C11.2614 6.9165 11.5004 6.84478 11.7279 6.74438C11.958 6.64283 12.1718 6.50189 12.5993 6.22002L12.8182 6.07566C15.3612 4.39898 16.6327 3.56063 17.7 3.92487C17.9047 3.9947 18.1028 4.09551 18.2797 4.21984C19.2024 4.86829 19.2725 6.37699 19.4127 9.3944C19.4646 10.5117 19.5 11.4679 19.5 11.9998C19.5 12.5317 19.4646 13.4879 19.4127 14.6052C19.2725 17.6226 19.2024 19.1313 18.2797 19.7797C18.1028 19.9041 17.9047 20.0049 17.7 20.0747C16.6327 20.4389 15.3612 19.6006 12.8182 17.9239L12.5993 17.7796C12.1718 17.4977 11.958 17.3567 11.7279 17.2552C11.5004 17.1548 11.2614 17.0831 11.0162 17.0417C10.7682 16.9998 10.5121 16.9998 10.0001 16.9998C8.62614 16.9998 7.93918 16.9998 7.33985 16.7225C6.79227 16.4692 6.2447 15.9539 5.95851 15.4228C5.64528 14.8414 5.60844 14.237 5.53476 13.0282C5.52384 12.849 5.51513 12.6722 5.50916 12.4998" stroke="currentColor" stroke-width="1.5" stroke-linecap="round"/></g></svg>