<svg width="24" height="24" viewBox="0 0 24 24" fill="none" xmlns="http://www.w3.org/2000/svg"><g id="Broken / Medicine / Adhesive Plaster 2 "><path id="Vector" d="M12.765 20.4155C14.8777 22.5282 18.3029 22.5282 20.4155 20.4155C22.5282 18.3029 22.5282 14.8777 20.4155 12.765M12.765 20.4155L20.4155 12.765M12.765 20.4155L8.17476 15.8252M3.58447 11.235C1.47184 9.12233 1.47184 5.69709 3.58447 3.58447C5.69709 1.47184 9.12233 1.47184 11.235 3.58447M3.58447 11.235L11.235 3.58447M3.58447 11.235L5 12.6505M20.4155 12.765L19 11.3495M11.235 3.58447L15.8252 8.17476" stroke="currentColor" stroke-width="1.5" stroke-linecap="round"/><circle id="Vector_2" cx="9.1716" cy="12" r="1" transform="rotate(-45 9.172 12)" fill="#1C274C"/><circle id="Vector_3" cx="12" cy="14.8286" r="1" transform="rotate(-45 12 14.829)" fill="#1C274C"/><circle id="Vector_4" cx="12" cy="9.17139" r="1" transform="rotate(-45 12 9.171)" fill="#1C274C"/><circle id="Vector_5" cx="14.8284" cy="12" r="1" transform="rotate(-45 14.828 12)" fill="#1C274C"/></g></svg>