<svg width="24" height="24" viewBox="0 0 24 24" fill="none" xmlns="http://www.w3.org/2000/svg"><g id="vuesax/broken/24-support"><g id="vuesax/broken/24-support_2"><g id="24-support"><path id="Vector" d="M3 4.96997C3 3.32997 4.34 2 6 2H18C19.66 2 21 3.32997 21 4.96997V15.88C21 17.52 19.66 18.85 18 18.85H17.24C16.44 18.85 15.68 19.16 15.12 19.72L13.41 21.41C12.63 22.18 11.36 22.18 10.58 21.41L8.87 19.72C8.31 19.16 7.54 18.85 6.75 18.85H6C4.34 18.85 3 17.52 3 15.88V9.06995" stroke="currentColor" stroke-width="1.5" stroke-miterlimit="10" stroke-linecap="round" stroke-linejoin="round"/><g id="Group"><path id="Vector_2" d="M7 9.16077C7 8.23077 7.76 7.4707 8.69 7.4707C9.62 7.4707 10.38 8.23077 10.38 9.16077C10.38 11.0408 7.71 11.2408 7.12 13.0308C7 13.4008 7.31 13.7708 7.7 13.7708H10.38" stroke="currentColor" stroke-width="1.5" stroke-linecap="round" stroke-linejoin="round"/><path id="Vector_3" d="M16.04 13.7608V8.05088C16.04 7.79088 15.87 7.56083 15.62 7.49083C15.37 7.42083 15.1 7.52083 14.96 7.74083C14.24 8.90083 13.46 10.2208 12.78 11.3808C12.67 11.5708 12.67 11.8208 12.78 12.0108C12.89 12.2008 13.1 12.3208 13.33 12.3208H17" stroke="currentColor" stroke-width="1.5" stroke-linecap="round" stroke-linejoin="round"/></g></g></g></g></svg>