<svg width="24" height="24" viewBox="0 0 24 24" fill="none" xmlns="http://www.w3.org/2000/svg"><g id="vuesax/broken/3d-rotate"><g id="vuesax/broken/3d-rotate_2"><g id="3d-rotate"><g id="Group"><g id="Group_2"><path id="Vector" d="M6.70001 9.25977L12 12.3298L17.26 9.27976" stroke="currentColor" stroke-width="1.5" stroke-linecap="round" stroke-linejoin="round"/><path id="Vector_2" d="M12 17.7703V12.3203" stroke="currentColor" stroke-width="1.5" stroke-linecap="round" stroke-linejoin="round"/></g><path id="Vector_3" d="M6.23001 10.2991C6.23001 9.46914 6.81999 8.45914 7.54999 8.05914L10.75 6.27914C11.43 5.89914 12.55 5.89914 13.24 6.27914L16.44 8.05914C17.16 8.45914 17.76 9.46914 17.76 10.2991V13.6891C17.76 14.5191 17.17 15.5291 16.44 15.9291L13.24 17.7091C12.56 18.0891 11.44 18.0891 10.75 17.7091L7.54999 15.9291C7.18999 15.7291 6.86 15.3791 6.62 14.9691" stroke="currentColor" stroke-width="1.5" stroke-linecap="round" stroke-linejoin="round"/></g><g id="Group_3"><path id="Vector_4" d="M22 15C22 18.87 18.87 22 15 22L16.05 20.25" stroke="currentColor" stroke-width="1.5" stroke-linecap="round" stroke-linejoin="round"/><path id="Vector_5" d="M2 9C2 5.13 5.13 2 9 2L7.95001 3.75" stroke="currentColor" stroke-width="1.5" stroke-linecap="round" stroke-linejoin="round"/></g></g></g></g></svg>