<svg width="24" height="24" viewBox="0 0 24 24" fill="none" xmlns="http://www.w3.org/2000/svg"><g id="vuesax/broken/3d-square"><g id="vuesax/broken/3d-square_2"><g id="3d-square"><path id="Vector" d="M2 14V15C2 20 4 22 9 22H15C20 22 22 20 22 15V9C22 4 20 2 15 2H9C4 2 2 4 2 9" stroke="currentColor" stroke-width="1.5" stroke-linecap="round" stroke-linejoin="round"/><g id="Group"><g id="Group_2"><path id="Vector_2" d="M6.70001 9.25977L12 12.3298L17.26 9.27976" stroke="currentColor" stroke-width="1.5" stroke-linecap="round" stroke-linejoin="round"/><path id="Vector_3" d="M12 17.7703V12.3203" stroke="currentColor" stroke-width="1.5" stroke-linecap="round" stroke-linejoin="round"/></g><path id="Vector_4" d="M10.76 6.28986L7.56 8.06986C6.84 8.46986 6.23999 9.47985 6.23999 10.3099V13.6999C6.23999 14.5299 6.83 15.5399 7.56 15.9399L10.76 17.7199C11.44 18.0999 12.56 18.0999 13.25 17.7199L16.45 15.9399C17.17 15.5399 17.77 14.5299 17.77 13.6999V10.2999C17.77 9.46986 17.18 8.45985 16.45 8.05985L13.25 6.27985C12.56 5.89985 11.44 5.89986 10.76 6.28986Z" stroke="currentColor" stroke-width="1.5" stroke-linecap="round" stroke-linejoin="round"/></g></g></g></g></svg>