<svg width="24" height="24" viewBox="0 0 24 24" fill="none" xmlns="http://www.w3.org/2000/svg"><g id="vuesax/broken/additem"><g id="vuesax/broken/additem_2"><g id="additem"><path id="Vector" d="M2 5.43C2 3.14 3.14 2 5.43 2H10C12.29 2 13.43 3.14 13.43 5.43" stroke="currentColor" stroke-width="1.5" stroke-linecap="round" stroke-linejoin="round"/><path id="Vector_2" d="M8 16.0005H5.43C3.14 16.0005 2 14.8605 2 12.5705V9.98047" stroke="currentColor" stroke-width="1.5" stroke-linecap="round" stroke-linejoin="round"/><path id="Vector_3" d="M18.57 22H14C11.71 22 10.57 20.86 10.57 18.57V11.43C10.57 9.14 11.71 8 14 8H18.57C20.86 8 22 9.14 22 11.43V18.57C22 20.86 20.86 22 18.57 22Z" stroke="currentColor" stroke-width="1.5" stroke-linecap="round" stroke-linejoin="round"/><path id="Vector_4" d="M14.87 15H18.13" stroke="currentColor" stroke-width="1.5" stroke-linecap="round" stroke-linejoin="round"/><path id="Vector_5" d="M16.5 16.6301V13.3701" stroke="currentColor" stroke-width="1.5" stroke-linecap="round" stroke-linejoin="round"/></g></g></g></svg>