<svg width="24" height="24" viewBox="0 0 24 24" fill="none" xmlns="http://www.w3.org/2000/svg"><g id="vuesax/broken/airdrop"><g id="vuesax/broken/airdrop_2"><g id="airdrop"><path id="Vector" d="M12.55 12.9191C10.91 13.3091 9.47999 11.8791 9.86999 10.2391C10.06 9.4691 10.69 8.83914 11.46 8.64914C12.81 8.31914 14.03 9.24911 14.19 10.4991" stroke="currentColor" stroke-width="1.5" stroke-linecap="round" stroke-linejoin="round"/><path id="Vector_2" d="M7.63995 3.15039C4.98995 4.66039 3.20996 7.52034 3.20996 10.7903C3.20996 13.3303 4.28996 15.6203 6.01996 17.2203" stroke="currentColor" stroke-width="1.5" stroke-linecap="round" stroke-linejoin="round"/><path id="Vector_3" d="M18.01 17.19C19.72 15.59 20.79 13.32 20.79 10.79C20.79 5.92998 16.85 2 12 2" stroke="currentColor" stroke-width="1.5" stroke-linecap="round" stroke-linejoin="round"/><path id="Vector_4" d="M8.00002 14.5508C7.08002 13.5708 6.51001 12.2508 6.51001 10.7908C6.51001 7.76077 8.97002 5.30078 12 5.30078C15.03 5.30078 17.49 7.76077 17.49 10.7908C17.49 12.2508 16.92 13.5608 16 14.5508" stroke="currentColor" stroke-width="1.5" stroke-linecap="round" stroke-linejoin="round"/><path id="Vector_5" d="M10.3 16.6593L8.85998 18.4493C7.71998 19.8793 8.72997 21.9893 10.56 21.9893H13.43C15.26 21.9893 16.28 19.8693 15.13 18.4493L13.69 16.6593C12.83 15.5693 11.17 15.5693 10.3 16.6593Z" stroke="currentColor" stroke-width="1.5" stroke-linecap="round" stroke-linejoin="round"/></g></g></g></svg>