<svg width="24" height="24" viewBox="0 0 24 24" fill="none" xmlns="http://www.w3.org/2000/svg"><g id="vuesax/broken/airpod"><g id="vuesax/broken/airpod_2"><g id="airpod"><path id="Vector" d="M2.62012 10.97V8.25C2.62012 7.48 2.65012 6.79 2.73012 6.18C3.10012 2.89 4.65012 2 8.88012 2H15.1301C19.3501 2 20.9101 2.89 21.2701 6.18C21.3601 6.79 21.3801 7.48 21.3801 8.25V15.75C21.3801 16.52 21.3501 17.21 21.2701 17.83C20.9001 21.11 19.3501 22 15.1201 22H8.88012C4.66012 22 3.10012 21.11 2.74012 17.83C2.65012 17.21 2.62012 16.52 2.62012 15.75V15.01" stroke="currentColor" stroke-width="1.5" stroke-linecap="round" stroke-linejoin="round"/><path id="Vector_2" d="M21.2299 8.91992H17.1299" stroke="currentColor" stroke-width="1.5" stroke-linecap="round" stroke-linejoin="round"/><path id="Vector_3" d="M6.87002 8.91992H2.77002" stroke="currentColor" stroke-width="1.5" stroke-linecap="round" stroke-linejoin="round"/><path id="Vector_4" d="M17.1301 8.91914C17.1301 10.0491 16.2101 10.9691 15.0801 10.9691H8.92012C8.36012 10.9691 7.84012 10.7391 7.47012 10.3591C7.10012 9.99914 6.87012 9.48914 6.87012 8.91914C6.87012 7.78914 7.79012 6.86914 8.92012 6.86914H15.0701C15.6301 6.86914 16.1501 7.09914 16.5201 7.47914C16.9001 7.84914 17.1301 8.35914 17.1301 8.91914Z" stroke="currentColor" stroke-width="1.5" stroke-linecap="round" stroke-linejoin="round"/></g></g></g></svg>