<svg width="24" height="24" viewBox="0 0 24 24" fill="none" xmlns="http://www.w3.org/2000/svg"><g id="vuesax/broken/airpods"><g id="vuesax/broken/airpods_2"><g id="airpods"><path id="Vector" d="M6.72 9.56H5.78C3.7 9.56 2 7.86003 2 5.78003C2 3.70003 3.7 2 5.78 2H7.67001C9.23001 2 10.5 3.28002 10.5 4.83002V7.39001V17.1C10.5 18.14 9.64999 18.99 8.60999 18.99C7.56999 18.99 6.72 18.14 6.72 17.1V9.56Z" stroke="currentColor" stroke-width="1.5" stroke-miterlimit="10" stroke-linecap="round" stroke-linejoin="round"/><path id="Vector_2" d="M5.78009 6.71979C5.26009 6.71979 4.84009 6.29985 4.84009 5.77985C4.84009 5.25985 5.26009 4.83984 5.78009 4.83984" stroke="currentColor" stroke-width="1.5" stroke-miterlimit="10" stroke-linecap="round" stroke-linejoin="round"/><path id="Vector_3" d="M17.28 13.52V9.56H18.22C20.3 9.56 22 7.86003 22 5.78003C22 3.70003 20.3 2 18.22 2H16.33C14.77 2 13.5 3.28002 13.5 4.83002V7.39001V17.1C13.5 18.14 14.35 18.99 15.39 18.99C16.43 18.99 17.28 18.14 17.28 17.1" stroke="currentColor" stroke-width="1.5" stroke-miterlimit="10" stroke-linecap="round" stroke-linejoin="round"/><path id="Vector_4" d="M18.22 6.71979C18.74 6.71979 19.16 6.29985 19.16 5.77985C19.16 5.25985 18.74 4.83984 18.22 4.83984" stroke="currentColor" stroke-width="1.5" stroke-miterlimit="10" stroke-linecap="round" stroke-linejoin="round"/><path id="Vector_5" d="M8.5 22V19" stroke="currentColor" stroke-width="1.5" stroke-miterlimit="10" stroke-linecap="round" stroke-linejoin="round"/><path id="Vector_6" d="M15.5 22V19" stroke="currentColor" stroke-width="1.5" stroke-miterlimit="10" stroke-linecap="round" stroke-linejoin="round"/></g></g></g></svg>