<svg width="24" height="24" viewBox="0 0 24 24" fill="none" xmlns="http://www.w3.org/2000/svg"><g id="vuesax/broken/arrow-square"><g id="vuesax/broken/arrow-square_2"><g id="arrow-square"><g id="Group"><path id="Vector" d="M12.14 15.0691V13.1091C12.14 10.5891 14.18 8.53906 16.71 8.53906H18.67" stroke="currentColor" stroke-width="1.5" stroke-linecap="round" stroke-linejoin="round"/><path id="Vector_2" d="M5.62 8.55078H7.58002C10.1 8.55078 12.15 10.5908 12.15 13.1208V13.7708V17.2508" stroke="currentColor" stroke-width="1.5" stroke-linecap="round" stroke-linejoin="round"/><path id="Vector_3" d="M7.14001 6.75L5.34003 8.55L7.14001 10.35" stroke="currentColor" stroke-width="1.5" stroke-linecap="round" stroke-linejoin="round"/><path id="Vector_4" d="M16.86 6.75L18.66 8.55L16.86 10.35" stroke="currentColor" stroke-width="1.5" stroke-linecap="round" stroke-linejoin="round"/></g><path id="Vector_5" d="M2 9C2 4 4 2 9 2H15C20 2 22 4 22 9V15C22 20 20 22 15 22H9C4 22 2 20 2 15V13.02" stroke="currentColor" stroke-width="1.5" stroke-linecap="round" stroke-linejoin="round"/></g></g></g></svg>