<svg width="24" height="24" viewBox="0 0 24 24" fill="none" xmlns="http://www.w3.org/2000/svg"><g id="vuesax/broken/audio-square"><g id="vuesax/broken/audio-square_2"><g id="audio-square"><path id="Vector" d="M2 12.99V15C2 20 4 22 9 22H15C20 22 22 20 22 15V9C22 4 20 2 15 2H9C4 2 2 4 2 9" stroke="currentColor" stroke-width="1.5" stroke-linecap="round" stroke-linejoin="round"/><g id="Group"><path id="Vector_2" d="M9.62 17.3005C10.7908 17.3005 11.74 16.3514 11.74 15.1805C11.74 14.0097 10.7908 13.0605 9.62 13.0605C8.44915 13.0605 7.5 14.0097 7.5 15.1805C7.5 16.3514 8.44915 17.3005 9.62 17.3005Z" stroke="currentColor" stroke-width="1.5" stroke-linecap="round" stroke-linejoin="round"/><path id="Vector_3" d="M11.74 15.1805V7.77051" stroke="currentColor" stroke-width="1.5" stroke-linecap="round" stroke-linejoin="round"/><path id="Vector_4" d="M13.13 6.7701L15.47 7.55006C16.04 7.74006 16.5 8.38006 16.5 8.98006V9.60005C16.5 10.4101 15.87 10.8601 15.11 10.6001L12.77 9.82008C12.2 9.63008 11.74 8.99009 11.74 8.39009V7.7701C11.74 6.9701 12.36 6.5101 13.13 6.7701Z" stroke="currentColor" stroke-width="1.5" stroke-linecap="round" stroke-linejoin="round"/></g></g></g></g></svg>