<svg width="24" height="24" viewBox="0 0 24 24" fill="none" xmlns="http://www.w3.org/2000/svg"><g id="vuesax/broken/autobrightness"><g id="vuesax/broken/autobrightness_2"><g id="autobrightness"><path id="Vector" d="M4.24 6.20008C4.24 5.14008 5.11 4.27008 6.17 4.27008H7.9C8.3 4.27008 8.86 4.06008 9.16 3.81008L10.74 2.46008C11.44 1.87008 12.57 1.87008 13.25 2.46008L14.83 3.81008C15.13 4.06008 15.7 4.27008 16.1 4.27008H17.8C18.86 4.27008 19.73 5.14008 19.73 6.20008V7.90008C19.73 8.30008 19.94 8.86008 20.19 9.16008L21.54 10.7401C22.13 11.4401 22.13 12.5701 21.54 13.2501L20.19 14.8301C19.94 15.1301 19.73 15.6901 19.73 16.0901V17.7901C19.73 18.8501 18.86 19.7201 17.8 19.7201H16.1C15.7 19.7201 15.14 19.9301 14.84 20.1801L13.26 21.5301C12.56 22.1201 11.43 22.1201 10.75 21.5301L9.17 20.1801C8.87 19.9301 8.3 19.7201 7.91 19.7201H6.17C5.11 19.7201 4.24 18.8501 4.24 17.7901V16.0801C4.24 15.6901 4.04 15.1201 3.79 14.8301L2.44 13.2401C1.86 12.5501 1.86 11.4301 2.44 10.7401L3 10.0801" stroke="currentColor" stroke-width="1.5" stroke-linecap="round" stroke-linejoin="round"/><path id="Vector_2" d="M8.5 15.9405L12 8.06055L15.5 15.9405" stroke="currentColor" stroke-width="1.5" stroke-linejoin="bevel"/><path id="Vector_3" d="M13.75 13.3105H10.25" stroke="currentColor" stroke-width="1.5" stroke-linecap="round" stroke-linejoin="round"/></g></g></g></svg>