<svg width="24" height="24" viewBox="0 0 24 24" fill="none" xmlns="http://www.w3.org/2000/svg"><g id="vuesax/broken/award"><g id="vuesax/broken/award_2"><g id="award"><path id="Vector" d="M18.02 18.9597C19.74 17.7997 19.74 17.7997 19.74 15.9797V11.0097C19.74 9.18969 19.74 9.18969 18.02 8.02969L13.29 5.29969C12.58 4.88969 11.42 4.88969 10.71 5.29969L5.98001 8.03969C4.26001 9.19969 4.26001 9.19969 4.26001 11.0197V15.9897C4.26001 17.8097 4.26001 17.8097 5.98001 18.9697L10.71 21.6997C11.42 22.1097 12.58 22.1097 13.29 21.6997L14.81 20.8197" stroke="currentColor" stroke-width="1.5" stroke-linecap="round" stroke-linejoin="round"/><path id="Vector_2" d="M17.5 7.63V5C17.5 3 16.5 2 14.5 2H9.5C7.5 2 6.5 3 6.5 5V7.56" stroke="currentColor" stroke-width="1.5" stroke-linecap="round" stroke-linejoin="round"/><path id="Vector_3" d="M12.28 16.4199C12.13 16.3599 11.88 16.3599 11.73 16.4199L10.75 16.8099C10.15 17.0499 9.69 16.7099 9.73 16.0699L9.79 15.0199C9.8 14.8599 9.72 14.6199 9.62 14.4999L8.95 13.6899C8.54 13.1899 8.71 12.6499 9.34 12.4899L10.36 12.2299C10.52 12.1899 10.72 12.0399 10.8 11.9099L11.37 11.0199C11.72 10.4699 12.29 10.4699 12.64 11.0199L13.21 11.9099C13.3 12.0499 13.5 12.1899 13.65 12.2299L14.67 12.4899C15.3 12.6499 15.47 13.1899 15.06 13.6899L14.39 14.4999C14.29 14.6299 14.21 14.8599 14.22 15.0199" stroke="currentColor" stroke-width="1.5" stroke-linecap="round" stroke-linejoin="round"/></g></g></g></svg>