<svg width="24" height="24" viewBox="0 0 24 24" fill="none" xmlns="http://www.w3.org/2000/svg"><g id="vuesax/broken/backward-item"><g id="vuesax/broken/backward-item_2"><g id="backward-item"><path id="Vector" d="M22 5.14999V7.85001C22 10.1 21.1 11 18.85 11H16.15C13.9 11 13 10.1 13 7.85001V5.14999C13 2.89999 13.9 2 16.15 2H18.85C21.1 2 22 2.89999 22 5.14999Z" stroke="currentColor" stroke-width="1.5" stroke-linecap="round" stroke-linejoin="round"/><path id="Vector_2" d="M11 16.15V18.85C11 21.1 10.1 22 7.85 22H5.15C2.9 22 2 21.1 2 18.85V16.15C2 13.9 2.9 13 5.15 13H7.85C10.1 13 11 13.9 11 16.15Z" stroke="currentColor" stroke-width="1.5" stroke-linecap="round" stroke-linejoin="round"/><path id="Vector_3" d="M8.95999 6.75012C9.36999 6.66012 9.84999 6.62012 10.38 6.62012H13V7.85013C13 10.1001 13.9 11.0001 16.15 11.0001H17.38V13.6201C17.38 16.3101 16.31 17.3801 13.62 17.3801H11V16.1501C11 13.9001 10.1 13.0001 7.84999 13.0001H6.62V10.3801" stroke="currentColor" stroke-width="1.5" stroke-linecap="round" stroke-linejoin="round"/></g></g></g></svg>