<svg width="24" height="24" viewBox="0 0 24 24" fill="none" xmlns="http://www.w3.org/2000/svg"><g id="vuesax/broken/bag-tick-2"><g id="vuesax/broken/bag-tick-2_2"><g id="bag-tick-2"><path id="Vector" d="M12 19C14.2091 19 16 17.2091 16 15C16 12.7909 14.2091 11 12 11C9.79086 11 8 12.7909 8 15C8 17.2091 9.79086 19 12 19Z" stroke="currentColor" stroke-width="1.5" stroke-miterlimit="10" stroke-linecap="round" stroke-linejoin="round"/><path id="Vector_2" d="M10.44 14.9995L11.09 15.6495C11.28 15.8395 11.59 15.8495 11.78 15.6595L13.56 14.0195" stroke="currentColor" stroke-width="1.5" stroke-linecap="round" stroke-linejoin="round"/><path id="Vector_3" d="M3.81001 16.56L4.04001 18.43C4.26001 20.39 4.98001 22 9.00001 22H15C19.02 22 19.74 20.39 19.95 18.43L20.7 12.43C20.97 9.99 20.27 8 16 8H8.00001C3.73001 8 3.03001 9.99 3.30001 12.43" stroke="currentColor" stroke-width="1.5" stroke-miterlimit="10" stroke-linecap="round" stroke-linejoin="round"/><path id="Vector_4" d="M7.5 7.66952V6.69952C7.5 4.44952 9.31 2.23952 11.56 2.02952C14.24 1.76952 16.5 3.87952 16.5 6.50952V7.88952" stroke="currentColor" stroke-width="1.5" stroke-miterlimit="10" stroke-linecap="round" stroke-linejoin="round"/></g></g></g></svg>