<svg width="24" height="24" viewBox="0 0 24 24" fill="none" xmlns="http://www.w3.org/2000/svg"><g id="vuesax/broken/battery-empty"><g id="vuesax/broken/battery-empty_2"><g id="battery-empty"><path id="Vector" d="M10.99 5H13C17 5 18 6 18 10V14C18 18 17 19 13 19H7C3 19 2 18 2 14V10C2 6 3 5 7 5" stroke="currentColor" stroke-width="1.5" stroke-linecap="round" stroke-linejoin="round"/><path id="Vector_2" d="M20.5 9.5C22 9.5 22 10 22 11V13C22 14 22 14.5 20.5 14.5" stroke="currentColor" stroke-width="1.5" stroke-linecap="round" stroke-linejoin="round"/><path id="Vector_3" d="M6.38 10C6.62 10.98 6.69 11.99 6.57 12.99C6.53 13.33 6.47 13.67 6.38 14" stroke="currentColor" stroke-width="1.5" stroke-linecap="round" stroke-linejoin="round"/></g></g></g></svg>