<svg width="24" height="24" viewBox="0 0 24 24" fill="none" xmlns="http://www.w3.org/2000/svg"><g id="vuesax/broken/binance-coin-(bnb)"><g id="vuesax/broken/binance-coin-(bnb)_2"><g id="binance-coin-(bnb)"><path id="Vector" d="M9.05 4.95L6 8L8 10L12 6L16 10L18 8L12 2" stroke="currentColor" stroke-width="1.5" stroke-miterlimit="10" stroke-linecap="round" stroke-linejoin="round"/><path id="Vector_2" d="M12 22L6 16L8 14L12 18L16 14L18 16L12 22Z" stroke="currentColor" stroke-width="1.5" stroke-miterlimit="10" stroke-linecap="round" stroke-linejoin="round"/><path id="Vector_3" d="M19.7491 9.7524L17.5005 12.001L19.7491 14.2496L21.9976 12.001L19.7491 9.7524Z" stroke="currentColor" stroke-width="1.5" stroke-miterlimit="10" stroke-linecap="round" stroke-linejoin="round"/><path id="Vector_4" d="M4.24906 9.7524L2.00049 12.001L4.24907 14.2496L6.49764 12.001L4.24906 9.7524Z" stroke="currentColor" stroke-width="1.5" stroke-miterlimit="10" stroke-linecap="round" stroke-linejoin="round"/><path id="Vector_5" d="M11.9988 9.52613L9.52393 12.001L11.9988 14.4758L14.4736 12.001L11.9988 9.52613Z" stroke="currentColor" stroke-width="1.5" stroke-miterlimit="10" stroke-linecap="round" stroke-linejoin="round"/></g></g></g></svg>