<svg width="24" height="24" viewBox="0 0 24 24" fill="none" xmlns="http://www.w3.org/2000/svg"><g id="vuesax/broken/bitcoin-convert"><g id="vuesax/broken/bitcoin-convert_2"><g id="bitcoin-convert"><path id="Vector" d="M23 15.9707C23 19.8407 19.87 22.9707 16 22.9707L17.05 21.2207" stroke="currentColor" stroke-width="1.5" stroke-linecap="round" stroke-linejoin="round"/><path id="Vector_2" d="M1 7.9707C1 4.1007 4.13 0.970703 8 0.970703L6.95 2.7207" stroke="currentColor" stroke-width="1.5" stroke-linecap="round" stroke-linejoin="round"/><g id="Group"><g id="Group_2"><path id="Vector_3" d="M6.62 13.0684H9.43C10.05 13.0684 10.56 13.6284 10.56 14.1984C10.56 14.8184 10.06 15.3284 9.43 15.3284H6.62V13.0684Z" stroke="currentColor" stroke-width="1.5" stroke-miterlimit="10" stroke-linecap="round" stroke-linejoin="round"/><path id="Vector_4" d="M6.62 15.3301H9.84C10.55 15.3301 11.13 15.8301 11.13 16.4601C11.13 17.0801 10.55 17.5901 9.84 17.5901H6.62V15.3301Z" stroke="currentColor" stroke-width="1.5" stroke-miterlimit="10" stroke-linecap="round" stroke-linejoin="round"/><path id="Vector_5" d="M8.41998 17.5801V18.7001" stroke="currentColor" stroke-width="1.5" stroke-miterlimit="10" stroke-linecap="round" stroke-linejoin="round"/><path id="Vector_6" d="M8.41998 11.9492V13.0692" stroke="currentColor" stroke-width="1.5" stroke-miterlimit="10" stroke-linecap="round" stroke-linejoin="round"/></g><path id="Vector_7" d="M2.5 15.3302C2.5 11.9202 5.26 9.16016 8.67 9.16016C8.83 9.16016 8.98 9.17018 9.15 9.18018C12.18 9.41018 14.6 11.8302 14.83 14.8602C14.84 15.0202 14.85 15.1702 14.85 15.3402C14.85 18.7502 12.09 21.5102 8.68 21.5102C6.55 21.5102 4.67 20.4302 3.56 18.7902" stroke="currentColor" stroke-width="1.5" stroke-miterlimit="10" stroke-linecap="round" stroke-linejoin="round"/><path id="Vector_8" d="M21.5 8.66998C21.5 12.08 18.74 14.84 15.33 14.84H14.84C14.61 11.81 12.19 9.38997 9.15997 9.15997V8.66998C9.15997 5.25998 11.92 2.5 15.33 2.5C17.13 2.5 18.75 3.27 19.88 4.5" stroke="currentColor" stroke-width="1.5" stroke-miterlimit="10" stroke-linecap="round" stroke-linejoin="round"/></g></g></g></g></svg>