<svg width="24" height="24" viewBox="0 0 24 24" fill="none" xmlns="http://www.w3.org/2000/svg"><g id="vuesax/broken/blend-2"><g id="vuesax/broken/blend-2_2"><g id="blend-2"><path id="Vector" d="M8.96997 2C12.52 2 15.45 4.64 15.9 8.07C15.95 8.37 15.97 8.68 15.97 9C15.97 12.87 12.84 16 8.96997 16C8.64997 16 8.33997 15.98 8.03997 15.93C4.60997 15.48 1.96997 12.55 1.96997 9C1.96997 7.07 2.74997 5.32 4.01997 4.05" stroke="currentColor" stroke-width="1.5" stroke-linecap="round" stroke-linejoin="round"/><path id="Vector_2" d="M21.97 15.0003C21.97 18.8703 18.84 22.0003 14.97 22.0003C11.42 22.0003 8.48998 19.3603 8.03998 15.9303C8.33998 15.9803 8.64998 16.0003 8.96998 16.0003C12.84 16.0003 15.97 12.8703 15.97 9.00031C15.97 8.68031 15.95 8.37031 15.9 8.07031C19.33 8.52031 21.97 11.4503 21.97 15.0003Z" stroke="currentColor" stroke-width="1.5" stroke-linecap="round" stroke-linejoin="round"/><path id="Vector_3" d="M14.12 14.1201L15.43 15.4101" stroke="currentColor" stroke-width="1.5" stroke-linecap="round" stroke-linejoin="round"/><path id="Vector_4" d="M16.97 12L15.97 11" stroke="currentColor" stroke-width="1.5" stroke-linecap="round" stroke-linejoin="round"/><path id="Vector_5" d="M11.97 17L10.97 16" stroke="currentColor" stroke-width="1.5" stroke-linecap="round" stroke-linejoin="round"/></g></g></g></svg>