<svg width="24" height="24" viewBox="0 0 24 24" fill="none" xmlns="http://www.w3.org/2000/svg"><g id="vuesax/broken/bluetooth-circle"><g id="vuesax/broken/bluetooth-circle_2"><g id="bluetooth-circle"><path id="Vector" d="M8.59009 15.5599L15.2101 9.4899C15.4901 9.2399 15.4801 8.83992 15.1901 8.59992L13.1301 6.87992C12.5901 6.42992 12.1601 6.63991 12.1601 7.33991V16.6699C12.1601 17.3699 12.6001 17.5699 13.1301 17.1299L15.1901 15.4099C15.4801 15.1699 15.4901 14.7699 15.2101 14.5199L8.59009 8.44992" stroke="currentColor" stroke-width="1.5" stroke-miterlimit="10" stroke-linecap="round" stroke-linejoin="round"/><path id="Vector_2" d="M4 6C2.75 7.67 2 9.75 2 12C2 17.52 6.48 22 12 22C17.52 22 22 17.52 22 12C22 6.48 17.52 2 12 2C10.57 2 9.2 2.30001 7.97 2.85001" stroke="currentColor" stroke-width="1.5" stroke-linecap="round" stroke-linejoin="round"/></g></g></g></svg>