<svg width="24" height="24" viewBox="0 0 24 24" fill="none" xmlns="http://www.w3.org/2000/svg"><g id="vuesax/broken/bookmark-2"><g id="vuesax/broken/bookmark-2_2"><g id="bookmark-2"><path id="Vector" d="M14 2C16 2 17 3.01 17 5.03V12.08C17 14.07 15.59 14.84 13.86 13.8L12.54 13C12.24 12.82 11.76 12.82 11.46 13L10.14 13.8C8.41 14.84 7 14.07 7 12.08V5.03C7 3.01 8 2 10 2H14Z" stroke="currentColor" stroke-width="1.5" stroke-linecap="round" stroke-linejoin="round"/><path id="Vector_2" d="M2 14.9309C2 19.9809 4 22.0009 9 22.0009H15C20 22.0009 22 19.9809 22 14.9309V11.9009C22 7.59094 20.54 5.48094 17 4.96094" stroke="currentColor" stroke-width="1.5" stroke-linecap="round" stroke-linejoin="round"/><path id="Vector_3" d="M6.82 4.99023C3.98 5.46023 2.53 7.00023 2.12 9.94023" stroke="currentColor" stroke-width="1.5" stroke-linecap="round" stroke-linejoin="round"/></g></g></g></svg>