<svg width="24" height="24" viewBox="0 0 24 24" fill="none" xmlns="http://www.w3.org/2000/svg"><g id="vuesax/broken/box-tick"><g id="vuesax/broken/box-tick_2"><g id="box-tick"><g id="Group"><g id="Group_2"><path id="Vector" d="M3.17001 7.43945L12 12.5494L20.77 7.46942" stroke="currentColor" stroke-width="1.5" stroke-linecap="round" stroke-linejoin="round"/><path id="Vector_2" d="M12 21.6091V12.5391" stroke="currentColor" stroke-width="1.5" stroke-linecap="round" stroke-linejoin="round"/></g><path id="Vector_3" d="M2.39001 14.83V9.17C2.39001 7.79 3.38 6.11002 4.59 5.44002L9.92999 2.48C11.07 1.84 12.93 1.84 14.07 2.48L19.41 5.44002C20.62 6.11002 21.61 7.79 21.61 9.17V14.83C21.61 14.88 21.61 14.92 21.6 14.97C20.9 14.36 20 14 19 14C18.06 14 17.19 14.33 16.5 14.88C15.58 15.61 15 16.74 15 18C15 18.75 15.21 19.46 15.58 20.06C15.67 20.22 15.78 20.37 15.9 20.51L14.07 21.52C12.93 22.16 11.07 22.16 9.92999 21.52L4.59 18.56" stroke="currentColor" stroke-width="1.5" stroke-linecap="round" stroke-linejoin="round"/></g><g id="Group_3"><path id="Vector_4" d="M23 17.9091C23.02 18.6591 22.82 19.3691 22.46 19.9791C22.26 20.3391 21.99 20.6691 21.69 20.9391C21 21.5791 20.09 21.9691 19.08 21.9991C17.62 22.0291 16.33 21.2791 15.62 20.1291C15.24 19.5391 15.01 18.8291 15 18.0791C14.97 16.8191 15.53 15.6791 16.43 14.9291C17.11 14.3691 17.97 14.0191 18.91 13.9991C21.12 13.9491 22.95 15.6991 23 17.9091Z" stroke="currentColor" stroke-width="1.5" stroke-miterlimit="10" stroke-linecap="round" stroke-linejoin="round"/><path id="Vector_5" d="M17.44 18.0288L18.45 18.9888L20.54 16.9688" stroke="currentColor" stroke-width="1.5" stroke-linecap="round" stroke-linejoin="round"/></g></g></g></g></svg>