<svg width="24" height="24" viewBox="0 0 24 24" fill="none" xmlns="http://www.w3.org/2000/svg"><g id="vuesax/broken/brifecase-timer"><g id="vuesax/broken/brifecase-timer_2"><g id="brifecase-timer"><path id="Vector" d="M12 18.1992C14.2091 18.1992 16 16.4084 16 14.1992C16 11.9901 14.2091 10.1992 12 10.1992C9.79086 10.1992 8 11.9901 8 14.1992C8 16.4084 9.79086 18.1992 12 18.1992Z" stroke="currentColor" stroke-width="1.5" stroke-miterlimit="10" stroke-linecap="round" stroke-linejoin="round"/><path id="Vector_2" d="M12.25 12.9492V13.8792C12.25 14.2292 12.07 14.5592 11.76 14.7392L11 15.1992" stroke="currentColor" stroke-width="1.5" stroke-miterlimit="10" stroke-linecap="round" stroke-linejoin="round"/><path id="Vector_3" d="M20.95 18.43C20.74 20.39 20.02 22 16 22H8.00001C3.98001 22 3.26001 20.39 3.05001 18.43L2.30001 10.43C2.03001 7.99 2.73001 6 7.00001 6H17C21.27 6 21.97 7.99 21.7 10.43L21.37 14" stroke="currentColor" stroke-width="1.5" stroke-miterlimit="10" stroke-linecap="round" stroke-linejoin="round"/><path id="Vector_4" d="M8 6V5.2C8 3.43 8 2 11.2 2H12.8C16 2 16 3.43 16 5.2V6" stroke="currentColor" stroke-width="1.5" stroke-miterlimit="10" stroke-linecap="round" stroke-linejoin="round"/><path id="Vector_5" d="M21.65 11C19.92 12.26 18 13.14 16.01 13.64" stroke="currentColor" stroke-width="1.5" stroke-miterlimit="10" stroke-linecap="round" stroke-linejoin="round"/><path id="Vector_6" d="M2.62 11.2695C4.29 12.4095 6.11 13.2195 8 13.6795" stroke="currentColor" stroke-width="1.5" stroke-miterlimit="10" stroke-linecap="round" stroke-linejoin="round"/></g></g></g></svg>