<svg width="24" height="24" viewBox="0 0 24 24" fill="none" xmlns="http://www.w3.org/2000/svg"><g id="vuesax/broken/broom"><g id="vuesax/broken/broom_2"><g id="broom"><path id="Vector" d="M9.87006 5.66912L6.45006 7.74914L4.89007 5.18914C4.32007 4.24914 4.62006 3.00914 5.56006 2.43914C6.50006 1.86914 7.74006 2.16913 8.31006 3.10913L9.87006 5.66912Z" stroke="currentColor" stroke-width="1.5" stroke-linecap="round" stroke-linejoin="round"/><path id="Vector_2" d="M9.19999 20.4391C9.85999 21.7891 11.46 22.2591 12.74 21.4691L19.17 17.5591C20.46 16.7791 20.77 15.1491 19.88 13.9391L17.11 10.1991C15.91 8.58911 13.65 8.03907 11.82 9.15907L8.66 11.0791C6.82 12.1991 6.25999 14.4591 7.14999 16.2591" stroke="currentColor" stroke-width="1.5" stroke-linecap="round" stroke-linejoin="round"/><path id="Vector_3" d="M10.7567 5.09815L5.63208 8.21875L7.71248 11.6351L12.8371 8.51455L10.7567 5.09815Z" stroke="currentColor" stroke-width="1.5" stroke-linecap="round" stroke-linejoin="round"/><path id="Vector_4" d="M14.3101 16.8105L15.9601 19.5206" stroke="currentColor" stroke-width="1.5" stroke-linecap="round" stroke-linejoin="round"/><path id="Vector_5" d="M11.75 18.3691L13.4 21.0792" stroke="currentColor" stroke-width="1.5" stroke-linecap="round" stroke-linejoin="round"/><path id="Vector_6" d="M16.87 15.25L18.52 17.96" stroke="currentColor" stroke-width="1.5" stroke-linecap="round" stroke-linejoin="round"/></g></g></g></svg>