<svg width="24" height="24" viewBox="0 0 24 24" fill="none" xmlns="http://www.w3.org/2000/svg"><g id="vuesax/broken/bubble"><g id="vuesax/broken/bubble_2"><g id="bubble"><path id="Vector" d="M15.59 12.26C18.42 12.26 20.72 9.96 20.72 7.13C20.72 4.3 18.42 2 15.59 2C12.76 2 10.46 4.3 10.46 7.13C10.46 8.43 10.94 9.60999 11.74 10.51" stroke="currentColor" stroke-width="1.5" stroke-miterlimit="10" stroke-linecap="round" stroke-linejoin="round"/><path id="Vector_2" d="M3.28003 16.3593C3.28003 18.0593 4.66002 19.4393 6.36002 19.4393C8.06002 19.4393 9.44003 18.0593 9.44003 16.3593C9.44003 14.6593 8.06002 13.2793 6.36002 13.2793" stroke="currentColor" stroke-width="1.5" stroke-miterlimit="10" stroke-linecap="round" stroke-linejoin="round"/><path id="Vector_3" d="M16.6201 22.0009C18.0339 22.0009 19.1801 20.8547 19.1801 19.4409C19.1801 18.027 18.0339 16.8809 16.6201 16.8809C15.2062 16.8809 14.0601 18.027 14.0601 19.4409C14.0601 20.8547 15.2062 22.0009 16.6201 22.0009Z" stroke="currentColor" stroke-width="1.5" stroke-miterlimit="10"/></g></g></g></svg>