<svg width="24" height="24" viewBox="0 0 24 24" fill="none" xmlns="http://www.w3.org/2000/svg"><g id="vuesax/broken/bucket-circle"><g id="vuesax/broken/bucket-circle_2"><g id="bucket-circle"><g id="Group"><path id="Vector" d="M9.41 15.9496L7.01998 13.5598C6.21998 12.7598 6.21998 11.9597 7.01998 11.1697L11.01 7.17969L15.4 11.5697C15.62 11.7897 15.62 12.1497 15.4 12.3697L11.81 15.9597C11.01 16.7497 10.21 16.7496 9.41 15.9496Z" stroke="currentColor" stroke-width="1.5" stroke-miterlimit="10" stroke-linecap="round" stroke-linejoin="round"/><path id="Vector_2" d="M10.21 6.37988L11.01 7.17987" stroke="currentColor" stroke-width="1.5" stroke-miterlimit="10" stroke-linecap="round" stroke-linejoin="round"/><path id="Vector_3" d="M6.45999 12.3294L15.49 11.9395" stroke="currentColor" stroke-width="1.5" stroke-miterlimit="10" stroke-linecap="round" stroke-linejoin="round"/><path id="Vector_4" d="M16.47 14.1699C16.47 14.1699 15.37 15.3699 15.37 16.0999C15.37 16.7099 15.87 17.1998 16.47 17.1998C17.08 17.1998 17.57 16.6999 17.57 16.0999C17.58 15.3599 16.47 14.1699 16.47 14.1699Z" stroke="currentColor" stroke-width="1.5" stroke-linecap="round" stroke-linejoin="round"/></g><path id="Vector_5" d="M4 6C2.75 7.67 2 9.75 2 12C2 17.52 6.48 22 12 22C17.52 22 22 17.52 22 12C22 6.48 17.52 2 12 2C10.57 2 9.2 2.29998 7.97 2.84998" stroke="currentColor" stroke-width="1.5" stroke-linecap="round" stroke-linejoin="round"/></g></g></g></svg>