<svg width="24" height="24" viewBox="0 0 24 24" fill="none" xmlns="http://www.w3.org/2000/svg"><g id="vuesax/broken/bucket-square"><g id="vuesax/broken/bucket-square_2"><g id="bucket-square"><g id="Group"><path id="Vector" d="M8.94002 16.9299L6.11 14.0998C5.17 13.1598 5.17 12.2098 6.11 11.2698L10.83 6.5498L16.02 11.7398C16.28 11.9998 16.28 12.4199 16.02 12.6799L11.77 16.9299C10.83 17.8699 9.88002 17.8699 8.94002 16.9299Z" stroke="currentColor" stroke-width="1.5" stroke-miterlimit="10" stroke-linecap="round" stroke-linejoin="round"/><path id="Vector_2" d="M9.88 5.59961L10.83 6.53961" stroke="currentColor" stroke-width="1.5" stroke-miterlimit="10" stroke-linecap="round" stroke-linejoin="round"/><path id="Vector_3" d="M5.44 12.6399L16.13 12.1699" stroke="currentColor" stroke-width="1.5" stroke-miterlimit="10" stroke-linecap="round" stroke-linejoin="round"/><path id="Vector_4" d="M17.3 14.8096C17.3 14.8096 15.99 16.2295 15.99 17.0995C15.99 17.8195 16.58 18.4095 17.3 18.4095C18.02 18.4095 18.61 17.8195 18.61 17.0995C18.6 16.2295 17.3 14.8096 17.3 14.8096Z" stroke="currentColor" stroke-width="1.5" stroke-linecap="round" stroke-linejoin="round"/></g><path id="Vector_5" d="M2 12.97V15C2 20 4 22 9 22H15C20 22 22 20 22 15V9C22 4 20 2 15 2H9C4 2 2 4 2 9" stroke="currentColor" stroke-width="1.5" stroke-linecap="round" stroke-linejoin="round"/></g></g></g></svg>