<svg width="24" height="24" viewBox="0 0 24 24" fill="none" xmlns="http://www.w3.org/2000/svg"><g id="vuesax/broken/bucket"><g id="vuesax/broken/bucket_2"><g id="vuesax/broken/bucket_3"><path id="Vector" d="M9.68999 3.29004L17.04 10.6401C17.41 11.0101 17.41 11.61 17.04 11.98L11.02 18.0001C9.68 19.3401 8.34999 19.3401 7.00999 18.0001L3 13.9901C1.66 12.6501 1.66 11.32 3 9.98004L7.31 5.67004" stroke="currentColor" stroke-width="1.5" stroke-miterlimit="10" stroke-linecap="round" stroke-linejoin="round"/><path id="Vector_2" d="M8.34998 1.9502L9.68998 3.29016" stroke="currentColor" stroke-width="1.5" stroke-miterlimit="10" stroke-linecap="round" stroke-linejoin="round"/><path id="Vector_3" d="M2.07001 11.9197L17.19 11.2598" stroke="currentColor" stroke-width="1.5" stroke-miterlimit="10" stroke-linecap="round" stroke-linejoin="round"/><path id="Vector_4" d="M3 22H10" stroke="currentColor" stroke-width="1.5" stroke-miterlimit="10" stroke-linecap="round" stroke-linejoin="round"/><path id="Vector_5" d="M13 22H16" stroke="currentColor" stroke-width="1.5" stroke-miterlimit="10" stroke-linecap="round" stroke-linejoin="round"/><path id="Vector_6" d="M18.85 15C18.85 15 17 17.01 17 18.24C17 19.26 17.83 20.09 18.85 20.09C19.87 20.09 20.7 19.26 20.7 18.24C20.7 17.01 18.85 15 18.85 15Z" stroke="currentColor" stroke-width="1.5" stroke-linecap="round" stroke-linejoin="round"/></g></g></g></svg>