<svg width="24" height="24" viewBox="0 0 24 24" fill="none" xmlns="http://www.w3.org/2000/svg"><g id="vuesax/broken/calendar-circle"><g id="vuesax/broken/calendar-circle_2"><g id="calendar-circle"><g id="Group"><path id="Vector" d="M9.89014 5.83008V7.83008" stroke="currentColor" stroke-width="1.5" stroke-miterlimit="10" stroke-linecap="round" stroke-linejoin="round"/><path id="Vector_2" d="M14.1099 5.83008V7.83008" stroke="currentColor" stroke-width="1.5" stroke-miterlimit="10" stroke-linecap="round" stroke-linejoin="round"/><path id="Vector_3" d="M7.53003 10.1406H16.47" stroke="currentColor" stroke-width="1.5" stroke-miterlimit="10" stroke-linecap="round" stroke-linejoin="round"/><path id="Vector_4" d="M13.5 17.6699H10.5C8 17.6699 6.5 15.8699 6.5 13.6699V10.6699C6.5 8.46992 8 6.66992 10.5 6.66992H13.5C16 6.66992 17.5 8.46992 17.5 10.6699V13.6699C17.5 15.8699 16 17.6699 13.5 17.6699Z" stroke="currentColor" stroke-width="1.5" stroke-miterlimit="10" stroke-linecap="round" stroke-linejoin="round"/></g><path id="Vector_5" d="M4 6C2.75 7.67 2 9.75 2 12C2 17.52 6.48 22 12 22C17.52 22 22 17.52 22 12C22 6.48 17.52 2 12 2C10.57 2 9.2 2.30001 7.97 2.85001" stroke="currentColor" stroke-width="1.5" stroke-linecap="round" stroke-linejoin="round"/></g></g></g></svg>