<svg width="24" height="24" viewBox="0 0 24 24" fill="none" xmlns="http://www.w3.org/2000/svg"><g id="vuesax/broken/camera-slash"><g id="vuesax/broken/camera-slash_2"><g id="camera-slash"><path id="Vector" d="M6 10H9" stroke="currentColor" stroke-width="1.5" stroke-linecap="round" stroke-linejoin="round"/><path id="Vector_2" d="M6.76001 21.9998H17.24C20 21.9998 21.1 20.3098 21.23 18.2498L21.75 9.98977C21.81 9.05977 21.52 8.18977 21.01 7.50977" stroke="currentColor" stroke-width="1.5" stroke-linecap="round" stroke-linejoin="round"/><path id="Vector_3" d="M2.77002 18.25C2.82002 19.07 3.03002 19.84 3.44002 20.46" stroke="currentColor" stroke-width="1.5" stroke-linecap="round" stroke-linejoin="round"/><path id="Vector_4" d="M17.9999 6C17.3899 6 16.8299 5.65 16.5499 5.11L15.8299 3.66C15.3699 2.75 14.1699 2 13.1499 2H10.8599C9.82992 2 8.62992 2.75 8.16992 3.66L7.44992 5.11C7.16992 5.65 6.60992 6 5.99992 6C3.82992 6 2.10992 7.83 2.24992 9.99L2.49992 14.02" stroke="currentColor" stroke-width="1.5" stroke-linecap="round" stroke-linejoin="round"/><path id="Vector_5" d="M10 17.3095C10.55 17.7395 11.25 17.9995 12 17.9995C13.79 17.9995 15.25 16.5395 15.25 14.7495C15.25 14.1095 15.07 13.5195 14.75 13.0195" stroke="currentColor" stroke-width="1.5" stroke-linecap="round" stroke-linejoin="round"/><path id="Vector_6" d="M22 2L2 22" stroke="currentColor" stroke-width="1.5" stroke-linecap="round" stroke-linejoin="round"/></g></g></g></svg>