<svg width="24" height="24" viewBox="0 0 24 24" fill="none" xmlns="http://www.w3.org/2000/svg"><g id="vuesax/broken/card-coin"><g id="vuesax/broken/card-coin_2"><g id="card-coin"><path id="Vector" d="M2 17.0605H12" stroke="currentColor" stroke-width="1.5" stroke-miterlimit="10" stroke-linecap="round" stroke-linejoin="round"/><path id="Vector_2" d="M5.69 22H4.22998C2.44998 22 2.01001 21.56 2.01001 19.8V15.7C2.01001 13.94 2.44998 13.5 4.22998 13.5H9.78998C11.57 13.5 12.01 13.94 12.01 15.7V19.81C12.01 21.57 11.57 22.01 9.78998 22.01" stroke="currentColor" stroke-width="1.5" stroke-linecap="round" stroke-linejoin="round"/><g id="Group"><path id="Vector_3" d="M22 15C22 18.87 18.87 22 15 22L16.05 20.25" stroke="currentColor" stroke-width="1.5" stroke-linecap="round" stroke-linejoin="round"/><path id="Vector_4" d="M2 9C2 5.13 5.13 2 9 2L7.95001 3.75" stroke="currentColor" stroke-width="1.5" stroke-linecap="round" stroke-linejoin="round"/></g><path id="Vector_5" d="M18.5 11C20.99 11 23 8.99 23 6.5C23 4.01 20.99 2 18.5 2C16.01 2 14 4.01 14 6.5C14 7.09 14.11 7.65 14.32 8.16" stroke="currentColor" stroke-width="1.5" stroke-linecap="round" stroke-linejoin="round"/></g></g></g></svg>