<svg width="24" height="24" viewBox="0 0 24 24" fill="none" xmlns="http://www.w3.org/2000/svg"><g id="vuesax/broken/card-edit"><g id="vuesax/broken/card-edit_2"><g id="card-edit"><path id="Vector" d="M2 8.5H11.5" stroke="currentColor" stroke-width="1.5" stroke-miterlimit="10" stroke-linecap="round" stroke-linejoin="round"/><path id="Vector_2" d="M6 16.5H8" stroke="currentColor" stroke-width="1.5" stroke-miterlimit="10" stroke-linecap="round" stroke-linejoin="round"/><path id="Vector_3" d="M10.5 16.5H14.5" stroke="currentColor" stroke-width="1.5" stroke-miterlimit="10" stroke-linecap="round" stroke-linejoin="round"/><path id="Vector_4" d="M2 11.03V7.89C2 4.38 2.89 3.5 6.44 3.5H14.5" stroke="currentColor" stroke-width="1.5" stroke-linecap="round" stroke-linejoin="round"/><path id="Vector_5" d="M22 12.0303V16.1103C22 19.6203 21.11 20.5003 17.56 20.5003H6.44C2.89 20.5003 2 19.6203 2 16.1103V15.0003" stroke="currentColor" stroke-width="1.5" stroke-linecap="round" stroke-linejoin="round"/><path id="Vector_6" d="M19.08 4.13031L15.37 7.84031C15.23 7.98031 15.09 8.26031 15.06 8.46031L14.86 9.88031C14.79 10.3903 15.15 10.7503 15.66 10.6803L17.08 10.4803C17.28 10.4503 17.56 10.3103 17.7 10.1703L21.41 6.46031C22.05 5.82031 22.35 5.08031 21.41 4.14031C20.46 3.19031 19.72 3.49031 19.08 4.13031Z" stroke="currentColor" stroke-width="1.5" stroke-miterlimit="10" stroke-linecap="round" stroke-linejoin="round"/><path id="Vector_7" d="M18.55 4.66016C18.87 5.79016 19.7501 6.67016 20.8701 6.98016" stroke="currentColor" stroke-width="1.5" stroke-miterlimit="10" stroke-linecap="round" stroke-linejoin="round"/></g></g></g></svg>