<svg width="24" height="24" viewBox="0 0 24 24" fill="none" xmlns="http://www.w3.org/2000/svg"><g id="vuesax/broken/chart-square"><g id="vuesax/broken/chart-square_2"><g id="chart-square"><path id="Vector" d="M2 12.83V15C2 20 4 22 9 22H15C20 22 22 20 22 15V9C22 4 20 2 15 2H9C4 2 2 4 2 9" stroke="currentColor" stroke-width="1.5" stroke-linecap="round" stroke-linejoin="round"/><g id="Group"><path id="Vector_2" d="M10.11 11.1494H7.46005C6.83005 11.1494 6.32007 11.6594 6.32007 12.2894V17.4094H10.11V11.1494V11.1494Z" stroke="currentColor" stroke-width="1.5" stroke-miterlimit="10" stroke-linecap="round" stroke-linejoin="round"/><path id="Vector_3" d="M12.7601 6.59961H11.2401C10.6101 6.59961 10.1001 7.10962 10.1001 7.73962V17.3997H13.8901V7.73962C13.8901 7.10962 13.3901 6.59961 12.7601 6.59961Z" stroke="currentColor" stroke-width="1.5" stroke-miterlimit="10" stroke-linecap="round" stroke-linejoin="round"/><path id="Vector_4" d="M16.5501 12.8496H13.9001V17.3997H17.6902V13.9896C17.6802 13.3596 17.1701 12.8496 16.5501 12.8496Z" stroke="currentColor" stroke-width="1.5" stroke-miterlimit="10" stroke-linecap="round" stroke-linejoin="round"/></g></g></g></g></svg>