<svg width="24" height="24" viewBox="0 0 24 24" fill="none" xmlns="http://www.w3.org/2000/svg"><g id="vuesax/broken/civic-(cvc)"><g id="vuesax/broken/civic-(cvc)_2"><g id="civic-(cvc)"><path id="Vector" d="M12.6399 8.46973C13.4399 8.67973 14.0899 9.32973 14.2899 10.1297C14.5699 11.2297 14.0799 12.2497 13.2399 12.7697V14.7497C13.2399 15.4397 12.6799 15.9997 11.9899 15.9997C11.2999 15.9997 10.7399 15.4397 10.7399 14.7497V12.7697C10.0599 12.3497 9.60986 11.5997 9.60986 10.7497" stroke="currentColor" stroke-width="1.5" stroke-miterlimit="10" stroke-linecap="round" stroke-linejoin="round"/><path id="Vector_2" d="M21.55 9.03C20.28 4.96 16.49 2 12 2C7.89 2 4.36001 4.48 2.82001 8.02C2.29001 9.24 2 10.58 2 12C2 17.52 6.48 22 12 22C16.47 22 20.26 19.06 21.54 15.01" stroke="currentColor" stroke-width="1.5" stroke-miterlimit="10" stroke-linecap="round" stroke-linejoin="round"/></g></g></g></svg>