<svg width="24" height="24" viewBox="0 0 24 24" fill="none" xmlns="http://www.w3.org/2000/svg"><g id="vuesax/broken/clipboard-export"><g id="vuesax/broken/clipboard-export_2"><g id="clipboard-export"><path id="Vector" d="M3 9.99953C3 5.43953 4.67 4.19953 8 4.01953" stroke="currentColor" stroke-width="1.5" stroke-miterlimit="10" stroke-linecap="round" stroke-linejoin="round"/><path id="Vector_2" d="M14 22H9C4 22 3 20 3 16V14" stroke="currentColor" stroke-width="1.5" stroke-miterlimit="10" stroke-linecap="round" stroke-linejoin="round"/><path id="Vector_3" d="M16 4.01953C19.33 4.19953 21 5.42953 21 9.99953V14.9995" stroke="currentColor" stroke-width="1.5" stroke-miterlimit="10" stroke-linecap="round" stroke-linejoin="round"/><path id="Vector_4" d="M11 2H10.04C9.03999 2 8.03999 2 8.03999 4C8.03999 6 9.03999 6 10.04 6H14.04C16.04 6 16.04 5 16.04 4C16.04 2 15.04 2 14.04 2" stroke="currentColor" stroke-width="1.5" stroke-miterlimit="10" stroke-linecap="round" stroke-linejoin="round"/><path id="Vector_5" d="M15 19V16H18" stroke="currentColor" stroke-width="1.5" stroke-miterlimit="10" stroke-linecap="round" stroke-linejoin="round"/><path id="Vector_6" d="M21 22L15.04 16.04" stroke="currentColor" stroke-width="1.5" stroke-miterlimit="10" stroke-linecap="round" stroke-linejoin="round"/></g></g></g></svg>