<svg width="24" height="24" viewBox="0 0 24 24" fill="none" xmlns="http://www.w3.org/2000/svg"><g id="vuesax/broken/clipboard"><g id="vuesax/broken/clipboard_2"><g id="clipboard"><path id="Vector" d="M13.89 2.88014C17.03 3.37014 18.5 4.65014 18.63 7.15014C18.67 7.76014 18.62 8.45014 18.5 9.22014L17.77 13.9101C17.15 17.8201 15.34 19.1401 11.43 18.5301L6.74 17.7901C5.39 17.5801 4.35 17.2201 3.59 16.6801C2.14 15.6701 1.72 14.0101 2.12 11.4501L2.86 6.76014C3.48 2.85014 5.29 1.53014 9.2 2.14014" stroke="currentColor" stroke-width="1.5" stroke-linecap="round" stroke-linejoin="round"/><path id="Vector_2" d="M20.5 13.4704L19 17.9804C17.75 21.7404 15.75 22.7404 11.99 21.4904L7.48 19.9904C5.21 19.2404 3.95 18.2004 3.59 16.6804C4.35 17.2204 5.39 17.5804 6.74 17.7904L11.43 18.5304C15.34 19.1404 17.15 17.8204 17.77 13.9104L18.5 9.22039C18.62 8.45039 18.67 7.76039 18.63 7.15039C21.02 8.42039 21.54 10.3404 20.5 13.4704Z" stroke="currentColor" stroke-width="1.5" stroke-linecap="round" stroke-linejoin="round"/><path id="Vector_3" d="M8.24 8.98C9.20098 8.98 9.98 8.20098 9.98 7.24C9.98 6.27902 9.20098 5.5 8.24 5.5C7.27902 5.5 6.5 6.27902 6.5 7.24C6.5 8.20098 7.27902 8.98 8.24 8.98Z" stroke="currentColor" stroke-width="1.5" stroke-linecap="round" stroke-linejoin="round"/></g></g></g></svg>