<svg width="24" height="24" viewBox="0 0 24 24" fill="none" xmlns="http://www.w3.org/2000/svg"><g id="vuesax/broken/clock"><g id="vuesax/broken/clock_2"><g id="clock"><path id="Vector" d="M12 9.66016V12.4502L13.4 13.8502" stroke="currentColor" stroke-width="1.5" stroke-linecap="round" stroke-linejoin="round"/><path id="Vector_2" d="M6.96 7.89C8.16 6.43 9.97 5.5 12 5.5C15.59 5.5 18.5 8.41 18.5 12C18.5 14.08 17.52 15.94 16 17.13H15.99C14.89 17.99 13.51 18.5 12 18.5C10.51 18.5 9.14 18 8.04 17.15H8.03C6.49 15.96 5.5 14.1 5.5 12" stroke="currentColor" stroke-width="1.5" stroke-linecap="round" stroke-linejoin="round"/><path id="Vector_3" d="M8.03003 17.1509H8.04003C9.14003 18.0009 10.51 18.5009 12 18.5009C13.51 18.5009 14.89 17.9909 15.99 17.1309H16L15.49 19.6009C15 21.5009 13.9 22.0009 12.55 22.0009H11.46C10.11 22.0009 9.00003 21.5009 8.52003 19.5909L8.03003 17.1509Z" stroke="currentColor" stroke-width="1.5" stroke-linecap="round" stroke-linejoin="round"/><path id="Vector_4" d="M8.03003 6.85H8.04003C9.14003 6 10.51 5.5 12 5.5C13.51 5.5 14.89 6.01 15.99 6.87H16L15.49 4.4C15 2.5 13.9 2 12.55 2H11.46C10.11 2 9.00003 2.5 8.52003 4.41L8.03003 6.85Z" stroke="currentColor" stroke-width="1.5" stroke-linecap="round" stroke-linejoin="round"/></g></g></g></svg>