<svg width="24" height="24" viewBox="0 0 24 24" fill="none" xmlns="http://www.w3.org/2000/svg"><g id="vuesax/broken/cloud-lightning"><g id="vuesax/broken/cloud-lightning_2"><g id="cloud-lightning"><path id="Vector" d="M9.22995 19.1594H10.23V21.4894C10.23 21.8294 10.66 21.9994 10.88 21.7394L13.33 18.9494C13.63 18.6094 13.5 18.3294 13.05 18.3294H12.05V15.9994C12.05 15.6594 11.62 15.4894 11.4 15.7494L8.94995 18.5394C8.64995 18.8794 8.77995 19.1594 9.22995 19.1594Z" stroke="currentColor" stroke-width="1.5" stroke-miterlimit="10" stroke-linecap="round" stroke-linejoin="round"/><path id="Vector_2" d="M11.9999 3.98007C8.00994 3.64007 3.65994 7.09007 5.61994 12.5601" stroke="currentColor" stroke-width="1.5" stroke-miterlimit="10" stroke-linecap="round" stroke-linejoin="round"/><path id="Vector_3" d="M16.61 19.9995C17.95 20.0095 19.24 19.5095 20.23 18.6095C23.5 15.7495 21.75 10.0095 17.44 9.46953C17.2 8.01953 16.67 6.87953 15.96 6.01953" stroke="currentColor" stroke-width="1.5" stroke-miterlimit="10" stroke-linecap="round" stroke-linejoin="round"/><path id="Vector_4" d="M7.27999 12.9708C6.74999 12.7008 6.15999 12.5608 5.56999 12.5708C0.909986 12.9008 0.919986 19.6808 5.56999 20.0108" stroke="currentColor" stroke-width="1.5" stroke-miterlimit="10" stroke-linecap="round" stroke-linejoin="round"/><path id="Vector_5" d="M15.8199 9.89047C16.3399 9.63047 16.8999 9.49047 17.4799 9.48047" stroke="currentColor" stroke-width="1.5" stroke-miterlimit="10" stroke-linecap="round" stroke-linejoin="round"/></g></g></g></svg>