<svg width="24" height="24" viewBox="0 0 24 24" fill="none" xmlns="http://www.w3.org/2000/svg"><g id="vuesax/broken/cloud-remove"><g id="vuesax/broken/cloud-remove_2"><g id="cloud-remove"><g id="Group"><path id="Vector" d="M5.54003 11.1211C0.860029 11.4511 0.860029 18.2611 5.54003 18.5911H7.46003" stroke="currentColor" stroke-width="1.5" stroke-miterlimit="10" stroke-linecap="round" stroke-linejoin="round"/><path id="Vector_2" d="M17.47 8C21.8 8.55 23.55 14.32 20.27 17.19C19.27 18.1 17.98 18.6 16.63 18.59H16.54" stroke="currentColor" stroke-width="1.5" stroke-miterlimit="10" stroke-linecap="round" stroke-linejoin="round"/><path id="Vector_3" d="M5.59003 11.1207C3.06003 4.09071 10.92 0.380714 15.13 3.70071" stroke="currentColor" stroke-width="1.5" stroke-miterlimit="10" stroke-linecap="round" stroke-linejoin="round"/></g><g id="Group_2"><path id="Vector_4" d="M12.9701 17.61L10.8601 15.5" stroke="currentColor" stroke-width="1.5" stroke-miterlimit="10" stroke-linecap="round" stroke-linejoin="round"/><path id="Vector_5" d="M12.9501 15.5195L10.8301 17.6395" stroke="currentColor" stroke-width="1.5" stroke-miterlimit="10" stroke-linecap="round" stroke-linejoin="round"/></g><path id="Vector_6" d="M17 16.5293C17 17.2693 16.84 17.9693 16.54 18.5893C16.46 18.7693 16.37 18.9393 16.27 19.0993C15.41 20.5493 13.82 21.5293 12 21.5293C10.18 21.5293 8.59 20.5493 7.73 19.0993C7.63 18.9393 7.54 18.7693 7.46 18.5893C7.16 17.9693 7 17.2693 7 16.5293C7 13.7693 9.24 11.5293 12 11.5293C14.76 11.5293 17 13.7693 17 16.5293Z" stroke="currentColor" stroke-width="1.5" stroke-miterlimit="10" stroke-linecap="round" stroke-linejoin="round"/></g></g></g></svg>