<svg width="24" height="24" viewBox="0 0 24 24" fill="none" xmlns="http://www.w3.org/2000/svg"><g id="vuesax/broken/cloud-cross"><g id="vuesax/broken/cloud-cross_2"><g id="cloud-cross"><path id="Vector" d="M12.3901 18.5898L9.56006 21.4098" stroke="currentColor" stroke-width="1.5" stroke-miterlimit="10" stroke-linecap="round" stroke-linejoin="round"/><path id="Vector_2" d="M12.3901 21.4098L9.56006 18.5898" stroke="currentColor" stroke-width="1.5" stroke-miterlimit="10" stroke-linecap="round" stroke-linejoin="round"/><path id="Vector_3" d="M12.0001 3.98007C8.01007 3.64007 3.66007 7.09007 5.62007 12.5601" stroke="currentColor" stroke-width="1.5" stroke-miterlimit="10" stroke-linecap="round" stroke-linejoin="round"/><path id="Vector_4" d="M16.61 19.9995C17.95 20.0095 19.24 19.5095 20.23 18.6095C23.5 15.7495 21.75 10.0095 17.44 9.46953C17.2 8.01953 16.67 6.87953 15.96 6.01953" stroke="currentColor" stroke-width="1.5" stroke-miterlimit="10" stroke-linecap="round" stroke-linejoin="round"/><path id="Vector_5" d="M7.28011 12.9708C6.75011 12.7008 6.16011 12.5608 5.57011 12.5708C0.910109 12.9008 0.920108 19.6808 5.57011 20.0108" stroke="currentColor" stroke-width="1.5" stroke-miterlimit="10" stroke-linecap="round" stroke-linejoin="round"/><path id="Vector_6" d="M15.8201 9.89047C16.3401 9.63047 16.9001 9.49047 17.4801 9.48047" stroke="currentColor" stroke-width="1.5" stroke-miterlimit="10" stroke-linecap="round" stroke-linejoin="round"/></g></g></g></svg>