<svg width="24" height="24" viewBox="0 0 24 24" fill="none" xmlns="http://www.w3.org/2000/svg"><g id="vuesax/broken/cloud-notif"><g id="vuesax/broken/cloud-notif_2"><g id="cloud-notif"><path id="Vector" d="M6.91992 5.73039C8.59992 4.14039 11.1699 3.54039 13.3799 4.25039" stroke="currentColor" stroke-width="1.5" stroke-miterlimit="10" stroke-linecap="round" stroke-linejoin="round"/><path id="Vector_2" d="M21.8999 13.9591C22.1699 15.6291 21.6999 17.4191 20.2699 18.6791C19.2799 19.5891 17.9799 20.0891 16.6299 20.0791H5.53994C0.869942 19.7391 0.859942 12.9391 5.53994 12.5991H5.58994C5.19994 11.5191 5.05994 10.5191 5.10994 9.61914" stroke="currentColor" stroke-width="1.5" stroke-miterlimit="10" stroke-linecap="round" stroke-linejoin="round"/><path id="Vector_3" d="M7.26009 13.0096C6.74009 12.7496 6.17009 12.6096 5.59009 12.5996" stroke="currentColor" stroke-width="1.5" stroke-miterlimit="10" stroke-linecap="round" stroke-linejoin="round"/><path id="Vector_4" d="M21.97 8.5C21.97 9.6 21.46 10.59 20.65 11.23C20.06 11.71 19.29 12 18.47 12C16.54 12 14.97 10.43 14.97 8.5C14.97 7.54 15.36 6.67 16 6.04V6.03C16.63 5.39 17.51 5 18.47 5C20.4 5 21.97 6.57 21.97 8.5Z" stroke="currentColor" stroke-width="1.5" stroke-miterlimit="10" stroke-linecap="round" stroke-linejoin="round"/></g></g></g></svg>