<svg width="24" height="24" viewBox="0 0 24 24" fill="none" xmlns="http://www.w3.org/2000/svg"><g id="vuesax/broken/cloud-snow"><g id="vuesax/broken/cloud-snow_2"><g id="cloud-snow"><path id="Vector" d="M11.9999 3.98007C8.00994 3.64007 3.65994 7.09007 5.61994 12.5601" stroke="currentColor" stroke-width="1.5" stroke-miterlimit="10" stroke-linecap="round" stroke-linejoin="round"/><path id="Vector_2" d="M16.61 19.9995C17.95 20.0095 19.24 19.5095 20.23 18.6095C23.5 15.7495 21.75 10.0095 17.44 9.46953C17.2 8.01953 16.67 6.87953 15.96 6.01953" stroke="currentColor" stroke-width="1.5" stroke-miterlimit="10" stroke-linecap="round" stroke-linejoin="round"/><path id="Vector_3" d="M7.27999 12.9708C6.74999 12.7008 6.15999 12.5608 5.56999 12.5708C0.909986 12.9008 0.919986 19.6808 5.56999 20.0108" stroke="currentColor" stroke-width="1.5" stroke-miterlimit="10" stroke-linecap="round" stroke-linejoin="round"/><path id="Vector_4" d="M15.8199 9.89047C16.3399 9.63047 16.8999 9.49047 17.4799 9.48047" stroke="currentColor" stroke-width="1.5" stroke-miterlimit="10" stroke-linecap="round" stroke-linejoin="round"/><path id="Vector_5" d="M12.9955 18.5H13.0045" stroke="currentColor" stroke-width="2" stroke-linecap="round" stroke-linejoin="round"/><path id="Vector_6" d="M8.9955 18.5H9.0045" stroke="currentColor" stroke-width="2" stroke-linecap="round" stroke-linejoin="round"/><path id="Vector_7" d="M10.9955 21.5H11.0045" stroke="currentColor" stroke-width="2" stroke-linecap="round" stroke-linejoin="round"/></g></g></g></svg>