<svg width="24" height="24" viewBox="0 0 24 24" fill="none" xmlns="http://www.w3.org/2000/svg"><g id="vuesax/broken/convert-3d-cube"><g id="vuesax/broken/convert-3d-cube_2"><g id="convert-3d-cube"><g id="Group"><path id="Vector" d="M22 15C22 18.87 18.87 22 15 22L16.05 20.25" stroke="currentColor" stroke-width="1.5" stroke-linecap="round" stroke-linejoin="round"/><path id="Vector_2" d="M2 9C2 5.13 5.13 2 9 2L7.95 3.75" stroke="currentColor" stroke-width="1.5" stroke-linecap="round" stroke-linejoin="round"/></g><g id="Group_2"><g id="Group_3"><path id="Vector_3" d="M13.7 4.44922L17.68 6.74921L21.62 4.45923" stroke="currentColor" stroke-width="1.5" stroke-linecap="round" stroke-linejoin="round"/><path id="Vector_4" d="M17.68 10.8183V6.73828" stroke="currentColor" stroke-width="1.5" stroke-linecap="round" stroke-linejoin="round"/></g><path id="Vector_5" d="M16.74 2.21L14.34 3.53996C13.8 3.83996 13.35 4.59995 13.35 5.21995V7.75999C13.35 8.37999 13.79 9.13998 14.34 9.43998L16.74 10.77C17.25 11.06 18.09 11.06 18.61 10.77L21.01 9.43998C21.55 9.13998 22 8.37999 22 7.75999V5.21995C22 4.59995 21.56 3.83996 21.01 3.53996L18.61 2.21C18.1 1.93 17.26 1.93 16.74 2.21Z" stroke="currentColor" stroke-width="1.5" stroke-linecap="round" stroke-linejoin="round"/></g><g id="Group_4"><g id="Group_5"><path id="Vector_6" d="M2.34998 15.4492L6.31998 17.7492L10.27 15.4592" stroke="currentColor" stroke-width="1.5" stroke-linecap="round" stroke-linejoin="round"/><path id="Vector_7" d="M6.31998 21.8183V17.7383" stroke="currentColor" stroke-width="1.5" stroke-linecap="round" stroke-linejoin="round"/></g><path id="Vector_8" d="M10.65 16.2295C10.65 15.6095 10.21 14.8495 9.66 14.5495L7.25999 13.2195C6.74999 12.9295 5.91 12.9295 5.39 13.2195L2.99001 14.5495C2.45001 14.8495 2 15.6095 2 16.2295V18.7695C2 19.3895 2.44001 20.1495 2.99001 20.4495L5.39 21.7795C5.9 22.0695 6.73999 22.0695 7.25999 21.7795L9.66 20.4495" stroke="currentColor" stroke-width="1.5" stroke-linecap="round" stroke-linejoin="round"/></g></g></g></g></svg>