<svg width="24" height="24" viewBox="0 0 24 24" fill="none" xmlns="http://www.w3.org/2000/svg"><g id="vuesax/broken/copyright"><g id="vuesax/broken/copyright_2"><g id="copyright"><path id="Vector" d="M14.88 15C14.17 15.62 13.25 16 12.24 16C10.03 16 8.23999 14.21 8.23999 12C8.23999 9.79 10.03 8 12.24 8C13.25 8 14.17 8.38 14.88 9" stroke="currentColor" stroke-width="1.5" stroke-linecap="round" stroke-linejoin="round"/><path id="Vector_2" d="M4 6C2.75 7.67 2 9.75 2 12C2 17.52 6.48 22 12 22C17.52 22 22 17.52 22 12C22 6.48 17.52 2 12 2C10.57 2 9.19997 2.29998 7.96997 2.84998" stroke="currentColor" stroke-width="1.5" stroke-linecap="round" stroke-linejoin="round"/></g></g></g></svg>