<svg width="24" height="24" viewBox="0 0 24 24" fill="none" xmlns="http://www.w3.org/2000/svg"><g id="vuesax/broken/cpu-setting"><g id="vuesax/broken/cpu-setting_2"><g id="cpu-setting"><path id="Vector" d="M20 9.6C20 5.6 18.4 4 14.4 4H9.6C5.6 4 4 5.6 4 9.6V14.4C4 18.4 5.6 20 9.6 20" stroke="currentColor" stroke-width="1.5" stroke-linecap="round" stroke-linejoin="round"/><path id="Vector_2" d="M16.35 8C15.8 7.3 14.88 7 13.5 7H10.5C8 7 7 8 7 10.5V13.5C7 14.88 7.3 15.8 7.99 16.35" stroke="currentColor" stroke-width="1.5" stroke-linecap="round" stroke-linejoin="round"/><path id="Vector_3" d="M8.01001 4V2" stroke="currentColor" stroke-width="1.5" stroke-linecap="round" stroke-linejoin="round"/><path id="Vector_4" d="M12 4V2" stroke="currentColor" stroke-width="1.5" stroke-linecap="round" stroke-linejoin="round"/><path id="Vector_5" d="M16 4V2" stroke="currentColor" stroke-width="1.5" stroke-linecap="round" stroke-linejoin="round"/><path id="Vector_6" d="M20 8H22" stroke="currentColor" stroke-width="1.5" stroke-linecap="round" stroke-linejoin="round"/><path id="Vector_7" d="M8.01001 20V22" stroke="currentColor" stroke-width="1.5" stroke-linecap="round" stroke-linejoin="round"/><path id="Vector_8" d="M2 8H4" stroke="currentColor" stroke-width="1.5" stroke-linecap="round" stroke-linejoin="round"/><path id="Vector_9" d="M2 12H4" stroke="currentColor" stroke-width="1.5" stroke-linecap="round" stroke-linejoin="round"/><path id="Vector_10" d="M2 16H4" stroke="currentColor" stroke-width="1.5" stroke-linecap="round" stroke-linejoin="round"/><path id="Vector_11" d="M16.7101 18.5902C17.5882 18.5902 18.3001 17.8783 18.3001 17.0002C18.3001 16.122 17.5882 15.4102 16.7101 15.4102C15.832 15.4102 15.1201 16.122 15.1201 17.0002C15.1201 17.8783 15.832 18.5902 16.7101 18.5902Z" stroke="currentColor" stroke-width="1.5" stroke-miterlimit="10" stroke-linecap="round" stroke-linejoin="round"/><path id="Vector_12" d="M11.4099 17.4595V16.5295C11.4099 15.9795 11.8599 15.5295 12.4099 15.5295C13.3699 15.5295 13.7599 14.8495 13.2799 14.0195C12.9999 13.5395 13.1699 12.9195 13.6499 12.6495L14.5599 12.1195C14.9799 11.8695 15.5199 12.0195 15.7699 12.4395L15.8299 12.5395C16.3099 13.3695 17.0899 13.3695 17.5699 12.5395L17.6299 12.4395C17.8799 12.0195 18.4199 11.8795 18.8399 12.1195L19.7499 12.6495C20.2299 12.9295 20.3999 13.5395 20.1199 14.0195C19.6399 14.8495 20.0299 15.5295 20.9899 15.5295C21.5399 15.5295 21.9899 15.9795 21.9899 16.5295V17.4595C21.9899 18.0095 21.5399 18.4595 20.9899 18.4595C20.0299 18.4595 19.6399 19.1395 20.1199 19.9695C20.3999 20.4495 20.2299 21.0695 19.7499 21.3395L18.8399 21.8695C18.4199 22.1195 17.8799 21.9695 17.6299 21.5495L17.5699 21.4495C17.0899 20.6195 16.3099 20.6195 15.8299 21.4495L15.7699 21.5495C15.5199 21.9695 14.9799 22.1095 14.5599 21.8695L13.6499 21.3395C13.1699 21.0595 12.9999 20.4495 13.2799 19.9695C13.7599 19.1395 13.3699 18.4595 12.4099 18.4595C11.8599 18.4695 11.4099 18.0195 11.4099 17.4595Z" stroke="currentColor" stroke-width="1.5" stroke-miterlimit="10" stroke-linecap="round" stroke-linejoin="round"/></g></g></g></svg>