<svg width="24" height="24" viewBox="0 0 24 24" fill="none" xmlns="http://www.w3.org/2000/svg"><g id="vuesax/broken/dent-(dent)"><g id="vuesax/broken/dent-(dent)_2"><g id="dent-(dent)"><path id="Vector" d="M12.0002 18.1496C11.2802 18.1496 10.6802 17.5596 10.6802 16.8296V7.1696C10.6802 6.4496 11.2702 5.84961 12.0002 5.84961C12.7202 5.84961 13.3202 6.4396 13.3202 7.1696V16.8296C13.3202 17.5596 12.7202 18.1496 12.0002 18.1496Z" stroke="currentColor" stroke-width="1.5" stroke-miterlimit="10"/><path id="Vector_2" d="M6.68001 8.92998C7.04001 8.29998 7.85002 8.08999 8.48002 8.44999L16.85 13.28C17.48 13.64 17.69 14.45 17.33 15.08C16.97 15.71 16.16 15.92 15.53 15.56L7.16002 10.73C6.53002 10.36 6.31001 9.54998 6.68001 8.92998Z" stroke="currentColor" stroke-width="1.5" stroke-miterlimit="10"/><path id="Vector_3" d="M6.67997 15.0702C6.31997 14.4402 6.52997 13.6302 7.15997 13.2702L15.53 8.44022C16.16 8.08022 16.97 8.29022 17.33 8.92022C17.69 9.55022 17.48 10.3602 16.85 10.7202L8.47997 15.5502C7.84997 15.9202 7.03997 15.7002 6.67997 15.0702Z" stroke="currentColor" stroke-width="1.5" stroke-miterlimit="10"/><path id="Vector_4" d="M4 6C2.75 7.67 2 9.75 2 12C2 17.52 6.48 22 12 22C17.52 22 22 17.52 22 12C22 6.48 17.52 2 12 2C10.57 2 9.2 2.30001 7.97 2.85001" stroke="currentColor" stroke-width="1.5" stroke-linecap="round" stroke-linejoin="round"/></g></g></g></svg>