<svg width="24" height="24" viewBox="0 0 24 24" fill="none" xmlns="http://www.w3.org/2000/svg"><g id="vuesax/broken/designtools"><g id="vuesax/broken/designtools_2"><g id="designtools"><path id="Vector" d="M18 3.02011C18.68 2.66011 19.34 2.35011 19.96 2.10011C20.55 1.88011 21.12 2.04011 21.48 2.41011C21.86 2.79011 22.04 3.36011 21.8 3.95011C20.26 7.79011 16.4 13.0101 13.17 15.6001L11.2 17.1801C10.95 17.3601 10.7 17.5201 10.42 17.6301C10.42 17.4501 10.41 17.2501 10.38 17.0601C10.27 16.2201 9.89001 15.4401 9.22001 14.7701C8.54001 14.0901 7.71001 13.6901 6.86001 13.5801C6.66001 13.5701 6.46001 13.5501 6.26001 13.5701C6.37001 13.2601 6.54001 12.9701 6.75001 12.7301L8.31001 10.7601C9.76001 8.95011 12.04 6.94011 14.43 5.25011" stroke="currentColor" stroke-width="1.5" stroke-linecap="round" stroke-linejoin="round"/><path id="Vector_2" d="M10.43 17.6198C10.43 18.7198 10.01 19.7698 9.22 20.5698C8.61 21.1798 7.78 21.5998 6.79 21.7298L4.33 21.9998C2.99 22.1498 1.84 21.0098 2 19.6498L2.27 17.1898C2.51 14.9998 4.34 13.5998 6.28 13.5598C6.48 13.5498 6.69 13.5598 6.88 13.5698C7.73 13.6798 8.56 14.0698 9.24 14.7598C9.91 15.4298 10.29 16.2098 10.4 17.0498C10.41 17.2398 10.43 17.4298 10.43 17.6198Z" stroke="currentColor" stroke-width="1.5" stroke-linecap="round" stroke-linejoin="round"/><path id="Vector_3" d="M14.24 14.4702C14.24 11.8602 12.12 9.74023 9.51001 9.74023" stroke="currentColor" stroke-width="1.5" stroke-linecap="round" stroke-linejoin="round"/><path id="Vector_4" d="M20.12 12.7305L20.86 13.4605C22.35 14.9505 22.35 16.4205 20.86 17.9105L17.9 20.8705C16.43 22.3405 14.94 22.3405 13.47 20.8705" stroke="currentColor" stroke-width="1.5" stroke-linecap="round"/><path id="Vector_5" d="M3.11001 10.5096C1.64001 9.01957 1.64001 7.54957 3.11001 6.05957L6.07001 3.09957C7.54001 1.62957 9.03001 1.62957 10.5 3.09957L11.24 3.83957" stroke="currentColor" stroke-width="1.5" stroke-linecap="round"/><path id="Vector_6" d="M11.25 3.84961L7.54999 7.54961" stroke="currentColor" stroke-width="1.5" stroke-linecap="round"/><path id="Vector_7" d="M20.12 12.7305L17.16 15.6805" stroke="currentColor" stroke-width="1.5" stroke-linecap="round"/></g></g></g></svg>