<svg width="24" height="24" viewBox="0 0 24 24" fill="none" xmlns="http://www.w3.org/2000/svg"><g id="vuesax/broken/devices"><g id="vuesax/broken/devices_2"><g id="devices"><path id="Vector" d="M15.7199 9.68953C13.6699 7.62953 10.3299 7.62953 8.27986 9.68953C6.21986 11.7495 6.21986 15.0795 8.27986 17.1295C10.3399 19.1895 13.6699 19.1895 15.7199 17.1295C16.7499 16.0995 17.2599 14.7595 17.2599 13.4095" stroke="currentColor" stroke-width="1.5093" stroke-linecap="round" stroke-linejoin="round"/><path id="Vector_2" d="M11.9999 13.4102L10.4099 15.0002" stroke="currentColor" stroke-width="1.5093" stroke-linecap="round" stroke-linejoin="round"/><path id="Vector_3" d="M19.0701 6.33973C19.2201 6.48973 19.2201 6.73972 19.0701 6.89972C18.9201 7.04972 18.6701 7.04972 18.5101 6.89972C18.3501 6.74972 18.3601 6.49973 18.5101 6.33973C18.6601 6.17973 18.9201 6.17973 19.0701 6.33973Z" stroke="currentColor" stroke-miterlimit="10"/><path id="Vector_4" d="M19.0701 6.33973C19.2201 6.48973 19.2201 6.73972 19.0701 6.89972C18.9201 7.04972 18.6701 7.04972 18.5101 6.89972C18.3501 6.74972 18.3601 6.49973 18.5101 6.33973C18.6601 6.17973 18.9201 6.17973 19.0701 6.33973Z" stroke="currentColor" stroke-width="1.5" stroke-linecap="round" stroke-linejoin="round"/><path id="Vector_5" d="M5.48988 19.9198C5.63988 20.0698 5.63988 20.3198 5.48988 20.4798C5.33988 20.6398 5.08988 20.6298 4.92988 20.4798C4.77988 20.3298 4.77988 20.0798 4.92988 19.9198C5.07988 19.7598 5.33988 19.7598 5.48988 19.9198Z" stroke="currentColor" stroke-miterlimit="10"/><path id="Vector_6" d="M5.48988 19.9198C5.63988 20.0698 5.63988 20.3198 5.48988 20.4798C5.33988 20.6398 5.08988 20.6298 4.92988 20.4798C4.77988 20.3298 4.77988 20.0798 4.92988 19.9198C5.07988 19.7598 5.33988 19.7598 5.48988 19.9198Z" stroke="currentColor" stroke-width="1.5" stroke-linecap="round" stroke-linejoin="round"/><path id="Vector_7" d="M21.8799 13.1298C22.0299 13.2798 22.0299 13.5298 21.8799 13.6898C21.7299 13.8398 21.4799 13.8398 21.3199 13.6898C21.1599 13.5398 21.1699 13.2898 21.3199 13.1298C21.4699 12.9698 21.7299 12.9698 21.8799 13.1298Z" stroke="currentColor" stroke-miterlimit="10"/><path id="Vector_8" d="M21.8799 13.1298C22.0299 13.2798 22.0299 13.5298 21.8799 13.6898C21.7299 13.8398 21.4799 13.8398 21.3199 13.6898C21.1599 13.5398 21.1699 13.2898 21.3199 13.1298C21.4699 12.9698 21.7299 12.9698 21.8799 13.1298Z" stroke="currentColor" stroke-width="1.5" stroke-linecap="round" stroke-linejoin="round"/><path id="Vector_9" d="M2.67009 13.1298C2.82009 13.2798 2.82009 13.5298 2.67009 13.6898C2.52009 13.8498 2.27006 13.8398 2.11006 13.6898C1.96006 13.5398 1.96006 13.2898 2.11006 13.1298C2.27006 12.9698 2.52009 12.9698 2.67009 13.1298Z" stroke="currentColor" stroke-miterlimit="10"/><path id="Vector_10" d="M2.67009 13.1298C2.82009 13.2798 2.82009 13.5298 2.67009 13.6898C2.52009 13.8498 2.27006 13.8398 2.11006 13.6898C1.96006 13.5398 1.96006 13.2898 2.11006 13.1298C2.27006 12.9698 2.52009 12.9698 2.67009 13.1298Z" stroke="currentColor" stroke-width="1.5" stroke-linecap="round" stroke-linejoin="round"/><path id="Vector_11" d="M19.0701 19.9198C19.2201 20.0698 19.2201 20.3198 19.0701 20.4798C18.9201 20.6298 18.6701 20.6298 18.5101 20.4798C18.3501 20.3298 18.3601 20.0798 18.5101 19.9198C18.6701 19.7598 18.9201 19.7598 19.0701 19.9198Z" stroke="currentColor" stroke-miterlimit="10"/><path id="Vector_12" d="M19.0701 19.9198C19.2201 20.0698 19.2201 20.3198 19.0701 20.4798C18.9201 20.6298 18.6701 20.6298 18.5101 20.4798C18.3501 20.3298 18.3601 20.0798 18.5101 19.9198C18.6701 19.7598 18.9201 19.7598 19.0701 19.9198Z" stroke="currentColor" stroke-width="1.5" stroke-linecap="round" stroke-linejoin="round"/><path id="Vector_13" d="M5.48988 6.33973C5.63988 6.48973 5.63988 6.73972 5.48988 6.89972C5.33988 7.05972 5.08988 7.04972 4.92988 6.89972C4.77988 6.74972 4.77988 6.49973 4.92988 6.33973C5.07988 6.17973 5.33988 6.17973 5.48988 6.33973Z" stroke="currentColor" stroke-miterlimit="10"/><path id="Vector_14" d="M5.48988 6.33973C5.63988 6.48973 5.63988 6.73972 5.48988 6.89972C5.33988 7.05972 5.08988 7.04972 4.92988 6.89972C4.77988 6.74972 4.77988 6.49973 4.92988 6.33973C5.07988 6.17973 5.33988 6.17973 5.48988 6.33973Z" stroke="currentColor" stroke-width="1.5" stroke-linecap="round" stroke-linejoin="round"/><path id="Vector_15" d="M12.28 3.5196C12.43 3.6696 12.43 3.9196 12.28 4.0796C12.13 4.2396 11.88 4.2296 11.72 4.0796C11.56 3.9296 11.57 3.6796 11.72 3.5196C11.87 3.3596 12.13 3.3696 12.28 3.5196Z" stroke="currentColor" stroke-miterlimit="10"/><path id="Vector_16" d="M12.28 3.5196C12.43 3.6696 12.43 3.9196 12.28 4.0796C12.13 4.2396 11.88 4.2296 11.72 4.0796C11.56 3.9296 11.57 3.6796 11.72 3.5196C11.87 3.3596 12.13 3.3696 12.28 3.5196Z" stroke="currentColor" stroke-width="1.5" stroke-linecap="round" stroke-linejoin="round"/></g></g></g></svg>