<svg width="24" height="24" viewBox="0 0 24 24" fill="none" xmlns="http://www.w3.org/2000/svg"><g id="vuesax/broken/discount-shape"><g id="vuesax/broken/discount-shape_2"><g id="discount-shape"><path id="Vector" d="M14.6599 20.0105L13.1399 21.5305C12.5199 22.1505 11.4999 22.1505 10.8799 21.5305L9.3599 20.0105C9.0999 19.7505 8.58992 19.5405 8.22992 19.5405H6.0799C5.1999 19.5405 4.47992 18.8204 4.47992 17.9404V15.7905C4.47992 15.4305 4.26992 14.9205 4.00992 14.6605L2.4899 13.1405C1.8699 12.5205 1.8699 11.5005 2.4899 10.8805L4.00992 9.36047C4.26992 9.10047 4.47992 8.59047 4.47992 8.23047V6.08044C4.47992 5.20044 5.1999 4.48047 6.0799 4.48047" stroke="currentColor" stroke-width="1.5" stroke-linecap="round" stroke-linejoin="round"/><path id="Vector_2" d="M9.34009 3.9899L10.8601 2.46988C11.4801 1.84988 12.5001 1.84988 13.1201 2.46988L14.6401 3.9899C14.9001 4.2499 15.4101 4.45987 15.7701 4.45987H17.9201C18.8001 4.45987 19.5201 5.17997 19.5201 6.05997V8.20987C19.5201 8.56987 19.7301 9.07988 19.9901 9.33988L21.5101 10.8599C22.1301 11.4799 22.1301 12.4999 21.5101 13.1199L19.9901 14.6399C19.7301 14.8999 19.5201 15.4099 19.5201 15.7699V17.92C19.5201 18.8 18.8001 19.5199 17.9201 19.5199" stroke="currentColor" stroke-width="1.5" stroke-linecap="round" stroke-linejoin="round"/><path id="Vector_3" d="M9 15L15 9" stroke="currentColor" stroke-width="1.5" stroke-linecap="round" stroke-linejoin="round"/><path id="Vector_4" d="M14.4945 14.5H14.5035" stroke="currentColor" stroke-width="2" stroke-linecap="round" stroke-linejoin="round"/><path id="Vector_5" d="M9.49451 9.5H9.50349" stroke="currentColor" stroke-width="2" stroke-linecap="round" stroke-linejoin="round"/></g></g></g></svg>