<svg width="24" height="24" viewBox="0 0 24 24" fill="none" xmlns="http://www.w3.org/2000/svg"><g id="vuesax/broken/dislike"><g id="vuesax/broken/dislike_2"><g id="dislike"><path id="Vector" d="M2.51998 12.0508C2.01998 13.4508 2.91998 14.6508 4.41998 14.6508H8.41998C9.01998 14.6508 9.51998 15.1508 9.41998 15.8508L8.91998 19.0508C8.71998 19.9508 9.31998 20.9508 10.22 21.2508C11.02 21.5508 12.02 21.1508 12.42 20.5508L16.52 14.4508" stroke="currentColor" stroke-width="1.5" stroke-miterlimit="10" stroke-linecap="round" stroke-linejoin="round"/><path id="Vector_2" d="M16.52 5.65039L13.42 3.25039C13.02 2.85039 12.12 2.65039 11.52 2.65039H7.72003C6.52003 2.65039 5.22003 3.55039 4.92003 4.75039L3.78003 8.22039" stroke="currentColor" stroke-width="1.5" stroke-miterlimit="10" stroke-linecap="round" stroke-linejoin="round"/><path id="Vector_3" d="M21.62 5.65V15.45C21.62 16.85 21.02 17.35 19.62 17.35H18.62C17.22 17.35 16.62 16.85 16.62 15.45V5.65C16.62 4.25 17.22 3.75 18.62 3.75H19.62C21.02 3.75 21.62 4.25 21.62 5.65Z" stroke="currentColor" stroke-width="1.5" stroke-linecap="round" stroke-linejoin="round"/></g></g></g></svg>