<svg width="24" height="24" viewBox="0 0 24 24" fill="none" xmlns="http://www.w3.org/2000/svg"><g id="vuesax/broken/document-cloud"><g id="vuesax/broken/document-cloud_2"><g id="document-cloud"><g id="Group"><path id="Vector" d="M2 13V15C2 20 4 22 9 22" stroke="currentColor" stroke-width="1.5" stroke-linecap="round" stroke-linejoin="round"/><path id="Vector_2" d="M14 2H9C4 2 2 4 2 9" stroke="currentColor" stroke-width="1.5" stroke-linecap="round" stroke-linejoin="round"/><path id="Vector_3" d="M22 10V13" stroke="currentColor" stroke-width="1.5" stroke-linecap="round" stroke-linejoin="round"/><path id="Vector_4" d="M22 10H18C15 10 14 9 14 6V2L22 10Z" stroke="currentColor" stroke-width="1.5" stroke-linecap="round" stroke-linejoin="round"/></g><g id="Group_2"><path id="Vector_5" d="M13.76 18.2598C11.41 18.4298 11.41 21.8298 13.76 21.9998H19.32C19.99 21.9998 20.65 21.7498 21.14 21.2998C22.79 19.8598 21.91 16.9798 19.74 16.7098C18.96 12.0198 12.18 13.7998 13.78 18.2698" stroke="currentColor" stroke-width="1.5" stroke-miterlimit="10" stroke-linecap="round" stroke-linejoin="round"/></g></g></g></g></svg>