<svg width="24" height="24" viewBox="0 0 24 24" fill="none" xmlns="http://www.w3.org/2000/svg"><g id="vuesax/broken/document-favorite"><g id="vuesax/broken/document-favorite_2"><g id="document-favorite"><path id="Vector" d="M9.42 18.1996C8.92 18.1996 7.15 17.3696 6.62 15.7196C6.29 14.6896 6.68 13.4196 7.75 13.0696C8.32 12.8896 9.02 13.0396 9.41 13.5896C9.78 13.0196 10.51 12.8896 11.07 13.0696C12.15 13.4196 12.53 14.6896 12.21 15.7196" stroke="currentColor" stroke-width="1.5" stroke-linecap="round" stroke-linejoin="round"/><path id="Vector_2" d="M2 9C2 4 4 2 9 2H14" stroke="currentColor" stroke-width="1.5" stroke-linecap="round" stroke-linejoin="round"/><path id="Vector_3" d="M22 10V15C22 20 20 22 15 22H9C4 22 2 20 2 15V12.98" stroke="currentColor" stroke-width="1.5" stroke-linecap="round" stroke-linejoin="round"/><path id="Vector_4" d="M18 10C15 10 14 9 14 6V2L22 10" stroke="currentColor" stroke-width="1.5" stroke-linecap="round" stroke-linejoin="round"/></g></g></g></svg>