<svg width="24" height="24" viewBox="0 0 24 24" fill="none" xmlns="http://www.w3.org/2000/svg"><g id="vuesax/broken/document-copy"><g id="vuesax/broken/document-copy_2"><g id="document-copy"><path id="Vector" d="M2 12.6C2 8.6 3.6 7 7.6 7H10.6" stroke="currentColor" stroke-width="1.5" stroke-linecap="round" stroke-linejoin="round"/><path id="Vector_2" d="M17 13.4004V16.4004C17 20.4004 15.4 22.0004 11.4 22.0004H7.6C3.6 22.0004 2 20.4004 2 16.4004" stroke="currentColor" stroke-width="1.5" stroke-linecap="round" stroke-linejoin="round"/><path id="Vector_3" d="M13.8 13.4C11.4 13.4 10.6 12.6 10.6 10.2V7L17 13.4" stroke="currentColor" stroke-width="1.5" stroke-linecap="round" stroke-linejoin="round"/><path id="Vector_4" d="M11.6 2H15.6" stroke="currentColor" stroke-width="1.5" stroke-linecap="round" stroke-linejoin="round"/><path id="Vector_5" d="M7 5C7 3.34 8.34 2 10 2H12.62" stroke="currentColor" stroke-width="1.5" stroke-linecap="round" stroke-linejoin="round"/><path id="Vector_6" d="M22 8V14.19C22 15.74 20.74 17 19.19 17" stroke="currentColor" stroke-width="1.5" stroke-linecap="round" stroke-linejoin="round"/><path id="Vector_7" d="M22 8H19C16.75 8 16 7.25 16 5V2L22 8Z" stroke="currentColor" stroke-width="1.5" stroke-linecap="round" stroke-linejoin="round"/></g></g></g></svg>