<svg width="24" height="24" viewBox="0 0 24 24" fill="none" xmlns="http://www.w3.org/2000/svg"><g id="vuesax/broken/dribbble"><g id="vuesax/broken/dribbble_2"><g id="dribbble"><path id="Vector" d="M18.5 4.78906C15.9 9.33906 10.89 11.9491 5.66998 11.4791L2.5 11.1891" stroke="currentColor" stroke-width="1.5" stroke-miterlimit="10" stroke-linecap="round" stroke-linejoin="round"/><path id="Vector_2" d="M5.5 19.3693C8.1 14.8193 13.11 12.2093 18.33 12.6793L21.5 12.9693" stroke="currentColor" stroke-width="1.5" stroke-miterlimit="10" stroke-linecap="round" stroke-linejoin="round"/><path id="Vector_3" d="M7.62988 3L10.8099 6.95001C12.9399 9.59001 14.4499 12.66 15.2499 15.95L16.4599 20.94" stroke="currentColor" stroke-width="1.5" stroke-miterlimit="10" stroke-linecap="round" stroke-linejoin="round"/><path id="Vector_4" d="M4 6C2.75 7.67 2 9.75 2 12C2 17.52 6.48 22 12 22C17.52 22 22 17.52 22 12C22 6.48 17.52 2 12 2C10.57 2 9.19997 2.30001 7.96997 2.85001" stroke="currentColor" stroke-width="1.5" stroke-linecap="round" stroke-linejoin="round"/></g></g></g></svg>