<svg width="24" height="24" viewBox="0 0 24 24" fill="none" xmlns="http://www.w3.org/2000/svg"><g id="vuesax/broken/driver"><g id="vuesax/broken/driver_2"><g id="driver"><path id="Vector" d="M17.32 9.99977H4.69002C3.21002 9.99977 2.01001 8.78978 2.01001 7.31978V4.68977C2.01001 3.20977 3.22002 2.00977 4.69002 2.00977H19.32C20.8 2.00977 22 3.21977 22 4.68977V7.31978" stroke="currentColor" stroke-width="1.5" stroke-linecap="round" stroke-linejoin="round"/><path id="Vector_2" d="M19.32 21.9998H4.69002C3.21002 21.9998 2.01001 20.7898 2.01001 19.3198V16.6898C2.01001 15.2098 3.22002 14.0098 4.69002 14.0098H19.32C20.8 14.0098 22 15.2198 22 16.6898V19.3198C22 20.7898 20.79 21.9998 19.32 21.9998Z" stroke="currentColor" stroke-width="1.5" stroke-linecap="round" stroke-linejoin="round"/><path id="Vector_3" d="M6 5V7" stroke="currentColor" stroke-width="1.5" stroke-linecap="round" stroke-linejoin="round"/><path id="Vector_4" d="M10 5V7" stroke="currentColor" stroke-width="1.5" stroke-linecap="round" stroke-linejoin="round"/><path id="Vector_5" d="M6 17V19" stroke="currentColor" stroke-width="1.5" stroke-linecap="round" stroke-linejoin="round"/><path id="Vector_6" d="M10 17V19" stroke="currentColor" stroke-width="1.5" stroke-linecap="round" stroke-linejoin="round"/><path id="Vector_7" d="M14 6H18" stroke="currentColor" stroke-width="1.5" stroke-linecap="round" stroke-linejoin="round"/><path id="Vector_8" d="M14 18H18" stroke="currentColor" stroke-width="1.5" stroke-linecap="round" stroke-linejoin="round"/></g></g></g></svg>