<svg width="24" height="24" viewBox="0 0 24 24" fill="none" xmlns="http://www.w3.org/2000/svg"><g id="vuesax/broken/dropbox"><g id="vuesax/broken/dropbox_2"><g id="dropbox"><path id="Vector" d="M12 5L7.56 2L2 6L6.44 9L12 5Z" stroke="currentColor" stroke-width="1.5" stroke-miterlimit="10" stroke-linecap="round" stroke-linejoin="round"/><path id="Vector_2" d="M12 5L16.44 2L22 6L17.56 9L12 5Z" stroke="currentColor" stroke-width="1.5" stroke-miterlimit="10" stroke-linecap="round" stroke-linejoin="round"/><path id="Vector_3" d="M12 14L7.56 17L2 13L6.44 10L8.51999 11.5L10.14 12.66L12 14Z" stroke="currentColor" stroke-width="1.5" stroke-miterlimit="10" stroke-linecap="round" stroke-linejoin="round"/><path id="Vector_4" d="M12 14L16.44 17L22 13L17.56 10L12 14Z" stroke="currentColor" stroke-width="1.5" stroke-miterlimit="10" stroke-linecap="round" stroke-linejoin="round"/><path id="Vector_5" d="M5 18.77V15.5" stroke="currentColor" stroke-width="1.5" stroke-miterlimit="10" stroke-linecap="round" stroke-linejoin="round"/><path id="Vector_6" d="M19.0002 15.5V18.77L12.4202 21.81C12.1502 21.93 11.8502 21.93 11.5802 21.81L9.68018 20.93" stroke="currentColor" stroke-width="1.5" stroke-miterlimit="10" stroke-linecap="round" stroke-linejoin="round"/></g></g></g></svg>