<svg width="24" height="24" viewBox="0 0 24 24" fill="none" xmlns="http://www.w3.org/2000/svg"><g id="vuesax/broken/edit"><g id="vuesax/broken/edit_2"><g id="edit"><path id="Vector" d="M22 13V15C22 20 20 22 15 22H9C4 22 2 20 2 15V13.48" stroke="currentColor" stroke-width="1.5" stroke-linecap="round" stroke-linejoin="round"/><path id="Vector_2" d="M11 2H9C4 2 2 4 2 9" stroke="currentColor" stroke-width="1.5" stroke-linecap="round" stroke-linejoin="round"/><path id="Vector_3" d="M19.93 9.01025L20.98 7.96025C22.34 6.60025 22.98 5.02025 20.98 3.02025C18.98 1.02025 17.4 1.66025 16.04 3.02025L8.16 10.9003C7.86 11.2003 7.56 11.7903 7.5 12.2203L7.07 15.2303C6.91 16.3203 7.68 17.0803 8.77 16.9303L11.78 16.5003C12.2 16.4403 12.79 16.1403 13.1 15.8403L16.28 12.6603L17.01 11.9303" stroke="currentColor" stroke-width="1.5" stroke-miterlimit="10" stroke-linecap="round" stroke-linejoin="round"/><path id="Vector_4" d="M14.91 4.15039C15.58 6.54039 17.45 8.41039 19.85 9.09039" stroke="currentColor" stroke-width="1.5" stroke-miterlimit="10" stroke-linecap="round" stroke-linejoin="round"/></g></g></g></svg>