<svg width="24" height="24" viewBox="0 0 24 24" fill="none" xmlns="http://www.w3.org/2000/svg"><g id="vuesax/broken/educare-(ekt)"><g id="vuesax/broken/educare-(ekt)_2"><g id="educare-(ekt)"><path id="Vector" d="M8.51993 5.15025L11.1899 7.82027C11.6399 8.27027 12.3599 8.27027 12.8099 7.82027L15.4799 5.15025C16.1999 4.43025 15.6899 3.20026 14.6699 3.20026H9.31992C8.30992 3.19026 7.79993 4.43025 8.51993 5.15025Z" stroke="currentColor" stroke-width="1.5" stroke-miterlimit="10" stroke-linecap="round" stroke-linejoin="round"/><path id="Vector_2" d="M8.51993 18.8503L11.1899 16.1803C11.6399 15.7303 12.3599 15.7303 12.8099 16.1803L15.4799 18.8503C16.1999 19.5703 15.6899 20.8003 14.6699 20.8003H9.31992C8.30992 20.8103 7.79993 19.5703 8.51993 18.8503Z" stroke="currentColor" stroke-width="1.5" stroke-miterlimit="10" stroke-linecap="round" stroke-linejoin="round"/><path id="Vector_3" d="M2.15994 11.4495L4.36996 7.96953C4.71996 7.41953 5.48998 7.33954 5.94998 7.79954L9.42996 11.2795C9.82996 11.6795 9.82996 12.3195 9.42996 12.7195L5.94998 16.1995C5.48998 16.6595 4.71996 16.5795 4.36996 16.0295L2.15994 12.5495C1.94994 12.2095 1.94994 11.7895 2.15994 11.4495Z" stroke="currentColor" stroke-width="1.5" stroke-miterlimit="10" stroke-linecap="round" stroke-linejoin="round"/><path id="Vector_4" d="M18.05 7.79954C18.51 7.33954 19.28 7.41953 19.63 7.96953L21.84 11.4495C22.05 11.7795 22.05 12.2095 21.84 12.5395L19.63 16.0195C19.28 16.5695 18.51 16.6495 18.05 16.1895L14.57 12.7095C14.17 12.3095 14.17 11.6695 14.57 11.2695L14.93 10.9095" stroke="currentColor" stroke-width="1.5" stroke-miterlimit="10" stroke-linecap="round" stroke-linejoin="round"/></g></g></g></svg>