<svg width="24" height="24" viewBox="0 0 24 24" fill="none" xmlns="http://www.w3.org/2000/svg"><g id="vuesax/broken/emoji-sad"><g id="vuesax/broken/emoji-sad_2"><g id="emoji-sad"><path id="Vector" d="M2 13V15C2 20 4 22 9 22H15C20 22 22 20 22 15V9C22 4 20 2 15 2H9C4 2 2 4 2 9" stroke="currentColor" stroke-width="1.5" stroke-linecap="round" stroke-linejoin="round"/><path id="Vector_2" d="M7 8.75C8 7.75 9.63 7.75 10.64 8.75" stroke="currentColor" stroke-width="1.5" stroke-miterlimit="10" stroke-linecap="round" stroke-linejoin="round"/><path id="Vector_3" d="M13.36 8.75C14.36 7.75 15.99 7.75 17 8.75" stroke="currentColor" stroke-width="1.5" stroke-miterlimit="10" stroke-linecap="round" stroke-linejoin="round"/><path id="Vector_4" d="M8.4 17.7008H15.6C16.1 17.7008 16.5 17.3008 16.5 16.8008C16.5 14.3108 14.49 12.3008 12 12.3008C9.51 12.3008 7.5 14.3108 7.5 16.8008C7.5 17.3008 7.9 17.7008 8.4 17.7008Z" stroke="currentColor" stroke-width="1.5" stroke-miterlimit="10" stroke-linecap="round" stroke-linejoin="round"/></g></g></g></svg>