<svg width="24" height="24" viewBox="0 0 24 24" fill="none" xmlns="http://www.w3.org/2000/svg"><g id="vuesax/broken/empty-wallet"><g id="vuesax/broken/empty-wallet_2"><g id="empty-wallet"><path id="Vector" d="M2.5 14.07V11.51C2.5 9.44001 4.19 7.75 6.26 7.75H17.74C19.81 7.75 21.5 9.44001 21.5 11.51V12.95H19.48C18.92 12.95 18.41 13.17 18.04 13.55C17.62 13.96 17.38 14.55 17.44 15.18C17.53 16.26 18.52 17.05 19.6 17.05H21.5V18.24C21.5 20.31 19.81 22 17.74 22H6.26C4.19 22 2.5 20.31 2.5 18.24" stroke="currentColor" stroke-width="1.5" stroke-linecap="round" stroke-linejoin="round"/><path id="Vector_2" d="M12.28 2.1703C13.52 1.7003 14.85 2.62033 14.85 3.95033V7.75032" stroke="currentColor" stroke-width="1.5" stroke-linecap="round" stroke-linejoin="round"/><path id="Vector_3" d="M2.5 12.4099V7.83997C2.5 6.64997 3.23 5.58992 4.34 5.16992L8.31 3.66992" stroke="currentColor" stroke-width="1.5" stroke-linecap="round" stroke-linejoin="round"/><path id="Vector_4" d="M22.56 13.9702V16.0302C22.56 16.5802 22.12 17.0302 21.56 17.0502H19.6C18.52 17.0502 17.53 16.2602 17.44 15.1802C17.38 14.5502 17.62 13.9602 18.04 13.5502C18.41 13.1702 18.92 12.9502 19.48 12.9502H21.56C22.12 12.9702 22.56 13.4202 22.56 13.9702Z" stroke="currentColor" stroke-width="1.5" stroke-linecap="round" stroke-linejoin="round"/><path id="Vector_5" d="M7 12H14" stroke="currentColor" stroke-width="1.5" stroke-linecap="round" stroke-linejoin="round"/></g></g></g></svg>