<svg width="24" height="24" viewBox="0 0 24 24" fill="none" xmlns="http://www.w3.org/2000/svg"><g id="vuesax/broken/empty-wallet-tick"><g id="vuesax/broken/empty-wallet-tick_2"><g id="empty-wallet-tick"><path id="Vector" d="M22.56 13.9702V16.0302C22.56 16.5802 22.12 17.0302 21.56 17.0502H19.6C18.52 17.0502 17.53 16.2602 17.44 15.1802C17.38 14.5502 17.62 13.9602 18.04 13.5502C18.41 13.1702 18.92 12.9502 19.48 12.9502H21.56C22.12 12.9702 22.56 13.4202 22.56 13.9702Z" stroke="currentColor" stroke-width="1.5" stroke-linecap="round" stroke-linejoin="round"/><path id="Vector_2" d="M7 12H14" stroke="currentColor" stroke-width="1.5" stroke-linecap="round" stroke-linejoin="round"/><g id="Group"><path id="Vector_3" d="M9 19C9 19.75 8.79 20.46 8.42 21.06C8.21 21.42 7.94 21.74 7.63 22C6.93 22.63 6.01 23 5 23C3.54 23 2.27 22.22 1.58 21.06C1.21 20.46 1 19.75 1 19C1 17.74 1.58 16.61 2.5 15.88C3.19 15.33 4.06 15 5 15C7.21 15 9 16.79 9 19Z" stroke="currentColor" stroke-width="1.5" stroke-miterlimit="10" stroke-linecap="round" stroke-linejoin="round"/><path id="Vector_4" d="M3.43994 18.9995L4.42993 19.9895L6.55994 18.0195" stroke="currentColor" stroke-width="1.5" stroke-linecap="round" stroke-linejoin="round"/></g><path id="Vector_5" d="M14 22H7.63C7.94 21.74 8.21 21.42 8.42 21.06C8.79 20.46 9 19.75 9 19C9 16.79 7.21 15 5 15C4.06 15 3.19 15.33 2.5 15.88V11.51C2.5 9.44001 4.18999 7.75 6.25999 7.75H17.74C19.81 7.75 21.5 9.44001 21.5 11.51V12.95H19.48C18.92 12.95 18.41 13.17 18.04 13.55C17.62 13.96 17.38 14.55 17.44 15.18C17.53 16.26 18.52 17.05 19.6 17.05H21.5V18.24C21.5 20.31 19.81 22 17.74 22" stroke="currentColor" stroke-width="1.5" stroke-linecap="round" stroke-linejoin="round"/><path id="Vector_6" d="M12.28 2.1703C13.52 1.7003 14.85 2.62033 14.85 3.95033V7.75032" stroke="currentColor" stroke-width="1.5" stroke-linecap="round" stroke-linejoin="round"/><path id="Vector_7" d="M2.5 12.4099V7.83997C2.5 6.64997 3.23 5.58992 4.34 5.16992L8.31 3.66992" stroke="currentColor" stroke-width="1.5" stroke-linecap="round" stroke-linejoin="round"/></g></g></g></svg>