<svg width="24" height="24" viewBox="0 0 24 24" fill="none" xmlns="http://www.w3.org/2000/svg"><g id="vuesax/broken/eos-(eos)"><g id="vuesax/broken/eos-(eos)_2"><g id="eos-(eos)"><path id="Vector" d="M5.47998 15.6196L5.21997 16.9396C5.09997 17.5196 5.42998 18.2396 5.94998 18.5396L11.27 21.5796C11.68 21.8096 12.35 21.8096 12.76 21.5796L18.08 18.5396C18.6 18.2396 18.92 17.5296 18.81 16.9396L17.1 8.36957C17.06 8.15957 16.92 7.85957 16.78 7.69957L13.18 3.37957C12.55 2.61957 11.51 2.61957 10.88 3.37957L7.27996 7.69957C7.14996 7.85957 6.99996 8.15957 6.95996 8.36957L6.43997 10.9796" stroke="currentColor" stroke-width="1.5" stroke-miterlimit="10" stroke-linecap="round" stroke-linejoin="round"/><path id="Vector_2" d="M16.8102 8.52L12.4702 20.68C12.3102 21.12 11.6902 21.12 11.5302 20.68L7.18018 8.5" stroke="currentColor" stroke-width="1.5" stroke-miterlimit="10" stroke-linecap="round" stroke-linejoin="round"/></g></g></g></svg>