<svg width="24" height="24" viewBox="0 0 24 24" fill="none" xmlns="http://www.w3.org/2000/svg"><g id="vuesax/broken/ethereum-classic-(etc)"><g id="vuesax/broken/ethereum-classic-(etc)_2"><g id="ethereum-classic-(etc)"><path id="Vector" d="M6.90012 9.10012L11.6701 6.98012C11.8801 6.89012 12.1201 6.89012 12.3201 6.98012L17.0901 9.10012C17.5101 9.29012 17.9001 8.78012 17.6101 8.42012L12.6101 2.31012C12.2701 1.89012 11.7101 1.89012 11.3701 2.31012L6.37009 8.42012C6.09009 8.78012 6.48012 9.29012 6.90012 9.10012Z" stroke="currentColor" stroke-width="1.5" stroke-miterlimit="10" stroke-linecap="round" stroke-linejoin="round"/><path id="Vector_2" d="M6.90007 14.8995L11.68 17.0195C11.89 17.1095 12.1301 17.1095 12.3301 17.0195L17.11 14.8995C17.53 14.7095 17.92 15.2195 17.63 15.5795L12.63 21.6895C12.29 22.1095 11.7301 22.1095 11.3901 21.6895L6.39006 15.5795C6.09006 15.2195 6.47007 14.7095 6.90007 14.8995Z" stroke="currentColor" stroke-width="1.5" stroke-miterlimit="10" stroke-linecap="round" stroke-linejoin="round"/><path id="Vector_3" d="M16.0098 12.6199L17.2397 11.9999L11.9998 9.37988L6.75977 11.9999L11.9998 14.6199L12.7997 14.2199" stroke="currentColor" stroke-width="1.5" stroke-miterlimit="10" stroke-linecap="round" stroke-linejoin="round"/></g></g></g></svg>