<svg width="24" height="24" viewBox="0 0 24 24" fill="none" xmlns="http://www.w3.org/2000/svg"><g id="vuesax/broken/ethereum-(eth)"><g id="vuesax/broken/ethereum-(eth)_2"><g id="ethereum-(eth)"><path id="Vector" d="M10.4499 3.04957L6.71991 7.70957C5.86991 8.76957 6.16991 10.1296 7.37991 10.7296L11.1099 12.5996C11.5999 12.8396 12.3999 12.8396 12.8899 12.5996L16.6199 10.7296C17.8299 10.1196 18.1299 8.75957 17.2799 7.70957L13.5499 3.04957C12.6999 1.97957 11.2999 1.97957 10.4499 3.04957Z" stroke="currentColor" stroke-width="1.5" stroke-miterlimit="10" stroke-linecap="round" stroke-linejoin="round"/><path id="Vector_2" d="M12 2.2998V7.5598" stroke="currentColor" stroke-width="1.5" stroke-miterlimit="10" stroke-linecap="round" stroke-linejoin="round"/><path id="Vector_3" d="M7.7998 10.7096L11.9998 7.55957L16.1998 10.7096" stroke="currentColor" stroke-width="1.5" stroke-miterlimit="10" stroke-linecap="round" stroke-linejoin="round"/><path id="Vector_4" d="M7.79996 17.7301L6.99996 16.7501C5.99996 15.5301 7.32996 13.7901 8.76996 14.4301L10.38 15.1501C11.41 15.6101 12.59 15.6101 13.63 15.1501L15.24 14.4301C16.68 13.7901 18.01 15.5301 17.01 16.7501L13.55 20.9801C12.7 22.0201 11.31 22.0201 10.45 20.9801" stroke="currentColor" stroke-width="1.5" stroke-miterlimit="10" stroke-linecap="round" stroke-linejoin="round"/></g></g></g></svg>