<svg width="24" height="24" viewBox="0 0 24 24" fill="none" xmlns="http://www.w3.org/2000/svg"><g id="vuesax/broken/eye-slash"><g id="vuesax/broken/eye-slash_2"><g id="eye-slash"><path id="Vector" d="M14.53 9.46992L9.46998 14.5299C8.81998 13.8799 8.41998 12.9899 8.41998 11.9999C8.41998 10.0199 10.02 8.41992 12 8.41992C12.99 8.41992 13.88 8.81992 14.53 9.46992Z" stroke="currentColor" stroke-width="1.5" stroke-linecap="round" stroke-linejoin="round"/><path id="Vector_2" d="M5.60003 17.7609C4.60003 16.9009 3.69003 15.8409 2.89003 14.5909C1.99003 13.1809 1.99003 10.8109 2.89003 9.40086C4.07003 7.55086 5.51003 6.10086 7.12003 5.13086" stroke="currentColor" stroke-width="1.5" stroke-linecap="round" stroke-linejoin="round"/><path id="Vector_3" d="M17.82 5.77047C16.07 4.45047 14.07 3.73047 12 3.73047" stroke="currentColor" stroke-width="1.5" stroke-linecap="round" stroke-linejoin="round"/><path id="Vector_4" d="M8.41998 19.5297C9.55998 20.0097 10.77 20.2697 12 20.2697C15.53 20.2697 18.82 18.1897 21.11 14.5897C22.01 13.1797 22.01 10.8097 21.11 9.39969C20.78 8.87969 20.42 8.38969 20.05 7.92969" stroke="currentColor" stroke-width="1.5" stroke-linecap="round" stroke-linejoin="round"/><path id="Vector_5" d="M15.51 12.6992C15.25 14.1092 14.1 15.2592 12.69 15.5192" stroke="currentColor" stroke-width="1.5" stroke-linecap="round" stroke-linejoin="round"/><path id="Vector_6" d="M9.47 14.5293L2 21.9993" stroke="currentColor" stroke-width="1.5" stroke-linecap="round" stroke-linejoin="round"/><path id="Vector_7" d="M22 2L14.53 9.47" stroke="currentColor" stroke-width="1.5" stroke-linecap="round" stroke-linejoin="round"/></g></g></g></svg>