<svg width="24" height="24" viewBox="0 0 24 24" fill="none" xmlns="http://www.w3.org/2000/svg"><g id="vuesax/broken/eye"><g id="vuesax/broken/eye_2"><g id="eye"><path id="Vector" d="M9.02998 13.9999C8.63998 13.4299 8.41998 12.7399 8.41998 11.9999C8.41998 10.0199 10.02 8.41992 12 8.41992C13.98 8.41992 15.58 10.0199 15.58 11.9999C15.58 13.9799 13.98 15.5799 12 15.5799" stroke="currentColor" stroke-width="1.5" stroke-linecap="round" stroke-linejoin="round"/><path id="Vector_2" d="M17.56 5.58047C15.87 4.38047 13.97 3.73047 12 3.73047C8.47003 3.73047 5.18003 5.81047 2.89003 9.41047C1.99003 10.8205 1.99003 13.1905 2.89003 14.6005C5.18003 18.2005 8.47003 20.2805 12 20.2805C15.53 20.2805 18.82 18.2005 21.11 14.6005C22.01 13.1905 22.01 10.8205 21.11 9.41047" stroke="currentColor" stroke-width="1.5" stroke-linecap="round" stroke-linejoin="round"/></g></g></g></svg>