<svg width="24" height="24" viewBox="0 0 24 24" fill="none" xmlns="http://www.w3.org/2000/svg"><g id="vuesax/broken/filter-search"><g id="vuesax/broken/filter-search_2"><g id="filter-search"><g id="Group"><path id="Vector" d="M5.33008 2H18.67C19.78 2 20.6901 2.90999 20.6901 4.01999V6.23999C20.6901 7.04999 20.1801 8.06 19.6801 8.56" stroke="currentColor" stroke-width="1.5" stroke-miterlimit="10" stroke-linecap="round" stroke-linejoin="round"/><path id="Vector_2" d="M14.3201 19.0692C14.3201 19.6792 13.92 20.4792 13.41 20.7892L12.0001 21.6992C10.6901 22.5092 8.87006 21.5992 8.87006 19.9792V14.6292C8.87006 13.9192 8.47006 13.0092 8.06006 12.5092L4.22003 8.46921C3.71003 7.95921 3.31006 7.05922 3.31006 6.44922" stroke="currentColor" stroke-width="1.5" stroke-miterlimit="10" stroke-linecap="round" stroke-linejoin="round"/></g><g id="Group_2"><path id="Vector_3" d="M16.07 16.5191C17.8373 16.5191 19.27 15.0865 19.27 13.3192C19.27 11.5518 17.8373 10.1191 16.07 10.1191C14.3027 10.1191 12.87 11.5518 12.87 13.3192C12.87 15.0865 14.3027 16.5191 16.07 16.5191Z" stroke="currentColor" stroke-width="1.5" stroke-linecap="round" stroke-linejoin="round"/><path id="Vector_4" d="M19.87 17.1191L18.87 16.1191" stroke="currentColor" stroke-width="1.5" stroke-linecap="round" stroke-linejoin="round"/></g></g></g></g></svg>