<svg width="24" height="24" viewBox="0 0 24 24" fill="none" xmlns="http://www.w3.org/2000/svg"><g id="vuesax/broken/filter-edit"><g id="vuesax/broken/filter-edit_2"><g id="filter-edit"><g id="Group"><path id="Vector" d="M5.33008 2H18.67C19.78 2 20.6901 2.90999 20.6901 4.01999V6.23999C20.6901 7.04999 20.1801 8.06 19.6801 8.56" stroke="currentColor" stroke-width="1.5" stroke-miterlimit="10" stroke-linecap="round" stroke-linejoin="round"/><path id="Vector_2" d="M13.41 20.7892L12.0001 21.6992C10.6901 22.5092 8.87006 21.5992 8.87006 19.9792V14.6292C8.87006 13.9192 8.47006 13.0092 8.06006 12.5092L4.22003 8.46921C3.71003 7.95921 3.31006 7.05922 3.31006 6.44922" stroke="currentColor" stroke-width="1.5" stroke-miterlimit="10" stroke-linecap="round" stroke-linejoin="round"/></g><g id="Group_2"><path id="Vector_3" d="M17.0799 11.8894L13.5399 15.4294C13.3999 15.5694 13.2699 15.8294 13.2399 16.0194L13.0499 17.3694C12.9799 17.8594 13.3199 18.1994 13.8099 18.1294L15.1599 17.9394C15.3499 17.9094 15.6199 17.7794 15.7499 17.6394L19.2899 14.0994C19.8999 13.4894 20.1899 12.7794 19.2899 11.8794C18.3999 10.9894 17.6899 11.2794 17.0799 11.8894Z" stroke="currentColor" stroke-width="1.5" stroke-miterlimit="10" stroke-linecap="round" stroke-linejoin="round"/><path id="Vector_4" d="M16.58 12.3887C16.88 13.4687 17.7199 14.3086 18.7999 14.6086" stroke="currentColor" stroke-width="1.5" stroke-miterlimit="10" stroke-linecap="round" stroke-linejoin="round"/></g></g></g></g></svg>