<svg width="24" height="24" viewBox="0 0 24 24" fill="none" xmlns="http://www.w3.org/2000/svg"><g id="vuesax/broken/finger-scan"><g id="vuesax/broken/finger-scan_2"><g id="finger-scan"><path id="Vector" d="M12 9.11914C12.91 9.11914 13.65 9.85917 13.65 10.7692V13.2391C13.65 14.1491 12.91 14.8892 12 14.8892C11.09 14.8892 10.35 14.1491 10.35 13.2391" stroke="currentColor" stroke-width="1.5" stroke-linecap="round"/><path id="Vector_2" d="M16.98 13.4697C16.78 16.0497 14.62 18.0697 12 18.0697C9.24 18.0697 7 15.8297 7 13.0697V10.9297C7 8.16969 9.24 5.92969 12 5.92969C14.59 5.92969 16.72 7.89968 16.97 10.4197" stroke="currentColor" stroke-width="1.5" stroke-linecap="round"/><path id="Vector_3" d="M15 2H17C20 2 22 4 22 7V9" stroke="currentColor" stroke-width="1.5" stroke-miterlimit="10" stroke-linecap="round" stroke-linejoin="round"/><path id="Vector_4" d="M2 9V7C2 4 4 2 7 2H9" stroke="currentColor" stroke-width="1.5" stroke-miterlimit="10" stroke-linecap="round" stroke-linejoin="round"/><path id="Vector_5" d="M15 22H17C20 22 22 20 22 17V15" stroke="currentColor" stroke-width="1.5" stroke-miterlimit="10" stroke-linecap="round" stroke-linejoin="round"/><path id="Vector_6" d="M2 15V17C2 20 4 22 7 22H9" stroke="currentColor" stroke-width="1.5" stroke-miterlimit="10" stroke-linecap="round" stroke-linejoin="round"/></g></g></g></svg>