<svg width="24" height="24" viewBox="0 0 24 24" fill="none" xmlns="http://www.w3.org/2000/svg"><g id="vuesax/broken/finger-cricle"><g id="vuesax/broken/finger-cricle_2"><g id="finger-cricle"><path id="Vector" d="M12 22C17.5228 22 22 17.5228 22 12C22 6.47715 17.5228 2 12 2C6.47715 2 2 6.47715 2 12C2 17.5228 6.47715 22 12 22Z" stroke="currentColor" stroke-width="1.5" stroke-miterlimit="10" stroke-linecap="round" stroke-linejoin="round"/><path id="Vector_2" d="M12 9.11914C12.91 9.11914 13.65 9.85917 13.65 10.7692V13.2391C13.65 14.1491 12.91 14.8892 12 14.8892C11.09 14.8892 10.35 14.1491 10.35 13.2391" stroke="currentColor" stroke-width="1.5" stroke-linecap="round"/><path id="Vector_3" d="M16.98 13.4697C16.78 16.0497 14.62 18.0697 12 18.0697C9.24 18.0697 7 15.8297 7 13.0697V10.9297C7 8.16969 9.24 5.92969 12 5.92969C14.59 5.92969 16.72 7.89968 16.97 10.4197" stroke="currentColor" stroke-width="1.5" stroke-linecap="round"/></g></g></g></svg>