<svg width="24" height="24" viewBox="0 0 24 24" fill="none" xmlns="http://www.w3.org/2000/svg"><g id="vuesax/broken/flash-circle"><g id="vuesax/broken/flash-circle_2"><g id="flash-circle"><g id="Group"><path id="Vector" d="M8.67999 11.9098L10.33 12.3198L9.38 16.1599C9.16 17.0599 9.59998 17.3598 10.36 16.8298L15.54 13.2398C16.17 12.7998 16.08 12.2898 15.33 12.0998L13.68 11.6898L14.63 7.84981C14.85 6.94981 14.41 6.64983 13.65 7.17983L8.47 10.7699C7.84 11.2099 7.92999 11.7198 8.67999 11.9098Z" stroke="currentColor" stroke-width="1.5" stroke-miterlimit="10" stroke-linecap="round" stroke-linejoin="round"/></g><path id="Vector_2" d="M4 6C2.75 7.67 2 9.75 2 12C2 17.52 6.48 22 12 22C17.52 22 22 17.52 22 12C22 6.48 17.52 2 12 2C10.57 2 9.2 2.29998 7.97 2.84998" stroke="currentColor" stroke-width="1.5" stroke-linecap="round" stroke-linejoin="round"/></g></g></g></svg>