<svg width="24" height="24" viewBox="0 0 24 24" fill="none" xmlns="http://www.w3.org/2000/svg"><g id="vuesax/broken/folder-cloud"><g id="vuesax/broken/folder-cloud_2"><g id="folder-cloud"><path id="Vector" d="M2 7C2 3 3 2 7 2H8.5C10 2 10.33 2.44001 10.9 3.20001L12.4 5.20001C12.78 5.70001 13 6 14 6H17C21 6 22 7 22 11V13" stroke="currentColor" stroke-width="1.5" stroke-miterlimit="10" stroke-linecap="round" stroke-linejoin="round"/><path id="Vector_2" d="M9 21.9993H7C3 21.9993 2 20.9993 2 16.9993V12.0293" stroke="currentColor" stroke-width="1.5" stroke-miterlimit="10" stroke-linecap="round" stroke-linejoin="round"/><g id="Group"><path id="Vector_3" d="M13.7601 18.3204C11.4101 18.4904 11.4101 21.8904 13.7601 22.0604H19.3201C19.9901 22.0604 20.6501 21.8104 21.1401 21.3604C22.7901 19.9204 21.91 17.0404 19.74 16.7704C18.96 12.0804 12.1801 13.8604 13.7801 18.3304" stroke="currentColor" stroke-width="1.5" stroke-miterlimit="10" stroke-linecap="round" stroke-linejoin="round"/></g></g></g></g></svg>