<svg width="24" height="24" viewBox="0 0 24 24" fill="none" xmlns="http://www.w3.org/2000/svg"><g id="vuesax/broken/folder-open"><g id="vuesax/broken/folder-open_2"><path id="Vector" d="M21.37 18.02L21.27 19.3C21.12 20.83 21 22 18.29 22H5.71001C3.00001 22 2.88001 20.83 2.73001 19.3L2.33001 14.3C2.25001 13.47 2.51001 12.7 2.98001 12.11C2.99001 12.1 2.99001 12.1 3.00001 12.09C3.55001 11.42 4.38001 11 5.31001 11H18.69C19.62 11 20.44 11.42 20.98 12.07C20.99 12.08 21 12.09 21 12.1C21.49 12.69 21.76 13.46 21.67 14.3" stroke="currentColor" stroke-width="1.5" stroke-miterlimit="10" stroke-linecap="round" stroke-linejoin="round"/><path id="Vector_2" d="M3.5 11.4293V6.2793C3.5 2.8793 4.35 2.0293 7.75 2.0293H9.02C10.29 2.0293 10.58 2.4093 11.06 3.0493L12.33 4.7493C12.65 5.1693 12.84 5.4293 13.69 5.4293H16.24C19.64 5.4293 20.49 6.2793 20.49 9.6793V11.4693" stroke="currentColor" stroke-width="1.5" stroke-miterlimit="10" stroke-linecap="round" stroke-linejoin="round"/><path id="Vector_3" d="M9.42993 17H14.5699" stroke="currentColor" stroke-width="1.5" stroke-miterlimit="10" stroke-linecap="round" stroke-linejoin="round"/></g></g></svg>