<svg width="24" height="24" viewBox="0 0 24 24" fill="none" xmlns="http://www.w3.org/2000/svg"><g id="vuesax/broken/forward-item"><g id="vuesax/broken/forward-item_2"><g id="forward-item"><path id="Vector" d="M6.72998 14.9704C6.64998 14.5704 6.60999 14.1204 6.60999 13.6104V10.3804C6.60999 7.69037 7.68999 6.61035 10.38 6.61035H13.61C16.3 6.61035 17.38 7.69037 17.38 10.3804V13.6104C17.38 16.3004 16.3 17.3804 13.61 17.3804H10.38" stroke="currentColor" stroke-width="1.5" stroke-linecap="round" stroke-linejoin="round"/><path id="Vector_2" d="M22 5.76999V9C22 11.69 20.92 12.77 18.23 12.77H17.38V10.39C17.38 7.70001 16.3 6.62 13.61 6.62H11.23V5.76999C11.23 3.07999 12.31 2 15 2H18.23C20.92 2 22 3.07999 22 5.76999Z" stroke="currentColor" stroke-width="1.5" stroke-linecap="round" stroke-linejoin="round"/><path id="Vector_3" d="M12.77 17.3805V18.2305C12.77 20.9205 11.69 22.0005 9 22.0005H5.77C3.08 22.0005 2 20.9205 2 18.2305V15.0005C2 12.3105 3.08 11.2305 5.77 11.2305H6.62" stroke="currentColor" stroke-width="1.5" stroke-linecap="round" stroke-linejoin="round"/></g></g></g></svg>