<svg width="24" height="24" viewBox="0 0 24 24" fill="none" xmlns="http://www.w3.org/2000/svg"><g id="vuesax/broken/game"><g id="vuesax/broken/game_2"><g id="game"><path id="Vector" d="M9.57002 12.4609L6.52002 15.5109" stroke="currentColor" stroke-width="1.5" stroke-miterlimit="10" stroke-linecap="round" stroke-linejoin="round"/><path id="Vector_2" d="M6.55005 12.4902L9.60005 15.5402" stroke="currentColor" stroke-width="1.5" stroke-miterlimit="10" stroke-linecap="round" stroke-linejoin="round"/><path id="Vector_3" d="M13.53 14H13.54" stroke="currentColor" stroke-width="2" stroke-miterlimit="10" stroke-linecap="round" stroke-linejoin="round"/><path id="Vector_4" d="M17.47 14H17.48" stroke="currentColor" stroke-width="2" stroke-miterlimit="10" stroke-linecap="round" stroke-linejoin="round"/><path id="Vector_5" d="M15.5 15.9809V15.9609" stroke="currentColor" stroke-width="2" stroke-miterlimit="10" stroke-linecap="round" stroke-linejoin="round"/><path id="Vector_6" d="M15.5 12.0395V12.0195" stroke="currentColor" stroke-width="2" stroke-miterlimit="10" stroke-linecap="round" stroke-linejoin="round"/><path id="Vector_7" d="M2 15C2 20 4 22 9 22H15C20 22 22 20 22 15V13C22 8 20 6 15 6H9C5.25 6 3.19 7.12 2.39 9.8" stroke="currentColor" stroke-width="1.5" stroke-linecap="round" stroke-linejoin="round"/><path id="Vector_8" d="M13.01 2L13 3.01C12.99 3.56 12.55 4 12 4H11.97C11.42 4 10.98 4.45 10.98 5C10.98 5.55 11.43 6 11.98 6H12.98" stroke="currentColor" stroke-width="1.5" stroke-linecap="round" stroke-linejoin="round"/></g></g></g></svg>