<svg width="24" height="24" viewBox="0 0 24 24" fill="none" xmlns="http://www.w3.org/2000/svg"><g id="vuesax/broken/gift"><g id="vuesax/broken/gift_2"><g id="gift"><path id="Vector" d="M3.96997 18C3.96997 21 4.96997 22 7.96997 22H15.97C18.97 22 19.97 21 19.97 18V10H3.96997V13.84" stroke="currentColor" stroke-width="1.5" stroke-miterlimit="10" stroke-linecap="round" stroke-linejoin="round"/><path id="Vector_2" d="M21.5 7V8C21.5 9.1 20.97 10 19.5 10H4.5C2.97 10 2.5 9.1 2.5 8V7C2.5 5.9 2.97 5 4.5 5H19.5C20.97 5 21.5 5.9 21.5 7Z" stroke="currentColor" stroke-width="1.5" stroke-miterlimit="10" stroke-linecap="round" stroke-linejoin="round"/><path id="Vector_3" d="M11.64 4.99945H6.12C5.78 4.62945 5.79 4.05945 6.15 3.69945L7.57 2.27945C7.94 1.90945 8.55 1.90945 8.92 2.27945L11.64 4.99945Z" stroke="currentColor" stroke-width="1.5" stroke-miterlimit="10" stroke-linecap="round" stroke-linejoin="round"/><path id="Vector_4" d="M17.87 4.99945H12.35L15.07 2.27945C15.44 1.90945 16.05 1.90945 16.42 2.27945L17.84 3.69945C18.2 4.05945 18.21 4.62945 17.87 4.99945Z" stroke="currentColor" stroke-width="1.5" stroke-miterlimit="10" stroke-linecap="round" stroke-linejoin="round"/><path id="Vector_5" d="M8.94 10V15.14C8.94 15.94 9.82 16.41 10.49 15.98L11.43 15.36C11.77 15.14 12.2 15.14 12.53 15.36L13.42 15.96C14.08 16.4 14.97 15.93 14.97 15.13V10H8.94Z" stroke="currentColor" stroke-width="1.5" stroke-miterlimit="10" stroke-linecap="round" stroke-linejoin="round"/></g></g></g></svg>