<svg width="24" height="24" viewBox="0 0 24 24" fill="none" xmlns="http://www.w3.org/2000/svg"><g id="vuesax/broken/glass"><g id="vuesax/broken/glass_2"><g id="glass"><path id="Vector" d="M8.35998 7.62L8.74998 6.74H8.44998C7.79998 6.74 7.19998 6.48 6.76998 6.05C6.32998 5.62 6.06998 5.02 6.06998 4.37C6.06998 3.07 7.12998 2 8.43998 2H15.55C16.21 2 16.8 2.27 17.23 2.7C17.79 3.26 18.07 4.08 17.86 4.95C17.59 6.03 16.55 6.74 15.44 6.74H15.28L19.5 16.4C20.85 19.48 19.97 22 15.83 22H8.15998C3.97998 22 3.13998 19.47 4.49998 16.39L6.56998 11.69" stroke="currentColor" stroke-width="1.5" stroke-linecap="round" stroke-linejoin="round"/><path id="Vector_2" d="M5.94 13.1204C5.94 13.1204 9 13.0004 12 14.0004C15 15.0004 17.83 13.1104 17.83 13.1104" stroke="currentColor" stroke-width="1.5" stroke-linecap="round" stroke-linejoin="round"/></g></g></g></svg>