<svg width="24" height="24" viewBox="0 0 24 24" fill="none" xmlns="http://www.w3.org/2000/svg"><g id="vuesax/broken/global-edit"><g id="vuesax/broken/global-edit_2"><g id="global-edit"><path id="Vector" d="M21 8.99908C18.08 8.02908 15.04 7.53906 12 7.53906" stroke="currentColor" stroke-width="1.5" stroke-linecap="round" stroke-linejoin="round"/><path id="Vector_2" d="M3 8.99982C4.59 8.46982 6.21001 8.08984 7.85001 7.83984" stroke="currentColor" stroke-width="1.5" stroke-linecap="round" stroke-linejoin="round"/><path id="Vector_3" d="M22 12C22 6.48 17.52 2 12 2C6.48 2 2 6.48 2 12C2 17.52 6.48 22 12 22" stroke="currentColor" stroke-width="1.5" stroke-linecap="round" stroke-linejoin="round"/><path id="Vector_4" d="M8.00001 3H9.00001C7.05001 8.84 7.05001 15.16 9.00001 21H8.00001" stroke="currentColor" stroke-width="1.5" stroke-linecap="round" stroke-linejoin="round"/><path id="Vector_5" d="M15 3C15.97 5.92 16.46 8.96 16.46 12" stroke="currentColor" stroke-width="1.5" stroke-linecap="round" stroke-linejoin="round"/><path id="Vector_6" d="M3 16V15C5.92 15.97 8.96 16.46 12 16.46" stroke="currentColor" stroke-width="1.5" stroke-linecap="round" stroke-linejoin="round"/><g id="Group"><path id="Vector_7" d="M19.21 15.741L15.67 19.281C15.53 19.421 15.4 19.681 15.37 19.871L15.18 21.221C15.11 21.711 15.45 22.051 15.94 21.981L17.29 21.791C17.48 21.761 17.75 21.631 17.88 21.491L21.42 17.951C22.03 17.341 22.32 16.631 21.42 15.731C20.53 14.841 19.82 15.131 19.21 15.741Z" stroke="currentColor" stroke-width="1.5" stroke-miterlimit="10" stroke-linecap="round" stroke-linejoin="round"/><path id="Vector_8" d="M18.7 16.25C19 17.33 19.84 18.17 20.92 18.47" stroke="currentColor" stroke-width="1.5" stroke-miterlimit="10" stroke-linecap="round" stroke-linejoin="round"/></g></g></g></g></svg>