<svg width="24" height="24" viewBox="0 0 24 24" fill="none" xmlns="http://www.w3.org/2000/svg"><g id="vuesax/broken/global-refresh"><g id="vuesax/broken/global-refresh_2"><g id="global-refresh"><path id="Vector" d="M21 8.99908C18.08 8.02908 15.04 7.53906 12 7.53906" stroke="currentColor" stroke-width="1.5" stroke-linecap="round" stroke-linejoin="round"/><path id="Vector_2" d="M3 8.99982C4.59 8.46982 6.21001 8.08984 7.85001 7.83984" stroke="currentColor" stroke-width="1.5" stroke-linecap="round" stroke-linejoin="round"/><path id="Vector_3" d="M22 12C22 6.48 17.52 2 12 2C6.48 2 2 6.48 2 12C2 17.52 6.48 22 12 22" stroke="currentColor" stroke-width="1.5" stroke-linecap="round" stroke-linejoin="round"/><path id="Vector_4" d="M7.99998 3H8.99998C7.04998 8.84 7.04998 15.16 8.99998 21H7.99998" stroke="currentColor" stroke-width="1.5" stroke-linecap="round" stroke-linejoin="round"/><path id="Vector_5" d="M15 3C15.97 5.92 16.46 8.96 16.46 12" stroke="currentColor" stroke-width="1.5" stroke-linecap="round" stroke-linejoin="round"/><path id="Vector_6" d="M3 16V15C5.92 15.97 8.96 16.46 12 16.46" stroke="currentColor" stroke-width="1.5" stroke-linecap="round" stroke-linejoin="round"/><g id="Group"><path id="Vector_7" d="M19.5 14.6995C19.13 14.5895 18.71 14.5195 18.25 14.5195C16.18 14.5195 14.51 16.1995 14.51 18.2595C14.51 20.3295 16.19 21.9995 18.25 21.9995C20.31 21.9995 21.99 20.3195 21.99 18.2595C21.99 17.4895 21.76 16.7695 21.36 16.1795" stroke="currentColor" stroke-width="1.5" stroke-linecap="round" stroke-linejoin="round"/><g id="Group_2"><path id="Vector_8" d="M20.04 14.7991L18.79 13.3691" stroke="currentColor" stroke-width="1.5" stroke-linecap="round" stroke-linejoin="round"/><path id="Vector_9" d="M20.04 14.7988L18.58 15.8588" stroke="currentColor" stroke-width="1.5" stroke-linecap="round" stroke-linejoin="round"/></g></g></g></g></g></svg>