<svg width="24" height="24" viewBox="0 0 24 24" fill="none" xmlns="http://www.w3.org/2000/svg"><g id="vuesax/broken/gps-slash"><g id="vuesax/broken/gps-slash_2"><g id="gps-slash"><path id="Vector" d="M9 18.88C9.92 19.28 10.93 19.5 12 19.5C16.14 19.5 19.5 16.14 19.5 12C19.5 10.93 19.28 9.92 18.88 9" stroke="currentColor" stroke-width="1.5" stroke-linecap="round" stroke-linejoin="round"/><path id="Vector_2" d="M4.77 10.0098C4.59 10.6398 4.5 11.3098 4.5 11.9998C4.5 14.0098 5.29 15.8398 6.58 17.1898" stroke="currentColor" stroke-width="1.5" stroke-linecap="round" stroke-linejoin="round"/><path id="Vector_3" d="M17.21 6.6C15.86 5.3 14.02 4.5 12 4.5C10.08 4.5 8.33 5.22 7 6.41" stroke="currentColor" stroke-width="1.5" stroke-linecap="round" stroke-linejoin="round"/><path id="Vector_4" d="M12 4V2" stroke="currentColor" stroke-width="1.5" stroke-linecap="round" stroke-linejoin="round"/><path id="Vector_5" d="M4 12H2" stroke="currentColor" stroke-width="1.5" stroke-linecap="round" stroke-linejoin="round"/><path id="Vector_6" d="M12 20V22" stroke="currentColor" stroke-width="1.5" stroke-linecap="round" stroke-linejoin="round"/><path id="Vector_7" d="M20 12H22" stroke="currentColor" stroke-width="1.5" stroke-linecap="round" stroke-linejoin="round"/><path id="Vector_8" d="M14.12 9.88L9.88 14.12C9.34 13.58 9 12.83 9 12C9 10.34 10.34 9 12 9C12.83 9 13.58 9.34 14.12 9.88Z" stroke="currentColor" stroke-width="1.5" stroke-linecap="round" stroke-linejoin="round"/><path id="Vector_9" d="M22 2L2 22" stroke="currentColor" stroke-width="1.5" stroke-linecap="round" stroke-linejoin="round"/></g></g></g></svg>