<svg width="24" height="24" viewBox="0 0 24 24" fill="none" xmlns="http://www.w3.org/2000/svg"><g id="vuesax/broken/grid-lock"><g id="vuesax/broken/grid-lock_2"><g id="grid-lock"><g id="Group"><path id="Vector" d="M22 11V9C22 4 20 2 15 2H9C4 2 2 4 2 9V15C2 20 4 22 9 22H10" stroke="currentColor" stroke-width="1.5" stroke-linecap="round" stroke-linejoin="round"/><g id="Group_2"><path id="Vector_2" d="M5.03003 8.5H22" stroke="currentColor" stroke-width="1.5" stroke-linecap="round" stroke-linejoin="round"/><path id="Vector_3" d="M2.03003 15.5H12" stroke="currentColor" stroke-width="1.5" stroke-linecap="round" stroke-linejoin="round"/></g><g id="Group_3"><path id="Vector_4" d="M8.51001 21.9897V2.00977" stroke="currentColor" stroke-width="1.5" stroke-linecap="round" stroke-linejoin="round"/><path id="Vector_5" d="M15.51 11.9897V2.00977" stroke="currentColor" stroke-width="1.5" stroke-linecap="round" stroke-linejoin="round"/></g></g><g id="Group_4"><path id="Vector_6" d="M15.6 17.2V16.4C15.6 15.07 16 14 18 14C20 14 20.4 15.07 20.4 16.4V17.2" stroke="currentColor" stroke-width="1.5" stroke-linecap="round" stroke-linejoin="round"/><path id="Vector_7" d="M20 21.9993H16C14.4 21.9993 14 21.5993 14 19.9993V19.1992C14 17.5992 14.4 17.1992 16 17.1992H20C21.6 17.1992 22 17.5992 22 19.1992V19.9993C22 21.5993 21.6 21.9993 20 21.9993Z" stroke="currentColor" stroke-width="1.5" stroke-linecap="round" stroke-linejoin="round"/></g></g></g></g></svg>