<svg width="24" height="24" viewBox="0 0 24 24" fill="none" xmlns="http://www.w3.org/2000/svg"><g id="vuesax/broken/grid-eraser"><g id="vuesax/broken/grid-eraser_2"><g id="grid-eraser"><g id="Group"><path id="Vector" d="M22 11V9C22 4 20 2 15 2H9C4 2 2 4 2 9V15C2 20 4 22 9 22H10" stroke="currentColor" stroke-width="1.5" stroke-linecap="round" stroke-linejoin="round"/><g id="Group_2"><path id="Vector_2" d="M5.03003 8.5H22" stroke="currentColor" stroke-width="1.5" stroke-linecap="round" stroke-linejoin="round"/><path id="Vector_3" d="M2.03003 15.5H12" stroke="currentColor" stroke-width="1.5" stroke-linecap="round" stroke-linejoin="round"/></g><g id="Group_3"><path id="Vector_4" d="M8.51001 21.9897V2.00977" stroke="currentColor" stroke-width="1.5" stroke-linecap="round" stroke-linejoin="round"/><path id="Vector_5" d="M15.51 11.9897V2.00977" stroke="currentColor" stroke-width="1.5" stroke-linecap="round" stroke-linejoin="round"/></g></g><path id="Vector_6" d="M18.8 19.7009L16.9 21.601C16.38 22.121 15.52 22.121 14.99 21.601L13.41 20.011C12.89 19.491 12.89 18.631 13.41 18.101L15.31 16.2109L18.8 19.7009Z" stroke="currentColor" stroke-width="1.5" stroke-linecap="round" stroke-linejoin="round"/><path id="Vector_7" d="M21.61 16.9L18.8 19.7099L15.3 16.2099L18.11 13.39C18.63 12.87 19.5 12.87 20.02 13.39L21.6 14.98C22.13 15.51 22.13 16.38 21.61 16.9Z" stroke="currentColor" stroke-width="1.5" stroke-linecap="round" stroke-linejoin="round"/></g></g></g></svg>