<svg width="24" height="24" viewBox="0 0 24 24" fill="none" xmlns="http://www.w3.org/2000/svg"><g id="vuesax/broken/headphones"><g id="vuesax/broken/headphones_2"><g id="headphones"><path id="Vector" d="M8.5 12.0007V7.2207" stroke="currentColor" stroke-width="1.5" stroke-miterlimit="10" stroke-linecap="round" stroke-linejoin="round"/><path id="Vector_2" d="M8.5 22V19" stroke="currentColor" stroke-width="1.5" stroke-miterlimit="10" stroke-linecap="round" stroke-linejoin="round"/><path id="Vector_3" d="M15.5 10.0007V7.2207" stroke="currentColor" stroke-width="1.5" stroke-miterlimit="10" stroke-linecap="round" stroke-linejoin="round"/><path id="Vector_4" d="M15.5 22V13" stroke="currentColor" stroke-width="1.5" stroke-miterlimit="10" stroke-linecap="round" stroke-linejoin="round"/><path id="Vector_5" d="M10.1001 5.29999C10.1001 5.78999 9.90007 6.25001 9.57007 6.57001C9.25007 6.90001 8.80005 7.09998 8.30005 7.09998H6.05005C6.33005 6.72998 6.50006 6.25 6.50006 5.75V4.84998C6.50006 4.34998 6.33005 3.87 6.05005 3.5H8.30005C9.29005 3.5 10.1001 4.30999 10.1001 5.29999Z" stroke="currentColor" stroke-width="1.5" stroke-miterlimit="10" stroke-linecap="round" stroke-linejoin="round"/><path id="Vector_6" d="M6.5 4.85051V5.75054C6.5 6.25054 6.32999 6.73051 6.04999 7.10051C5.28999 8.11051 3.73 8.45051 2.28 7.16051C2.12 7.02051 2 6.72054 2 6.50054V4.16051C2 3.97051 2.10001 3.69052 2.23001 3.55052C3.49001 2.23052 5.01 2.42054 5.84 3.25054C5.91 3.32054 5.97999 3.40053 6.04999 3.49053C6.32999 3.87053 6.5 4.35051 6.5 4.85051Z" stroke="currentColor" stroke-width="1.5" stroke-miterlimit="10" stroke-linecap="round" stroke-linejoin="round"/><path id="Vector_7" d="M13.8999 5.29999C13.8999 5.78999 14.0999 6.25001 14.4299 6.57001C14.7499 6.90001 15.1999 7.09998 15.6999 7.09998H17.9499C17.6699 6.72998 17.4999 6.25 17.4999 5.75V4.84998C17.4999 4.34998 17.6699 3.87 17.9499 3.5H15.6999C14.7099 3.5 13.8999 4.30999 13.8999 5.29999Z" stroke="currentColor" stroke-width="1.5" stroke-miterlimit="10" stroke-linecap="round" stroke-linejoin="round"/><path id="Vector_8" d="M17.5 4.85051V5.75054C17.5 6.25054 17.67 6.73051 17.95 7.10051C18.71 8.11051 20.27 8.45051 21.72 7.16051C21.88 7.02051 22 6.72054 22 6.50054V4.16051C22 3.97051 21.9 3.69052 21.77 3.55052C20.51 2.23052 18.99 2.42054 18.16 3.25054C18.09 3.32054 18.02 3.40053 17.95 3.49053C17.67 3.87053 17.5 4.35051 17.5 4.85051Z" stroke="currentColor" stroke-width="1.5" stroke-miterlimit="10" stroke-linecap="round" stroke-linejoin="round"/><path id="Vector_9" d="M10 13.5V17.5C10 18.33 9.33 19 8.5 19C7.67 19 7 18.33 7 17.5V13.5C7 12.67 7.67 12 8.5 12C9.33 12 10 12.67 10 13.5Z" stroke="currentColor" stroke-width="1.5" stroke-miterlimit="10" stroke-linecap="round" stroke-linejoin="round"/></g></g></g></svg>