<svg width="24" height="24" viewBox="0 0 24 24" fill="none" xmlns="http://www.w3.org/2000/svg"><g id="vuesax/broken/heart-add"><g id="vuesax/broken/heart-add_2"><g id="heart-add"><g id="Group"><path id="Vector" d="M7.56 3.09961C9.37 3.09961 10.99 3.97965 12 5.32965C13.01 3.97965 14.63 3.09961 16.44 3.09961C19.51 3.09961 22 5.59964 22 8.68964C22 10.6596 21.49 12.3996 20.69 13.9096C19.81 12.9796 18.57 12.3997 17.2 12.3997C14.55 12.3997 12.4 14.5496 12.4 17.1996C12.4 18.4296 12.87 19.5497 13.63 20.3997C13.26 20.5697 12.92 20.7096 12.62 20.8096C12.28 20.9296 11.72 20.9296 11.38 20.8096C8.48 19.8196 2 15.6896 2 8.68964C2 7.13964 2.62 5.73961 3.63 4.72961" stroke="currentColor" stroke-width="1.5" stroke-linecap="round" stroke-linejoin="round"/></g><g id="Group_2"><path id="Vector_2" d="M17.2 22.0004C19.851 22.0004 22 19.8513 22 17.2004C22 14.5494 19.851 12.4004 17.2 12.4004C14.549 12.4004 12.4 14.5494 12.4 17.2004C12.4 19.8513 14.549 22.0004 17.2 22.0004Z" stroke="currentColor" stroke-width="1.5" stroke-miterlimit="10" stroke-linecap="round" stroke-linejoin="round"/><g id="Group_3"><path id="Vector_3" d="M18.9899 17.2598H15.4099" stroke="currentColor" stroke-width="1.5" stroke-miterlimit="10" stroke-linecap="round" stroke-linejoin="round"/><path id="Vector_4" d="M17.2 15.5098V19.0997" stroke="currentColor" stroke-width="1.5" stroke-miterlimit="10" stroke-linecap="round" stroke-linejoin="round"/></g></g></g></g></g></svg>