<svg width="24" height="24" viewBox="0 0 24 24" fill="none" xmlns="http://www.w3.org/2000/svg"><g id="vuesax/broken/hierarchy-square-3"><g id="vuesax/broken/hierarchy-square-3_2"><g id="hierarchy-square-3"><path id="Vector" d="M2 13.02V15C2 20 4 22 9 22H15C20 22 22 20 22 15V9C22 4 20 2 15 2H9C4 2 2 4 2 9" stroke="currentColor" stroke-width="1.5" stroke-linecap="round" stroke-linejoin="round"/><path id="Vector_2" d="M7.80005 13.7996V9.59961" stroke="currentColor" stroke-width="1.5" stroke-linecap="round" stroke-linejoin="round"/><path id="Vector_3" d="M7.95001 17.9996C9.02697 17.9996 9.90002 17.1265 9.90002 16.0496C9.90002 14.9726 9.02697 14.0996 7.95001 14.0996C6.87306 14.0996 6 14.9726 6 16.0496C6 17.1265 6.87306 17.9996 7.95001 17.9996Z" stroke="currentColor" stroke-width="1.5" stroke-linecap="round" stroke-linejoin="round"/><path id="Vector_4" d="M7.79999 9.60001C8.7941 9.60001 9.59998 8.7941 9.59998 7.79999C9.59998 6.80588 8.7941 6 7.79999 6C6.80588 6 6 6.80588 6 7.79999C6 8.7941 6.80588 9.60001 7.79999 9.60001Z" stroke="currentColor" stroke-width="1.5" stroke-linecap="round" stroke-linejoin="round"/><path id="Vector_5" d="M16.2 9.60001C17.1941 9.60001 18 8.7941 18 7.79999C18 6.80588 17.1941 6 16.2 6C15.2059 6 14.4 6.80588 14.4 7.79999C14.4 8.7941 15.2059 9.60001 16.2 9.60001Z" stroke="currentColor" stroke-width="1.5" stroke-linecap="round" stroke-linejoin="round"/><path id="Vector_6" d="M7.88 13.8001C8.15 12.7501 9.10999 11.9701 10.24 11.9801L12.3 11.9901C13.87 12.0001 15.21 10.9901 15.7 9.58008" stroke="currentColor" stroke-width="1.5" stroke-linecap="round" stroke-linejoin="round"/></g></g></g></svg>