<svg width="24" height="24" viewBox="0 0 24 24" fill="none" xmlns="http://www.w3.org/2000/svg"><g id="vuesax/broken/hierarchy-2"><g id="vuesax/broken/hierarchy-2_2"><g id="hierarchy-2"><path id="Vector" d="M5 15V8" stroke="currentColor" stroke-width="1.5" stroke-linecap="round" stroke-linejoin="round"/><path id="Vector_2" d="M5.25 22C7.04493 22 8.5 20.5449 8.5 18.75C8.5 16.9551 7.04493 15.5 5.25 15.5C3.45507 15.5 2 16.9551 2 18.75C2 20.5449 3.45507 22 5.25 22Z" stroke="currentColor" stroke-width="1.5" stroke-linecap="round" stroke-linejoin="round"/><path id="Vector_3" d="M5 8C6.65685 8 8 6.65685 8 5C8 3.34315 6.65685 2 5 2C3.34315 2 2 3.34315 2 5C2 6.65685 3.34315 8 5 8Z" stroke="currentColor" stroke-width="1.5" stroke-linecap="round" stroke-linejoin="round"/><path id="Vector_4" d="M19 8C20.6569 8 22 6.65685 22 5C22 3.34315 20.6569 2 19 2C17.3431 2 16 3.34315 16 5C16 6.65685 17.3431 8 19 8Z" stroke="currentColor" stroke-width="1.5" stroke-linecap="round" stroke-linejoin="round"/><path id="Vector_5" d="M5.13 15.0005C5.58 13.2505 7.18 11.9504 9.07 11.9604L12.5 11.9705C13.35 11.9705 14.17 11.8005 14.9 11.4805" stroke="currentColor" stroke-width="1.5" stroke-linecap="round" stroke-linejoin="round"/></g></g></g></svg>