<svg width="24" height="24" viewBox="0 0 24 24" fill="none" xmlns="http://www.w3.org/2000/svg"><g id="vuesax/broken/image"><g id="vuesax/broken/image_2"><g id="image"><path id="Vector" d="M12.33 12.8396C11.37 14.5696 9.58002 14.7196 8.34002 13.1696L8.12002 12.8896C6.83002 11.2696 5.01002 11.4696 4.08002 13.3196L2.36002 16.7696C1.16002 19.1696 2.91002 21.9996 5.59002 21.9996H18.35C20.94 21.9996 22.69 19.3496 21.67 16.9596L18.54 9.64964C17.48 7.16964 15.53 7.06964 14.22 9.42964" stroke="currentColor" stroke-width="1.5" stroke-linecap="round" stroke-linejoin="round"/><path id="Vector_2" d="M9.96997 5C9.96997 6.66 8.62997 8 6.96997 8C5.30997 8 3.96997 6.66 3.96997 5C3.96997 3.34 5.30997 2 6.96997 2C7.32997 2 7.66997 2.06 7.97997 2.18" stroke="currentColor" stroke-width="1.5" stroke-linecap="round" stroke-linejoin="round"/></g></g></g></svg>