<svg width="24" height="24" viewBox="0 0 24 24" fill="none" xmlns="http://www.w3.org/2000/svg"><g id="vuesax/broken/key-square"><g id="vuesax/broken/key-square_2"><g id="key-square"><path id="Vector" d="M2 12.97V15C2 20 4 22 9 22H15C20 22 22 20 22 15V9C22 4 20 2 15 2H9C4 2 2 4 2 9" stroke="currentColor" stroke-width="1.5" stroke-linecap="round" stroke-linejoin="round"/><path id="Vector_2" d="M16.28 13.6106C15.15 14.7406 13.53 15.0906 12.1 14.6406L9.51 17.2206C9.33 17.4106 8.96 17.5306 8.69 17.4906L7.49 17.3306C7.09 17.2806 6.73 16.9006 6.67 16.5106L6.51 15.3106C6.47 15.0506 6.6 14.6806 6.78 14.4906L9.36 11.9106C8.92 10.4806 9.26 8.86063 10.39 7.73063C12.01 6.11063 14.65 6.11063 16.28 7.73063C17.9 9.34063 17.9 11.9806 16.28 13.6106Z" stroke="currentColor" stroke-width="1.5" stroke-miterlimit="10" stroke-linecap="round" stroke-linejoin="round"/><path id="Vector_3" d="M10.45 16.2799L9.6 15.4199" stroke="currentColor" stroke-width="1.5" stroke-miterlimit="10" stroke-linecap="round" stroke-linejoin="round"/><path id="Vector_4" d="M13.3945 10.6992H13.4035" stroke="currentColor" stroke-width="2" stroke-linecap="round" stroke-linejoin="round"/></g></g></g></svg>