<svg width="24" height="24" viewBox="0 0 24 24" fill="none" xmlns="http://www.w3.org/2000/svg"><g id="vuesax/broken/key"><g id="vuesax/broken/key_2"><g id="key"><path id="Vector" d="M12.99 2.14972C15.37 1.68972 17.94 2.37972 19.79 4.21972C22.74 7.16972 22.74 11.9797 19.79 14.9197C17.73 16.9697 14.78 17.5997 12.19 16.7897L7.48 21.4897C7.14 21.8397 6.47 22.0497 5.99 21.9797L3.81 21.6797C3.09 21.5797 2.42 20.8997 2.31 20.1797L2.01 17.9997C1.94 17.5197 2.17 16.8497 2.5 16.5097L3.62 15.3897L7.19 11.8197C6.39 9.21972 7.01 6.26972 9.07 4.21972" stroke="currentColor" stroke-width="1.5" stroke-miterlimit="10" stroke-linecap="round" stroke-linejoin="round"/><path id="Vector_2" d="M6.89 17.4902L9.19 19.7902" stroke="currentColor" stroke-width="1.5" stroke-miterlimit="10" stroke-linecap="round" stroke-linejoin="round"/><path id="Vector_3" d="M14.5 11C15.3284 11 16 10.3284 16 9.5C16 8.67157 15.3284 8 14.5 8C13.6716 8 13 8.67157 13 9.5C13 10.3284 13.6716 11 14.5 11Z" stroke="currentColor" stroke-width="1.5" stroke-linecap="round" stroke-linejoin="round"/></g></g></g></svg>