<svg width="24" height="24" viewBox="0 0 24 24" fill="none" xmlns="http://www.w3.org/2000/svg"><g id="vuesax/broken/keyboard-open"><g id="vuesax/broken/keyboard-open_2"><g id="keyboard-open"><g id="Group"><path id="Vector" d="M2 7.26001C2 3.70001 2.75 2.40003 5.52 2.09003C6.04 2.02003 6.61 2 7.27 2H16.74C17.39 2 17.97 2.02003 18.49 2.09003C21.26 2.40003 22.01 3.70001 22.01 7.26001V13.58C22.01 17.14 21.26 18.44 18.49 18.75C17.97 18.82 17.4 18.84 16.74 18.84H7.27C6.62 18.84 6.04 18.82 5.52 18.75C2.75 18.44 2 17.14 2 13.58V11.1" stroke="currentColor" stroke-width="1.5" stroke-linecap="round" stroke-linejoin="round"/><path id="Vector_2" d="M13.5801 8.32031H17.2601" stroke="currentColor" stroke-width="1.5" stroke-linecap="round" stroke-linejoin="round"/><path id="Vector_3" d="M6.73999 14.1094H6.75998H17.27" stroke="currentColor" stroke-width="1.5" stroke-linecap="round" stroke-linejoin="round"/></g><path id="Vector_4" d="M7 22H17" stroke="currentColor" stroke-width="1.5" stroke-linecap="round" stroke-linejoin="round"/><path id="Vector_5" d="M7.1947 8.30078H7.20368" stroke="currentColor" stroke-width="2" stroke-linecap="round" stroke-linejoin="round"/><path id="Vector_6" d="M10.4945 8.30078H10.5035" stroke="currentColor" stroke-width="2" stroke-linecap="round" stroke-linejoin="round"/></g></g></g></svg>