<svg width="24" height="24" viewBox="0 0 24 24" fill="none" xmlns="http://www.w3.org/2000/svg"><g id="vuesax/broken/kyber-network-(knc)"><g id="vuesax/broken/kyber-network-(knc)_2"><g id="kyber-network-(knc)"><path id="Vector" d="M5 11.7004V15.9704C5 16.6204 5.31003 17.2204 5.84003 17.6004L10.84 21.1704C11.54 21.6704 12.47 21.6704 13.16 21.1704L18.16 17.6004C18.69 17.2204 19 16.6204 19 15.9704V7.16036C19 6.44036 18.62 5.78035 17.99 5.42035L12.99 2.56035C12.38 2.21035 11.62 2.21035 11.01 2.56035L6.01001 5.42035C5.39001 5.78035 5 6.44036 5 7.16036" stroke="currentColor" stroke-width="1.5" stroke-miterlimit="10" stroke-linecap="round" stroke-linejoin="round"/><path id="Vector_2" d="M12 3L10 12L11.85 21.23" stroke="currentColor" stroke-width="1.5" stroke-miterlimit="10" stroke-linecap="round" stroke-linejoin="round"/><path id="Vector_3" d="M18.16 16.9098L10 11.9998L18.54 7.25977" stroke="currentColor" stroke-width="1.5" stroke-miterlimit="10" stroke-linecap="round" stroke-linejoin="round"/></g></g></g></svg>