<svg width="24" height="24" viewBox="0 0 24 24" fill="none" xmlns="http://www.w3.org/2000/svg"><g id="vuesax/broken/lamp-slash"><g id="vuesax/broken/lamp-slash_2"><g id="lamp-slash"><path id="Vector" d="M20.0299 2.48047L4.17993 18.3305" stroke="currentColor" stroke-width="1.5" stroke-linecap="round" stroke-linejoin="round"/><path id="Vector_2" d="M13.6001 2.16992C15.0601 2.48992 16.3601 3.26992 17.3601 4.34992" stroke="currentColor" stroke-width="1.5" stroke-linecap="round" stroke-linejoin="round"/><path id="Vector_3" d="M5.25008 12.9998C4.83008 12.0298 4.58008 10.9798 4.58008 9.89977C4.58008 6.51976 6.57008 3.63977 9.38008 2.50977" stroke="currentColor" stroke-width="1.5" stroke-linecap="round" stroke-linejoin="round"/><path id="Vector_4" d="M19.0599 7.2998C20.2799 11.1798 18.3099 15.0798 15.5199 16.8698V18.0298C15.5199 18.3198 15.6199 18.9898 14.6199 18.9898H9.41991C8.38991 18.9898 8.51991 18.5598 8.51991 18.0298V16.8698C8.03991 16.5698 7.58991 16.1998 7.15991 15.7698" stroke="currentColor" stroke-width="1.5" stroke-linecap="round" stroke-linejoin="round"/><path id="Vector_5" d="M8.5 22.0002C10.79 21.3502 13.21 21.3502 15.5 22.0002" stroke="currentColor" stroke-width="1.5" stroke-linecap="round" stroke-linejoin="round"/></g></g></g></svg>