<svg width="24" height="24" viewBox="0 0 24 24" fill="none" xmlns="http://www.w3.org/2000/svg"><g id="vuesax/broken/layer"><g id="vuesax/broken/layer_2"><g id="layer"><path id="Vector" d="M18.92 5.54031C20.62 6.29031 20.62 7.53031 18.92 8.28031L13.02 10.9003C12.35 11.2003 11.25 11.2003 10.58 10.9003L4.68 8.28031C2.98 7.53031 2.98 6.29031 4.68 5.54031L10.58 2.92031C11.25 2.62031 12.35 2.62031 13.02 2.92031L14.94 3.77031" stroke="currentColor" stroke-width="1.5" stroke-linecap="round" stroke-linejoin="round"/><path id="Vector_2" d="M3 11C3 11.84 3.63 12.81 4.4 13.15L11.19 16.17C11.71 16.4 12.3 16.4 12.81 16.17L19.6 13.15C20.37 12.81 21 11.84 21 11" stroke="currentColor" stroke-width="1.5" stroke-linecap="round" stroke-linejoin="round"/><path id="Vector_3" d="M3 16C3 16.93 3.55 17.77 4.4 18.15L11.19 21.17C11.71 21.4 12.3 21.4 12.81 21.17L19.6 18.15C20.45 17.77 21 16.93 21 16" stroke="currentColor" stroke-width="1.5" stroke-linecap="round" stroke-linejoin="round"/></g></g></g></svg>