<svg width="24" height="24" viewBox="0 0 24 24" fill="none" xmlns="http://www.w3.org/2000/svg"><g id="vuesax/broken/like-shapes"><g id="vuesax/broken/like-shapes_2"><g id="like-shapes"><g id="Group"><path id="Vector" d="M9.89001 14.82L11.34 15.94C11.53 16.13 11.95 16.22 12.23 16.22H14C14.56 16.22 15.17 15.8 15.31 15.24L16.43 11.82C16.66 11.17 16.24 10.6 15.54 10.6H13.67C13.39 10.6 13.16 10.3701 13.2 10.0401L13.43 8.54008C13.52 8.12008 13.24 7.65005 12.82 7.51005C12.45 7.37005 11.98 7.56 11.79 7.84L9.87 10.69" stroke="currentColor" stroke-width="1.5" stroke-miterlimit="10"/><path id="Vector_2" d="M7.5 14.8196V10.2396C7.5 9.57962 7.78 9.34961 8.44 9.34961H8.91C9.56 9.34961 9.85001 9.57962 9.85001 10.2396V14.8196C9.85001 15.4696 9.57 15.7096 8.91 15.7096H8.44C7.78 15.7096 7.5 15.4796 7.5 14.8196Z" stroke="currentColor" stroke-width="1.5" stroke-linecap="round" stroke-linejoin="round"/></g><path id="Vector_3" d="M14.66 20.0105L13.14 21.5305C12.52 22.1505 11.5 22.1505 10.88 21.5305L9.36002 20.0105C9.10002 19.7505 8.59005 19.5405 8.23005 19.5405H6.08002C5.20002 19.5405 4.48005 18.8204 4.48005 17.9404V15.7905C4.48005 15.4305 4.27004 14.9205 4.01004 14.6605L2.49002 13.1405C1.87002 12.5205 1.87002 11.5005 2.49002 10.8805L4.01004 9.36047C4.27004 9.10047 4.48005 8.59047 4.48005 8.23047V6.08044C4.48005 5.20044 5.20002 4.48047 6.08002 4.48047" stroke="currentColor" stroke-width="1.5" stroke-linecap="round" stroke-linejoin="round"/><path id="Vector_4" d="M9.33997 3.99088L10.86 2.47086C11.48 1.85086 12.5 1.85086 13.12 2.47086L14.64 3.99088C14.9 4.25088 15.41 4.46085 15.77 4.46085H17.92C18.8 4.46085 19.52 5.18095 19.52 6.06095V8.21085C19.52 8.57085 19.73 9.08085 19.99 9.34085L21.51 10.8609C22.13 11.4809 22.13 12.5009 21.51 13.1209L19.99 14.6409C19.73 14.9009 19.52 15.4109 19.52 15.7709V17.9209C19.52 18.8009 18.8 19.5209 17.92 19.5209" stroke="currentColor" stroke-width="1.5" stroke-linecap="round" stroke-linejoin="round"/></g></g></g></svg>