<svg width="24" height="24" viewBox="0 0 24 24" fill="none" xmlns="http://www.w3.org/2000/svg"><g id="vuesax/broken/like-dislike"><g id="vuesax/broken/like-dislike_2"><g id="like-dislike"><g id="Group"><path id="Vector" d="M4.92004 20.2804L6.69005 21.6504C6.92005 21.8804 7.43004 21.9903 7.78004 21.9903H9.95004C10.64 21.9903 11.38 21.4804 11.55 20.7904L12.92 16.6203C13.21 15.8203 12.69 15.1303 11.83 15.1303H9.54005C9.20005 15.1303 8.91005 14.8403 8.97005 14.4403L9.26005 12.6103C9.37005 12.1003 9.03004 11.5203 8.52004 11.3503C8.06004 11.1803 7.49005 11.4103 7.26005 11.7503L4.92004 15.2403" stroke="currentColor" stroke-width="1.5" stroke-miterlimit="10"/><path id="Vector_2" d="M2 20.2799C2 21.0799 2.34 21.3699 3.14 21.3699H3.71C4.51 21.3699 4.85 21.0799 4.85 20.2799V14.6799C4.85 13.8799 4.51 13.5898 3.71 13.5898H3.14C2.34 13.5898 2 13.8799 2 14.6799V16.1799" stroke="currentColor" stroke-width="1.5" stroke-linecap="round" stroke-linejoin="round"/></g><g id="Group_2"><path id="Vector_3" d="M19.0799 3.71973L17.3099 2.34973C17.0799 2.11973 16.5699 2.00977 16.2199 2.00977H14.0499C13.3599 2.00977 12.6199 2.51972 12.4499 3.20972L11.0799 7.37976C10.7899 8.17976 11.3099 8.86975 12.1699 8.86975H14.4599C14.7999 8.86975 15.0899 9.15981 15.0299 9.55981L14.7399 11.3898C14.6299 11.8998 14.9699 12.4798 15.4799 12.6498C15.9399 12.8198 16.5099 12.5898 16.7399 12.2498L19.0799 8.75977" stroke="currentColor" stroke-width="1.5" stroke-miterlimit="10"/><path id="Vector_4" d="M21.9999 3.71887C21.9999 2.91887 21.6599 2.62891 20.8599 2.62891H20.2899C19.4899 2.62891 19.1499 2.91887 19.1499 3.71887V9.31885C19.1499 10.1188 19.4899 10.4089 20.2899 10.4089H20.8599C21.6599 10.4089 21.9999 10.1188 21.9999 9.31885V7.9989" stroke="currentColor" stroke-width="1.5" stroke-linecap="round" stroke-linejoin="round"/></g></g></g></g></svg>