<svg width="24" height="24" viewBox="0 0 24 24" fill="none" xmlns="http://www.w3.org/2000/svg"><g id="vuesax/broken/link-circle"><g id="vuesax/broken/link-circle_2"><g id="link-circle"><path id="Vector" d="M7.93997 14.5099C7.31997 14.2799 6.76997 13.8299 6.41997 13.1899C5.61997 11.7299 6.10997 9.82989 7.52997 8.94989L9.86996 7.49988C11.28 6.61988 13.1 7.09987 13.9 8.54987C14.7 10.0099 14.21 11.9099 12.79 12.7899L12.48 13.0099" stroke="currentColor" stroke-width="1.5" stroke-linecap="round" stroke-linejoin="round"/><path id="Vector_2" d="M16.11 9.44922C16.73 9.67922 17.28 10.1292 17.63 10.7692C18.43 12.2292 17.94 14.1292 16.52 15.0092L14.1799 16.4592C12.7699 17.3392 10.9499 16.8592 10.1499 15.4092C9.34995 13.9492 9.83995 12.0492 11.2599 11.1692L11.57 10.9492" stroke="currentColor" stroke-width="1.5" stroke-linecap="round" stroke-linejoin="round"/><path id="Vector_3" d="M4 6C2.75 7.67 2 9.75 2 12C2 17.52 6.48 22 12 22C17.52 22 22 17.52 22 12C22 6.48 17.52 2 12 2C10.57 2 9.2 2.30001 7.97 2.85001" stroke="currentColor" stroke-width="1.5" stroke-linecap="round" stroke-linejoin="round"/></g></g></g></svg>