<svg width="24" height="24" viewBox="0 0 24 24" fill="none" xmlns="http://www.w3.org/2000/svg"><g id="vuesax/broken/magic-star"><g id="vuesax/broken/magic-star_2"><g id="magic-star"><g id="Group"><g id="Group_2"><path id="Vector" d="M4.27004 6.41926C3.68004 4.51926 4.74003 3.46924 6.63003 4.08924L9.58004 5.05924C10.08 5.21924 10.83 5.10923 11.25 4.79923L14.33 2.57923C16 1.37923 17.33 2.07925 17.29 4.12925L17.22 7.91926C17.21 8.43926 17.54 9.12925 17.96 9.43925L20.44 11.3193C22.03 12.5193 21.77 13.9892 19.87 14.5892L16.64 15.5993C16.1 15.7693 15.53 16.3593 15.39 16.9093L14.62 19.8493C14.01 22.1693 12.49 22.3992 11.23 20.3592L9.46999 17.5093C9.14999 16.9893 8.39 16.5993 7.79 16.6293L4.45003 16.7992C2.06003 16.9192 1.38002 15.5392 2.94002 13.7192L4.92 11.4193C5.11 11.1993 5.24002 10.8992 5.31002 10.5792" stroke="currentColor" stroke-width="1.5" stroke-linecap="round" stroke-linejoin="round"/></g><path id="Vector_2" d="M21.91 21.9987L18.88 18.9688" stroke="currentColor" stroke-width="1.5" stroke-linecap="round" stroke-linejoin="round"/></g></g></g></g></svg>