<svg width="24" height="24" viewBox="0 0 24 24" fill="none" xmlns="http://www.w3.org/2000/svg"><g id="vuesax/broken/magicpen"><g id="vuesax/broken/magicpen_2"><g id="magicpen"><path id="Vector" d="M16.98 10.0204L19.5 7.50043C20.33 6.67043 20.33 5.33043 19.5 4.50043C18.67 3.67043 17.33 3.67043 16.5 4.50043L3.5 17.5004C2.67 18.3304 2.67 19.6704 3.5 20.5004C4.33 21.3304 5.67 21.3304 6.5 20.5004L14.5 12.5004" stroke="currentColor" stroke-width="1.5" stroke-linecap="round" stroke-linejoin="round"/><path id="Vector_2" d="M18.01 8.99023L15.01 5.99023" stroke="currentColor" stroke-width="1.5" stroke-linecap="round" stroke-linejoin="round"/><path id="Vector_3" d="M9.56 3.5L10 5L8.5 4.56L7 5L7.44 3.5L7 2L8.5 2.44" stroke="currentColor" stroke-linecap="round" stroke-linejoin="round"/><path id="Vector_4" d="M4.5 8.44L6 8L5.56 9.5L6 11L4.5 10.56L3 11L3.44 9.5L3 8L4.5 8.44Z" stroke="currentColor" stroke-linecap="round" stroke-linejoin="round"/><path id="Vector_5" d="M18.44 14.5L18 13L19.5 13.44L21 13L20.56 14.5L21 16L19.5 15.56" stroke="currentColor" stroke-linecap="round" stroke-linejoin="round"/></g></g></g></svg>