<svg width="24" height="24" viewBox="0 0 24 24" fill="none" xmlns="http://www.w3.org/2000/svg"><g id="vuesax/broken/map"><g id="vuesax/broken/map_2"><g id="map"><path id="Vector" d="M4.27 5.48998L3.3 6.04998C2.75 6.36998 2.29 7.14998 2.29 7.78998V17.52C2.29 19.42 3.64 20.2 5.28 19.26L7.63 17.92C8.14 17.63 8.99 17.6 9.52 17.87L14.77 20.5C15.3 20.76 16.15 20.74 16.66 20.45L20.99 17.97C21.54 17.65 22 16.87 22 16.23V6.48998C22 4.58998 20.65 3.80998 19.01 4.74998L16.66 6.08998C16.15 6.37998 15.3 6.40998 14.77 6.13998L9.52 3.51998C8.99 3.25998 8.14 3.27998 7.63 3.56998" stroke="currentColor" stroke-width="1.5" stroke-linecap="round" stroke-linejoin="round"/><path id="Vector_2" d="M8.56 4V17" stroke="currentColor" stroke-width="1.5" stroke-linecap="round" stroke-linejoin="round"/><path id="Vector_3" d="M15.73 6.61914V19.9991" stroke="currentColor" stroke-width="1.5" stroke-linecap="round" stroke-linejoin="round"/></g></g></g></svg>