<svg width="24" height="24" viewBox="0 0 24 24" fill="none" xmlns="http://www.w3.org/2000/svg"><g id="vuesax/broken/maximize-circle"><g id="vuesax/broken/maximize-circle_2"><g id="maximize-circle"><path id="Vector" d="M17 3H21V7" stroke="currentColor" stroke-width="1.5" stroke-linecap="round" stroke-linejoin="round"/><path id="Vector_2" d="M15 9L21 3" stroke="currentColor" stroke-width="1.5" stroke-linecap="round" stroke-linejoin="round"/><path id="Vector_3" d="M7 21H3V17" stroke="currentColor" stroke-width="1.5" stroke-linecap="round" stroke-linejoin="round"/><path id="Vector_4" d="M9 15L3 21" stroke="currentColor" stroke-width="1.5" stroke-linecap="round" stroke-linejoin="round"/><path id="Vector_5" d="M7.64001 3C4.30001 4.62 2 8.04 2 12C2 12.69 2.07001 13.36 2.20001 14" stroke="currentColor" stroke-width="1.5" stroke-linecap="round" stroke-linejoin="round"/><path id="Vector_6" d="M14.02 2.20001C13.37 2.07001 12.69 2 12 2" stroke="currentColor" stroke-width="1.5" stroke-linecap="round" stroke-linejoin="round"/><path id="Vector_7" d="M9.97998 21.8C10.63 21.93 11.31 22 12 22C17.52 22 22 17.52 22 12C22 11.32 21.93 10.65 21.8 10" stroke="currentColor" stroke-width="1.5" stroke-linecap="round" stroke-linejoin="round"/></g></g></g></svg>