<svg width="24" height="24" viewBox="0 0 24 24" fill="none" xmlns="http://www.w3.org/2000/svg"><g id="vuesax/broken/menu-board"><g id="vuesax/broken/menu-board_2"><g id="menu-board"><path id="Vector" d="M1.1 19.0699C0.66 20.5299 1.72998 22 3.23998 22H16.38C17.42 22 18.31 21.3 18.56 20.29L21.93 6.76001C22.05 6.26001 22.01 5.76997 21.82 5.33997C21.49 4.53997 20.7 3.95996 19.75 3.95996H7.45001C6.47001 3.95996 5.58999 4.60005 5.30999 5.55005L2.67999 14.01" stroke="currentColor" stroke-width="1.5" stroke-miterlimit="10" stroke-linecap="round" stroke-linejoin="round"/><path id="Vector_2" d="M16 22H20.78C22.07 22 23.08 20.91 22.99 19.62L22 6" stroke="currentColor" stroke-width="1.5" stroke-miterlimit="10" stroke-linecap="round" stroke-linejoin="round"/><path id="Vector_3" d="M9.67999 6.38049L10.72 2.06055" stroke="currentColor" stroke-width="1.5" stroke-miterlimit="10" stroke-linecap="round" stroke-linejoin="round"/><path id="Vector_4" d="M16.38 6.38977L17.32 2.0498" stroke="currentColor" stroke-width="1.5" stroke-miterlimit="10" stroke-linecap="round" stroke-linejoin="round"/><path id="Vector_5" d="M7.70001 12H15.7" stroke="currentColor" stroke-width="1.5" stroke-miterlimit="10" stroke-linecap="round" stroke-linejoin="round"/><path id="Vector_6" d="M14.7 16H14" stroke="currentColor" stroke-width="1.5" stroke-miterlimit="10" stroke-linecap="round" stroke-linejoin="round"/><path id="Vector_7" d="M6.70001 16H11" stroke="currentColor" stroke-width="1.5" stroke-miterlimit="10" stroke-linecap="round" stroke-linejoin="round"/></g></g></g></svg>