<svg width="24" height="24" viewBox="0 0 24 24" fill="none" xmlns="http://www.w3.org/2000/svg"><g id="vuesax/broken/message-edit"><g id="vuesax/broken/message-edit_2"><g id="message-edit"><path id="Vector" d="M22 8C22 4 20 2 16 2H8C4 2 2 4 2 8V21C2 21.55 2.45 22 3 22H16C20 22 22 20 22 16V12" stroke="currentColor" stroke-width="1.5" stroke-linecap="round" stroke-linejoin="round"/><g id="Group"><path id="Vector_2" d="M15.51 11.7404L16.16 11.0904C16.2 11.0504 16.24 11.0104 16.28 10.9604C17.09 10.1004 17.41 9.09036 16.16 7.84036C14.84 6.52036 13.8 6.95036 12.91 7.84036L7.72004 13.0304C7.52004 13.2304 7.33004 13.6204 7.29004 13.9004L7.01004 15.8804C6.91004 16.6004 7.41004 17.1004 8.13004 17.0004L10.11 16.7204C10.39 16.6804 10.78 16.4904 10.98 16.2904L12.92 14.3504" stroke="currentColor" stroke-width="1.5" stroke-miterlimit="10" stroke-linecap="round" stroke-linejoin="round"/><path id="Vector_3" d="M12.17 8.58008C12.61 10.1501 13.84 11.3901 15.42 11.8301" stroke="currentColor" stroke-width="1.5" stroke-miterlimit="10" stroke-linecap="round" stroke-linejoin="round"/></g></g></g></g></svg>