<svg width="24" height="24" viewBox="0 0 24 24" fill="none" xmlns="http://www.w3.org/2000/svg"><g id="vuesax/broken/message-notif"><g id="vuesax/broken/message-notif_2"><g id="message-notif"><path id="Vector" d="M2 8C2 4 4 2 8 2H14" stroke="currentColor" stroke-width="1.5" stroke-miterlimit="10" stroke-linecap="round" stroke-linejoin="round"/><path id="Vector_2" d="M22 10V13C22 17 20 19 16 19H15.5C15.19 19 14.89 19.15 14.7 19.4L13.2 21.4C12.54 22.28 11.46 22.28 10.8 21.4L9.3 19.4C9.14 19.18 8.77 19 8.5 19H8C4 19 2 18 2 13V12" stroke="currentColor" stroke-width="1.5" stroke-miterlimit="10" stroke-linecap="round" stroke-linejoin="round"/><path id="Vector_3" d="M22 4.5C22 3.12 20.88 2 19.5 2C18.12 2 17 3.12 17 4.5C17 5.88 18.12 7 19.5 7" stroke="currentColor" stroke-width="1.5" stroke-linecap="round" stroke-linejoin="round"/><path id="Vector_4" d="M15.9965 11H16.0054" stroke="currentColor" stroke-width="2" stroke-linecap="round" stroke-linejoin="round"/><path id="Vector_5" d="M11.9955 11H12.0045" stroke="currentColor" stroke-width="2" stroke-linecap="round" stroke-linejoin="round"/><path id="Vector_6" d="M7.99451 11H8.00349" stroke="currentColor" stroke-width="2" stroke-linecap="round" stroke-linejoin="round"/></g></g></g></svg>