<svg width="24" height="24" viewBox="0 0 24 24" fill="none" xmlns="http://www.w3.org/2000/svg"><g id="vuesax/broken/message-question"><g id="vuesax/broken/message-question_2"><g id="message-question"><path id="Vector" d="M2 11.5597V13.4297C2 16.4297 4 18.4297 7 18.4297H11L15.45 21.3897C16.11 21.8297 17 21.3598 17 20.5598V18.4297C20 18.4297 22 16.4297 22 13.4297V7.42969C22 4.42969 20 2.42969 17 2.42969H7C4 2.42969 2 4.42969 2 7.42969" stroke="currentColor" stroke-width="1.5" stroke-miterlimit="10" stroke-linecap="round" stroke-linejoin="round"/><path id="Vector_2" d="M12.0001 11.3594V11.1494C12.0001 10.4694 12.4201 10.1094 12.8401 9.8194C13.2501 9.5394 13.66 9.17941 13.66 8.51941C13.66 7.59941 12.9201 6.85938 12.0001 6.85938C11.0801 6.85938 10.3401 7.59941 10.3401 8.51941" stroke="currentColor" stroke-width="1.5" stroke-linecap="round" stroke-linejoin="round"/><path id="Vector_3" d="M11.9955 13.75H12.0045" stroke="currentColor" stroke-width="1.5" stroke-linecap="round" stroke-linejoin="round"/></g></g></g></svg>