<svg width="24" height="24" viewBox="0 0 24 24" fill="none" xmlns="http://www.w3.org/2000/svg"><g id="vuesax/broken/messages-2"><g id="vuesax/broken/messages-2_2"><g id="messages-2"><path id="Vector" d="M13.17 2C8.28997 2 4.33997 5.68999 4.33997 10.24C4.33997 10.5 4.34997 10.75 4.37997 11C5.26997 10.42 6.33997 10.09 7.49997 10.09C10.54 10.09 13 12.39 13 15.23C13 16.42 12.56 17.52 11.82 18.39C12.26 18.45 12.71 18.48 13.17 18.48L17.36 20.97C18.07 21.4 18.96 20.82 18.86 19.99L18.47 16.83C20.61 15.33 22 12.94 22 10.24C22 7.16999 20.2 4.49001 17.52 3.07001" stroke="currentColor" stroke-width="1.5" stroke-linecap="round" stroke-linejoin="round"/><path id="Vector_2" d="M4.38 10.9998C5.27 10.4198 6.34 10.0898 7.5 10.0898C10.54 10.0898 13 12.3898 13 15.2298C13 16.4198 12.56 17.5198 11.82 18.3898C10.83 19.5898 9.26 20.3598 7.5 20.3598L4.89 21.9098C4.45 22.1798 3.89 21.8098 3.95 21.2998L4.2 19.3298C2.86 18.3998 2 16.9098 2 15.2298C2 14.9298 2.03 14.6398 2.08 14.3598" stroke="currentColor" stroke-width="1.5" stroke-linecap="round" stroke-linejoin="round"/></g></g></g></svg>