<svg width="24" height="24" viewBox="0 0 24 24" fill="none" xmlns="http://www.w3.org/2000/svg"><g id="vuesax/broken/mini-music-sqaure"><g id="vuesax/broken/mini-music-sqaure_2"><g id="mini-music-sqaure"><path id="Vector" d="M2 12.9805V15.0005C2 20.0005 4 22.0005 9 22.0005H11" stroke="currentColor" stroke-width="1.5" stroke-linecap="round" stroke-linejoin="round"/><path id="Vector_2" d="M22 10V9C22 4 20 2 15 2H9C4 2 2 4 2 9" stroke="currentColor" stroke-width="1.5" stroke-linecap="round" stroke-linejoin="round"/><g id="Group"><path id="Vector_3" d="M15.2701 22.0001C16.0654 22.0001 16.7101 21.3554 16.7101 20.5601C16.7101 19.7648 16.0654 19.1201 15.2701 19.1201C14.4748 19.1201 13.8301 19.7648 13.8301 20.5601C13.8301 21.3554 14.4748 22.0001 15.2701 22.0001Z" stroke="currentColor" stroke-width="1.5" stroke-linecap="round" stroke-linejoin="round"/><path id="Vector_4" d="M22.0002 19.6003V13.9603C22.0002 12.7603 21.2502 12.5903 20.4802 12.8003L17.5902 13.5904C17.0702 13.7304 16.7002 14.1503 16.7002 14.7503V15.7603V16.4403V20.5703" stroke="currentColor" stroke-width="1.5" stroke-linecap="round" stroke-linejoin="round"/><path id="Vector_5" d="M20.5601 21.0402C21.3554 21.0402 22.0001 20.3954 22.0001 19.6002C22.0001 18.8049 21.3554 18.1602 20.5601 18.1602C19.7648 18.1602 19.1201 18.8049 19.1201 19.6002C19.1201 20.3954 19.7648 21.0402 20.5601 21.0402Z" stroke="currentColor" stroke-width="1.5" stroke-linecap="round" stroke-linejoin="round"/><path id="Vector_6" d="M16.71 16.4302L22 14.9902" stroke="currentColor" stroke-width="1.5" stroke-linecap="round" stroke-linejoin="round"/></g></g></g></g></svg>