<svg width="24" height="24" viewBox="0 0 24 24" fill="none" xmlns="http://www.w3.org/2000/svg"><g id="vuesax/broken/money-add"><g id="vuesax/broken/money-add_2"><g id="money-add"><path id="Vector" d="M22 13.1396V14.9996C22 18.4996 20 19.9996 17 19.9996H8.5" stroke="currentColor" stroke-width="1.5" stroke-miterlimit="10" stroke-linecap="round" stroke-linejoin="round"/><path id="Vector_2" d="M2 15.3V9C2 5.5 4 4 7 4H17C20 4 22 5.5 22 9" stroke="currentColor" stroke-width="1.5" stroke-miterlimit="10" stroke-linecap="round" stroke-linejoin="round"/><path id="Vector_3" d="M14.5 12C14.5 10.62 13.38 9.5 12 9.5C10.62 9.5 9.5 10.62 9.5 12C9.5 13.38 10.62 14.5 12 14.5" stroke="currentColor" stroke-width="1.5" stroke-miterlimit="10" stroke-linecap="round" stroke-linejoin="round"/><path id="Vector_4" d="M18.5 9.5V14.5" stroke="currentColor" stroke-width="1.5" stroke-miterlimit="10" stroke-linecap="round" stroke-linejoin="round"/><g id="Group"><path id="Vector_5" d="M9 18C9 18.75 8.79001 19.46 8.42001 20.06C7.73001 21.22 6.46 22 5 22C3.54 22 2.26999 21.22 1.57999 20.06C1.20999 19.46 1 18.75 1 18C1 15.79 2.79 14 5 14C7.21 14 9 15.79 9 18Z" stroke="currentColor" stroke-width="1.5" stroke-miterlimit="10" stroke-linecap="round" stroke-linejoin="round"/><g id="Group_2"><path id="Vector_6" d="M6.48999 17.9795H3.51001" stroke="currentColor" stroke-width="1.5" stroke-miterlimit="10" stroke-linecap="round" stroke-linejoin="round"/><path id="Vector_7" d="M5 16.5195V19.5095" stroke="currentColor" stroke-width="1.5" stroke-miterlimit="10" stroke-linecap="round" stroke-linejoin="round"/></g></g></g></g></g></svg>