<svg width="24" height="24" viewBox="0 0 24 24" fill="none" xmlns="http://www.w3.org/2000/svg"><g id="vuesax/broken/money-remove"><g id="vuesax/broken/money-remove_2"><g id="money-remove"><path id="Vector" d="M22 13.1396V14.9996C22 18.4996 20 19.9996 17 19.9996H8.5" stroke="currentColor" stroke-width="1.5" stroke-miterlimit="10" stroke-linecap="round" stroke-linejoin="round"/><path id="Vector_2" d="M2 15.3V9C2 5.5 4 4 7 4H17C20 4 22 5.5 22 9" stroke="currentColor" stroke-width="1.5" stroke-miterlimit="10" stroke-linecap="round" stroke-linejoin="round"/><path id="Vector_3" d="M14.5 12C14.5 10.62 13.38 9.5 12 9.5C10.62 9.5 9.5 10.62 9.5 12C9.5 13.38 10.62 14.5 12 14.5" stroke="currentColor" stroke-width="1.5" stroke-miterlimit="10" stroke-linecap="round" stroke-linejoin="round"/><path id="Vector_4" d="M18.5 9.5V14.5" stroke="currentColor" stroke-width="1.5" stroke-miterlimit="10" stroke-linecap="round" stroke-linejoin="round"/><g id="Group"><path id="Vector_5" d="M9 18C9 18.75 8.78998 19.46 8.41998 20.06C7.72998 21.22 6.46 22 5 22C3.54 22 2.27002 21.22 1.58002 20.06C1.21002 19.46 1 18.75 1 18C1 15.79 2.79 14 5 14C7.21 14 9 15.79 9 18Z" stroke="currentColor" stroke-width="1.5" stroke-miterlimit="10" stroke-linecap="round" stroke-linejoin="round"/><g id="Group_2"><path id="Vector_6" d="M6.06995 19.0397L3.95996 16.9297" stroke="currentColor" stroke-width="1.5" stroke-miterlimit="10" stroke-linecap="round" stroke-linejoin="round"/><path id="Vector_7" d="M6.03992 16.96L3.92993 19.0699" stroke="currentColor" stroke-width="1.5" stroke-miterlimit="10" stroke-linecap="round" stroke-linejoin="round"/></g></g></g></g></g></svg>