<svg width="24" height="24" viewBox="0 0 24 24" fill="none" xmlns="http://www.w3.org/2000/svg"><g id="vuesax/broken/money-recive"><g id="vuesax/broken/money-recive_2"><g id="money-recive"><g id="Group"><path id="Vector" d="M9.5 13.7502C9.5 14.7202 10.25 15.5002 11.17 15.5002H13.05C13.85 15.5002 14.5 14.8202 14.5 13.9702C14.5 13.0602 14.1 12.7302 13.51 12.5202L10.5 11.4702C9.91 11.2602 9.51001 10.9402 9.51001 10.0202C9.51001 9.18023 10.16 8.49023 10.96 8.49023H12.84C13.76 8.49023 14.51 9.27023 14.51 10.2402" stroke="currentColor" stroke-width="1.5" stroke-linecap="round" stroke-linejoin="round"/><path id="Vector_2" d="M12 7.5V16.5" stroke="currentColor" stroke-width="1.5" stroke-linecap="round" stroke-linejoin="round"/></g><path id="Vector_3" d="M17 3V7H21" stroke="currentColor" stroke-width="1.5" stroke-linecap="round" stroke-linejoin="round"/><path id="Vector_4" d="M22 2L17 7" stroke="currentColor" stroke-width="1.5" stroke-linecap="round" stroke-linejoin="round"/><path id="Vector_5" d="M12 2C6.48 2 2 6.48 2 12C2 15.94 4.28001 19.35 7.60001 20.98" stroke="currentColor" stroke-width="1.5" stroke-linecap="round" stroke-linejoin="round"/><path id="Vector_6" d="M22 12C22 17.52 17.52 22 12 22" stroke="currentColor" stroke-width="1.5" stroke-linecap="round" stroke-linejoin="round"/></g></g></g></svg>