<svg width="24" height="24" viewBox="0 0 24 24" fill="none" xmlns="http://www.w3.org/2000/svg"><g id="vuesax/broken/moneys"><g id="vuesax/broken/moneys_2"><g id="moneys"><g id="Group"><path id="Vector" d="M1.69995 7.91949C1.69995 4.83949 3.45994 3.51953 6.09995 3.51953H14.89C17.13 3.51953 18.74 4.46953 19.17 6.63953C19.25 7.02953 19.2899 7.44949 19.2899 7.91949V13.0695C19.2899 16.1495 17.53 17.4695 14.89 17.4695H6.09995C5.64995 17.4695 5.21995 17.4295 4.81995 17.3395C4.56995 17.2995 4.32992 17.2295 4.10992 17.1495C2.60992 16.5895 1.69995 15.2895 1.69995 13.0695V11.9995" stroke="currentColor" stroke-width="1.5" stroke-miterlimit="10" stroke-linecap="round" stroke-linejoin="round"/><path id="Vector_2" d="M22.2998 15.0096V16.0696C22.2998 19.1496 20.5398 20.4696 17.8998 20.4696H9.10983C8.36983 20.4696 7.69984 20.3697 7.11984 20.1497C5.92984 19.7097 5.11983 18.7997 4.82983 17.3397C5.22983 17.4297 5.65983 17.4696 6.10983 17.4696H14.8998C17.5398 17.4696 19.2998 16.1496 19.2998 13.0696V7.91962C19.2998 7.44962 19.2598 7.02965 19.1798 6.63965C21.0898 7.02965 22.2998 8.36962 22.2998 10.9196" stroke="currentColor" stroke-width="1.5" stroke-miterlimit="10" stroke-linecap="round" stroke-linejoin="round"/><path id="Vector_3" d="M13.1399 10.4994C13.1399 9.03939 11.9599 7.85938 10.4999 7.85938C9.03988 7.85938 7.85986 9.03939 7.85986 10.4994C7.85986 11.9594 9.03988 13.1394 10.4999 13.1394" stroke="currentColor" stroke-width="1.5" stroke-miterlimit="10" stroke-linecap="round" stroke-linejoin="round"/><path id="Vector_4" d="M4.78003 8.2998V12.6998" stroke="currentColor" stroke-width="1.5" stroke-miterlimit="10" stroke-linecap="round" stroke-linejoin="round"/><path id="Vector_5" d="M16.22 8.2998V12.6998" stroke="currentColor" stroke-width="1.5" stroke-miterlimit="10" stroke-linecap="round" stroke-linejoin="round"/></g></g></g></g></svg>