<svg width="24" height="24" viewBox="0 0 24 24" fill="none" xmlns="http://www.w3.org/2000/svg"><g id="vuesax/broken/monitor-mobbile"><g id="vuesax/broken/monitor-mobbile_2"><g id="monitor-mobbile"><path id="Vector" d="M2 6.7393C2 3.3693 2.84 2.5293 6.21 2.5293H16.74C20.11 2.5293 20.95 3.3693 20.95 6.7393" stroke="currentColor" stroke-width="1.5" stroke-linecap="round" stroke-linejoin="round"/><path id="Vector_2" d="M10 16.9496H6.21C2.84 16.9496 2 16.1096 2 12.7396V10.8496" stroke="currentColor" stroke-width="1.5" stroke-linecap="round" stroke-linejoin="round"/><path id="Vector_3" d="M10 21.4692V16.9492" stroke="currentColor" stroke-width="1.5" stroke-linecap="round" stroke-linejoin="round"/><path id="Vector_4" d="M2 12.9492H10" stroke="currentColor" stroke-width="1.5" stroke-linecap="round" stroke-linejoin="round"/><path id="Vector_5" d="M6.73999 21.4707H9.99999" stroke="currentColor" stroke-width="1.5" stroke-linecap="round" stroke-linejoin="round"/><path id="Vector_6" d="M22 12.7998C22 10.4298 21.41 9.83984 19.04 9.83984H15.49C13.12 9.83984 12.53 10.4298 12.53 12.7998V18.5098C12.53 20.8798 13.12 21.4698 15.49 21.4698H19.04C21.41 21.4698 22 20.8798 22 18.5098V16.9398" stroke="currentColor" stroke-width="1.5" stroke-linecap="round" stroke-linejoin="round"/><path id="Vector_7" d="M17.2445 18.25H17.2535" stroke="currentColor" stroke-width="2" stroke-linecap="round" stroke-linejoin="round"/></g></g></g></svg>