<svg width="24" height="24" viewBox="0 0 24 24" fill="none" xmlns="http://www.w3.org/2000/svg"><g id="vuesax/broken/monitor-recorder"><g id="vuesax/broken/monitor-recorder_2"><path id="Vector" d="M2 6.44C2 2.89 2.89 2 6.44 2H8" stroke="currentColor" stroke-width="1.5" stroke-linecap="round" stroke-linejoin="round"/><path id="Vector_2" d="M22 11.8891V12.7791C22 16.3391 21.11 17.2191 17.56 17.2191H6.44C2.89 17.2191 2 16.3291 2 12.7791V10.7891" stroke="currentColor" stroke-width="1.5" stroke-linecap="round" stroke-linejoin="round"/><path id="Vector_3" d="M12 17.2207V22.0007" stroke="currentColor" stroke-width="1.5" stroke-linecap="round" stroke-linejoin="round"/><path id="Vector_4" d="M2 13H22" stroke="currentColor" stroke-width="1.5" stroke-linecap="round" stroke-linejoin="round"/><path id="Vector_5" d="M7.5 22H16.5" stroke="currentColor" stroke-width="1.5" stroke-linecap="round" stroke-linejoin="round"/><path id="Vector_6" d="M17.86 9.36977H13.1C11.72 9.36977 11.26 8.44977 11.26 7.52977V4.00977C11.26 2.90977 12.16 2.00977 13.26 2.00977H17.86C18.88 2.00977 19.7 2.82977 19.7 3.84977V7.52977C19.7 8.54977 18.88 9.36977 17.86 9.36977Z" stroke="currentColor" stroke-width="1.5" stroke-linecap="round" stroke-linejoin="round"/><path id="Vector_7" d="M20.91 7.92046L19.7 7.07046V4.31046L20.91 3.46046C21.51 3.05046 22 3.30046 22 4.03046V7.36046C22 8.09046 21.51 8.34046 20.91 7.92046Z" stroke="currentColor" stroke-width="1.5" stroke-linecap="round" stroke-linejoin="round"/></g></g></svg>