<svg width="24" height="24" viewBox="0 0 24 24" fill="none" xmlns="http://www.w3.org/2000/svg"><g id="vuesax/broken/mouse-square"><g id="vuesax/broken/mouse-square_2"><g id="mouse-square"><path id="Vector" d="M2 13.0195V14.9995C2 19.9995 4 21.9995 9 21.9995H12" stroke="currentColor" stroke-width="1.5" stroke-linecap="round" stroke-linejoin="round"/><path id="Vector_2" d="M22 12V9C22 4 20 2 15 2H9C4 2 2 4 2 9" stroke="currentColor" stroke-width="1.5" stroke-linecap="round" stroke-linejoin="round"/><path id="Vector_3" d="M20.96 17.8405L19.33 18.3905C18.88 18.5405 18.52 18.8905 18.37 19.3505L17.82 20.9805C17.35 22.3905 15.37 22.3605 14.93 20.9505L13.08 15.0005C12.72 13.8205 13.81 12.7205 14.98 13.0905L20.94 14.9405C22.34 15.3805 22.36 17.3705 20.96 17.8405Z" stroke="currentColor" stroke-width="1.5" stroke-linecap="round" stroke-linejoin="round"/></g></g></g></svg>