<svg width="24" height="24" viewBox="0 0 24 24" fill="none" xmlns="http://www.w3.org/2000/svg"><g id="vuesax/broken/mouse"><g id="vuesax/broken/mouse_2"><g id="mouse"><path id="Vector" d="M16.1499 12.8299L14.4199 13.4099C13.9399 13.5699 13.5699 13.9399 13.4099 14.4199L12.8299 16.1499C12.3399 17.6399 10.2399 17.6099 9.77994 16.1199L7.82994 9.83988C7.44994 8.58988 8.59994 7.43989 9.82994 7.81989L16.1199 9.76987C17.6099 10.2399 17.6299 12.3399 16.1499 12.8299Z" stroke="currentColor" stroke-width="1.5" stroke-linecap="round" stroke-linejoin="round"/><path id="Vector_2" d="M4 6C2.75 7.67 2 9.75 2 12C2 17.52 6.48 22 12 22C17.52 22 22 17.52 22 12C22 6.48 17.52 2 12 2C10.57 2 9.2 2.30001 7.97 2.85001" stroke="currentColor" stroke-width="1.5" stroke-linecap="round" stroke-linejoin="round"/></g></g></g></svg>