<svg width="24" height="24" viewBox="0 0 24 24" fill="none" xmlns="http://www.w3.org/2000/svg"><g id="vuesax/broken/mouse-circle"><g id="vuesax/broken/mouse-circle_2"><g id="mouse-circle"><path id="Vector" d="M20.96 17.8405L19.33 18.3905C18.88 18.5405 18.52 18.8905 18.37 19.3505L17.82 20.9805C17.35 22.3905 15.37 22.3605 14.93 20.9505L13.08 15.0005C12.72 13.8205 13.8101 12.7205 14.9801 13.0905L20.94 14.9405C22.34 15.3805 22.36 17.3705 20.96 17.8405Z" stroke="currentColor" stroke-width="1.5" stroke-linecap="round" stroke-linejoin="round"/><path id="Vector_2" d="M3.98 6.0293C2.74 7.6993 2 9.7593 2 11.9993C2 17.5193 6.48 21.9993 12 21.9993" stroke="currentColor" stroke-width="1.5" stroke-linecap="round" stroke-linejoin="round"/><path id="Vector_3" d="M22 12C22 6.48 17.52 2 12 2C10.48 2 9.05001 2.34 7.76001 2.94" stroke="currentColor" stroke-width="1.5" stroke-linecap="round" stroke-linejoin="round"/></g></g></g></svg>