<svg width="24" height="24" viewBox="0 0 24 24" fill="none" xmlns="http://www.w3.org/2000/svg"><g id="vuesax/broken/music-playlist"><g id="vuesax/broken/music-playlist_2"><g id="music-playlist"><path id="Vector" d="M2 12C2 8.5 4 7 7 7H17C20 7 22 8.5 22 12V17C22 20.5 20 22 17 22H7C4 22 2 20.5 2 17V16.17" stroke="currentColor" stroke-width="1.5" stroke-miterlimit="10" stroke-linecap="round" stroke-linejoin="round"/><path id="Vector_2" d="M16 4.5H18" stroke="currentColor" stroke-width="1.5" stroke-miterlimit="10" stroke-linecap="round" stroke-linejoin="round"/><path id="Vector_3" d="M6 4.5H13.17" stroke="currentColor" stroke-width="1.5" stroke-miterlimit="10" stroke-linecap="round" stroke-linejoin="round"/><path id="Vector_4" d="M9 2H15" stroke="currentColor" stroke-width="1.5" stroke-miterlimit="10" stroke-linecap="round" stroke-linejoin="round"/><g id="Group"><path id="Vector_5" d="M8.89001 19.1101C9.64664 19.1101 10.26 18.4967 10.26 17.7401C10.26 16.9835 9.64664 16.3701 8.89001 16.3701C8.13338 16.3701 7.52002 16.9835 7.52002 17.7401C7.52002 18.4967 8.13338 19.1101 8.89001 19.1101Z" stroke="currentColor" stroke-width="1.5" stroke-linecap="round" stroke-linejoin="round"/><path id="Vector_6" d="M15.28 16.83V11.4799C15.28 10.3399 14.57 10.18 13.84 10.38L11.1 11.13C10.6 11.27 10.26 11.6599 10.26 12.2299V13.18V13.82V17.74" stroke="currentColor" stroke-width="1.5" stroke-linecap="round" stroke-linejoin="round"/><path id="Vector_7" d="M13.91 18.2C14.6667 18.2 15.2801 17.5866 15.2801 16.83C15.2801 16.0733 14.6667 15.46 13.91 15.46C13.1534 15.46 12.54 16.0733 12.54 16.83C12.54 17.5866 13.1534 18.2 13.91 18.2Z" stroke="currentColor" stroke-width="1.5" stroke-linecap="round" stroke-linejoin="round"/><path id="Vector_8" d="M10.26 13.83L15.28 12.46" stroke="currentColor" stroke-width="1.5" stroke-linecap="round" stroke-linejoin="round"/></g></g></g></g></svg>