<svg width="24" height="24" viewBox="0 0 24 24" fill="none" xmlns="http://www.w3.org/2000/svg"><g id="vuesax/broken/musicnote"><g id="vuesax/broken/musicnote_2"><g id="musicnote"><path id="Vector" d="M4.10997 16.98C4.01997 17.3 3.96997 17.65 3.96997 18C3.96997 20.21 5.75997 22 7.96997 22C10.18 22 11.97 20.21 11.97 18C11.97 15.79 10.18 14 7.96997 14C7.61997 14 7.26997 14.05 6.94997 14.13" stroke="currentColor" stroke-width="1.5" stroke-linecap="round" stroke-linejoin="round"/><path id="Vector_2" d="M11.97 18V4" stroke="currentColor" stroke-width="1.5" stroke-linecap="round" stroke-linejoin="round"/><path id="Vector_3" d="M14.61 2.11049L19.03 3.58049C20.1 3.94049 20.98 5.15049 20.98 6.28049V7.45049C20.98 8.98049 19.8 9.83049 18.35 9.35049L13.93 7.88049C12.86 7.52049 11.98 6.31049 11.98 5.18049V4.00049C11.97 2.48049 13.16 1.62049 14.61 2.11049Z" stroke="currentColor" stroke-width="1.5" stroke-linecap="round" stroke-linejoin="round"/></g></g></g></svg>