<svg width="24" height="24" viewBox="0 0 24 24" fill="none" xmlns="http://www.w3.org/2000/svg"><g id="vuesax/broken/music"><g id="vuesax/broken/music_2"><g id="music"><path id="Vector" d="M6.27991 21.9998C8.00304 21.9998 9.39991 20.6029 9.39991 18.8798C9.39991 17.1566 8.00304 15.7598 6.27991 15.7598C4.55678 15.7598 3.15991 17.1566 3.15991 18.8798C3.15991 20.6029 4.55678 21.9998 6.27991 21.9998Z" stroke="currentColor" stroke-width="1.5" stroke-linecap="round" stroke-linejoin="round"/><path id="Vector_2" d="M20.8399 7.96034V4.60034C20.8399 2.00034 19.2099 1.64034 17.5599 2.09034L11.3199 3.79034C10.1799 4.10034 9.3999 5.00034 9.3999 6.30034V8.47034V9.93034V18.8703" stroke="currentColor" stroke-width="1.5" stroke-linecap="round" stroke-linejoin="round"/><path id="Vector_3" d="M20.8401 16.8V12" stroke="currentColor" stroke-width="1.5" stroke-linecap="round" stroke-linejoin="round"/><path id="Vector_4" d="M17.7201 19.9197C19.4432 19.9197 20.8401 18.5228 20.8401 16.7997C20.8401 15.0766 19.4432 13.6797 17.7201 13.6797C15.997 13.6797 14.6001 15.0766 14.6001 16.7997C14.6001 18.5228 15.997 19.9197 17.7201 19.9197Z" stroke="currentColor" stroke-width="1.5" stroke-linecap="round" stroke-linejoin="round"/><path id="Vector_5" d="M9.3999 9.52039L20.8399 6.40039" stroke="currentColor" stroke-width="1.5" stroke-linecap="round" stroke-linejoin="round"/></g></g></g></svg>