<svg width="24" height="24" viewBox="0 0 24 24" fill="none" xmlns="http://www.w3.org/2000/svg"><g id="vuesax/broken/music-square"><g id="vuesax/broken/music-square_2"><g id="music-square"><path id="Vector" d="M2 12.99V15C2 20 4 22 9 22H15C20 22 22 20 22 15V9C22 4 20 2 15 2H9C4 2 2 4 2 9" stroke="currentColor" stroke-width="1.5" stroke-linecap="round" stroke-linejoin="round"/><g id="Group"><path id="Vector_2" d="M8.4201 17.1097C9.28719 17.1097 9.99011 16.4068 9.99011 15.5397C9.99011 14.6726 9.28719 13.9697 8.4201 13.9697C7.55302 13.9697 6.8501 14.6726 6.8501 15.5397C6.8501 16.4068 7.55302 17.1097 8.4201 17.1097Z" stroke="currentColor" stroke-width="1.5" stroke-linecap="round" stroke-linejoin="round"/><path id="Vector_3" d="M15.75 14.4897V8.34973C15.75 7.03973 14.93 6.85978 14.1 7.08978L10.96 7.94976C10.39 8.10976 10 8.55977 10 9.20977V10.3097V11.0497V15.5497" stroke="currentColor" stroke-width="1.5" stroke-linecap="round" stroke-linejoin="round"/><path id="Vector_4" d="M14.1801 16.0599C15.0472 16.0599 15.7501 15.357 15.7501 14.4899C15.7501 13.6228 15.0472 12.9199 14.1801 12.9199C13.313 12.9199 12.6101 13.6228 12.6101 14.4899C12.6101 15.357 13.313 16.0599 14.1801 16.0599Z" stroke="currentColor" stroke-width="1.5" stroke-linecap="round" stroke-linejoin="round"/><path id="Vector_5" d="M9.99023 11.0397L15.7502 9.46973" stroke="currentColor" stroke-width="1.5" stroke-linecap="round" stroke-linejoin="round"/></g></g></g></g></svg>