<svg width="24" height="24" viewBox="0 0 24 24" fill="none" xmlns="http://www.w3.org/2000/svg"><g id="vuesax/broken/music-play"><g id="vuesax/broken/music-play_2"><g id="music-play"><path id="Vector" d="M2.02007 12.2208C1.91007 6.60076 6.35008 2.05078 11.9701 2.05078C17.5901 2.05078 22.0201 6.60078 22.0201 12.1108V18.2708C22.0201 20.2208 20.4001 21.8408 18.4501 21.8408C16.5001 21.8408 14.8801 20.2208 14.8801 18.2708V15.4608C14.8801 14.4908 15.6401 13.6208 16.7201 13.6208C17.6901 13.6208 18.5601 14.3808 18.5601 15.4608V18.4908" stroke="currentColor" stroke-width="1.5" stroke-linecap="round" stroke-linejoin="round"/><path id="Vector_2" d="M5.48004 18.4905V15.5705C5.48004 14.6005 6.24004 13.7305 7.32004 13.7305C8.29004 13.7305 9.16003 14.4905 9.16003 15.5705V18.3805C9.16003 20.3305 7.54003 21.9505 5.59003 21.9505C3.64003 21.9505 2.02002 20.3205 2.02002 18.3805V16.0105" stroke="currentColor" stroke-width="1.5" stroke-linecap="round" stroke-linejoin="round"/><path id="Vector_3" d="M11.54 8.19L11.08 7.27002C10.97 7.06002 10.67 7.05001 10.56 7.26001L9.71997 8.80999C9.61997 8.99999 9.41998 9.11999 9.19998 9.11999H8.46997" stroke="currentColor" stroke-width="1.5" stroke-linecap="round" stroke-linejoin="round"/><path id="Vector_4" d="M15.5299 9.11914H14.7199C14.4999 9.11914 14.2899 9.24915 14.1899 9.43915L13.4399 10.9391C13.3299 11.1591 13.0199 11.1591 12.9099 10.9391" stroke="currentColor" stroke-width="1.5" stroke-linecap="round" stroke-linejoin="round"/></g></g></g></svg>