<svg width="24" height="24" viewBox="0 0 24 24" fill="none" xmlns="http://www.w3.org/2000/svg"><g id="vuesax/broken/music-square-add"><g id="vuesax/broken/music-square-add_2"><g id="music-square-add"><path id="Vector" d="M2 8.65002C2 3.90002 3.89999 2 8.64999 2H14.35C19.1 2 21 3.90002 21 8.65002V14.35C21 14.69 20.99 15.02 20.97 15.33C20.25 14.51 19.18 14 18 14C15.79 14 14 15.79 14 18C14 18.75 14.21 19.46 14.58 20.06C14.78 20.4 15.04 20.71 15.34 20.97C15.03 20.99 14.7 21 14.35 21H8.64999C3.89999 21 2 19.1 2 14.35V12.97" stroke="currentColor" stroke-width="1.5" stroke-linecap="round" stroke-linejoin="round"/><g id="Group"><path id="Vector_2" d="M6.72002 14.4195C7.52083 14.4195 8.17001 13.7703 8.17001 12.9695C8.17001 12.1687 7.52083 11.5195 6.72002 11.5195C5.9192 11.5195 5.27002 12.1687 5.27002 12.9695C5.27002 13.7703 5.9192 14.4195 6.72002 14.4195Z" stroke="currentColor" stroke-width="1.5" stroke-linecap="round" stroke-linejoin="round"/><path id="Vector_3" d="M13.4799 11.9995V6.33952C13.4799 5.12952 12.7199 4.96949 11.9599 5.17949L9.06995 5.96946C8.54995 6.10946 8.17993 6.5295 8.17993 7.1295V8.13951V8.8195V12.9695" stroke="currentColor" stroke-width="1.5" stroke-linecap="round" stroke-linejoin="round"/><path id="Vector_4" d="M12.0301 13.4498C12.8309 13.4498 13.4801 12.8006 13.4801 11.9998C13.4801 11.199 12.8309 10.5498 12.0301 10.5498C11.2293 10.5498 10.5801 11.199 10.5801 11.9998C10.5801 12.8006 11.2293 13.4498 12.0301 13.4498Z" stroke="currentColor" stroke-width="1.5" stroke-linecap="round" stroke-linejoin="round"/><path id="Vector_5" d="M8.16992 8.8299L13.4799 7.37988" stroke="currentColor" stroke-width="1.5" stroke-linecap="round" stroke-linejoin="round"/></g><g id="Group_2"><path id="Vector_6" d="M22 18C22 18.75 21.79 19.46 21.42 20.06C20.73 21.22 19.46 22 18 22C16.54 22 15.27 21.22 14.58 20.06C14.21 19.46 14 18.75 14 18C14 15.79 15.79 14 18 14C20.21 14 22 15.79 22 18Z" stroke="currentColor" stroke-width="1.5" stroke-miterlimit="10" stroke-linecap="round" stroke-linejoin="round"/><g id="Group_3"><path id="Vector_7" d="M19.49 17.9795H16.51" stroke="currentColor" stroke-width="1.5" stroke-miterlimit="10" stroke-linecap="round" stroke-linejoin="round"/><path id="Vector_8" d="M18 16.5195V19.5095" stroke="currentColor" stroke-width="1.5" stroke-miterlimit="10" stroke-linecap="round" stroke-linejoin="round"/></g></g></g></g></g></svg>