<svg width="24" height="24" viewBox="0 0 24 24" fill="none" xmlns="http://www.w3.org/2000/svg"><g id="vuesax/broken/note-square"><g id="vuesax/broken/note-square_2"><g id="note-square"><path id="Vector" d="M2 13.0098V14.9998C2 19.9998 4 21.9998 9 21.9998H11" stroke="currentColor" stroke-width="1.5" stroke-linecap="round" stroke-linejoin="round"/><path id="Vector_2" d="M22 10V9C22 4 20 2 15 2H9C4 2 2 4 2 9" stroke="currentColor" stroke-width="1.5" stroke-linecap="round" stroke-linejoin="round"/><g id="Group"><path id="Vector_3" d="M15.51 22C16.6146 22 17.51 21.1046 17.51 20C17.51 18.8954 16.6146 18 15.51 18C14.4054 18 13.51 18.8954 13.51 20C13.51 21.1046 14.4054 22 15.51 22Z" stroke="currentColor" stroke-width="1.5" stroke-linecap="round" stroke-linejoin="round"/><path id="Vector_4" d="M17.51 20.0007V13.0107" stroke="currentColor" stroke-width="1.5" stroke-linecap="round" stroke-linejoin="round"/><path id="Vector_5" d="M18.82 12.0704L21.03 12.8104C21.56 12.9904 22 13.5903 22 14.1603V14.7504C22 15.5104 21.41 15.9404 20.69 15.7004L18.48 14.9604C17.95 14.7804 17.51 14.1804 17.51 13.6104V13.0204C17.51 12.2504 18.1 11.8304 18.82 12.0704Z" stroke="currentColor" stroke-width="1.5" stroke-linecap="round" stroke-linejoin="round"/></g></g></g></g></svg>