<svg width="24" height="24" viewBox="0 0 24 24" fill="none" xmlns="http://www.w3.org/2000/svg"><g id="vuesax/broken/note-2"><g id="vuesax/broken/note-2_2"><g id="note-2"><path id="Vector" d="M15.06 19.3896C14.44 19.8096 13.66 20.1596 12.71 20.4696L11.13 20.9896C7.15998 22.2696 5.06997 21.1996 3.77997 17.2296L2.49997 13.2796C1.21997 9.30961 2.27997 7.20961 6.24997 5.92961L7.82997 5.40961C8.23997 5.27961 8.62997 5.16961 8.99997 5.09961C8.69997 5.70961 8.45997 6.44961 8.25997 7.29961L7.27997 11.4896C6.29997 15.6696 7.58998 17.7296 11.76 18.7196L13.44 19.1196C14.02 19.2596 14.56 19.3496 15.06 19.3896Z" stroke="currentColor" stroke-width="1.5" stroke-linecap="round" stroke-linejoin="round"/><path id="Vector_2" d="M12.64 8.5293L17.49 9.7593" stroke="currentColor" stroke-width="1.5" stroke-linecap="round" stroke-linejoin="round"/><path id="Vector_3" d="M11.66 12.4004L14.56 13.1404" stroke="currentColor" stroke-width="1.5" stroke-linecap="round" stroke-linejoin="round"/><path id="Vector_4" d="M20.96 5.1005C22.04 6.3005 22.23 8.0205 21.66 10.4405L20.68 14.6205C19.84 18.2305 18.18 19.6905 15.06 19.3905C14.56 19.3505 14.02 19.2605 13.44 19.1205L11.76 18.7205C7.59 17.7305 6.3 15.6705 7.28 11.4905L8.26 7.3005C8.46 6.4505 8.7 5.7105 9 5.1005C10.17 2.6805 12.16 2.0305 15.5 2.8205L17.17 3.2105" stroke="currentColor" stroke-width="1.5" stroke-linecap="round" stroke-linejoin="round"/></g></g></g></svg>