<svg width="24" height="24" viewBox="0 0 24 24" fill="none" xmlns="http://www.w3.org/2000/svg"><g id="vuesax/broken/paintbucket"><g id="vuesax/broken/paintbucket_2"><g id="paintbucket"><path id="Vector" d="M15 4.33045C12.41 1.74045 11.28 2.39045 9.33999 4.33045L3.76999 9.90045C1.37999 12.2905 1.17999 12.9605 3.76999 15.5605L7.22999 19.0205C9.65999 21.4505 10.49 21.4105 12.89 19.0205L18.46 13.4505C20.4 11.5105 20.89 10.2205 18.46 7.79045" stroke="currentColor" stroke-width="1.5" stroke-linecap="round" stroke-linejoin="round"/><path id="Vector_2" d="M19.2 16.7895L18.54 17.8795C17.61 19.4295 18.33 20.6995 20.14 20.6995C21.95 20.6995 22.67 19.4295 21.74 17.8795L21.08 16.7895C20.56 15.9295 19.71 15.9295 19.2 16.7895Z" stroke="currentColor" stroke-width="1.5" stroke-linecap="round" stroke-linejoin="round"/><path id="Vector_3" d="M2 12.2398C7.56 10.7298 13.42 10.6798 19 12.1098L19.5 12.2398" stroke="currentColor" stroke-width="1.5" stroke-linecap="round" stroke-linejoin="round"/></g></g></g></svg>