<svg width="24" height="24" viewBox="0 0 24 24" fill="none" xmlns="http://www.w3.org/2000/svg"><g id="vuesax/broken/password-check"><g id="vuesax/broken/password-check_2"><g id="password-check"><path id="Vector" d="M11.02 19.5H7.5C6.88 19.5 6.33 19.48 5.84 19.41C3.21 19.12 2.5 17.88 2.5 14.5V9.5C2.5 6.12 3.21 4.88 5.84 4.59C6.33 4.52 6.88 4.5 7.5 4.5H10.96" stroke="currentColor" stroke-width="1.5" stroke-linecap="round" stroke-linejoin="round"/><path id="Vector_2" d="M21.5 13.3398V14.4998C21.5 17.8798 20.79 19.1198 18.16 19.4098C17.67 19.4798 17.12 19.4998 16.5 19.4998H15.02" stroke="currentColor" stroke-width="1.5" stroke-linecap="round" stroke-linejoin="round"/><path id="Vector_3" d="M15.02 4.5H16.5C17.12 4.5 17.67 4.52 18.16 4.59C20.79 4.88 21.5 6.12 21.5 9.5" stroke="currentColor" stroke-width="1.5" stroke-linecap="round" stroke-linejoin="round"/><path id="Vector_4" d="M15 2V22" stroke="currentColor" stroke-width="1.5" stroke-linecap="round" stroke-linejoin="round"/><path id="Vector_5" d="M11.4945 12H11.5035" stroke="currentColor" stroke-width="2" stroke-linecap="round" stroke-linejoin="round"/><path id="Vector_6" d="M7.09448 12H7.10346" stroke="currentColor" stroke-width="2" stroke-linecap="round" stroke-linejoin="round"/></g></g></g></svg>