<svg width="24" height="24" viewBox="0 0 24 24" fill="none" xmlns="http://www.w3.org/2000/svg"><g id="vuesax/broken/path-square"><g id="vuesax/broken/path-square_2"><g id="path-square"><path id="Vector" d="M16.75 9.12047L14.9 7.27047C14.2 6.57047 13.24 6.61047 12.77 7.35047L11.74 8.98047L15.03 12.2705L16.66 11.2405C17.37 10.8005 17.41 9.77047 16.75 9.12047Z" stroke="currentColor" stroke-width="1.5" stroke-linecap="round" stroke-linejoin="round"/><path id="Vector_2" d="M11.74 8.97968L9.35002 8.83968C8.01002 8.75968 7.55002 9.16968 7.40002 10.4397L6.80002 15.5097C6.67002 16.5797 7.44002 17.3397 8.51002 17.2197L13.58 16.6197C14.85 16.4697 15.31 16.0097 15.18 14.6697L15.04 12.2797" stroke="currentColor" stroke-width="1.5" stroke-linecap="round" stroke-linejoin="round"/><path id="Vector_3" d="M7.48999 16.5199L9.33999 14.6699" stroke="currentColor" stroke-width="1.5" stroke-linecap="round" stroke-linejoin="round"/><path id="Vector_4" d="M2 13.03V15C2 20 4 22 9 22H15C20 22 22 20 22 15V9C22 4 20 2 15 2H9C4 2 2 4 2 9" stroke="currentColor" stroke-width="1.5" stroke-linecap="round" stroke-linejoin="round"/></g></g></g></svg>