<svg width="24" height="24" viewBox="0 0 24 24" fill="none" xmlns="http://www.w3.org/2000/svg"><g id="vuesax/broken/pen-tool"><g id="vuesax/broken/pen-tool_2"><g id="vuesax/broken/pen-tool_3"><path id="Vector" d="M11.15 5.18966L10.37 4.40963C9.90002 3.93963 9.90002 3.17968 10.37 2.70968L11.15 1.92965C11.62 1.45965 12.38 1.45965 12.85 1.92965L13.63 2.70968C14.1 3.17968 14.1 3.93963 13.63 4.40963L12.85 5.18966C12.38 5.65966 11.62 5.65966 11.15 5.18966Z" stroke="currentColor" stroke-width="1.5" stroke-linecap="round" stroke-linejoin="round"/><path id="Vector_2" d="M19.45 9.80957H20.55C21.21 9.80957 21.75 10.3496 21.75 11.0096V12.1096C21.75 12.7696 21.21 13.3096 20.55 13.3096H19.45C18.79 13.3096 18.25 12.7696 18.25 12.1096V11.0096C18.25 10.3496 18.79 9.80957 19.45 9.80957Z" stroke="currentColor" stroke-width="1.5" stroke-linecap="round" stroke-linejoin="round"/><path id="Vector_3" d="M4.55 9.80957H3.45C2.79 9.80957 2.25 10.3496 2.25 11.0096V12.1096C2.25 12.7696 2.79 13.3096 3.45 13.3096H4.55C5.21 13.3096 5.75 12.7696 5.75 12.1096V11.0096C5.75 10.3496 5.21 9.80957 4.55 9.80957Z" stroke="currentColor" stroke-width="1.5" stroke-linecap="round" stroke-linejoin="round"/><path id="Vector_4" d="M18.54 10.0998L13.24 4.7998" stroke="currentColor" stroke-width="1.5" stroke-linecap="round" stroke-linejoin="round"/><path id="Vector_5" d="M5.46002 10.1002L8.11002 7.4502" stroke="currentColor" stroke-width="1.5" stroke-linecap="round" stroke-linejoin="round"/><g id="Group"><g id="Group_2"><path id="Vector_6" d="M10.75 22.4996H13.27C14.23 22.4996 14.85 21.8196 14.67 20.9896L14.26 19.1797H9.75996L9.34996 20.9896C9.16996 21.7696 9.84996 22.4996 10.75 22.4996Z" stroke="currentColor" stroke-width="1.5" stroke-linecap="round" stroke-linejoin="round"/><path id="Vector_7" d="M14.22 12.6699L13.17 11.3399C12.53 10.5299 11.48 10.5299 10.84 11.3399L7.78998 15.2099C7.01998 16.1799 7.01998 16.8099 8.02998 17.6399L9.75999 19.1799" stroke="currentColor" stroke-width="1.5" stroke-linecap="round" stroke-linejoin="round"/><path id="Vector_8" d="M14.26 19.1703L15.99 17.6302C16.96 16.7702 17 16.1702 16.23 15.2002" stroke="currentColor" stroke-width="1.5" stroke-linecap="round" stroke-linejoin="round"/><path id="Vector_9" d="M12.01 11.1201V13.6501" stroke="currentColor" stroke-width="1.5" stroke-linecap="round" stroke-linejoin="round"/></g></g></g></g></g></svg>