<svg width="24" height="24" viewBox="0 0 24 24" fill="none" xmlns="http://www.w3.org/2000/svg"><g id="vuesax/broken/pen-remove"><g id="vuesax/broken/pen-remove_2"><g id="pen-remove"><g id="Group"><g id="Group_2"><path id="Vector" d="M18.02 4.8604C16.82 3.6604 15.17 3.72042 14.36 5.01042L12.59 7.81041L18.26 13.4804L21.06 11.7104C22.27 10.9504 22.34 9.1804 21.2 8.0504" stroke="currentColor" stroke-width="1.5" stroke-linecap="round" stroke-linejoin="round"/><path id="Vector_2" d="M11.29 21.4807L7.01999 21.9807C5.17999 22.1907 3.85999 20.8708 4.07999 19.0408L5.06 10.7607" stroke="currentColor" stroke-width="1.5" stroke-linecap="round" stroke-linejoin="round"/><path id="Vector_3" d="M18.25 13.4707L18.49 17.5907C18.72 19.8907 17.92 20.6907 15.74 20.9507" stroke="currentColor" stroke-width="1.5" stroke-linecap="round" stroke-linejoin="round"/><path id="Vector_4" d="M12.58 7.81018L10.83 7.7002" stroke="currentColor" stroke-width="1.5" stroke-linecap="round" stroke-linejoin="round"/><path id="Vector_5" d="M5.28003 20.7809L8.46002 17.5908" stroke="currentColor" stroke-width="1.5" stroke-linecap="round" stroke-linejoin="round"/></g></g><path id="Vector_6" d="M11 6.5C11 6.91 10.94 7.32001 10.83 7.70001C10.72 8.10001 10.56 8.47001 10.35 8.82001C10.11 9.22001 9.80999 9.58 9.45999 9.88C8.66999 10.58 7.64 11 6.5 11C5.99 11 5.51 10.92 5.06 10.76C4.04 10.42 3.18999 9.72001 2.64999 8.82001C2.23999 8.14001 2 7.34 2 6.5C2 5.08 2.65 3.80999 3.69 2.98999C4.46 2.36999 5.44 2 6.5 2C8.99 2 11 4.01 11 6.5Z" stroke="currentColor" stroke-width="1.5" stroke-miterlimit="10" stroke-linecap="round" stroke-linejoin="round"/><g id="Group_3"><path id="Vector_7" d="M8.16 6.5H4.79999" stroke="currentColor" stroke-width="1.5" stroke-miterlimit="10" stroke-linecap="round" stroke-linejoin="round"/></g></g></g></g></svg>