<svg width="24" height="24" viewBox="0 0 24 24" fill="none" xmlns="http://www.w3.org/2000/svg"><g id="vuesax/broken/pen-tool-2"><g id="vuesax/broken/pen-tool-2_2"><g id="pen-tool-2"><g id="Group"><g id="Group_2"><path id="Vector" d="M10.75 22.4996H13.27C14.23 22.4996 14.85 21.8196 14.67 20.9896L14.2599 19.1797H9.75995L9.34996 20.9896C9.16996 21.7696 9.84995 22.4996 10.75 22.4996Z" stroke="currentColor" stroke-width="1.5" stroke-linecap="round" stroke-linejoin="round"/><path id="Vector_2" d="M14.22 12.6699L13.17 11.3399C12.53 10.5299 11.48 10.5299 10.84 11.3399L7.78998 15.2099C7.01998 16.1799 7.01999 16.8099 8.02999 17.6399L9.75998 19.1799" stroke="currentColor" stroke-width="1.5" stroke-linecap="round" stroke-linejoin="round"/><path id="Vector_3" d="M14.26 19.1703L15.99 17.6302C16.96 16.7702 17 16.1702 16.23 15.2002" stroke="currentColor" stroke-width="1.5" stroke-linecap="round" stroke-linejoin="round"/><path id="Vector_4" d="M12.01 11.1201V13.6501" stroke="currentColor" stroke-width="1.5" stroke-linecap="round" stroke-linejoin="round"/></g></g><g id="Group_3"><path id="Vector_5" d="M12.52 5H11.52C10.97 5 10.52 4.55 10.52 4V3C10.52 2.45 10.97 2 11.52 2H12.52C13.07 2 13.52 2.45 13.52 3V4C13.52 4.55 13.07 5 12.52 5Z" stroke="currentColor" stroke-width="1.5" stroke-linecap="round" stroke-linejoin="round"/><path id="Vector_6" d="M3.27002 14.17H4.27002C4.82002 14.17 5.27002 13.72 5.27002 13.17V12.17C5.27002 11.62 4.82002 11.1699 4.27002 11.1699H3.27002C2.72002 11.1699 2.27002 11.62 2.27002 12.17V13.17C2.27002 13.72 2.72002 14.17 3.27002 14.17Z" stroke="currentColor" stroke-width="1.5" stroke-linecap="round" stroke-linejoin="round"/><path id="Vector_7" d="M20.73 14.17H19.73C19.18 14.17 18.73 13.72 18.73 13.17V12.17C18.73 11.62 19.18 11.1699 19.73 11.1699H20.73C21.28 11.1699 21.73 11.62 21.73 12.17V13.17C21.73 13.72 21.28 14.17 20.73 14.17Z" stroke="currentColor" stroke-width="1.5" stroke-linecap="round" stroke-linejoin="round"/><path id="Vector_8" d="M3.75 11.1698C3.75 9.1998 4.49001 7.4098 5.71001 6.0498" stroke="currentColor" stroke-width="1.5" stroke-linecap="round" stroke-linejoin="round"/><path id="Vector_9" d="M10.5201 3.55957C9.88005 3.63957 9.26004 3.78958 8.67004 4.00958" stroke="currentColor" stroke-width="1.5" stroke-linecap="round" stroke-linejoin="round"/><path id="Vector_10" d="M20.25 11.1696C20.25 7.24956 17.31 4.02957 13.52 3.55957" stroke="currentColor" stroke-width="1.5" stroke-linecap="round" stroke-linejoin="round"/></g></g></g></g></svg>