<svg width="24" height="24" viewBox="0 0 24 24" fill="none" xmlns="http://www.w3.org/2000/svg"><g id="vuesax/broken/percentage-square"><g id="vuesax/broken/percentage-square_2"><g id="percentage-square"><path id="Vector" d="M2 13.05V15C2 20 4 22 9 22H15C20 22 22 20 22 15V9C22 4 20 2 15 2H9C4 2 2 4 2 9" stroke="currentColor" stroke-width="1.5" stroke-linecap="round" stroke-linejoin="round"/><g id="Group"><path id="Vector_2" d="M8.32007 15.2704L14.86 8.73047" stroke="currentColor" stroke-width="1.5" stroke-linecap="round" stroke-linejoin="round"/><path id="Vector_3" d="M8.73001 10.3701C9.40932 10.3701 9.95999 9.81948 9.95999 9.14017C9.95999 8.46086 9.40932 7.91016 8.73001 7.91016C8.0507 7.91016 7.5 8.46086 7.5 9.14017C7.5 9.81948 8.0507 10.3701 8.73001 10.3701Z" stroke="currentColor" stroke-width="1.5" stroke-linecap="round" stroke-linejoin="round"/><path id="Vector_4" d="M15.27 16.0899C15.9493 16.0899 16.5 15.5392 16.5 14.8599C16.5 14.1806 15.9493 13.6299 15.27 13.6299C14.5907 13.6299 14.04 14.1806 14.04 14.8599C14.04 15.5392 14.5907 16.0899 15.27 16.0899Z" stroke="currentColor" stroke-width="1.5" stroke-linecap="round" stroke-linejoin="round"/></g></g></g></g></svg>