<svg width="24" height="24" viewBox="0 0 24 24" fill="none" xmlns="http://www.w3.org/2000/svg"><g id="vuesax/broken/play-add"><g id="vuesax/broken/play-add_2"><g id="play-add"><g id="Group"><path id="Vector" d="M23 19C23 19.75 22.79 20.46 22.42 21.06C22.21 21.42 21.94 21.74 21.63 22C20.93 22.63 20.01 23 19 23C17.54 23 16.27 22.22 15.58 21.06C15.21 20.46 15 19.75 15 19C15 17.74 15.58 16.61 16.5 15.88C17.19 15.33 18.06 15 19 15C21.21 15 23 16.79 23 19Z" stroke="currentColor" stroke-width="1.5" stroke-miterlimit="10" stroke-linecap="round" stroke-linejoin="round"/><g id="Group_2"><path id="Vector_2" d="M20.49 18.9795H17.51" stroke="currentColor" stroke-width="1.5" stroke-miterlimit="10" stroke-linecap="round" stroke-linejoin="round"/><path id="Vector_3" d="M19 17.5195V20.5095" stroke="currentColor" stroke-width="1.5" stroke-miterlimit="10" stroke-linecap="round" stroke-linejoin="round"/></g></g><path id="Vector_4" d="M7.96997 2.84998C9.19997 2.29998 10.57 2 12 2C17.52 2 22 6.48 22 12C22 13.31 21.75 14.57 21.28 15.72" stroke="currentColor" stroke-width="1.5" stroke-linecap="round" stroke-linejoin="round"/><path id="Vector_5" d="M4 6C2.75 7.67 2 9.75 2 12C2 17.52 6.48 22 12 22C13.32 22 14.58 21.74 15.73 21.27" stroke="currentColor" stroke-width="1.5" stroke-linecap="round" stroke-linejoin="round"/></g></g></g></svg>