<svg width="24" height="24" viewBox="0 0 24 24" fill="none" xmlns="http://www.w3.org/2000/svg"><g id="vuesax/broken/play-circle"><g id="vuesax/broken/play-circle_2"><g id="play-circle"><path id="Vector" d="M14.91 14.1199C16.71 13.0799 16.71 11.3799 14.91 10.3399L13.46 9.49987L12.01 8.65987C10.21 7.61987 8.73999 8.46987 8.73999 10.5499V12.2199V13.8899C8.73999 15.5499 9.67999 16.4299 10.98 16.1799" stroke="currentColor" stroke-width="1.5" stroke-miterlimit="10" stroke-linecap="round" stroke-linejoin="round"/><path id="Vector_2" d="M4 6C2.75 7.67 2 9.75 2 12C2 17.52 6.48 22 12 22C17.52 22 22 17.52 22 12C22 6.48 17.52 2 12 2C10.57 2 9.2 2.3 7.97 2.85" stroke="currentColor" stroke-width="1.5" stroke-linecap="round" stroke-linejoin="round"/></g></g></g></svg>