<svg width="24" height="24" viewBox="0 0 24 24" fill="none" xmlns="http://www.w3.org/2000/svg"><g id="vuesax/broken/python"><g id="vuesax/broken/python_2"><g id="python"><path id="Vector" d="M7.56006 7.56032V3.89034C7.56006 3.06034 8.17007 2.37031 8.98007 2.24031C10.9801 1.93031 13.0201 1.93031 15.0201 2.24031C15.8401 2.37031 16.4401 3.07034 16.4401 3.89034V9.78032C16.4401 11.0103 15.4501 12.0003 14.2201 12.0003H9.78006C8.55006 12.0003 7.56006 12.9903 7.56006 14.2203V20.1103C7.56006 20.9403 8.17007 21.6303 8.98007 21.7603C10.9801 22.0703 13.0201 22.0703 15.0201 21.7603C15.8401 21.6303 16.4401 20.9303 16.4401 20.1103V16.4403" stroke="currentColor" stroke-width="1.5" stroke-linecap="round" stroke-linejoin="round"/><path id="Vector_2" d="M16.44 7.56055H20.11C20.94 7.56055 21.63 8.17056 21.76 8.98056C22.07 10.9806 22.07 13.0205 21.76 15.0205C21.63 15.8405 20.93 16.4406 20.11 16.4406H12" stroke="currentColor" stroke-width="1.5" stroke-linecap="round" stroke-linejoin="round"/><path id="Vector_3" d="M2.02002 12.9805C2.05002 13.6605 2.12004 14.3404 2.23004 15.0204C2.36004 15.8404 3.06004 16.4405 3.88004 16.4405H7.55002" stroke="currentColor" stroke-width="1.5" stroke-linecap="round" stroke-linejoin="round"/><path id="Vector_4" d="M12 7.56055H3.87997C3.04997 7.56055 2.35998 8.17056 2.22998 8.98056" stroke="currentColor" stroke-width="1.5" stroke-linecap="round" stroke-linejoin="round"/><path id="Vector_5" d="M10.39 4.7807C10.39 4.8107 10.37 4.8407 10.33 4.8407C10.29 4.8407 10.27 4.8207 10.27 4.7807C10.27 4.7507 10.29 4.7207 10.33 4.7207C10.34 4.7207 10.36 4.73069 10.37 4.74069C10.38 4.75069 10.39 4.7607 10.39 4.7807Z" stroke="currentColor" stroke-width="1.5" stroke-linecap="round" stroke-linejoin="round"/><path id="Vector_6" d="M13.7201 19.2202C13.7201 19.2502 13.7001 19.2802 13.6601 19.2802C13.6301 19.2802 13.6001 19.2602 13.6001 19.2202C13.6001 19.1902 13.6201 19.1602 13.6601 19.1602C13.6701 19.1602 13.6901 19.1701 13.7001 19.1801C13.7201 19.1901 13.7201 19.2102 13.7201 19.2202Z" stroke="currentColor" stroke-width="1.5" stroke-linecap="round" stroke-linejoin="round"/></g></g></g></svg>