<svg width="47" height="46" viewBox="0 0 47 46" fill="none" xmlns="http://www.w3.org/2000/svg"><g id="vuesax/broken/quote-down"><g id="vuesax/broken/quote-down_2"><g id="quote-down"><g id="Group"><g id="Group_2"><path id="Vector" d="M12.63 3.86017C12.63 2.44017 13.68 1.28021 15.21 1.28021L18.42 1.28021C19.84 1.28021 21 2.44017 21 3.86017L21 9.66016" stroke="currentColor" stroke-width="1.5" stroke-linecap="round" stroke-linejoin="round"/><path id="Vector_2" d="M21 9.65039L15.2 9.65039C14.24 9.65039 13.48 9.20038 13.04 8.51038" stroke="currentColor" stroke-width="1.5" stroke-linecap="round" stroke-linejoin="round"/><path id="Vector_3" d="M21 9.65076C21 15.7008 19.87 16.7007 16.47 18.7207" stroke="currentColor" stroke-width="1.5" stroke-linecap="round" stroke-linejoin="round"/></g><g id="Group_3"><path id="Vector_4" d="M9.36988 9.65039L3.56988 9.65039C2.03988 9.65039 0.989883 8.49037 0.989883 7.07037L0.989883 3.85034C0.989883 2.43034 2.03988 1.27039 3.56988 1.27039L6.79988 1.27039C8.21988 1.27039 9.37988 2.43034 9.37988 3.85034L9.37988 9.65039" stroke="currentColor" stroke-width="1.5" stroke-linecap="round" stroke-linejoin="round"/><path id="Vector_5" d="M9.36987 9.65076C9.36987 15.7008 8.23987 16.7007 4.83987 18.7207" stroke="currentColor" stroke-width="1.5" stroke-linecap="round" stroke-linejoin="round"/></g></g></g></g></g></svg>