<svg width="24" height="24" viewBox="0 0 24 24" fill="none" xmlns="http://www.w3.org/2000/svg"><g id="vuesax/broken/quote-up-square"><g id="vuesax/broken/quote-up-square_2"><g id="quote-up-square"><path id="Vector" d="M2 12.83V15C2 20 4 22 9 22H15C20 22 22 20 22 15V9C22 4 20 2 15 2H9C4 2 2 4 2 9" stroke="currentColor" stroke-width="1.5" stroke-linecap="round" stroke-linejoin="round"/><g id="Group"><g id="Group_2"><path id="Vector_2" d="M16.9999 11.8408H14.3199C13.6099 11.8408 13.1299 11.3008 13.1299 10.6508V9.16071C13.1299 8.51071 13.6099 7.9707 14.3199 7.9707H15.8099C16.4599 7.9707 16.9999 8.51071 16.9999 9.16071V11.8408Z" stroke="currentColor" stroke-width="1.5" stroke-linecap="round" stroke-linejoin="round"/><path id="Vector_3" d="M16.9999 11.8398C16.9999 14.6298 16.4799 15.0998 14.9099 16.0298" stroke="currentColor" stroke-width="1.5" stroke-linecap="round" stroke-linejoin="round"/></g><g id="Group_3"><path id="Vector_4" d="M10.86 11.8408H8.17999C7.46999 11.8408 6.98999 11.3008 6.98999 10.6508V9.16071C6.98999 8.51071 7.46999 7.9707 8.17999 7.9707H9.66999C10.32 7.9707 10.86 8.51071 10.86 9.16071V11.8408Z" stroke="currentColor" stroke-width="1.5" stroke-linecap="round" stroke-linejoin="round"/><path id="Vector_5" d="M10.86 11.8398C10.86 14.6298 10.34 15.0998 8.77002 16.0298" stroke="currentColor" stroke-width="1.5" stroke-linecap="round" stroke-linejoin="round"/></g></g></g></g></g></svg>