<svg width="24" height="24" viewBox="0 0 24 24" fill="none" xmlns="http://www.w3.org/2000/svg"><g id="vuesax/broken/quote-down-square"><g id="vuesax/broken/quote-down-square_2"><g id="quote-down-square"><path id="Vector" d="M2 12.83V15C2 20 4 22 9 22H15C20 22 22 20 22 15V9C22 4 20 2 15 2H9C4 2 2 4 2 9" stroke="currentColor" stroke-width="1.5" stroke-linecap="round" stroke-linejoin="round"/><g id="Group"><g id="Group_2"><path id="Vector_2" d="M7 12.1602H9.68C10.39 12.1602 10.87 12.7002 10.87 13.3502V14.8402C10.87 15.4902 10.39 16.0302 9.68 16.0302H8.19C7.54 16.0302 7 15.4902 7 14.8402V12.1602" stroke="currentColor" stroke-width="1.5" stroke-linecap="round" stroke-linejoin="round"/><path id="Vector_3" d="M7 12.1607C7 9.37071 7.52 8.9007 9.09 7.9707" stroke="currentColor" stroke-width="1.5" stroke-linecap="round" stroke-linejoin="round"/></g><g id="Group_3"><path id="Vector_4" d="M13.1399 12.1602H15.8199C16.5299 12.1602 17.0099 12.7002 17.0099 13.3502V14.8402C17.0099 15.4902 16.5299 16.0302 15.8199 16.0302H14.3299C13.6799 16.0302 13.1399 15.4902 13.1399 14.8402V12.1602" stroke="currentColor" stroke-width="1.5" stroke-linecap="round" stroke-linejoin="round"/><path id="Vector_5" d="M13.1399 12.1607C13.1399 9.37071 13.6599 8.9007 15.2299 7.9707" stroke="currentColor" stroke-width="1.5" stroke-linecap="round" stroke-linejoin="round"/></g></g></g></g></g></svg>