<svg width="24" height="24" viewBox="0 0 24 24" fill="none" xmlns="http://www.w3.org/2000/svg"><g id="vuesax/broken/quote-down-circle"><g id="vuesax/broken/quote-down-circle_2"><g id="quote-down-circle"><g id="Group"><g id="Group_2"><path id="Vector" d="M7 12.1602H9.67999C10.39 12.1602 10.87 12.7002 10.87 13.3502V14.8402C10.87 15.4902 10.39 16.0302 9.67999 16.0302H8.19C7.54 16.0302 7 15.4902 7 14.8402V12.1602Z" stroke="currentColor" stroke-width="1.5" stroke-linecap="round" stroke-linejoin="round"/><path id="Vector_2" d="M7 12.1607C7 9.37071 7.52 8.9007 9.09 7.9707" stroke="currentColor" stroke-width="1.5" stroke-linecap="round" stroke-linejoin="round"/></g><g id="Group_3"><path id="Vector_3" d="M13.1399 12.1602H15.8199C16.5299 12.1602 17.0099 12.7002 17.0099 13.3502V14.8402C17.0099 15.4902 16.5299 16.0302 15.8199 16.0302H14.3299C13.6799 16.0302 13.1399 15.4902 13.1399 14.8402V12.1602Z" stroke="currentColor" stroke-width="1.5" stroke-linecap="round" stroke-linejoin="round"/><path id="Vector_4" d="M13.1399 12.1607C13.1399 9.37071 13.6599 8.9007 15.2299 7.9707" stroke="currentColor" stroke-width="1.5" stroke-linecap="round" stroke-linejoin="round"/></g></g><path id="Vector_5" d="M4 6C2.75 7.67 2 9.75 2 12C2 17.52 6.48 22 12 22C17.52 22 22 17.52 22 12C22 6.48 17.52 2 12 2C10.57 2 9.2 2.29998 7.97 2.84998" stroke="currentColor" stroke-width="1.5" stroke-linecap="round" stroke-linejoin="round"/></g></g></g></svg>