<svg width="24" height="24" viewBox="0 0 24 24" fill="none" xmlns="http://www.w3.org/2000/svg"><g id="vuesax/broken/quote-up"><g id="vuesax/broken/quote-up_2"><g id="quote-up"><g id="Group"><g id="Group_2"><path id="Vector" d="M10.37 18.1398C10.37 19.5598 9.31998 20.7198 7.78998 20.7198H4.57001C3.15001 20.7198 1.98999 19.5598 1.98999 18.1398L1.98999 12.3398" stroke="currentColor" stroke-width="1.5" stroke-linecap="round" stroke-linejoin="round"/><path id="Vector_2" d="M2 12.3496H7.79999C8.75999 12.3496 9.52002 12.7996 9.96002 13.4896" stroke="currentColor" stroke-width="1.5" stroke-linecap="round" stroke-linejoin="round"/><path id="Vector_3" d="M2 12.3492C2 6.29924 3.13003 5.2993 6.53003 3.2793" stroke="currentColor" stroke-width="1.5" stroke-linecap="round" stroke-linejoin="round"/></g><g id="Group_3"><path id="Vector_4" d="M13.6299 12.3496H19.4299C20.9599 12.3496 22.0099 13.5096 22.0099 14.9296V18.1497C22.0099 19.5697 20.9599 20.7296 19.4299 20.7296H16.2099C14.7899 20.7296 13.6299 19.5697 13.6299 18.1497V12.3496" stroke="currentColor" stroke-width="1.5" stroke-linecap="round" stroke-linejoin="round"/><path id="Vector_5" d="M13.6299 12.3492C13.6299 6.29924 14.7599 5.2993 18.1599 3.2793" stroke="currentColor" stroke-width="1.5" stroke-linecap="round" stroke-linejoin="round"/></g></g></g></g></g></svg>