<svg width="24" height="24" viewBox="0 0 24 24" fill="none" xmlns="http://www.w3.org/2000/svg"><g id="vuesax/broken/quote-up-circle"><g id="vuesax/broken/quote-up-circle_2"><g id="quote-up-circle"><g id="Group"><g id="Group_2"><path id="Vector" d="M16.9999 11.8408H14.3199C13.6099 11.8408 13.1299 11.3008 13.1299 10.6508V9.16071C13.1299 8.51071 13.6099 7.9707 14.3199 7.9707H15.8099C16.4599 7.9707 16.9999 8.51071 16.9999 9.16071V11.8408Z" stroke="currentColor" stroke-width="1.5" stroke-linecap="round" stroke-linejoin="round"/><path id="Vector_2" d="M16.9999 11.8398C16.9999 14.6298 16.4799 15.0998 14.9099 16.0298" stroke="currentColor" stroke-width="1.5" stroke-linecap="round" stroke-linejoin="round"/></g><g id="Group_3"><path id="Vector_3" d="M10.86 11.8408H8.17998C7.46998 11.8408 6.98999 11.3008 6.98999 10.6508V9.16071C6.98999 8.51071 7.46998 7.9707 8.17998 7.9707H9.66998C10.32 7.9707 10.86 8.51071 10.86 9.16071V11.8408Z" stroke="currentColor" stroke-width="1.5" stroke-linecap="round" stroke-linejoin="round"/><path id="Vector_4" d="M10.86 11.8398C10.86 14.6298 10.34 15.0998 8.77002 16.0298" stroke="currentColor" stroke-width="1.5" stroke-linecap="round" stroke-linejoin="round"/></g></g><path id="Vector_5" d="M4 6C2.75 7.67 2 9.75 2 12C2 17.52 6.48 22 12 22C17.52 22 22 17.52 22 12C22 6.48 17.52 2 12 2C10.57 2 9.2 2.29998 7.97 2.84998" stroke="currentColor" stroke-width="1.5" stroke-linecap="round" stroke-linejoin="round"/></g></g></g></svg>