<svg width="24" height="24" viewBox="0 0 24 24" fill="none" xmlns="http://www.w3.org/2000/svg"><g id="vuesax/broken/radar"><g id="vuesax/broken/radar_2"><g id="radar"><path id="Vector" d="M12 10C10.9 10 10 10.9 10 12C10 13.1 10.9 14 12 14C13.1 14 14 13.1 14 12" stroke="currentColor" stroke-width="1.5" stroke-linecap="round" stroke-linejoin="round"/><path id="Vector_2" d="M20 18C21.26 16.33 22 14.25 22 12C22 9.75 21.26 7.67 20 6" stroke="currentColor" stroke-width="1.5" stroke-linecap="round" stroke-linejoin="round"/><path id="Vector_3" d="M4 18.0009C2.74 16.3309 2 14.2509 2 12.0009C2 11.7909 2.00999 11.5809 2.01999 11.3809" stroke="currentColor" stroke-width="1.5" stroke-linecap="round" stroke-linejoin="round"/><path id="Vector_4" d="M4 6C3.62 6.51 3.28 7.06001 3 7.64001" stroke="currentColor" stroke-width="1.5" stroke-linecap="round" stroke-linejoin="round"/><path id="Vector_5" d="M16.8 15.6004C17.55 14.6004 18 13.3504 18 12.0004C18 10.6504 17.55 9.40039 16.8 8.40039" stroke="currentColor" stroke-width="1.5" stroke-linecap="round" stroke-linejoin="round"/><path id="Vector_6" d="M7.20001 8.40039C6.45001 9.40039 6 10.6504 6 12.0004C6 13.3504 6.45001 14.6004 7.20001 15.6004" stroke="currentColor" stroke-width="1.5" stroke-linecap="round" stroke-linejoin="round"/></g></g></g></svg>