<svg width="24" height="24" viewBox="0 0 24 24" fill="none" xmlns="http://www.w3.org/2000/svg"><g id="vuesax/broken/receipt-edit"><g id="vuesax/broken/receipt-edit_2"><g id="receipt-edit"><path id="Vector" d="M3.5 11V18.3C3.5 20.96 4.96001 21.59 6.73001 19.69L6.73999 19.68C7.55999 18.81 8.80999 18.88 9.51999 19.83L10.53 21.18" stroke="currentColor" stroke-width="1.5" stroke-linecap="round" stroke-linejoin="round"/><path id="Vector_2" d="M20.5 11.3V7.04001C20.5 3.01001 19.56 2 15.78 2H8.22C4.44 2 3.5 3.01001 3.5 7.04001" stroke="currentColor" stroke-width="1.5" stroke-linecap="round" stroke-linejoin="round"/><path id="Vector_3" d="M8 7H12.5" stroke="currentColor" stroke-width="1.5" stroke-linecap="round" stroke-linejoin="round"/><path id="Vector_4" d="M15 7H17" stroke="currentColor" stroke-width="1.5" stroke-linecap="round" stroke-linejoin="round"/><path id="Vector_5" d="M9 11H15" stroke="currentColor" stroke-width="1.5" stroke-linecap="round" stroke-linejoin="round"/><g id="Group"><path id="Vector_6" d="M18.21 14.7703L14.6701 18.3103C14.5301 18.4503 14.4 18.7103 14.37 18.9003L14.18 20.2503C14.11 20.7403 14.45 21.0803 14.94 21.0103L16.29 20.8203C16.48 20.7903 16.75 20.6603 16.88 20.5203L20.4201 16.9803C21.0301 16.3703 21.3201 15.6603 20.4201 14.7603C19.5301 13.8703 18.82 14.1603 18.21 14.7703Z" stroke="currentColor" stroke-width="1.5" stroke-miterlimit="10" stroke-linecap="round" stroke-linejoin="round"/><path id="Vector_7" d="M17.7 15.2803C18 16.3603 18.84 17.2003 19.92 17.5003" stroke="currentColor" stroke-width="1.5" stroke-miterlimit="10" stroke-linecap="round" stroke-linejoin="round"/></g></g></g></g></svg>