<svg width="24" height="24" viewBox="0 0 24 24" fill="none" xmlns="http://www.w3.org/2000/svg"><g id="vuesax/broken/receipt-square"><g id="vuesax/broken/receipt-square_2"><g id="receipt-square"><path id="Vector" d="M2 12.94V15C2 20 4 22 9 22H15C20 22 22 20 22 15V9C22 4 20 2 15 2H9C4 2 2 4 2 9" stroke="currentColor" stroke-width="1.5" stroke-linecap="round" stroke-linejoin="round"/><path id="Vector_2" d="M17 13.0391V15.6991C17 17.2691 16.14 17.6391 15.1 16.5191C14.62 16.0091 13.88 16.0491 13.46 16.6091L12.86 17.4091C12.39 18.0391 11.61 18.0391 11.14 17.4091L10.55 16.6191C10.13 16.0591 9.39 16.0191 8.91 16.5291C7.86 17.6491 7.01001 17.2792 7.01001 15.7092V9.07915C7.01001 6.70915 7.57001 6.11914 9.79001 6.11914H14.23C16.45 6.11914 17.01 6.70915 17.01 9.07915" stroke="currentColor" stroke-width="1.5" stroke-linecap="round" stroke-linejoin="round"/></g></g></g></svg>