<svg width="24" height="24" viewBox="0 0 24 24" fill="none" xmlns="http://www.w3.org/2000/svg"><g id="vuesax/broken/recovery-convert"><g id="vuesax/broken/recovery-convert_2"><g id="recovery-convert"><path id="Vector" d="M5.53003 15.9804C5.70003 17.7704 6.64003 18.5004 8.69003 18.5004H11.42C13.7 18.5004 14.61 17.5904 14.61 15.3104V12.5804C14.61 10.3104 13.7 9.40039 11.42 9.40039H8.69003C6.62003 9.40039 5.68003 10.1504 5.53003 12.0004" stroke="currentColor" stroke-width="1.5" stroke-linecap="round" stroke-linejoin="round"/><path id="Vector_2" d="M18.5 8.68V11.41C18.5 13.69 17.59 14.6 15.31 14.6H14.6V12.58C14.6 10.31 13.69 9.4 11.41 9.4H9.40002V8.68C9.40002 6.4 10.31 5.5 12.59 5.5H15.32C17.59 5.5 18.5 6.41 18.5 8.68Z" stroke="currentColor" stroke-width="1.5" stroke-linecap="round" stroke-linejoin="round"/><path id="Vector_3" d="M22 15C22 18.87 18.87 22 15 22L16.05 20.25" stroke="currentColor" stroke-width="1.5" stroke-linecap="round" stroke-linejoin="round"/><path id="Vector_4" d="M2 9C2 5.13 5.13 2 9 2L7.95 3.75" stroke="currentColor" stroke-width="1.5" stroke-linecap="round" stroke-linejoin="round"/></g></g></g></svg>