<svg width="24" height="24" viewBox="0 0 24 24" fill="none" xmlns="http://www.w3.org/2000/svg"><g id="vuesax/broken/refresh-left-square"><g id="vuesax/broken/refresh-left-square_2"><g id="refresh-left-square"><g id="Group"><path id="Vector" d="M10.33 7.50977C10.83 7.35977 11.38 7.25977 12 7.25977C14.76 7.25977 17 9.49977 17 12.2598C17 15.0198 14.76 17.2598 12 17.2598C9.24 17.2598 7 15.0198 7 12.2598C7 11.2298 7.31 10.2798 7.84 9.47977" stroke="currentColor" stroke-width="1.5" stroke-linecap="round" stroke-linejoin="round"/><path id="Vector_2" d="M9.62 7.65024L11.28 5.74023" stroke="currentColor" stroke-width="1.5" stroke-linecap="round" stroke-linejoin="round"/><path id="Vector_3" d="M9.62 7.65039L11.56 9.07039" stroke="currentColor" stroke-width="1.5" stroke-linecap="round" stroke-linejoin="round"/></g><path id="Vector_4" d="M2 14V15C2 20 4 22 9 22H15C20 22 22 20 22 15V9C22 4 20 2 15 2H9C4 2 2 4 2 9" stroke="currentColor" stroke-width="1.5" stroke-linecap="round" stroke-linejoin="round"/></g></g></g></svg>