<svg width="24" height="24" viewBox="0 0 24 24" fill="none" xmlns="http://www.w3.org/2000/svg"><g id="vuesax/broken/refresh-circle"><g id="vuesax/broken/refresh-circle_2"><g id="refresh-circle"><g id="Group"><path id="Vector" d="M8.01001 14.5099C8.19001 14.8099 8.41 15.09 8.66 15.34C10.5 17.18 13.49 17.18 15.34 15.34C16.09 14.59 16.52 13.6399 16.66 12.6699" stroke="currentColor" stroke-width="1.5" stroke-linecap="round" stroke-linejoin="round"/><path id="Vector_2" d="M7.33997 11.3313C7.47997 10.3513 7.90997 9.41125 8.65997 8.66125C10.5 6.82125 13.49 6.82125 15.34 8.66125C15.6 8.92125 15.81 9.20127 15.99 9.49127" stroke="currentColor" stroke-width="1.5" stroke-linecap="round" stroke-linejoin="round"/><path id="Vector_3" d="M7.81995 17.1797V14.5098H10.4899" stroke="currentColor" stroke-width="1.5" stroke-linecap="round" stroke-linejoin="round"/><path id="Vector_4" d="M16.18 6.82031V9.4903H13.51" stroke="currentColor" stroke-width="1.5" stroke-linecap="round" stroke-linejoin="round"/></g><path id="Vector_5" d="M4 6C2.75 7.67 2 9.75 2 12C2 17.52 6.48 22 12 22C17.52 22 22 17.52 22 12C22 6.48 17.52 2 12 2C10.57 2 9.2 2.29998 7.97 2.84998" stroke="currentColor" stroke-width="1.5" stroke-linecap="round" stroke-linejoin="round"/></g></g></g></svg>