<svg width="24" height="24" viewBox="0 0 24 24" fill="none" xmlns="http://www.w3.org/2000/svg"><g id="vuesax/broken/repeat-circle"><g id="vuesax/broken/repeat-circle_2"><g id="repeat-circle"><g id="Group"><path id="Vector" d="M7.5 8.33984H14.9C15.79 8.33984 16.5 9.05982 16.5 9.93982V11.7098" stroke="currentColor" stroke-width="1.5" stroke-miterlimit="10" stroke-linecap="round" stroke-linejoin="round"/><path id="Vector_2" d="M9.19 6.66016L7.5 8.34021L9.19 10.0302" stroke="currentColor" stroke-width="1.5" stroke-miterlimit="10" stroke-linecap="round" stroke-linejoin="round"/><path id="Vector_3" d="M16.5 15.661H9.10001C8.21001 15.661 7.5 14.941 7.5 14.061V12.291" stroke="currentColor" stroke-width="1.5" stroke-miterlimit="10" stroke-linecap="round" stroke-linejoin="round"/><path id="Vector_4" d="M14.8101 17.3408L16.5001 15.6607L14.8101 13.9707" stroke="currentColor" stroke-width="1.5" stroke-miterlimit="10" stroke-linecap="round" stroke-linejoin="round"/></g><path id="Vector_5" d="M4 6C2.75 7.67 2 9.75 2 12C2 17.52 6.48 22 12 22C17.52 22 22 17.52 22 12C22 6.48 17.52 2 12 2C10.57 2 9.2 2.29998 7.97 2.84998" stroke="currentColor" stroke-width="1.5" stroke-linecap="round" stroke-linejoin="round"/></g></g></g></svg>