<svg width="24" height="24" viewBox="0 0 24 24" fill="none" xmlns="http://www.w3.org/2000/svg"><g id="vuesax/broken/route-square"><g id="vuesax/broken/route-square_2"><g id="route-square"><path id="Vector" d="M2 13.05V15C2 20 4 22 9 22H15C20 22 22 20 22 15V9C22 4 20 2 15 2H9C4 2 2 4 2 9" stroke="currentColor" stroke-width="1.5" stroke-linecap="round" stroke-linejoin="round"/><g id="Group"><path id="Vector_2" d="M17.35 9.05077L15.01 16.5908C14.45 18.3808 11.94 18.4108 11.35 16.6308L10.65 14.5608C10.46 13.9908 10.01 13.5308 9.44 13.3508L7.36 12.6508C5.59 12.0608 5.62 9.53077 7.41 8.99077L14.95 6.64077C16.43 6.19077 17.82 7.58077 17.35 9.05077Z" stroke="currentColor" stroke-width="1.5" stroke-linecap="round" stroke-linejoin="round"/></g></g></g></g></svg>