<svg width="24" height="24" viewBox="0 0 24 24" fill="none" xmlns="http://www.w3.org/2000/svg"><g id="vuesax/broken/routing"><g id="vuesax/broken/routing_2"><g id="routing"><path id="Vector" d="M6.94 9.42086C6.12 10.2009 4.83 10.1909 4.01 9.42086C2.89 8.35086 1.6 6.63086 2.07 4.60086C2.87 1.14086 8.08 1.14086 8.87 4.60086C8.99 5.09086 9 5.55086 8.94 6.00086" stroke="currentColor" stroke-width="1.5" stroke-linecap="round" stroke-linejoin="round"/><path id="Vector_2" d="M15.07 16.6009C15.87 13.1409 21.11 13.1409 21.91 16.6009C22.38 18.6309 21.09 20.3509 19.96 21.4209C19.14 22.2009 17.84 22.1909 17.02 21.4209C15.89 20.3509 14.6 18.6309 15.07 16.6009Z" stroke="currentColor" stroke-width="1.5"/><path id="Vector_3" d="M12 5H14.68C16.53 5 17.39 7.29 16 8.51L8.01 15.5C6.62 16.71 7.48 19 9.32 19H12" stroke="currentColor" stroke-width="1.5" stroke-linecap="round" stroke-linejoin="round"/><path id="Vector_4" d="M12 5H14.68C16.53 5 17.39 7.29 16 8.51L8.01 15.5C6.62 16.71 7.48 19 9.32 19H12" stroke="currentColor" stroke-width="1.5" stroke-linecap="round" stroke-linejoin="round"/><path id="Vector_5" d="M5.48622 5.5H5.49777" stroke="currentColor" stroke-width="2" stroke-linecap="round" stroke-linejoin="round"/><path id="Vector_6" d="M18.4862 17.5H18.4978" stroke="currentColor" stroke-width="2" stroke-linecap="round" stroke-linejoin="round"/></g></g></g></svg>