<svg width="24" height="24" viewBox="0 0 24 24" fill="none" xmlns="http://www.w3.org/2000/svg"><g id="vuesax/broken/safe-home"><g id="vuesax/broken/safe-home_2"><g id="safe-home"><path id="Vector" d="M23 17.5596V15.3695C23 14.9495 22.69 14.4895 22.31 14.3295L20.52 13.5995L19.52 13.1895C18.89 12.9395 18.19 12.9395 17.56 13.1895L14.78 14.3295C14.4 14.4895 14.09 14.9495 14.09 15.3695V17.5596C14.09 18.8096 14.55 20.0195 15.34 20.9995C16.07 21.9295 17.11 22.6495 18.29 22.9695C18.45 23.0095 18.63 23.0095 18.8 22.9695C19.79 22.6995 20.67 22.1495 21.36 21.4395" stroke="currentColor" stroke-width="1.5" stroke-linecap="round" stroke-linejoin="round"/><path id="Vector_2" d="M2.03004 11.0093C1.87004 10.0793 2.34002 8.82931 3.08002 8.23931L9.66004 2.9793C10.67 2.1693 12.31 2.16931 13.32 2.98931L19.9 8.23931C20.63 8.82931 21.1101 10.0793 20.9501 11.0093L20.52 13.5993L19.52 13.1893C18.89 12.9393 18.19 12.9393 17.56 13.1893L14.78 14.3293C14.4 14.4893 14.09 14.9493 14.09 15.3693V17.5594C14.09 18.8094 14.55 20.0193 15.34 20.9993H6.18003C4.81003 20.9993 3.52005 19.9094 3.29005 18.5594L2.74003 15.2393" stroke="currentColor" stroke-width="1.5" stroke-linecap="round" stroke-linejoin="round"/></g></g></g></svg>