<svg width="24" height="24" viewBox="0 0 24 24" fill="none" xmlns="http://www.w3.org/2000/svg"><g id="vuesax/broken/save-minus"><g id="vuesax/broken/save-minus_2"><g id="save-minus"><path id="Vector" d="M2 20.3509C2 21.8009 3.04 22.4108 4.31 21.7108L8.23999 19.5208C8.65999 19.2908 9.34001 19.2908 9.76001 19.5208L13.69 21.7108C14.96 22.4108 16 21.8009 16 20.3509V8.99084C16 7.28084 14.6 5.88086 12.89 5.88086H5.10999C3.39999 5.88086 2 7.28084 2 8.99084V15.5109" stroke="currentColor" stroke-width="1.5" stroke-linecap="round" stroke-linejoin="round"/><path id="Vector_2" d="M22 5.10999V16.47C22 17.92 20.96 18.53 19.69 17.83L16 15.77V8.98999C16 7.27999 14.6 5.88 12.89 5.88H8V5.10999C8 3.39999 9.39999 2 11.11 2H18.89C20.6 2 22 3.39999 22 5.10999Z" stroke="currentColor" stroke-width="1.5" stroke-linecap="round" stroke-linejoin="round"/><path id="Vector_3" d="M7 12H11" stroke="currentColor" stroke-width="1.5" stroke-linecap="round" stroke-linejoin="round"/></g></g></g></svg>