<svg width="24" height="24" viewBox="0 0 24 24" fill="none" xmlns="http://www.w3.org/2000/svg"><g id="vuesax/broken/security-card"><g id="vuesax/broken/security-card_2"><g id="security-card"><g id="Group"><g id="Group_2"><path id="Vector" d="M1.99998 7.13964C1.99998 5.91964 2.92999 4.56964 4.06999 4.13964L9.04999 2.26961C9.86999 1.95961 11.23 1.95961 12.05 2.26961L17.02 4.13964C17.97 4.49964 18.78 5.49961 19.03 6.51961H11.73C11.51 6.51961 11.31 6.52962 11.12 6.52962C9.26998 6.63962 8.78998 7.30963 8.78998 9.41963V14.8496C8.78998 17.1596 9.37998 17.7496 11.73 17.7496H17.65C17.56 17.8296 17.47 17.8996 17.38 17.9796L13.11 21.1796C11.7 22.2296 9.39998 22.2296 7.97998 21.1796L3.69998 17.9796C2.75998 17.2796 1.98999 15.7296 1.98999 14.5596V11.2396" stroke="currentColor" stroke-width="1.5" stroke-linecap="round" stroke-linejoin="round"/></g><path id="Vector_2" d="M8.80005 11.2197H22" stroke="currentColor" stroke-width="1.5" stroke-miterlimit="10" stroke-linecap="round" stroke-linejoin="round"/><path id="Vector_3" d="M22 9.41977V14.9698C21.98 17.1898 21.37 17.7397 19.06 17.7397H11.7401C9.39005 17.7397 8.80005 17.1498 8.80005 14.8398V9.40976C8.80005 7.30976 9.28005 6.63974 11.1301 6.51974C11.3201 6.51974 11.5201 6.50977 11.7401 6.50977H19.06C21.41 6.51977 22 7.09977 22 9.41977Z" stroke="currentColor" stroke-width="1.5" stroke-linecap="round" stroke-linejoin="round"/><path id="Vector_4" d="M11.3201 15.2598H12.6501" stroke="currentColor" stroke-width="1.5" stroke-miterlimit="10" stroke-linecap="round" stroke-linejoin="round"/><path id="Vector_5" d="M14.75 15.2598H18.02" stroke="currentColor" stroke-width="1.5" stroke-miterlimit="10" stroke-linecap="round" stroke-linejoin="round"/></g></g></g></g></svg>