<svg width="24" height="24" viewBox="0 0 24 24" fill="none" xmlns="http://www.w3.org/2000/svg"><g id="vuesax/broken/security-safe"><g id="vuesax/broken/security-safe_2"><g id="security-safe"><path id="Vector" d="M3.09 6.73028C3.09 5.91028 3.71001 4.98028 4.48001 4.67028L10.05 2.39031C11.3 1.88031 12.71 1.88031 13.96 2.39031L19.53 4.67028C20.29 4.98028 20.92 5.91028 20.92 6.73028V11.1203C20.92 16.0103 17.37 20.5903 12.52 21.9303C12.19 22.0203 11.83 22.0203 11.5 21.9303C6.65 20.5903 3.10001 16.0103 3.10001 11.1203" stroke="currentColor" stroke-width="1.5" stroke-linecap="round" stroke-linejoin="round"/><g id="Group"><path id="Vector_2" d="M12 12.5C13.1046 12.5 14 11.6046 14 10.5C14 9.39543 13.1046 8.5 12 8.5C10.8954 8.5 10 9.39543 10 10.5C10 11.6046 10.8954 12.5 12 12.5Z" stroke="currentColor" stroke-width="1.5" stroke-miterlimit="10" stroke-linecap="round" stroke-linejoin="round"/><path id="Vector_3" d="M12 12.5V15.5" stroke="currentColor" stroke-width="1.5" stroke-miterlimit="10" stroke-linecap="round" stroke-linejoin="round"/></g></g></g></g></svg>