<svg width="24" height="24" viewBox="0 0 24 24" fill="none" xmlns="http://www.w3.org/2000/svg"><g id="vuesax/broken/security-user"><g id="vuesax/broken/security-user_2"><g id="security-user"><g id="Group"><path id="Vector" d="M18.87 18.0003C19.82 17.2903 20.6 15.7403 20.6 14.5603V7.13033C20.6 5.90033 19.66 4.54031 18.51 4.11031L13.52 2.24031C12.69 1.93031 11.33 1.93031 10.5 2.24031L5.51001 4.11031C4.36001 4.54031 3.42001 5.90033 3.42001 7.13033V14.5603C3.42001 15.7403 4.19999 17.2903 5.14999 18.0003L9.45001 21.2103C10.86 22.2703 13.18 22.2703 14.59 21.2103L15.33 20.6503" stroke="currentColor" stroke-width="1.5" stroke-linecap="round" stroke-linejoin="round"/></g><g id="Group_2"><path id="Vector_2" d="M12 10.9204C11.96 10.9204 11.91 10.9204 11.87 10.9204C10.93 10.8904 10.18 10.1104 10.18 9.1604C10.18 8.1904 10.97 7.40039 11.94 7.40039C12.91 7.40039 13.7 8.1904 13.7 9.1604C13.69 10.1204 12.94 10.8904 12 10.9204Z" stroke="currentColor" stroke-width="1.5" stroke-linecap="round" stroke-linejoin="round"/><path id="Vector_3" d="M10.01 13.7213C9.05001 14.3613 9.05001 15.4113 10.01 16.0513C11.1 16.7813 12.89 16.7813 13.98 16.0513C14.94 15.4113 14.94 14.3613 13.98 13.7213C12.9 12.9913 11.11 12.9913 10.01 13.7213Z" stroke="currentColor" stroke-width="1.5" stroke-linecap="round" stroke-linejoin="round"/></g></g></g></g></svg>