<svg width="24" height="24" viewBox="0 0 24 24" fill="none" xmlns="http://www.w3.org/2000/svg"><g id="vuesax/broken/security-time"><g id="vuesax/broken/security-time_2"><g id="security-time"><g id="Group"><path id="Vector" d="M3.40991 11.3705V14.5505C3.40991 15.7305 4.18992 17.2805 5.13992 17.9905L9.43991 21.2005C10.8499 22.2605 13.1699 22.2605 14.5799 21.2005L18.8799 17.9905C19.8299 17.2805 20.6099 15.7305 20.6099 14.5505V7.12055C20.6099 5.89055 19.6699 4.53055 18.5199 4.10055L13.5299 2.23055C12.6999 1.92055 11.3399 1.92055 10.5099 2.23055L5.5199 4.10055C4.3699 4.53055 3.4299 5.89055 3.4299 7.12055" stroke="currentColor" stroke-width="1.5" stroke-linecap="round" stroke-linejoin="round"/></g><g id="Group_2"><path id="Vector_2" d="M16 11.5C16 9.29 14.21 7.5 12 7.5C9.79 7.5 8 9.29 8 11.5C8 13.71 9.79 15.5 12 15.5C12.71 15.5 13.37 15.32 13.95 14.99" stroke="currentColor" stroke-width="1.5" stroke-miterlimit="10" stroke-linecap="round" stroke-linejoin="round"/><path id="Vector_3" d="M12.25 10.25V11.18C12.25 11.53 12.07 11.86 11.76 12.04L11 12.5" stroke="currentColor" stroke-width="1.5" stroke-miterlimit="10" stroke-linecap="round" stroke-linejoin="round"/></g></g></g></g></svg>