<svg width="24" height="24" viewBox="0 0 24 24" fill="none" xmlns="http://www.w3.org/2000/svg"><g id="vuesax/broken/share"><g id="vuesax/broken/share_2"><g id="share"><path id="Vector" d="M16.96 6.16992C18.96 7.55992 20.34 9.76992 20.62 12.3199" stroke="currentColor" stroke-width="1.5" stroke-linecap="round" stroke-linejoin="round"/><path id="Vector_2" d="M3.48999 12.3707C3.74999 9.8307 5.10999 7.6207 7.08999 6.2207" stroke="currentColor" stroke-width="1.5" stroke-linecap="round" stroke-linejoin="round"/><path id="Vector_3" d="M8.18994 20.9395C9.34994 21.5295 10.6699 21.8595 12.0599 21.8595C13.3999 21.8595 14.6599 21.5595 15.7899 21.0095" stroke="currentColor" stroke-width="1.5" stroke-linecap="round" stroke-linejoin="round"/><path id="Vector_4" d="M9.28003 4.92062C9.28003 6.45062 10.52 7.70062 12.06 7.70062C13.6 7.70062 14.84 6.46062 14.84 4.92062C14.84 3.38063 13.6 2.14062 12.06 2.14062" stroke="currentColor" stroke-width="1.5" stroke-linecap="round" stroke-linejoin="round"/><path id="Vector_5" d="M4.83005 19.9194C6.3654 19.9194 7.61005 18.6747 7.61005 17.1394C7.61005 15.604 6.3654 14.3594 4.83005 14.3594C3.2947 14.3594 2.05005 15.604 2.05005 17.1394C2.05005 18.6747 3.2947 19.9194 4.83005 19.9194Z" stroke="currentColor" stroke-width="1.5" stroke-linecap="round" stroke-linejoin="round"/><path id="Vector_6" d="M21.94 17.1394C21.94 15.6094 20.7 14.3594 19.16 14.3594C17.62 14.3594 16.38 15.5994 16.38 17.1394C16.38 18.6794 17.62 19.9194 19.16 19.9194" stroke="currentColor" stroke-width="1.5" stroke-linecap="round" stroke-linejoin="round"/></g></g></g></svg>