<svg width="24" height="24" viewBox="0 0 24 24" fill="none" xmlns="http://www.w3.org/2000/svg"><g id="vuesax/broken/shield-slash"><g id="vuesax/broken/shield-slash_2"><g id="shield-slash"><path id="Vector" d="M7.84 20.0191L9.43 21.2091C10.84 22.2691 13.16 22.2691 14.57 21.2091L18.87 17.9991C19.82 17.2891 20.6 15.7391 20.6 14.5591V7.11914" stroke="currentColor" stroke-width="1.5" stroke-linecap="round" stroke-linejoin="round"/><path id="Vector_2" d="M3.41 11.0391V14.5591C3.41 15.7391 4.19 17.2891 5.14 17.9991L5.34 18.1491" stroke="currentColor" stroke-width="1.5" stroke-linecap="round" stroke-linejoin="round"/><path id="Vector_3" d="M18.98 4.34055C18.83 4.25055 18.67 4.17055 18.51 4.10055L13.52 2.23055C12.69 1.92055 11.33 1.92055 10.5 2.23055L5.5 4.11055C4.35 4.54055 3.41 5.90055 3.41 7.12055" stroke="currentColor" stroke-width="1.5" stroke-linecap="round" stroke-linejoin="round"/><path id="Vector_4" d="M22 2L2 22" stroke="currentColor" stroke-width="1.5" stroke-linecap="round" stroke-linejoin="round"/></g></g></g></svg>