<svg width="24" height="24" viewBox="0 0 24 24" fill="none" xmlns="http://www.w3.org/2000/svg"><g id="vuesax/broken/shield-search"><g id="vuesax/broken/shield-search_2"><g id="shield-search"><path id="Vector" d="M3.41 11.0195V14.5595C3.41 15.7395 4.19 17.2895 5.14 17.9995L9.44 21.2095C10.14 21.7395 11.07 21.9995 12 21.9995" stroke="currentColor" stroke-width="1.5" stroke-linecap="round" stroke-linejoin="round"/><path id="Vector_2" d="M20.59 10.5505V7.12055C20.59 5.89055 19.65 4.53055 18.5 4.10055L13.51 2.23055C12.68 1.92055 11.32 1.92055 10.49 2.23055L5.5 4.11055C4.35 4.54055 3.41 5.90055 3.41 7.12055" stroke="currentColor" stroke-width="1.5" stroke-linecap="round" stroke-linejoin="round"/><path id="Vector_3" d="M20 15.9998C20 18.2098 18.21 19.9998 16 19.9998C13.79 19.9998 12 18.2098 12 15.9998C12 15.2698 12.19 14.5898 12.53 14.0098C13.22 12.8098 14.51 12.0098 15.99 12.0098C16.6 12.0098 17.17 12.1498 17.69 12.3898" stroke="currentColor" stroke-width="1.5" stroke-linecap="round" stroke-linejoin="round"/><path id="Vector_4" d="M20.9955 21H21.0045" stroke="currentColor" stroke-width="2" stroke-linecap="round" stroke-linejoin="round"/></g></g></g></svg>