<svg width="24" height="24" viewBox="0 0 24 24" fill="none" xmlns="http://www.w3.org/2000/svg"><g id="vuesax/broken/siacoin-(sc)"><g id="vuesax/broken/siacoin-(sc)_2"><g id="siacoin-(sc)"><path id="Vector" d="M16.3 21.0295C15 21.6495 13.54 21.9995 12 21.9995C6.48 21.9995 2 17.5195 2 11.9995C2 10.5895 2.29001 9.23953 2.82001 8.01953" stroke="currentColor" stroke-width="1.5" stroke-miterlimit="10" stroke-linecap="round" stroke-linejoin="round"/><path id="Vector_2" d="M7.96973 2.84C9.19973 2.3 10.5598 2 11.9998 2C17.5198 2 21.9998 6.48 21.9998 12C21.9998 14.29 21.2298 16.4 19.9398 18.08" stroke="currentColor" stroke-width="1.5" stroke-miterlimit="10" stroke-linecap="round" stroke-linejoin="round"/><path id="Vector_3" d="M16 16.25V12C16 9.65 14.1 7.75 11.75 7.75C9.4 7.75 7.5 9.65 7.5 12C7.5 14.35 9.4 16.25 11.75 16.25H16Z" stroke="currentColor" stroke-width="1.5" stroke-miterlimit="10" stroke-linecap="round" stroke-linejoin="round"/><path id="Vector_4" d="M5 6.5C5.82843 6.5 6.5 5.82843 6.5 5C6.5 4.17157 5.82843 3.5 5 3.5C4.17157 3.5 3.5 4.17157 3.5 5C3.5 5.82843 4.17157 6.5 5 6.5Z" stroke="currentColor" stroke-width="1.5" stroke-miterlimit="10" stroke-linecap="round" stroke-linejoin="round"/></g></g></g></svg>