<svg width="24" height="24" viewBox="0 0 24 24" fill="none" xmlns="http://www.w3.org/2000/svg"><g id="vuesax/broken/signpost"><g id="vuesax/broken/signpost_2"><g id="signpost"><path id="Vector" d="M13.0301 2.00024H8.96005C8.56005 2.00024 8.18002 2.14025 7.87002 2.38025L5.68002 4.13025C4.80002 4.83025 4.80002 6.16023 5.68002 6.86023L7.87002 8.61023C8.18002 8.86023 8.57005 8.99023 8.96005 8.99023H17.22C18.19 8.99023 18.97 8.21023 18.97 7.24023V3.74023C18.97 2.77023 18.19 1.99023 17.22 1.99023" stroke="currentColor" stroke-width="1.5" stroke-linecap="round" stroke-linejoin="round"/><path id="Vector_2" d="M6.80005 12H15.0601C15.4601 12 15.8401 12.14 16.1501 12.38L18.3401 14.13C19.2201 14.83 19.2201 16.16 18.3401 16.86L16.1501 18.61C15.8401 18.86 15.4501 18.99 15.0601 18.99H6.80005C5.83005 18.99 5.05005 18.21 5.05005 17.24V13.74C5.05005 12.78 5.83005 12 6.80005 12Z" stroke="currentColor" stroke-width="1.5" stroke-linecap="round" stroke-linejoin="round"/><path id="Vector_3" d="M12 12V9" stroke="currentColor" stroke-width="1.5" stroke-linecap="round" stroke-linejoin="round"/><path id="Vector_4" d="M12 22V19" stroke="currentColor" stroke-width="1.5" stroke-linecap="round" stroke-linejoin="round"/><path id="Vector_5" d="M9 22H15" stroke="currentColor" stroke-width="1.5" stroke-linecap="round" stroke-linejoin="round"/></g></g></g></svg>