<svg width="24" height="24" viewBox="0 0 24 24" fill="none" xmlns="http://www.w3.org/2000/svg"><g id="vuesax/broken/smart-car"><g id="vuesax/broken/smart-car_2"><g id="smart-car"><g id="Group"><path id="Vector" d="M8.39001 7.61914H6.87001C5.01001 7.61914 4.59002 8.54916 4.36002 9.69916L3.51001 13.7491H15.51L14.66 9.69916C14.42 8.55916 14.01 7.61914 12.15 7.61914" stroke="currentColor" stroke-width="1.5" stroke-linecap="round" stroke-linejoin="round"/><g id="Group_2"><path id="Vector_2" d="M16.89 19.1883L17 20.3583C17.08 21.2383 16.38 21.9983 15.48 21.9983H14.07C13.26 21.9983 13.15 21.6483 13 21.2283L12.85 20.7783C12.64 20.1683 12.5 19.7483 11.42 19.7483H7.58002C6.50002 19.7483 6.34001 20.2183 6.15001 20.7783L6.00002 21.2283C5.86002 21.6583 5.75001 21.9983 4.93001 21.9983H3.52002C2.62002 21.9983 1.91002 21.2383 2.00002 20.3583L2.42001 15.7883C2.53001 14.6583 2.74002 13.7383 4.71002 13.7383H14.28C16.25 13.7383 16.46 14.6583 16.57 15.7883" stroke="currentColor" stroke-width="1.5" stroke-linecap="round" stroke-linejoin="round"/></g><path id="Vector_3" d="M3.5 11.5H2.75" stroke="currentColor" stroke-width="1.5" stroke-linecap="round" stroke-linejoin="round"/><path id="Vector_4" d="M16.25 11.5H15.5" stroke="currentColor" stroke-width="1.5" stroke-linecap="round" stroke-linejoin="round"/><path id="Vector_5" d="M5 16.75H7.25" stroke="currentColor" stroke-width="1.5" stroke-linecap="round" stroke-linejoin="round"/><path id="Vector_6" d="M11.75 16.75H14" stroke="currentColor" stroke-width="1.5" stroke-linecap="round" stroke-linejoin="round"/></g><path id="Vector_7" d="M18.71 8.74016C18.99 8.09016 18.89 7.21017 18.37 6.44017C17.86 5.67017 17.08 5.24017 16.37 5.25017" stroke="currentColor" stroke-width="1.5" stroke-linecap="round" stroke-linejoin="round"/><path id="Vector_8" d="M18.38 2.53998C17.81 2.25998 17.22 2.07 16.64 2" stroke="currentColor" stroke-width="1.5" stroke-linecap="round" stroke-linejoin="round"/><path id="Vector_9" d="M21.82 9.72949C22.24 8.21949 21.94 6.36953 20.87 4.76953" stroke="currentColor" stroke-width="1.5" stroke-linecap="round" stroke-linejoin="round"/></g></g></g></svg>