<svg width="24" height="24" viewBox="0 0 24 24" fill="none" xmlns="http://www.w3.org/2000/svg"><g id="vuesax/broken/smileys"><g id="vuesax/broken/smileys_2"><g id="smileys"><path id="Vector" d="M2 6.19995C2 3.19995 3.2 2 6.2 2H9.8C12.8 2 14 3.19995 14 6.19995V10C11.21 10.05 10.05 11.21 10 14H6.2C3.2 14 2 12.8 2 9.80005" stroke="currentColor" stroke-width="1.5" stroke-linecap="round" stroke-linejoin="round"/><path id="Vector_2" d="M6.95995 5.8691C6.42995 5.5091 5.72995 5.50912 5.19995 5.88912" stroke="currentColor" stroke-width="1.5" stroke-miterlimit="10" stroke-linecap="round" stroke-linejoin="round"/><path id="Vector_3" d="M10.9599 5.8691C10.4299 5.5091 9.72995 5.50912 9.19995 5.88912" stroke="currentColor" stroke-width="1.5" stroke-miterlimit="10" stroke-linecap="round" stroke-linejoin="round"/><path id="Vector_4" d="M8.16005 11.4197H5.84005C5.54005 11.4197 5.30005 11.1796 5.30005 10.8796C5.30005 9.38964 6.51005 8.17969 8.00005 8.17969C8.64005 8.17969 9.23005 8.39965 9.69005 8.76965" stroke="currentColor" stroke-width="1.5" stroke-miterlimit="10" stroke-linecap="round" stroke-linejoin="round"/><path id="Vector_5" d="M22 17.8C22 20.8 20.8 22 17.8 22H14.2C11.2 22 10 20.8 10 17.8V14C10.05 11.21 11.21 10.05 14 10H17.8C20.8 10 22 11.2 22 14.2" stroke="currentColor" stroke-width="1.5" stroke-linecap="round" stroke-linejoin="round"/><path id="Vector_6" d="M14.9599 13.6196C14.4299 13.9796 13.73 13.9796 13.2 13.5996" stroke="currentColor" stroke-width="1.5" stroke-miterlimit="10" stroke-linecap="round" stroke-linejoin="round"/><path id="Vector_7" d="M18.9599 13.6196C18.4299 13.9796 17.73 13.9796 17.2 13.5996" stroke="currentColor" stroke-width="1.5" stroke-miterlimit="10" stroke-linecap="round" stroke-linejoin="round"/><path id="Vector_8" d="M13.84 16.1797H18.16C18.46 16.1797 18.7001 16.4196 18.7001 16.7196C18.7001 18.2096 17.49 19.4197 16 19.4197C14.51 19.4197 13.3 18.2096 13.3 16.7196C13.3 16.4196 13.54 16.1797 13.84 16.1797Z" stroke="currentColor" stroke-width="1.5" stroke-miterlimit="10" stroke-linecap="round" stroke-linejoin="round"/></g></g></g></svg>