<svg width="24" height="24" viewBox="0 0 24 24" fill="none" xmlns="http://www.w3.org/2000/svg"><g id="vuesax/broken/speedometer"><g id="vuesax/broken/speedometer_2"><g id="speedometer"><path id="Vector" d="M4.84 19.4796C3.08 17.6796 2 15.2096 2 12.4896C2 8.79961 4 5.57961 6.97 3.83961C7.28 3.65961 7.6 3.48961 7.94 3.34961" stroke="currentColor" stroke-width="1.5" stroke-miterlimit="10" stroke-linecap="round" stroke-linejoin="round"/><path id="Vector_2" d="M19.14 19.5C20.91 17.7 22 15.22 22 12.5C22 6.98 17.52 2.5 12 2.5" stroke="currentColor" stroke-width="1.5" stroke-miterlimit="10" stroke-linecap="round" stroke-linejoin="round"/><path id="Vector_3" d="M8.62 18.1202C8.62 19.9802 10.13 21.5002 12 21.5002C13.87 21.5002 15.38 19.9902 15.38 18.1202C15.38 16.2502 13.87 14.7402 12 14.7402C11.07 14.7402 10.22 15.1202 9.61 15.7302C9 16.3502 8.62 17.1902 8.62 18.1202Z" stroke="currentColor" stroke-width="1.5" stroke-miterlimit="10" stroke-linecap="round" stroke-linejoin="round"/><path id="Vector_4" d="M15.25 12H16C16.82 12 17.5 11.33 17.5 10.5C17.5 9.68 16.82 9 16 9C15.18 9 14.5 9.67 14.5 10.5V11.25C14.5 11.66 14.84 12 15.25 12Z" stroke="currentColor" stroke-width="1.5" stroke-miterlimit="10" stroke-linecap="round" stroke-linejoin="round"/></g></g></g></svg>