<svg width="24" height="24" viewBox="0 0 24 24" fill="none" xmlns="http://www.w3.org/2000/svg"><g id="vuesax/broken/star-slash"><g id="vuesax/broken/star-slash_2"><g id="star-slash"><path id="Vector" d="M16.05 7.67063C15.81 7.49063 15.61 7.26063 15.5 7.03063L13.74 3.51063C12.79 1.60063 11.23 1.60063 10.27 3.51063L8.50003 7.03063C8.38003 7.28063 8.16003 7.51062 7.91003 7.70062" stroke="currentColor" stroke-width="1.5" stroke-linecap="round" stroke-linejoin="round"/><path id="Vector_2" d="M5.28003 18.6494L5.85003 16.1794C5.98003 15.5994 5.75003 14.7894 5.33003 14.3694L2.85003 11.8894C1.39003 10.4294 1.86003 8.94938 3.90003 8.60938" stroke="currentColor" stroke-width="1.5" stroke-linecap="round" stroke-linejoin="round"/><path id="Vector_3" d="M20.1 8.60938C22.14 8.94938 22.62 10.4294 21.15 11.8894L18.67 14.3694C18.25 14.7894 18.02 15.5994 18.15 16.1794L18.86 19.2494C19.42 21.6794 18.13 22.6194 15.98 21.3494L12.99 19.5794C12.45 19.2594 11.56 19.2594 11.01 19.5794L8.02002 21.3494" stroke="currentColor" stroke-width="1.5" stroke-linecap="round" stroke-linejoin="round"/><path id="Vector_4" d="M22 2L2 22" stroke="currentColor" stroke-width="1.5" stroke-linecap="round" stroke-linejoin="round"/></g></g></g></svg>