<svg width="24" height="24" viewBox="0 0 24 24" fill="none" xmlns="http://www.w3.org/2000/svg"><g id="vuesax/broken/story"><g id="vuesax/broken/story_2"><g id="story"><path id="Vector" d="M16.42 7.94923C18.86 10.3892 18.86 14.3492 16.42 16.7892C13.98 19.2292 10.02 19.2292 7.58 16.7892C5.14 14.3492 5.14 10.3892 7.58 7.94923C8.95 6.57923 10.81 5.97924 12.6 6.14924" stroke="currentColor" stroke-width="1.5" stroke-linecap="round" stroke-linejoin="round"/><path id="Vector_2" d="M8.24999 21.6409C6.24999 20.8409 4.49999 19.3909 3.33999 17.3809C2.19999 15.4109 1.81999 13.2209 2.08999 11.1309" stroke="currentColor" stroke-width="1.5" stroke-linecap="round" stroke-linejoin="round"/><path id="Vector_3" d="M5.84998 4.47937C7.54998 3.14937 9.67997 2.35938 12 2.35938C14.27 2.35938 16.36 3.12936 18.04 4.40936" stroke="currentColor" stroke-width="1.5" stroke-linecap="round" stroke-linejoin="round"/><path id="Vector_4" d="M15.75 21.6409C17.75 20.8409 19.5 19.3909 20.66 17.3809C21.8 15.4109 22.18 13.2209 21.91 11.1309" stroke="currentColor" stroke-width="1.5" stroke-linecap="round" stroke-linejoin="round"/></g></g></g></svg>