<svg width="24" height="24" viewBox="0 0 24 24" fill="none" xmlns="http://www.w3.org/2000/svg"><g id="vuesax/broken/teacher"><g id="vuesax/broken/teacher_2"><g id="teacher"><path id="Vector" d="M6.00002 5.17031L4.03002 6.46031C2.10002 7.72031 2.10002 10.5403 4.03002 11.8003L10.05 15.7303C11.13 16.4403 12.91 16.4403 13.99 15.7303L19.98 11.8003C21.9 10.5403 21.9 7.73031 19.98 6.47031L13.99 2.54031C12.91 1.83031 11.13 1.83031 10.05 2.54031" stroke="currentColor" stroke-width="1.5" stroke-linecap="round" stroke-linejoin="round"/><path id="Vector_2" d="M5.63 13.0801L5.62 17.7701C5.62 19.0401 6.6 20.4001 7.8 20.8001L10.99 21.8601C11.54 22.0401 12.45 22.0401 13.01 21.8601L16.2 20.8001C17.4 20.4001 18.38 19.0401 18.38 17.7701V13.1301" stroke="currentColor" stroke-width="1.5" stroke-linecap="round" stroke-linejoin="round"/><path id="Vector_3" d="M21.4 15V9" stroke="currentColor" stroke-width="1.5" stroke-linecap="round" stroke-linejoin="round"/></g></g></g></svg>