<svg width="24" height="24" viewBox="0 0 24 24" fill="none" xmlns="http://www.w3.org/2000/svg"><g id="vuesax/broken/the-graph-(grt)"><g id="vuesax/broken/the-graph-(grt)_2"><g id="the-graph-(grt)"><path id="Vector" d="M11.3102 13.9397C13.1769 13.9397 14.6902 12.4264 14.6902 10.5597C14.6902 8.69296 13.1769 7.17969 11.3102 7.17969C9.44346 7.17969 7.93018 8.69296 7.93018 10.5597C7.93018 12.4264 9.44346 13.9397 11.3102 13.9397Z" stroke="currentColor" stroke-width="1.5" stroke-miterlimit="10"/><path id="Vector_2" d="M15.0601 14.8096L12.0601 17.8096" stroke="currentColor" stroke-width="1.5" stroke-miterlimit="10" stroke-linecap="round" stroke-linejoin="round"/><path id="Vector_3" d="M4 6C2.75 7.67 2 9.75 2 12C2 17.52 6.48 22 12 22C17.52 22 22 17.52 22 12C22 6.48 17.52 2 12 2C10.57 2 9.2 2.3 7.97 2.85" stroke="currentColor" stroke-width="1.5" stroke-linecap="round" stroke-linejoin="round"/></g></g></g></svg>