<svg width="24" height="24" viewBox="0 0 24 24" fill="none" xmlns="http://www.w3.org/2000/svg"><g id="vuesax/broken/ticket-star"><g id="vuesax/broken/ticket-star_2"><g id="ticket-star"><path id="Vector" d="M3.24001 15.27C2.86001 15.41 2.44001 15.49 2.01001 15.49C2.10001 19.08 3.17001 20 7.00001 20H17C21 20 22 19 22 15V9C22 5 21 4 17 4H7.00001C3.17001 4 2.10001 4.92 2.01001 8.5C3.94001 8.5 5.50001 10.07 5.50001 12" stroke="currentColor" stroke-width="1.5" stroke-linecap="round" stroke-linejoin="round"/><path id="Vector_2" d="M9 4V7.5" stroke="currentColor" stroke-width="1.5" stroke-linecap="round" stroke-linejoin="round"/><path id="Vector_3" d="M9 16.5V20" stroke="currentColor" stroke-width="1.5" stroke-linecap="round" stroke-linejoin="round"/><path id="Vector_4" d="M14.8599 14.2104C14.7399 14.1504 14.5899 14.1504 14.4699 14.2104L13.2399 14.8604C12.9299 15.0204 12.5799 14.7604 12.6399 14.4204L12.8799 13.0504C12.8999 12.9104 12.8599 12.7804 12.7599 12.6804L11.7699 11.7104C11.5199 11.4704 11.6599 11.0504 11.9999 11.0004L13.3799 10.8004C13.5199 10.7804 13.6299 10.7004 13.6899 10.5704L14.2999 9.32039C14.4499 9.01039 14.8899 9.01039 15.0399 9.32039L15.6599 10.5704C15.7199 10.6904 15.8399 10.7804 15.9699 10.8004L17.3499 11.0004C17.6899 11.0504 17.8299 11.4704 17.5799 11.7104L16.5799 12.6804C16.4799 12.7704 16.4399 12.9104 16.4599 13.0504" stroke="currentColor" stroke-width="1.5" stroke-linecap="round" stroke-linejoin="round"/></g></g></g></svg>