<svg width="24" height="24" viewBox="0 0 24 24" fill="none" xmlns="http://www.w3.org/2000/svg"><g id="vuesax/broken/ticket-2"><g id="vuesax/broken/ticket-2_2"><g id="ticket-2"><path id="Vector" d="M19.0301 14.97C19.0301 16.26 20.0901 17.31 21.3801 17.31C21.3801 21.06 20.4401 22 16.6901 22H7.31012C3.56012 22 2.62012 21.06 2.62012 17.31V16.85C3.91012 16.85 4.97012 15.79 4.97012 14.5C4.97012 13.21 3.91012 12.15 2.62012 12.15V11.69C2.63012 7.94 3.56012 7 7.31012 7H16.6801C20.4301 7 21.3701 7.94 21.3701 11.69V12.63" stroke="currentColor" stroke-width="1.5" stroke-linecap="round" stroke-linejoin="round"/><path id="Vector_2" d="M16.33 6.99984H7.23999L10.17 4.06984C12.56 1.67984 13.76 1.67984 16.15 4.06984L16.75 4.66984C16.12 5.29984 15.97 6.22984 16.33 6.99984Z" stroke="currentColor" stroke-width="1.5" stroke-linecap="round" stroke-linejoin="round"/><path id="Vector_3" d="M10 7L10 22" stroke="currentColor" stroke-width="1.5" stroke-linecap="round" stroke-linejoin="round" stroke-dasharray="5 5"/></g></g></g></svg>