<svg width="24" height="24" viewBox="0 0 24 24" fill="none" xmlns="http://www.w3.org/2000/svg"><g id="vuesax/broken/timer-start"><g id="vuesax/broken/timer-start_2"><g id="timer-start"><path id="Vector" d="M12 8V13" stroke="currentColor" stroke-width="1.5" stroke-linecap="round" stroke-linejoin="round"/><path id="Vector_2" d="M8.01001 5.46C9.21001 4.85 10.56 4.5 12 4.5C16.83 4.5 20.75 8.42 20.75 13.25" stroke="currentColor" stroke-width="1.5" stroke-linecap="round" stroke-linejoin="round"/><path id="Vector_3" d="M12 22.0002C7.17 22.0002 3.25 18.0802 3.25 13.2502C3.25 11.2702 3.91 9.45023 5.01 7.99023" stroke="currentColor" stroke-width="1.5" stroke-linecap="round" stroke-linejoin="round"/><path id="Vector_4" d="M9 2H15" stroke="currentColor" stroke-width="1.5" stroke-miterlimit="10" stroke-linecap="round" stroke-linejoin="round"/><path id="Vector_5" d="M14.8999 18.4998V17.3398C14.8999 15.9098 15.9199 15.3198 17.1599 16.0398L18.1599 16.6198L19.1599 17.1998C20.3999 17.9198 20.3999 19.0898 19.1599 19.8098L18.1599 20.3898L17.1599 20.9698C15.9199 21.6898 14.8999 21.0998 14.8999 19.6698V18.4998Z" stroke="currentColor" stroke-width="1.5" stroke-miterlimit="10" stroke-linecap="round" stroke-linejoin="round"/></g></g></g></svg>