<svg width="24" height="24" viewBox="0 0 24 24" fill="none" xmlns="http://www.w3.org/2000/svg"><g id="vuesax/broken/translate"><g id="vuesax/broken/translate_2"><g id="translate"><path id="Vector" d="M19.06 18.6703L16.92 14.4004L14.78 18.6703" stroke="currentColor" stroke-width="1.5" stroke-linecap="round" stroke-linejoin="round"/><path id="Vector_2" d="M15.17 17.9102H18.69" stroke="currentColor" stroke-width="1.5" stroke-linecap="round" stroke-linejoin="round"/><path id="Vector_3" d="M19.92 21.0198C19.08 21.6298 18.05 21.9998 16.93 21.9998C14.13 21.9998 11.85 19.7298 11.85 16.9198C11.85 14.1198 14.12 11.8398 16.93 11.8398C19.73 11.8398 22.01 14.1098 22.01 16.9198" stroke="currentColor" stroke-width="1.5" stroke-linecap="round" stroke-linejoin="round"/><path id="Vector_4" d="M11.95 8.93024C12 11.0002 11 12.0003 8.92999 11.9503H5.00999C2.99999 12.0003 2 11.0002 2 8.93024V5.01025C2 2.99025 3 1.99023 5.02 1.99023H8.94C11.01 1.99023 12.01 2.99025 11.96 5.01025" stroke="currentColor" stroke-width="1.5" stroke-linecap="round" stroke-linejoin="round"/><g id="Group"><path id="Vector_5" d="M9.00995 5.84961H4.94995" stroke="currentColor" stroke-width="1.5" stroke-linecap="round" stroke-linejoin="round"/><path id="Vector_6" d="M6.96997 5.16992V5.84991" stroke="currentColor" stroke-width="1.5" stroke-linecap="round" stroke-linejoin="round"/><path id="Vector_7" d="M7.98994 5.83984C7.98994 7.58984 6.61994 9.00983 4.93994 9.00983" stroke="currentColor" stroke-width="1.5" stroke-linecap="round" stroke-linejoin="round"/><path id="Vector_8" d="M9.0099 9.01001C8.2799 9.01001 7.61991 8.62 7.15991 8" stroke="currentColor" stroke-width="1.5" stroke-linecap="round" stroke-linejoin="round"/></g><g id="Group_2"><path id="Vector_9" d="M2 15C2 18.87 5.13 22 9 22L7.95 20.25" stroke="currentColor" stroke-width="1.5" stroke-linecap="round" stroke-linejoin="round"/><path id="Vector_10" d="M22 9C22 5.13 18.87 2 15 2L16.05 3.75" stroke="currentColor" stroke-width="1.5" stroke-linecap="round" stroke-linejoin="round"/></g></g></g></g></svg>