<svg width="24" height="24" viewBox="0 0 24 24" fill="none" xmlns="http://www.w3.org/2000/svg"><g id="vuesax/broken/truck-tick"><g id="vuesax/broken/truck-tick_2"><g id="truck-tick"><path id="Vector" d="M15 2V12C15 13.1 14.1 14 13 14H2V7.62C2.73 8.49 3.85003 9.03 5.09003 9C6.10003 8.98 7.01 8.59 7.69 7.94C8 7.68 8.26002 7.34999 8.46002 6.98999C8.82002 6.37999 9.02 5.65997 9 4.90997C8.97 3.73997 8.45001 2.71 7.64001 2H15Z" stroke="currentColor" stroke-width="1.5" stroke-linecap="round" stroke-linejoin="round"/><path id="Vector_2" d="M20.29 9H19C18.45 9 18 9.45 18 10V13C18 13.55 18.45 14 19 14H22V17C22 18.66 20.66 20 19 20H18C18 18.9 17.1 18 16 18C14.9 18 14 18.9 14 20H10C10 18.9 9.1 18 8 18C6.9 18 6 18.9 6 20H5C3.94 20 3.00998 19.45 2.47998 18.63" stroke="currentColor" stroke-width="1.5" stroke-linecap="round" stroke-linejoin="round"/><path id="Vector_3" d="M2 14H13C14.1 14 15 13.1 15 12V5H16.84C17.2 5 17.55 5.10002 17.85 5.27002" stroke="currentColor" stroke-width="1.5" stroke-linecap="round" stroke-linejoin="round"/><path id="Vector_4" d="M8 22C9.10457 22 10 21.1046 10 20C10 18.8954 9.10457 18 8 18C6.89543 18 6 18.8954 6 20C6 21.1046 6.89543 22 8 22Z" stroke="currentColor" stroke-width="1.5" stroke-linecap="round" stroke-linejoin="round"/><path id="Vector_5" d="M16 22C17.1046 22 18 21.1046 18 20C18 18.8954 17.1046 18 16 18C14.8954 18 14 18.8954 14 20C14 21.1046 14.8954 22 16 22Z" stroke="currentColor" stroke-width="1.5" stroke-linecap="round" stroke-linejoin="round"/><path id="Vector_6" d="M22 12V14H19C18.45 14 18 13.55 18 13V10C18 9.45 18.45 9 19 9H20.29L22 12Z" stroke="currentColor" stroke-width="1.5" stroke-linecap="round" stroke-linejoin="round"/><g id="Group"><path id="Vector_7" d="M8.99999 4.91073C9.01999 5.66073 8.82001 6.38074 8.46001 6.99074C8.26001 7.35074 7.99999 7.68075 7.68999 7.94075C7.00999 8.59075 6.10002 8.98075 5.09002 9.00075C3.85002 9.03075 2.72999 8.49075 1.99999 7.62075C1.85999 7.47075 1.73999 7.30076 1.62999 7.13076C1.23999 6.54076 1.01999 5.84078 0.999989 5.09078C0.969989 3.83078 1.52998 2.68074 2.42998 1.93074C3.10998 1.37074 3.96996 1.02075 4.90996 1.00075C5.95996 0.980752 6.92 1.36075 7.64 2.00075C8.45 2.71075 8.96999 3.74073 8.99999 4.91073Z" stroke="currentColor" stroke-width="1.5" stroke-miterlimit="10" stroke-linecap="round" stroke-linejoin="round"/><path id="Vector_8" d="M3.44 5.03076L4.45001 5.99072L6.53998 3.9707" stroke="currentColor" stroke-width="1.5" stroke-linecap="round" stroke-linejoin="round"/></g></g></g></g></svg>