<svg width="24" height="24" viewBox="0 0 24 24" fill="none" xmlns="http://www.w3.org/2000/svg"><g id="vuesax/broken/usd-coin-(usdc)"><g id="vuesax/broken/usd-coin-(usdc)_2"><g id="usd-coin-(usdc)"><path id="Vector" d="M16.9502 16.9498C19.6802 14.2198 19.6802 9.7798 16.9502 7.0498" stroke="currentColor" stroke-width="1.5" stroke-miterlimit="10" stroke-linecap="round" stroke-linejoin="round"/><path id="Vector_2" d="M7.04994 7.0498C4.31994 9.7798 4.31994 14.2198 7.04994 16.9498" stroke="currentColor" stroke-width="1.5" stroke-miterlimit="10" stroke-linecap="round" stroke-linejoin="round"/><path id="Vector_3" d="M9.66992 13.6302C9.66992 14.5302 10.3699 15.2602 11.2299 15.2602H12.9899C13.7399 15.2602 14.3499 14.6202 14.3499 13.8402C14.3499 12.9902 13.9799 12.6802 13.4199 12.4902L10.6099 11.5102C10.0599 11.3202 9.6799 11.0102 9.6799 10.1602C9.6799 9.37024 10.2899 8.74023 11.0399 8.74023H12.7999C13.6599 8.74023 14.3599 9.47024 14.3599 10.3702" stroke="currentColor" stroke-width="1.5" stroke-linecap="round" stroke-linejoin="round"/><path id="Vector_4" d="M12 7.7998V16.1998" stroke="currentColor" stroke-width="1.5" stroke-linecap="round" stroke-linejoin="round"/><path id="Vector_5" d="M4 6C2.75 7.67 2 9.75 2 12C2 17.52 6.48 22 12 22C17.52 22 22 17.52 22 12C22 6.48 17.52 2 12 2C10.57 2 9.2 2.3 7.97 2.85" stroke="currentColor" stroke-width="1.5" stroke-linecap="round" stroke-linejoin="round"/></g></g></g></svg>