<svg width="24" height="24" viewBox="0 0 24 24" fill="none" xmlns="http://www.w3.org/2000/svg"><g id="vuesax/broken/user-octagon"><g id="vuesax/broken/user-octagon_2"><g id="user-octagon"><path id="Vector" d="M10.43 2.42C11.4 1.86 12.6 1.86 13.58 2.42L19.52 5.84999C20.49 6.40999 21.09 7.45003 21.09 8.58003V15.42C21.09 16.54 20.49 17.58 19.52 18.15L13.58 21.58C12.61 22.14 11.41 22.14 10.43 21.58L4.49004 18.15C3.52004 17.59 2.92004 16.55 2.92004 15.42V8.58003C2.92004 7.46003 3.52004 6.41999 4.49004 5.84999L6.39004 4.75002" stroke="currentColor" stroke-width="1.5" stroke-linecap="round" stroke-linejoin="round"/><g id="Group"><path id="Vector_2" d="M12 10.9998C13.2869 10.9998 14.33 9.95662 14.33 8.6698C14.33 7.38298 13.2869 6.33984 12 6.33984C10.7132 6.33984 9.67004 7.38298 9.67004 8.6698C9.67004 9.95662 10.7132 10.9998 12 10.9998Z" stroke="currentColor" stroke-width="1.5" stroke-linecap="round" stroke-linejoin="round"/><path id="Vector_3" d="M16 16.6603C16 14.8603 14.21 13.4004 12 13.4004C9.79 13.4004 8 14.8603 8 16.6603" stroke="currentColor" stroke-width="1.5" stroke-linecap="round" stroke-linejoin="round"/></g></g></g></g></svg>