<svg width="24" height="24" viewBox="0 0 24 24" fill="none" xmlns="http://www.w3.org/2000/svg"><g id="vuesax/broken/video"><g id="vuesax/broken/video_2"><g id="video"><path id="Vector" d="M2 7.79008C2 4.63008 3.05 3.58008 6.21 3.58008H12.53C15.69 3.58008 16.74 4.63008 16.74 7.79008V16.2101C16.74 19.3701 15.69 20.4201 12.53 20.4201H6.21C3.05 20.4201 2 18.3201 2 16.2101V12.1201" stroke="currentColor" stroke-width="1.5" stroke-linecap="round" stroke-linejoin="round"/><path id="Vector_2" d="M19.52 17.1001L16.74 15.1501V8.84013L19.52 6.89013C20.88 5.94013 22 6.52013 22 8.19013V15.8101C22 17.4801 20.88 18.0601 19.52 17.1001Z" stroke="currentColor" stroke-width="1.5" stroke-linecap="round" stroke-linejoin="round"/><path id="Vector_3" d="M13 9.5C13 8.67 12.33 8 11.5 8C10.67 8 10 8.67 10 9.5C10 10.33 10.67 11 11.5 11" stroke="currentColor" stroke-width="1.5" stroke-linecap="round" stroke-linejoin="round"/></g></g></g></svg>