<svg width="24" height="24" viewBox="0 0 24 24" fill="none" xmlns="http://www.w3.org/2000/svg"><g id="vuesax/broken/volume-slash"><g id="vuesax/broken/volume-slash_2"><g id="volume-slash"><path id="Vector" d="M2 14C2 16 3 17 5 17H7" stroke="currentColor" stroke-width="1.5" stroke-linecap="round" stroke-linejoin="round"/><path id="Vector_2" d="M15 8.36979V7.40979C15 4.42979 12.93 3.28979 10.41 4.86979L7.49 6.69979C7.17 6.88979 6.8 6.99979 6.43 6.99979H5C3 6.99979 2 7.99979 2 9.99979" stroke="currentColor" stroke-width="1.5" stroke-linecap="round" stroke-linejoin="round"/><path id="Vector_3" d="M10.4099 19.1302C12.9299 20.7102 14.9999 19.5602 14.9999 16.5902V12.9502" stroke="currentColor" stroke-width="1.5" stroke-linecap="round" stroke-linejoin="round"/><path id="Vector_4" d="M18.81 9.41992C19.71 11.5699 19.44 14.0799 18 15.9999" stroke="currentColor" stroke-width="1.5" stroke-linecap="round" stroke-linejoin="round"/><path id="Vector_5" d="M20.7801 17C20.5101 17.52 20.2001 18.02 19.8401 18.5" stroke="currentColor" stroke-width="1.5" stroke-linecap="round" stroke-linejoin="round"/><path id="Vector_6" d="M21.1499 7.7998C21.9799 9.7698 22.1999 11.9298 21.8099 13.9998" stroke="currentColor" stroke-width="1.5" stroke-linecap="round" stroke-linejoin="round"/><path id="Vector_7" d="M22 2L2 22" stroke="currentColor" stroke-width="1.5" stroke-linecap="round" stroke-linejoin="round"/></g></g></g></svg>