<svg width="24" height="24" viewBox="0 0 24 24" fill="none" xmlns="http://www.w3.org/2000/svg"><g id="vuesax/broken/wallet-add"><g id="vuesax/broken/wallet-add_2"><g id="wallet-add"><path id="Vector" d="M14.5 15.4404H9.5" stroke="currentColor" stroke-width="1.5" stroke-miterlimit="10" stroke-linecap="round" stroke-linejoin="round"/><path id="Vector_2" d="M12 13V18" stroke="currentColor" stroke-width="1.5" stroke-miterlimit="10" stroke-linecap="round" stroke-linejoin="round"/><path id="Vector_3" d="M12 22.0003H8.1C7.86 22.0003 7.62 21.9803 7.39 21.9503C4.21 21.7403 2.51 20.0403 2.3 16.8603C2.27 16.6303 2.25 16.3903 2.25 16.1503V14.2003C2.25 12.1903 3.47 10.4603 5.21 9.71031C5.81 9.46031 6.45 9.32031 7.13 9.32031H16.89C17.38 9.32031 17.86 9.39031 18.3 9.52031C20.3 10.1203 21.76 11.9903 21.76 14.1903V16.1403C21.76 16.3403 21.75 16.5403 21.74 16.7403C21.55 20.2403 19.6 22.0003 15.9 22.0003" stroke="currentColor" stroke-width="1.5" stroke-linecap="round" stroke-linejoin="round"/><path id="Vector_4" d="M12.9 2.52009L12.87 2.59009L9.96995 9.32009H7.11995C6.43995 9.32009 5.78995 9.46009 5.19995 9.71009L6.94995 5.53009L6.98995 5.43009L7.05995 5.27009C7.07995 5.21009 7.09995 5.15009 7.12995 5.10009C8.43995 2.07009 9.91995 1.38009 12.9 2.52009Z" stroke="currentColor" stroke-width="1.5" stroke-linecap="round" stroke-linejoin="round"/><path id="Vector_5" d="M18.29 9.51953C17.84 9.37953 17.36 9.31953 16.88 9.31953H9.96997L12.87 2.58953L12.9 2.51953C13.05 2.56953 13.19 2.63953 13.34 2.69953L15.55 3.62953C16.78 4.13953 17.64 4.66953 18.16 5.30953C18.26 5.42953 18.34 5.53953 18.41 5.66953C18.5 5.80953 18.57 5.94953 18.61 6.09953C18.65 6.18953 18.68 6.27953 18.7 6.35953C18.97 7.19953 18.81 8.22953 18.29 9.51953Z" stroke="currentColor" stroke-width="1.5" stroke-linecap="round" stroke-linejoin="round"/><path id="Vector_6" d="M6.94999 5.53027L5.19999 9.71027C3.45999 10.4603 2.23999 12.1903 2.23999 14.2003V11.2703C2.23999 8.43027 4.25999 6.06027 6.94999 5.53027Z" stroke="currentColor" stroke-width="1.5" stroke-linecap="round" stroke-linejoin="round"/><path id="Vector_7" d="M21.76 11.2696V14.1996C21.76 11.9996 20.3 10.1296 18.3 9.52961C18.82 8.22961 18.97 7.20961 18.72 6.35961C18.7 6.26961 18.67 6.17961 18.63 6.09961C20.49 7.05961 21.76 9.02961 21.76 11.2696Z" stroke="currentColor" stroke-width="1.5" stroke-linecap="round" stroke-linejoin="round"/></g></g></g></svg>