<svg width="24" height="24" viewBox="0 0 24 24" fill="none" xmlns="http://www.w3.org/2000/svg"><g id="vuesax/broken/wallet-search"><g id="vuesax/broken/wallet-search_2"><g id="wallet-search"><path id="Vector" d="M12 22H17C20 22 22 20 22 17V12C22 9.3 20.3 7.3 17.8 7C17.6 7 17.3 7 17 7H7C6.7 7 6.5 6.99998 6.2 7.09998C3.6 7.39998 2 9.3 2 12C2 12.3 2 12.7 2 13" stroke="currentColor" stroke-width="1.5" stroke-linecap="round" stroke-linejoin="round"/><path id="Vector_2" d="M16.8 4.79985C17.4 5.39985 17.7 6.19986 17.8 6.99986C17.6 6.99986 17.3 6.99986 17 6.99986H6.99995C6.69995 6.99986 6.49995 6.99984 6.19995 7.09984C6.29995 6.79984 6.49996 6.59985 6.79996 6.29985L9.99995 2.99986C10.82 2.17986 11.91 1.83984 12.96 1.97984" stroke="currentColor" stroke-width="1.5" stroke-linecap="round" stroke-linejoin="round"/><path id="Vector_3" d="M22 12.5H19C17.9 12.5 17 13.4 17 14.5C17 15.6 17.9 16.5 19 16.5H22" stroke="currentColor" stroke-width="1.5" stroke-linecap="round" stroke-linejoin="round"/><path id="Vector_4" d="M5.8001 21.4C7.5701 21.4 9.0001 19.97 9.0001 18.2C9.0001 16.43 7.5701 15 5.8001 15C4.0301 15 2.6001 16.43 2.6001 18.2C2.6001 19.97 4.0301 21.4 5.8001 21.4Z" stroke="currentColor" stroke-width="1.5" stroke-linecap="round" stroke-linejoin="round"/><path id="Vector_5" d="M2 22L3 21" stroke="currentColor" stroke-width="1.5" stroke-linecap="round" stroke-linejoin="round"/></g></g></g></svg>