<svg width="24" height="24" viewBox="0 0 24 24" fill="none" xmlns="http://www.w3.org/2000/svg"><g id="vuesax/broken/weight"><g id="vuesax/broken/weight_2"><g id="weight"><path id="Vector" d="M17.1801 18C19.5801 18 20.1801 16.65 20.1801 15V9C20.1801 7.35 19.5801 6 17.1801 6C14.7801 6 14.1801 7.35 14.1801 9V15C14.1801 16.65 14.7801 18 17.1801 18Z" stroke="currentColor" stroke-width="1.5" stroke-linecap="round" stroke-linejoin="round"/><path id="Vector_2" d="M3.81995 11.3V9C3.81995 7.35 4.41995 6 6.81995 6C9.21995 6 9.81995 7.35 9.81995 9V15C9.81995 16.65 9.21995 18 6.81995 18C4.41995 18 3.81995 16.65 3.81995 15" stroke="currentColor" stroke-width="1.5" stroke-linecap="round" stroke-linejoin="round"/><path id="Vector_3" d="M9.81995 12H14.1799" stroke="currentColor" stroke-width="1.5" stroke-linecap="round" stroke-linejoin="round"/><path id="Vector_4" d="M22.5 14.5V9.5" stroke="currentColor" stroke-width="1.5" stroke-linecap="round" stroke-linejoin="round"/><path id="Vector_5" d="M1.5 14.5V9.5" stroke="currentColor" stroke-width="1.5" stroke-linecap="round" stroke-linejoin="round"/></g></g></g></svg>