<svg width="24" height="24" viewBox="0 0 24 24" fill="none" xmlns="http://www.w3.org/2000/svg"><g id="vuesax/broken/wind"><g id="vuesax/broken/wind_2"><g id="wind"><path id="Vector" d="M2 15H18.5C20.43 15 22 16.57 22 18.5C22 20.43 20.43 22 18.5 22C16.57 22 15 20.43 15 18.5V18" stroke="currentColor" stroke-width="1.5" stroke-miterlimit="10" stroke-linecap="round" stroke-linejoin="round"/><path id="Vector_2" d="M9.05005 12H18.5001C20.4201 12 22.0001 10.43 22.0001 8.5C22.0001 6.58 20.4201 5 18.5001 5C16.5801 5 15.0001 6.57 15.0001 8.5V9" stroke="currentColor" stroke-width="1.5" stroke-miterlimit="10" stroke-linecap="round" stroke-linejoin="round"/><path id="Vector_3" d="M2 12H4.98001" stroke="currentColor" stroke-width="1.5" stroke-miterlimit="10" stroke-linecap="round" stroke-linejoin="round"/><path id="Vector_4" d="M2 8.99914H9.31C10.8 8.99914 12 7.78914 12 6.30914C12 4.81914 10.79 3.61914 9.31 3.61914C7.82 3.61914 6.62 4.82914 6.62 6.30914V6.68914" stroke="currentColor" stroke-width="1.5" stroke-miterlimit="10" stroke-linecap="round" stroke-linejoin="round"/></g></g></g></svg>