<svg width="24" height="24" viewBox="0 0 24 24" fill="none" xmlns="http://www.w3.org/2000/svg"><g id="vuesax/broken/zoom"><g id="vuesax/broken/zoom_2"><g id="zoom"><path id="Vector" fill-rule="evenodd" clip-rule="evenodd" d="M6 9.67975V12.4798C6 14.0198 7.25001 15.2598 8.79001 15.2498L12.47 15.2198C12.98 15.2198 13.39 14.7997 13.39 14.2997V11.5298C13.39 9.99975 12.15 8.75977 10.62 8.75977H6.92999C6.40999 8.75977 6 9.16975 6 9.67975Z" stroke="currentColor" stroke-width="1.5" stroke-miterlimit="10"/><path id="Vector_2" fill-rule="evenodd" clip-rule="evenodd" d="M18 9.24023V14.7802L15.23 12.9302V11.0902L18 9.24023Z" stroke="currentColor" stroke-width="1.5" stroke-miterlimit="10" stroke-linecap="round" stroke-linejoin="round"/><path id="Vector_3" d="M4 6C2.75 7.67 2 9.75 2 12C2 17.52 6.48 22 12 22C17.52 22 22 17.52 22 12C22 6.48 17.52 2 12 2C10.57 2 9.2 2.30001 7.97 2.85001" stroke="currentColor" stroke-width="1.5" stroke-linecap="round" stroke-linejoin="round"/></g></g></g></svg>