<svg width="24" height="24" viewBox="0 0 24 24" fill="none" xmlns="http://www.w3.org/2000/svg"><g id="Broken / Time / Watch Round"><path id="Vector" d="M17 6.5L16.6961 5.13228C16.3624 3.63065 16.1955 2.87983 15.6471 2.43992C15.0987 2 14.3296 2 12.7913 2H11.2087C9.67043 2 8.9013 2 8.35289 2.43992C7.80448 2.87983 7.63763 3.63065 7.30394 5.13228L7 6.5" stroke="currentColor" stroke-width="1.5"/><path id="Vector_2" d="M17 17.5L16.6961 18.8677C16.3624 20.3694 16.1955 21.1202 15.6471 21.5601C15.0987 22 14.3296 22 12.7913 22H11.2087C9.67043 22 8.9013 22 8.35289 21.5601C7.80448 21.1202 7.63763 20.3694 7.30394 18.8677L7 17.5" stroke="currentColor" stroke-width="1.5"/><path id="Vector_3" d="M4.75452 10.0578C5.08333 8.82656 5.73072 7.66266 6.69668 6.6967C9.62561 3.76777 14.3743 3.76777 17.3033 6.6967C20.2322 9.62563 20.2322 14.3744 17.3033 17.3033C14.3743 20.2322 9.62561 20.2322 6.69668 17.3033C5.73072 16.3373 5.08333 15.1734 4.75452 13.9422" stroke="currentColor" stroke-width="1.5" stroke-linecap="round"/><path id="Vector_4" d="M12 8.92283V11.9998L14 13.9228" stroke="currentColor" stroke-width="1.5" stroke-linecap="round" stroke-linejoin="round"/></g></svg>