<svg width="24" height="24" viewBox="0 0 24 24" fill="none" xmlns="http://www.w3.org/2000/svg"><g id="Broken / Arrows Action / Maximize Square 3"><path id="Vector" d="M12 2C16.714 2 19.071 2 20.5355 3.46447C22 4.92893 22 7.28595 22 12C22 16.714 22 19.0711 20.5355 20.5355C19.1785 21.8926 17.055 21.9921 13 21.9994M2.00055 11C2.00785 6.94493 2.10741 4.8215 3.46444 3.46447C4.43819 2.49071 5.80656 2.16443 8.00006 2.0551" stroke="currentColor" stroke-width="1.5" stroke-linecap="round"/><path id="Vector_2" d="M12 12L17 7M17 7H13.25M17 7V10.75" stroke="currentColor" stroke-width="1.5" stroke-linecap="round" stroke-linejoin="round"/><path id="Vector_3" d="M2 18C2 16.1144 2 15.1716 2.58579 14.5858C3.17157 14 4.11438 14 6 14C7.88562 14 8.82843 14 9.41421 14.5858C10 15.1716 10 16.1144 10 18C10 19.8856 10 20.8284 9.41421 21.4142C8.82843 22 7.88562 22 6 22C4.11438 22 3.17157 22 2.58579 21.4142C2 20.8284 2 19.8856 2 18Z" stroke="currentColor" stroke-width="1.5"/></g></svg>