<svg width="24" height="24" viewBox="0 0 24 24" fill="none" xmlns="http://www.w3.org/2000/svg"><g id="Line Duotone / Sports / Hiking"><circle id="Vector" cx="11.5" cy="4.5" r="2.5" stroke="currentColor" stroke-width="1.5"/><path id="Vector_2" opacity="0.5" d="M9 17.5L6 22" stroke="currentColor" stroke-width="1.5" stroke-linecap="round"/><path id="Vector_3" d="M10.3756 11.2459L11.1219 11.3205L10.3756 11.2459ZM10.2135 12.8676L10.9598 12.9422L10.2135 12.8676ZM14.0033 11.3355L13.5231 11.9117L13.5231 11.9117L14.0033 11.3355ZM14.0846 11.4033L14.5648 10.8272L14.5648 10.8272L14.0846 11.4033ZM17.9159 11.4033L17.4358 10.8272L17.9159 11.4033ZM19.4804 11.0759C19.7986 10.8107 19.8416 10.3378 19.5764 10.0196C19.3113 9.70135 18.8383 9.65836 18.5201 9.92353L19.4804 11.0759ZM14.2284 20.0638L14.9755 19.9973L14.2284 20.0638ZM13.6536 22.0662C13.6903 22.4787 14.0545 22.7835 14.4671 22.7467C14.8797 22.71 15.1844 22.3458 15.1477 21.9332L13.6536 22.0662ZM15.3144 12.275L15.0572 12.9795L15.0572 12.9795L15.3144 12.275ZM16.6861 12.275L16.9433 12.9795L16.9433 12.9795L16.6861 12.275ZM12.0939 10.2419L11.9138 10.97L11.9138 10.97L12.0939 10.2419ZM12.2426 10.2981L12.0001 11.0078L12.0001 11.0078L12.2426 10.2981ZM13.4815 10.9253L13.9099 10.3096L13.9099 10.3096L13.4815 10.9253ZM11.8173 16.1354L12.2148 15.4994L11.8173 16.1354ZM13.4814 17.3715L12.8971 17.8417H12.8971L13.4814 17.3715ZM13.8797 18.0204L13.1958 18.3284L13.1958 18.3284L13.8797 18.0204ZM10.2051 14.5592L9.4893 14.783H9.4893L10.2051 14.5592ZM10.4741 15.1071L9.85911 15.5365L9.85911 15.5365L10.4741 15.1071ZM10.4857 10.6836L11.1679 10.9953L10.4857 10.6836ZM11.309 10.103L11.2443 9.35576L11.309 10.103ZM9.62936 11.1713L9.4672 12.7929L10.9598 12.9422L11.1219 11.3205L9.62936 11.1713ZM13.5231 11.9117L13.6045 11.9795L14.5648 10.8272L14.4834 10.7594L13.5231 11.9117ZM18.396 11.9795L19.4804 11.0759L18.5201 9.92353L17.4358 10.8272L18.396 11.9795ZM13.4814 20.1303L13.6536 22.0662L15.1477 21.9332L14.9755 19.9973L13.4814 20.1303ZM13.6045 11.9795C14.1596 12.4421 14.5773 12.8043 15.0572 12.9795L15.5716 11.5705C15.3974 11.5069 15.2133 11.3676 14.5648 10.8272L13.6045 11.9795ZM17.4358 10.8272C16.7872 11.3676 16.6031 11.5069 16.4289 11.5705L16.9433 12.9795C17.4232 12.8043 17.8409 12.4421 18.396 11.9795L17.4358 10.8272ZM15.0572 12.9795C15.6662 13.2019 16.3343 13.2019 16.9433 12.9795L16.4289 11.5705C16.1521 11.6715 15.8484 11.6715 15.5716 11.5705L15.0572 12.9795ZM11.9138 10.97C11.915 10.9703 11.9159 10.9705 11.9165 10.9706C11.9172 10.9708 11.9174 10.9708 11.9172 10.9708C11.9171 10.9708 11.916 10.9705 11.9144 10.9701C11.913 10.9697 11.9094 10.9688 11.9047 10.9675C11.9008 10.9664 11.8909 10.9637 11.8783 10.9597C11.8718 10.9577 11.8619 10.9545 11.8499 10.9502C11.8387 10.9461 11.8198 10.939 11.7968 10.9287C11.785 10.9234 11.7697 10.9162 11.7522 10.9068C11.735 10.8977 11.7118 10.8846 11.6855 10.8669C11.6599 10.8497 11.6237 10.823 11.5847 10.7855C11.5464 10.7488 11.4934 10.6901 11.4474 10.6066C11.3995 10.5197 11.3583 10.4035 11.3545 10.265C11.3527 10.1972 11.3601 10.131 11.3754 10.0681C11.3905 10.0055 11.4124 9.95015 11.4369 9.90236C11.4849 9.80887 11.5432 9.74357 11.5856 9.70293C11.6286 9.66179 11.6685 9.63343 11.6955 9.61589C11.7234 9.59778 11.7475 9.58474 11.764 9.57633C11.781 9.56769 11.7953 9.56123 11.805 9.55702C11.8228 9.54929 11.8373 9.54387 11.8382 9.54352C11.8446 9.54111 11.8358 9.54443 11.8313 9.54617C11.8244 9.54887 11.8108 9.55428 11.794 9.56189C11.7773 9.56946 11.7533 9.58108 11.7255 9.59731C11.6979 9.6134 11.6613 9.63712 11.6217 9.67036C11.5819 9.70367 11.5342 9.75071 11.4896 9.81432C11.4439 9.87932 11.403 9.95965 11.3781 10.0544C11.353 10.1498 11.3481 10.2447 11.3586 10.3337C11.3689 10.4207 11.393 10.494 11.4187 10.5515C11.4441 10.6084 11.4728 10.6537 11.4972 10.6872C11.5218 10.7209 11.5457 10.7478 11.5652 10.768C11.6031 10.8071 11.6379 10.8344 11.6594 10.8503C11.6824 10.8672 11.7025 10.88 11.7167 10.8886C11.7444 10.9054 11.7678 10.9172 11.781 10.9236C11.7957 10.9307 11.8086 10.9365 11.8183 10.9406C11.8375 10.9489 11.856 10.9562 11.8718 10.9622C11.9039 10.9743 11.9455 10.9891 12.0001 11.0078L12.4851 9.58838C12.437 9.57191 12.4134 9.56331 12.4042 9.55982C12.3994 9.55801 12.4033 9.55939 12.4121 9.56318C12.4167 9.56515 12.4255 9.56903 12.437 9.5746C12.447 9.57947 12.4681 9.59 12.4941 9.60574C12.5074 9.61384 12.5268 9.62617 12.5493 9.6427C12.5703 9.6582 12.6046 9.68515 12.6422 9.72392C12.6765 9.75926 12.7397 9.831 12.7882 9.93964C12.8138 9.99696 12.8379 10.0703 12.8482 10.1572C12.8587 10.246 12.8538 10.3409 12.8287 10.4362C12.7777 10.6301 12.6639 10.754 12.5854 10.8198C12.5107 10.8824 12.4412 10.9154 12.4135 10.928C12.3861 10.9404 12.3568 10.9511 12.3698 10.9461C12.3709 10.9458 12.3854 10.9403 12.4032 10.9326C12.4178 10.9262 12.4616 10.9069 12.5129 10.8736C12.5399 10.8561 12.5798 10.8277 12.6228 10.7865C12.6653 10.7459 12.7236 10.6806 12.7716 10.5871C12.8221 10.4885 12.8578 10.3646 12.854 10.2244C12.8502 10.0858 12.809 9.96966 12.7611 9.88268C12.7151 9.79925 12.6621 9.74052 12.6238 9.70375C12.5847 9.66621 12.5485 9.63957 12.5229 9.62236C12.4737 9.58926 12.4313 9.56932 12.4113 9.56037C12.3705 9.54205 12.337 9.53157 12.3289 9.529C12.3158 9.52489 12.3054 9.522 12.3008 9.52074C12.2915 9.51819 12.2835 9.51621 12.2819 9.51581C12.2791 9.5151 12.2759 9.51432 12.274 9.51385L11.9138 10.97ZM14.4834 10.7594C14.2569 10.5706 14.1187 10.4549 13.9099 10.3096L13.0532 11.5409C13.2008 11.6436 13.2916 11.7188 13.5231 11.9117L14.4834 10.7594ZM12.0001 11.0078C12.2969 11.1092 12.7957 11.3617 13.0532 11.5409L13.9099 10.3096C13.5379 10.0508 12.914 9.73494 12.4851 9.58838L12.0001 11.0078ZM11.4198 16.7714C12.3622 17.3604 12.6776 17.569 12.8971 17.8417L14.0657 16.9012C13.6501 16.3849 13.0678 16.0325 12.2148 15.4994L11.4198 16.7714ZM14.9755 19.9973C14.8863 18.9954 14.8357 18.3167 14.5635 17.7124L13.1958 18.3284C13.3396 18.6476 13.3829 19.0233 13.4814 20.1303L14.9755 19.9973ZM12.8971 17.8417C13.017 17.9906 13.1174 18.1542 13.1958 18.3284L14.5635 17.7124C14.4327 17.4219 14.2654 17.1494 14.0657 16.9012L12.8971 17.8417ZM9.4672 12.7929C9.38706 13.5943 9.31086 14.2123 9.4893 14.783L10.9209 14.3353C10.8557 14.1267 10.8663 13.8768 10.9598 12.9422L9.4672 12.7929ZM12.2148 15.4994C11.4184 15.0016 11.2142 14.8571 11.089 14.6778L9.85911 15.5365C10.2014 16.0267 10.7369 16.3445 11.4198 16.7714L12.2148 15.4994ZM9.4893 14.783C9.57329 15.0516 9.69801 15.3057 9.85911 15.5365L11.089 14.6778C11.0158 14.5729 10.9591 14.4574 10.9209 14.3353L9.4893 14.783ZM11.1219 11.3205C11.1366 11.1735 11.1442 11.1026 11.1536 11.0493C11.1604 11.011 11.1649 11.002 11.1679 10.9953L9.80358 10.3719C9.67298 10.6578 9.65363 10.9286 9.62936 11.1713L11.1219 11.3205ZM12.274 9.51385C12.0754 9.46471 11.8978 9.42054 11.7497 9.39215C11.6 9.36346 11.4283 9.33982 11.2443 9.35576L11.3737 10.8502C11.3551 10.8518 11.3692 10.8465 11.4674 10.8653C11.5671 10.8845 11.6994 10.9169 11.9138 10.97L12.274 9.51385ZM11.1679 10.9953C11.1609 11.0108 11.1609 11.0044 11.1813 10.9819C11.2004 10.9608 11.2282 10.9356 11.2627 10.9113C11.2972 10.8869 11.3303 10.8692 11.3565 10.8583C11.3847 10.8466 11.3906 10.8487 11.3737 10.8502L11.2443 9.35576C10.9181 9.38401 10.6189 9.52977 10.3981 9.68552C10.1773 9.84127 9.93963 10.0742 9.80358 10.3719L11.1679 10.9953Z" fill="#1C274C"/><path id="Vector_4" d="M19 22V8" stroke="currentColor" stroke-width="1.5" stroke-linecap="round"/><path id="Vector_5" opacity="0.5" d="M8 10L6.328 10.5573C5.53493 10.8217 5 11.5639 5 12.3998C5 12.7677 5.20781 13.1039 5.5368 13.2684L8 14.5" stroke="currentColor" stroke-width="1.5" stroke-linecap="round"/></g></svg>