<svg width="24" height="24" viewBox="0 0 24 24" fill="none" xmlns="http://www.w3.org/2000/svg"><g id="Line Duotone / Arrows Action / Minimize Square 6"><path id="Vector" opacity="0.5" d="M13.0004 21.9994C17.0555 21.9921 19.1789 21.8926 20.5359 20.5355C22.0004 19.0711 22.0004 16.714 22.0004 12C22.0004 7.28595 22.0004 4.92893 20.5359 3.46447C19.0715 2 16.7144 2 12.0004 2C7.28635 2 4.92933 2 3.46486 3.46447C2.10783 4.8215 2.00828 6.94493 2.00098 11" stroke="currentColor" stroke-width="1.5" stroke-linecap="round"/><path id="Vector_2" d="M17 7L12 12M12 12H15.75M12 12V8.25" stroke="currentColor" stroke-width="1.5" stroke-linecap="round" stroke-linejoin="round"/><path id="Vector_3" d="M2 18C2 16.1144 2 15.1716 2.58579 14.5858C3.17157 14 4.11438 14 6 14C7.88562 14 8.82843 14 9.41421 14.5858C10 15.1716 10 16.1144 10 18C10 19.8856 10 20.8284 9.41421 21.4142C8.82843 22 7.88562 22 6 22C4.11438 22 3.17157 22 2.58579 21.4142C2 20.8284 2 19.8856 2 18Z" stroke="currentColor" stroke-width="1.5"/></g></svg>