<svg width="24" height="24" viewBox="0 0 24 24" fill="none" xmlns="http://www.w3.org/2000/svg"><g id="Line Duotone / School / Case Round Minimalistic"><path id="Vector" d="M2 14C2 10.2288 2 8.34315 3.17157 7.17157C4.34315 6 6.22876 6 10 6H14C17.7712 6 19.6569 6 20.8284 7.17157C22 8.34315 22 10.2288 22 14C22 17.7712 22 19.6569 20.8284 20.8284C19.6569 22 17.7712 22 14 22H10C6.22876 22 4.34315 22 3.17157 20.8284C2 19.6569 2 17.7712 2 14Z" stroke="currentColor" stroke-width="1.5"/><path id="Vector_2" opacity="0.5" d="M21.6613 8.71973C18.6515 10.6761 17.1465 11.6543 15.56 12.1472C13.2411 12.8677 10.7581 12.8677 8.43915 12.1472C6.85265 11.6543 5.34773 10.6761 2.33789 8.71973" stroke="currentColor" stroke-width="1.5" stroke-linecap="round"/><path id="Vector_3" d="M8 11V13" stroke="currentColor" stroke-width="1.5" stroke-linecap="round"/><path id="Vector_4" d="M16 11V13" stroke="currentColor" stroke-width="1.5" stroke-linecap="round"/><path id="Vector_5" opacity="0.5" d="M9.1709 4C9.58273 2.83481 10.694 2 12.0002 2C13.3064 2 14.4177 2.83481 14.8295 4" stroke="currentColor" stroke-width="1.5" stroke-linecap="round"/></g></svg>