<svg width="24" height="24" viewBox="0 0 24 24" fill="none" xmlns="http://www.w3.org/2000/svg"><g id="Line Duotone / Call / End Call "><path id="Vector" d="M8 12.8617L8 13.4782C8 14.3304 7.42329 15.0823 6.57997 15.3294L4.57997 15.9155C3.29561 16.2919 2 15.3623 2 14.0643L2 12.1414C2 11.6525 2.1247 11.1704 2.44083 10.7889M21.3703 9.85596C21.8162 10.2541 22 10.8313 22 11.4182V13.5429C22 14.7266 20.9105 15.6329 19.7004 15.4555L17.7004 15.1624C16.7227 15.0192 16 14.2063 16 13.2499V12.8617" stroke="currentColor" stroke-width="1.5"/><path id="Vector_2" opacity="0.5" d="M7.25058 12.8617C7.25058 13.2759 7.58637 13.6117 8.00058 13.6117C8.41479 13.6117 8.75058 13.2759 8.75058 12.8617H7.25058ZM12.0006 7V7.75V7ZM15.2506 12.8617C15.2506 13.2759 15.5864 13.6117 16.0006 13.6117C16.4148 13.6117 16.7506 13.2759 16.7506 12.8617L15.2506 12.8617ZM12.0006 11.3963V10.6463V11.3963ZM3.01892 11.2674C3.90237 10.2012 6.51376 7.75 12.0006 7.75V6.25C5.99022 6.25 2.97932 8.96419 1.86389 10.3104L3.01892 11.2674ZM12.0006 7.75C17.2336 7.75 19.8654 9.51708 20.8714 10.4154L21.8705 9.29661C20.595 8.15756 17.6093 6.25 12.0006 6.25V7.75ZM16.0006 12.8617C16.7506 12.8617 16.7506 12.8607 16.7506 12.8597C16.7506 12.8593 16.7506 12.8583 16.7506 12.8576C16.7506 12.8562 16.7505 12.8548 16.7505 12.8534C16.7505 12.8505 16.7505 12.8475 16.7504 12.8444C16.7503 12.8382 16.75 12.8316 16.7497 12.8245C16.7491 12.8104 16.7481 12.7946 16.7465 12.7773C16.7434 12.7426 16.7379 12.7016 16.7289 12.6552C16.7108 12.5622 16.6782 12.4484 16.6208 12.3222C16.5035 12.0645 16.2947 11.7811 15.9439 11.524C15.2579 11.0214 14.07 10.6463 12.0006 10.6463V12.1463C13.9311 12.1463 14.7432 12.5039 15.0573 12.734C15.2065 12.8433 15.2476 12.9262 15.2554 12.9433C15.2605 12.9544 15.2591 12.9551 15.2566 12.9423C15.2554 12.936 15.2539 12.9264 15.2527 12.9132C15.2521 12.9066 15.2516 12.8991 15.2512 12.8905C15.251 12.8862 15.2508 12.8817 15.2507 12.8769C15.2507 12.8745 15.2506 12.872 15.2506 12.8695C15.2506 12.8682 15.2506 12.867 15.2506 12.8657C15.2506 12.865 15.2506 12.864 15.2506 12.8637C15.2506 12.8627 15.2506 12.8617 16.0006 12.8617ZM12.0006 10.6463C9.93114 10.6463 8.74325 11.0214 8.0573 11.524C7.70647 11.7811 7.49761 12.0645 7.3804 12.3222C7.32297 12.4484 7.29038 12.5622 7.27225 12.6552C7.26321 12.7016 7.2578 12.7426 7.25464 12.7773C7.25306 12.7946 7.25205 12.8104 7.25143 12.8245C7.25112 12.8316 7.2509 12.8382 7.25077 12.8444C7.2507 12.8475 7.25066 12.8505 7.25062 12.8534C7.25061 12.8548 7.2506 12.8562 7.25059 12.8576C7.25059 12.8583 7.25058 12.8594 7.25058 12.8597C7.25058 12.8607 7.25058 12.8617 8.00058 12.8617C8.75058 12.8617 8.75058 12.8627 8.75058 12.8637C8.75058 12.864 8.75057 12.865 8.75057 12.8657C8.75056 12.867 8.75055 12.8682 8.75054 12.8695C8.75051 12.872 8.75047 12.8745 8.75042 12.8769C8.75031 12.8817 8.75016 12.8862 8.74998 12.8905C8.7496 12.8991 8.74907 12.9066 8.74847 12.9132C8.74727 12.9264 8.74576 12.936 8.74453 12.9423C8.74203 12.9551 8.74069 12.9544 8.74576 12.9433C8.75355 12.9262 8.79468 12.8433 8.94386 12.734C9.25791 12.5039 10.07 12.1463 12.0006 12.1463V10.6463Z" fill="#1C274C"/></g></svg>