<svg width="24" height="24" viewBox="0 0 24 24" fill="none" xmlns="http://www.w3.org/2000/svg"><g id="Line Duotone / Call / Phone Rounded"><path id="Vector" d="M5.00684 6.93309C5.04981 5.7996 5.70109 4.77423 6.53809 3.93723C7.93104 2.54428 10.1535 2.73144 11.0379 4.31617L11.6869 5.4791C12.2726 6.52858 12.0375 7.90533 11.115 8.8278M17.0672 18.9934C18.2007 18.9505 19.2261 18.2992 20.0631 17.4622C21.456 16.0692 21.2688 13.8468 19.6841 12.9624L18.5212 12.3134C17.4717 11.7277 16.095 11.9628 15.1725 12.8853" stroke="currentColor" stroke-width="1.5"/><path id="Vector_2" opacity="0.5" d="M5.00655 6.93311C4.93421 8.84124 5.41713 12.0817 8.6677 15.3323C11.9183 18.5829 15.1588 19.0658 17.0669 18.9935M15.1722 12.8853C15.1722 12.8853 14.0532 14.0042 12.0245 11.9755C9.99578 9.94676 11.1147 8.82782 11.1147 8.82782" stroke="currentColor" stroke-width="1.5"/></g></svg>