<svg width="24" height="24" viewBox="0 0 24 24" fill="none" xmlns="http://www.w3.org/2000/svg"><g id="Line Duotone / Astronomy / Black Hole"><circle id="Vector" cx="12" cy="12" r="2" stroke="currentColor" stroke-width="1.5"/><path id="Vector_2" d="M12 10C17 10 16.6 22 9 22" stroke="currentColor" stroke-width="1.5" stroke-linecap="round"/><path id="Vector_3" d="M12.3115 14C7.31152 14 7.71152 2 15.3115 2" stroke="currentColor" stroke-width="1.5" stroke-linecap="round"/><path id="Vector_4" opacity="0.5" d="M10.6311 10.6961C14.1666 7.16053 22.3691 15.9287 16.995 21.3027" stroke="currentColor" stroke-width="1.5" stroke-linecap="round" stroke-dasharray="2 2"/><path id="Vector_5" opacity="0.5" d="M13.6804 13.3039C10.1449 16.8395 1.94246 8.07135 7.31648 2.69734" stroke="currentColor" stroke-width="1.5" stroke-linecap="round" stroke-dasharray="2 2"/><path id="Vector_6" opacity="0.5" d="M10.8513 13.5242C7.3158 9.98865 16.0839 1.78622 21.4579 7.16023" stroke="currentColor" stroke-width="1.5" stroke-linecap="round" stroke-dasharray="2 2"/><path id="Vector_7" opacity="0.5" d="M13.4602 10.4758C16.9957 14.0113 8.2276 22.2138 2.85359 16.8398" stroke="currentColor" stroke-width="1.5" stroke-linecap="round" stroke-dasharray="2 2"/><path id="Vector_8" d="M10 12.3115C10 7.31152 22 7.71152 22 15.3115" stroke="currentColor" stroke-width="1.5" stroke-linecap="round"/><path id="Vector_9" d="M14 12C14 17 2 16.6 2 9" stroke="currentColor" stroke-width="1.5" stroke-linecap="round"/></g></svg>