<svg width="24" height="24" viewBox="0 0 24 24" fill="none" xmlns="http://www.w3.org/2000/svg"><g id="Broken / Essentional, UI / Bolt Circle"><path id="Vector" d="M9.21255 10.1737L11.2276 8.56904C12.5301 7.53179 13.1814 7.01316 13.5907 7.26931C14 7.52547 13.7875 8.31864 13.3625 9.905L13.3224 10.0546C13.1691 10.6267 13.0924 10.9128 13.2271 11.1412L13.2343 11.1531C13.374 11.3788 13.6718 11.4586 14.2673 11.6182C15.3389 11.9053 15.8747 12.0489 15.9687 12.4224C15.9703 12.4286 15.9718 12.4348 15.9731 12.441C16.0556 12.8169 15.6329 13.1535 14.7875 13.8267L12.7725 15.4314C11.4699 16.4686 10.8186 16.9873 10.4093 16.7311C9.99997 16.4749 10.2125 15.6818 10.6376 14.0954L10.6777 13.9459C10.831 13.3737 10.9077 13.0876 10.7729 12.8592L10.7657 12.8473C10.626 12.6216 10.3283 12.5418 9.73277 12.3823C8.66114 12.0951 8.12532 11.9515 8.03132 11.578C8.02976 11.5718 8.0283 11.5656 8.02694 11.5594C7.94442 11.1836 8.36713 10.8469 9.21255 10.1737Z" stroke="currentColor" stroke-width="1.5"/><path id="Vector_2" d="M7 3.33782C8.47087 2.48697 10.1786 2 12 2C17.5228 2 22 6.47715 22 12C22 17.5228 17.5228 22 12 22C6.47715 22 2 17.5228 2 12C2 10.1786 2.48697 8.47087 3.33782 7" stroke="currentColor" stroke-width="1.5" stroke-linecap="round"/></g></svg>