<svg width="24" height="24" viewBox="0 0 24 24" fill="none" xmlns="http://www.w3.org/2000/svg"><g id="Broken / Essentional, UI / Confetti"><path id="Vector" d="M13.3057 18.2975L8.23724 19.987C5.47183 20.9088 4.08912 21.3697 3.35924 20.6398C2.62936 19.9099 3.09026 18.5272 4.01207 15.7618L5.70156 10.6933C6.46758 8.39525 6.85059 7.24623 7.75684 7.03229C8.6631 6.81835 9.51953 7.67478 11.2324 9.38764L14.6114 12.7666C16.3242 14.4795 17.1807 15.3359 16.9667 16.2422" stroke="currentColor" stroke-width="1.5" stroke-linecap="round"/><path id="Vector_2" d="M12.2353 18.3461C12.2353 18.3461 11.4771 16.0649 11.4771 14.5552C11.4771 13.0454 12.2353 10.7643 12.2353 10.7643M8.06529 19.4833C8.06529 19.4833 7.42497 16.7314 7.30712 14.9343C7.11242 11.965 8.06529 7.35254 8.06529 7.35254" stroke="currentColor" stroke-width="1.5" stroke-linecap="round"/><path id="Vector_3" d="M14.5093 10.0061L14.6533 9.28614C14.7986 8.55924 15.3224 7.96597 16.0256 7.73155C16.7289 7.49714 17.2526 6.90387 17.398 6.17697L17.542 5.45703" stroke="currentColor" stroke-width="1.5" stroke-linecap="round"/><path id="Vector_4" d="M17.5693 13.2533L17.7822 13.3762C18.4393 13.7556 19.2655 13.6719 19.8332 13.1685C20.3473 12.7126 21.0794 12.597 21.709 12.8723L22.0005 12.9997" stroke="currentColor" stroke-width="1.5" stroke-linecap="round"/><path id="Vector_5" d="M9.79513 2.77903C9.45764 3.33109 9.54223 4.04247 9.99976 4.5L10.0976 4.59788C10.4908 4.99104 10.6358 5.56862 10.4749 6.10085" stroke="currentColor" stroke-width="1.5" stroke-linecap="round"/><g id="Vector_6"><path d="M6.92761 3.94079C7.13708 3.73132 7.47669 3.73132 7.68616 3.94079C7.89563 4.15026 7.89563 4.48988 7.68616 4.69935C7.47669 4.90882 7.13708 4.90882 6.92761 4.69935C6.71814 4.48988 6.71814 4.15026 6.92761 3.94079Z" fill="#1C274C"/></g><g id="Vector_7"><path d="M12.1571 7.1571C12.3666 6.94763 12.7062 6.94763 12.9157 7.1571C13.1251 7.36657 13.1251 7.70619 12.9157 7.91566C12.7062 8.12512 12.3666 8.12512 12.1571 7.91566C11.9476 7.70619 11.9476 7.36657 12.1571 7.1571Z" fill="#1C274C"/></g><g id="Vector_8"><path d="M17.1571 10.1571C17.3666 9.94763 17.7062 9.94763 17.9157 10.1571C18.1251 10.3666 18.1251 10.7062 17.9157 10.9157C17.7062 11.1251 17.3666 11.1251 17.1571 10.9157C16.9476 10.7062 16.9476 10.3666 17.1571 10.1571Z" fill="#1C274C"/></g><path id="Vector_9" d="M19.0582 15.3134C19.2677 15.1039 19.6073 15.1039 19.8168 15.3134C20.0262 15.5228 20.0262 15.8624 19.8168 16.0719C19.6073 16.2814 19.2677 16.2814 19.0582 16.0719C18.8488 15.8624 18.8488 15.5228 19.0582 15.3134Z" fill="#1C274C"/><path id="Vector_10" d="M19.3616 7.71436C18.6914 8.38463 19.1724 10.328 19.1724 10.328C19.1724 10.328 21.1157 10.809 21.786 10.1387C22.4959 9.42884 22.0942 8.49708 21.0004 8.5C21.0033 7.40615 20.0715 7.00447 19.3616 7.71436Z" stroke="currentColor" stroke-linejoin="round"/><path id="Vector_11" d="M15.1882 3.41748L15.1606 3.51459C15.1303 3.62126 15.1152 3.67459 15.1223 3.72695C15.1295 3.77931 15.1582 3.82476 15.2156 3.91567L15.2678 3.99844C15.4696 4.31836 15.5706 4.47831 15.5018 4.60915C15.433 4.73998 15.2401 4.75504 14.8543 4.78517L14.7545 4.79296C14.6448 4.80152 14.59 4.8058 14.5421 4.83099C14.4941 4.85618 14.4585 4.89943 14.3873 4.98592L14.3225 5.06467C14.0719 5.36905 13.9466 5.52124 13.8037 5.50167C13.6607 5.4821 13.5948 5.30373 13.463 4.94699L13.4289 4.85469C13.3915 4.75332 13.3728 4.70263 13.336 4.66584C13.2992 4.62905 13.2485 4.61033 13.1471 4.57287L13.0548 4.53878C12.6981 4.40698 12.5197 4.34108 12.5001 4.19815C12.4806 4.05522 12.6328 3.92992 12.9371 3.67932L13.0159 3.61448C13.1024 3.54327 13.1456 3.50767 13.1708 3.45974C13.196 3.41181 13.2003 3.35699 13.2089 3.24735L13.2166 3.14753C13.2468 2.76169 13.2618 2.56877 13.3927 2.50001C13.5235 2.43124 13.6835 2.53217 14.0034 2.73403L14.0861 2.78626C14.1771 2.84362 14.2225 2.8723 14.2749 2.87947C14.3272 2.88664 14.3806 2.87148 14.4872 2.84117L14.5843 2.81358C14.9597 2.70692 15.1474 2.65359 15.2478 2.75402C15.3482 2.85445 15.2949 3.04213 15.1882 3.41748Z" stroke="currentColor"/></g></svg>