<svg width="24" height="24" viewBox="0 0 24 24" fill="none" xmlns="http://www.w3.org/2000/svg"><g id="Broken / Essentional, UI / Figma"><path id="Vector" d="M12 8.66667H8.66671M12 8.66667V2H8.66671C6.82576 2 5.33337 3.49238 5.33337 5.33333C5.33337 7.17428 6.82576 8.66667 8.66671 8.66667M12 8.66667V15.3333H8.66671M12 8.66667L15.3334 8.66667M8.66671 8.66667C6.82576 8.66667 5.33337 10.1591 5.33337 12C5.33337 13.8409 6.82576 15.3333 8.66671 15.3333M8.66671 15.3333C6.82576 15.3333 5.33337 16.8257 5.33337 18.6667C5.33337 20.5076 6.82576 22 8.66671 22C10.5077 22 12 20.5076 12 18.6667M15.3334 8.66667C13.4924 8.66667 12 10.1591 12 12C12 13.8409 13.4924 15.3333 15.3334 15.3333C17.1743 15.3333 18.6667 13.8409 18.6667 12C18.6667 10.1591 17.1743 8.66667 15.3334 8.66667ZM15.3334 8.66667C17.1743 8.66667 18.6667 7.17428 18.6667 5.33333C18.6667 3.49238 17.1743 2 15.3334 2" stroke="currentColor" stroke-width="1.5" stroke-linecap="round" stroke-linejoin="round"/></g></svg>