<svg width="24" height="24" viewBox="0 0 24 24" fill="none" xmlns="http://www.w3.org/2000/svg"><g id="Broken / Essentional, UI / Smart Home Angle"><path id="Vector" d="M21.6358 12.9579L21.357 14.8952C20.8696 18.2827 20.6259 19.9764 19.4509 20.9882C18.3821 21.9085 16.8598 21.9917 13.9999 21.9993M21.6645 7.87495C21.1241 6.7476 19.9737 6.06233 17.673 4.69181L16.2881 3.86687C14.1988 2.62229 13.1542 2 11.9999 2C10.8456 2 9.80092 2.62229 7.71163 3.86687L6.32679 4.69181C4.02607 6.06234 2.8757 6.7476 2.33524 7.87495C2.0484 8.47327 1.96724 9.12544 2.01096 10" stroke="currentColor" stroke-width="1.5" stroke-linecap="round"/><path id="Vector_2" d="M11 22C11 17.0294 6.97056 13 2 13" stroke="currentColor" stroke-width="1.5" stroke-linecap="round"/><path id="Vector_3" d="M8 22C8 18.6863 5.31371 16 2 16" stroke="currentColor" stroke-width="1.5" stroke-linecap="round"/><path id="Vector_4" d="M5 22C5 20.3431 3.65685 19 2 19" stroke="currentColor" stroke-width="1.5" stroke-linecap="round"/></g></svg>