<svg width="24" height="24" viewBox="0 0 24 24" fill="none" xmlns="http://www.w3.org/2000/svg"><g id="Line Duotone / Food, Kitchen / Whisk"><path id="Vector" d="M19.8155 12.236C22.3729 9.67866 22.7716 5.67503 20.5481 3.45154C18.3245 1.22806 14.3207 1.62672 11.7633 4.18408C9.20583 6.74143 7.85664 11.6956 10.0802 13.9191C12.3038 16.1425 17.258 14.7934 19.8155 12.236Z" stroke="currentColor" stroke-width="1.5"/><path id="Vector_2" opacity="0.5" d="M12.8991 15.127L6.85994 21.166C5.74816 22.2777 3.94561 22.2777 2.83383 21.166C1.72206 20.0543 1.72206 18.2518 2.83383 17.14L8.87299 11.1011" stroke="currentColor" stroke-width="1.5"/><path id="Vector_3" opacity="0.5" d="M20.5482 3.45144C21.7563 4.65951 19.0982 8.12279 17.3276 9.89327C15.5571 11.6637 11.2885 15.127 10.0804 13.919C8.87225 12.7109 12.3362 8.44297 14.1067 6.67249C15.8773 4.90202 19.3401 2.24337 20.5482 3.45144Z" stroke="currentColor" stroke-width="1.5"/></g></svg>