<?xml version="1.0" encoding="UTF-8" standalone="no"?>
<svg xmlns="http://www.w3.org/2000/svg" version="1.1" viewBox="0.00 0.00 512.00 512.00">
  <g stroke-width="2.00" fill="none" stroke-linecap="butt">
    <path stroke="#4e41a7" vector-effect="non-scaling-stroke" d="   M 127.98 0.00   L 128.24 127.99"></path>
    <path stroke="#8e7850" vector-effect="non-scaling-stroke" d="   M 128.24 127.99   Q 128.26 127.83 127.84 128.27"></path>
    <path stroke="#4e41a7" vector-effect="non-scaling-stroke" d="   M 127.84 128.27   L 0.00 128.03"></path>
    <path stroke="#4e41a7" vector-effect="non-scaling-stroke" d="   M 383.83 0.25   Q 383.99 1.75 383.99 3.25   Q 384.00 119.50 383.99 235.75   Q 383.99 238.24 383.58 242.80"></path>
    <path stroke="#b8a09f" vector-effect="non-scaling-stroke" d="   M 383.58 242.80   Q 382.57 237.31 381.54 231.81   Q 376.76 206.34 362.67 185.34   C 338.44 149.23 298.76 127.89 255.00 127.95   Q 191.61 128.05 128.24 127.99"></path>
    <path stroke="#4e41a7" vector-effect="non-scaling-stroke" d="   M 0.00 383.96   L 240.81 383.91"></path>
    <path stroke="#8e7850" vector-effect="non-scaling-stroke" d="   M 240.81 383.91   Q 258.45 384.33 269.25 383.32   Q 296.76 380.76 322.21 365.47   Q 346.26 351.03 362.74 326.49   Q 380.07 300.68 383.36 268.77   Q 384.57 257.02 383.58 242.80"></path>
    <path stroke="#b8a09f" vector-effect="non-scaling-stroke" d="   M 127.84 128.27   Q 128.03 129.13 128.03 130.00   Q 128.04 193.62 128.05 255.75   Q 128.06 289.30 144.07 318.03   C 163.93 353.67 199.45 377.91 240.39 383.03   Q 240.80 383.08 240.80 383.49   Q 240.81 383.70 240.81 383.91"></path>
    <path stroke="#fca824" vector-effect="non-scaling-stroke" d="   M 341.28 256.00   A 85.28 85.28 0.0 0 0 256.00 170.72   A 85.28 85.28 0.0 0 0 170.72 256.00   A 85.28 85.28 0.0 0 0 256.00 341.28   A 85.28 85.28 0.0 0 0 341.28 256.00"></path>
    <path stroke="#ffbc80" vector-effect="non-scaling-stroke" d="   M 298.63 256.00   A 42.63 42.63 0.0 0 0 256.00 213.37   A 42.63 42.63 0.0 0 0 213.37 256.00   A 42.63 42.63 0.0 0 0 256.00 298.63   A 42.63 42.63 0.0 0 0 298.63 256.00"></path>
  </g>
  <path fill="#241957" d="   M 127.98 0.00   L 128.24 127.99   Q 128.26 127.83 127.84 128.27   L 0.00 128.03   L 0.00 69.56   Q 1.20 44.72 16.23 26.50   Q 36.50 1.92 69.44 0.00   L 127.98 0.00   Z"></path>
  <path fill="#7868f6" d="   M 382.88 0.00   Q 383.28 0.21 383.83 0.25   Q 383.99 1.75 383.99 3.25   Q 384.00 119.50 383.99 235.75   Q 383.99 238.24 383.58 242.80   Q 382.57 237.31 381.54 231.81   Q 376.76 206.34 362.67 185.34   C 338.44 149.23 298.76 127.89 255.00 127.95   Q 191.61 128.05 128.24 127.99   L 127.98 0.00   L 382.88 0.00   Z"></path>
  <path fill="#241957" d="   M 442.48 0.00   Q 474.95 1.84 495.19 25.80   Q 510.70 44.16 512.00 69.43   L 512.00 442.48   Q 510.16 474.86 486.33 495.09   Q 467.92 510.71 442.56 512.00   L 69.53 512.00   Q 37.05 510.17 16.80 486.20   Q 1.28 467.83 0.00 442.56   L 0.00 383.96   L 240.81 383.91   Q 258.45 384.33 269.25 383.32   Q 296.76 380.76 322.21 365.47   Q 346.26 351.03 362.74 326.49   Q 380.07 300.68 383.36 268.77   Q 384.57 257.02 383.58 242.80   Q 383.99 238.24 383.99 235.75   Q 384.00 119.50 383.99 3.25   Q 383.99 1.75 383.83 0.25   L 384.67 0.00   L 442.48 0.00   Z"></path>
  <path fill="#7868f6" d="   M 127.84 128.27   Q 128.03 129.13 128.03 130.00   Q 128.04 193.62 128.05 255.75   Q 128.06 289.30 144.07 318.03   C 163.93 353.67 199.45 377.91 240.39 383.03   Q 240.80 383.08 240.80 383.49   Q 240.81 383.70 240.81 383.91   L 0.00 383.96   L 0.00 128.03   L 127.84 128.27   Z"></path>
  <path fill="#f8d748" d="   M 128.24 127.99   Q 191.61 128.05 255.00 127.95   C 298.76 127.89 338.44 149.23 362.67 185.34   Q 376.76 206.34 381.54 231.81   Q 382.57 237.31 383.58 242.80   Q 384.57 257.02 383.36 268.77   Q 380.07 300.68 362.74 326.49   Q 346.26 351.03 322.21 365.47   Q 296.76 380.76 269.25 383.32   Q 258.45 384.33 240.81 383.91   Q 240.81 383.70 240.80 383.49   Q 240.80 383.08 240.39 383.03   C 199.45 377.91 163.93 353.67 144.07 318.03   Q 128.06 289.30 128.05 255.75   Q 128.04 193.62 128.03 130.00   Q 128.03 129.13 127.84 128.27   Q 128.26 127.83 128.24 127.99   Z   M 341.28 256.00   A 85.28 85.28 0.0 0 0 256.00 170.72   A 85.28 85.28 0.0 0 0 170.72 256.00   A 85.28 85.28 0.0 0 0 256.00 341.28   A 85.28 85.28 0.0 0 0 341.28 256.00   Z"></path>
  <path fill="#ff7800" d="   M 341.28 256.00   A 85.28 85.28 0.0 0 1 256.00 341.28   A 85.28 85.28 0.0 0 1 170.72 256.00   A 85.28 85.28 0.0 0 1 256.00 170.72   A 85.28 85.28 0.0 0 1 341.28 256.00   Z   M 298.63 256.00   A 42.63 42.63 0.0 0 0 256.00 213.37   A 42.63 42.63 0.0 0 0 213.37 256.00   A 42.63 42.63 0.0 0 0 256.00 298.63   A 42.63 42.63 0.0 0 0 298.63 256.00   Z"></path>
  <circle fill="#ffffff" cx="256.00" cy="256.00" r="42.63"></circle>
</svg>
