<?xml version="1.0" encoding="UTF-8"?>
<svg id="Layer_2" data-name="Layer 2" xmlns="http://www.w3.org/2000/svg" xmlns:xlink="http://www.w3.org/1999/xlink" viewBox="0 0 567.12 593.08">
  <defs>
    <style>
      .cls-1 {
        fill: #f24a4a;
      }

      .cls-1, .cls-2, .cls-3, .cls-4, .cls-5, .cls-6 {
        stroke-width: 0px;
      }

      .cls-2 {
        fill: #ff5150;
      }

      .cls-3 {
        fill: #00ba94;
      }

      .cls-7 {
        filter: url(#drop-shadow-1);
      }

      .cls-4 {
        fill: #fff;
      }

      .cls-5 {
        fill: #004f63;
      }

      .cls-6 {
        fill: #004253;
      }
    </style>
    <filter id="drop-shadow-1" filterUnits="userSpaceOnUse">
      <feOffset dx="0" dy="0"/>
      <feGaussianBlur result="blur" stdDeviation="15"/>
      <feFlood flood-color="#000" flood-opacity=".4"/>
      <feComposite in2="blur" operator="in"/>
      <feComposite in="SourceGraphic"/>
    </filter>
  </defs>
  <g id="Layer_1-2" data-name="Layer 1">
    <g class="cls-7">
      <path class="cls-4" d="M112.67,593.08l-79.79-170.27s-59.23-89.09-9.87-229.22c0,0-33.52-43.88-19.64-61.15,0,0,5.24-9.87,17.58-9.87s43.39-2.57,43.39-2.57c0,0,53.06-67.55,125.24-91.62C261.76,4.32,377.75.62,454.25,0h.21l79.79,170.27s59.23,89.09,9.87,229.22c0,0,33.52,43.88,19.64,61.15,0,0-5.24,9.87-17.58,9.87s-43.39,2.57-43.39,2.57c0,0-53.06,67.55-125.24,91.62-72.18,24.06-188.17,27.76-264.67,28.38h-.21Z"/>
      <path class="cls-2" d="M438,24.27s-138.73,12.56-177.68,14.81c0,0-115.18,7.67-182.61,103.65l-.77,1.47-52.49,1.62,97.06,57.07s89.46-146.93,253.15-63.85l63.34-114.75Z"/>
      <path class="cls-1" d="M438,24.27l-63.34,114.75s147.24,82.67,69.1,249.45l97.68,56.55-24.27-47.09s37.18-70.31,13.35-164.93c-3.08-12.24-7.39-24.14-12.67-35.6L438,24.27Z"/>
      <path class="cls-5" d="M126.45,566.97l42.57-77.53c-44.42-69.92-66.63-143.13-66.63-143.13-19.74-85.14,19.13-143.44,19.13-143.44l-97.06-57.07,23.65,46.27s-39.48,86.78-17.27,164.31c0,0,10.71,43.93,30.47,80.53,9.24,17.12,18.4,34.29,26.94,51.78l38.22,78.27Z"/>
      <path class="cls-6" d="M541.44,445.02l-97.68-56.55s-38.46,71.36-114.96,88.02c0,0-96.24,20.36-159.79,12.96l-42.57,77.53s186.93-5.96,221.48-17.69c0,0,87.61-27.15,142.51-99.33l51-4.94Z"/>
      <path class="cls-3" d="M247.98,168.01l-16.76,31.16s-81.13,9.77-58.09,100.25l-17.69,30.44,29.2,18.1s16.86,85.55,102,58.81l30.02,16.45,17.27-28.79s82.67-14.4,60.05-101.59l16.55-30.74-30.85-18.82s-13.26-83.7-99.64-57.79l-32.08-17.48Z"/>
    </g>
  </g>
</svg>