<svg viewBox="0 0 44 44" fill="none" xmlns="http://www.w3.org/2000/svg">
<g clip-path="url(#clip0_18_2)">
<path d="M12.8333 5.5H7.33333C6.32081 5.5 5.5 6.32081 5.5 7.33333V12.8333C5.5 13.8459 6.32081 14.6667 7.33333 14.6667H12.8333C13.8459 14.6667 14.6667 13.8459 14.6667 12.8333V7.33333C14.6667 6.32081 13.8459 5.5 12.8333 5.5Z" stroke="#F0F0F0" stroke-width="3.66667" stroke-linecap="round" stroke-linejoin="round"/>
<path d="M36.6666 5.5H31.1666C30.1541 5.5 29.3333 6.32081 29.3333 7.33333V12.8333C29.3333 13.8459 30.1541 14.6667 31.1666 14.6667H36.6666C37.6792 14.6667 38.5 13.8459 38.5 12.8333V7.33333C38.5 6.32081 37.6792 5.5 36.6666 5.5Z" stroke="#F0F0F0" stroke-width="3.66667" stroke-linecap="round" stroke-linejoin="round"/>
<path d="M12.8333 29.3333H7.33333C6.32081 29.3333 5.5 30.1542 5.5 31.1667V36.6667C5.5 37.6792 6.32081 38.5 7.33333 38.5H12.8333C13.8459 38.5 14.6667 37.6792 14.6667 36.6667V31.1667C14.6667 30.1542 13.8459 29.3333 12.8333 29.3333Z" stroke="#F0F0F0" stroke-width="3.66667" stroke-linecap="round" stroke-linejoin="round"/>
<path d="M38.5 29.3333H33C32.0275 29.3333 31.0949 29.7197 30.4073 30.4073C29.7196 31.0949 29.3333 32.0275 29.3333 33V38.5" stroke="#F0F0F0" stroke-width="3.66667" stroke-linecap="round" stroke-linejoin="round"/>
<path d="M38.5 38.5V38.5183" stroke="#F0F0F0" stroke-width="3.66667" stroke-linecap="round" stroke-linejoin="round"/>
<path d="M22 12.8333V18.3333C22 19.3058 21.6137 20.2384 20.926 20.9261C20.2384 21.6137 19.3058 22 18.3333 22H12.8333" stroke="#F0F0F0" stroke-width="3.66667" stroke-linecap="round" stroke-linejoin="round"/>
<path d="M5.5 22H5.51833" stroke="#F0F0F0" stroke-width="3.66667" stroke-linecap="round" stroke-linejoin="round"/>
<path d="M22 5.5H22.0183" stroke="#F0F0F0" stroke-width="3.66667" stroke-linecap="round" stroke-linejoin="round"/>
<path d="M22 29.3333V29.3517" stroke="#F0F0F0" stroke-width="3.66667" stroke-linecap="round" stroke-linejoin="round"/>
<path d="M29.3333 22H31.1666" stroke="#F0F0F0" stroke-width="3.66667" stroke-linecap="round" stroke-linejoin="round"/>
<path d="M38.5 22V22.0183" stroke="#F0F0F0" stroke-width="3.66667" stroke-linecap="round" stroke-linejoin="round"/>
<path d="M22 38.5V36.6667" stroke="#F0F0F0" stroke-width="3.66667" stroke-linecap="round" stroke-linejoin="round"/>
</g>
<defs>
<clipPath id="clip0_18_2">
<rect width="44" height="44" fill="white"/>
</clipPath>
</defs>
</svg>
