<svg width="24" height="24" viewBox="0 0 24 24" fill="none" xmlns="http://www.w3.org/2000/svg"><g id="vuesax/broken/setting-2"><g id="vuesax/broken/setting-2_2"><g id="setting-2"><path id="Vector" d="M15 12C15 10.34 13.66 9 12 9C10.34 9 9 10.34 9 12C9 13.66 10.34 15 12 15C12.41 15 12.81 14.92 13.17 14.76" stroke="currentColor" stroke-width="1.5" stroke-miterlimit="10" stroke-linecap="round" stroke-linejoin="round"/><path id="Vector_2" d="M6.88 20.5803L7.97 21.2103C8.76 21.6803 9.78 21.4003 10.25 20.6103L10.36 20.4203C11.26 18.8503 12.74 18.8503 13.65 20.4203L13.76 20.6103C14.23 21.4003 15.25 21.6803 16.04 21.2103L17.77 20.2203C18.68 19.7003 18.99 18.5303 18.47 17.6303C17.56 16.0603 18.3 14.7803 20.11 14.7803C21.15 14.7803 22.01 13.9303 22.01 12.8803V11.1203C22.01 10.0803 21.16 9.22031 20.11 9.22031C19.1 9.22031 18.42 8.82031 18.18 8.19031C17.99 7.70031 18.07 7.06031 18.47 6.37031C18.99 5.46031 18.68 4.30031 17.77 3.78031L16.96 3.32031" stroke="currentColor" stroke-width="1.5" stroke-miterlimit="10" stroke-linecap="round" stroke-linejoin="round"/><path id="Vector_3" d="M13.64 3.58042C12.74 5.15042 11.26 5.15042 10.35 3.58042L10.24 3.39042C9.78 2.60042 8.76 2.32042 7.97 2.79042L6.24 3.78042C5.33 4.30042 5.02 5.47042 5.54 6.38042C6.45 7.94042 5.71 9.22043 3.9 9.22043C2.86 9.22043 2 10.0704 2 11.1204V12.8804C2 13.9204 2.85 14.7804 3.9 14.7804C5.71 14.7804 6.45 16.0604 5.54 17.6304" stroke="currentColor" stroke-width="1.5" stroke-miterlimit="10" stroke-linecap="round" stroke-linejoin="round"/></g></g></g></svg>