<svg width="24" height="24" viewBox="0 0 24 24" fill="none" xmlns="http://www.w3.org/2000/svg"><g id="Broken / Map &amp; Location / Radar 2"><path id="Vector" d="M9.41179 21.6588C9.94108 21.8006 10.4718 21.8972 10.9999 21.9509C15.7946 22.4387 20.3716 19.3931 21.6592 14.5877C23.0887 9.25308 19.9228 3.76971 14.5882 2.34029C11.9556 1.63489 9.28678 2.04857 7.08684 3.28972M12 11.9996L5.00191 6.33546C4.57279 5.98813 3.93863 6.05182 3.63593 6.5135C3.06672 7.38163 2.62407 8.35389 2.34072 9.41136C1.37316 13.0224 2.51106 16.7015 5.00191 19.1453M7.36912 8.18416C6.51377 9.22115 5.99998 10.5503 5.99998 11.9996C5.99998 15.3133 8.68627 17.9996 12 17.9996C15.3137 17.9996 18 15.3133 18 11.9996C18 11.4818 17.9344 10.9793 17.8111 10.5M10.1028 6.30568C10.6991 6.10709 11.337 5.99955 12 5.99955C13.0928 5.99955 14.1174 6.29173 14.9999 6.80222" stroke="currentColor" stroke-width="1.5" stroke-linecap="round"/></g></svg>