<svg width="24" height="24" viewBox="0 0 24 24" fill="none" xmlns="http://www.w3.org/2000/svg"><g id="Broken / Electronic, Devices / Weigher"><path id="Vector" d="M21 10V14C21 17.7712 21 19.6569 19.8284 20.8284C18.6569 22 16.7712 22 13 22H11C7.22876 22 5.34315 22 4.17157 20.8284C3 19.6569 3 17.7712 3 14V10C3 6.22876 3 4.34315 4.17157 3.17157C5.34315 2 7.22876 2 11 2H13C16.7712 2 18.6569 2 19.8284 3.17157C20.4816 3.82475 20.7706 4.69989 20.8985 6" stroke="currentColor" stroke-width="1.5" stroke-linecap="round"/><path id="Vector_2" d="M8 18H16" stroke="currentColor" stroke-width="1.5" stroke-linecap="round"/><path id="Vector_3" d="M15.1236 5.52027L15.549 5.59118C16.8084 5.80108 17.5514 7.12128 17.0772 8.30674L16.4116 9.97082C16.1758 10.5602 15.5409 10.8849 14.925 10.7309C13.0046 10.2508 10.9955 10.2508 9.07505 10.7309C8.45918 10.8849 7.82425 10.5602 7.58848 9.97082L6.92285 8.30675C6.44867 7.12128 7.1916 5.80108 8.45101 5.59118L8.87644 5.52027C9.58048 5.40293 10.2895 5.32554 11.0001 5.28809" stroke="currentColor" stroke-width="1.5" stroke-linecap="round"/><path id="Vector_4" d="M10.1796 9.92856L9.50464 8.0459" stroke="currentColor" stroke-width="1.5" stroke-linecap="round"/></g></svg>