<svg width="24" height="24" viewBox="0 0 24 24" fill="none" xmlns="http://www.w3.org/2000/svg"><g id="Broken / Settings, Fine Tuning / Settings"><circle id="Vector" cx="12" cy="12" r="3" stroke="currentColor" stroke-width="1.5"/><path id="Vector_2" d="M3.66128 10.6392C4.13383 10.9361 4.43788 11.4419 4.43788 11.9999C4.43787 12.558 4.13382 13.0638 3.66128 13.3607C3.33972 13.5627 3.13255 13.7242 2.98514 13.9163C2.66223 14.3372 2.51972 14.869 2.58896 15.3949C2.64088 15.7893 2.87385 16.1928 3.3398 16.9999C3.80574 17.8069 4.03871 18.2104 4.35432 18.4526C4.77514 18.7755 5.307 18.918 5.8329 18.8488C6.07294 18.8172 6.31634 18.7185 6.65202 18.5411C7.1455 18.2803 7.73565 18.2699 8.21902 18.549C8.70233 18.8281 8.98833 19.3443 9.00919 19.902C9.02338 20.2815 9.05964 20.5417 9.1523 20.7654C9.35529 21.2554 9.74464 21.6448 10.2347 21.8478C10.6022 22 11.0682 22 12.0001 22C12.9319 22 13.3979 22 13.7654 21.8478C14.2555 21.6448 14.6448 21.2554 14.8478 20.7654C14.9405 20.5417 14.9767 20.2815 14.9909 19.9021C15.0118 19.3443 15.2978 18.8281 15.7811 18.549C16.2645 18.27 16.8546 18.2804 17.348 18.5412C17.6837 18.7186 17.9272 18.8173 18.1672 18.8489C18.6931 18.9182 19.225 18.7756 19.6458 18.4527C19.9614 18.2106 20.1944 17.807 20.6603 17C20.8678 16.6407 21.029 16.3614 21.1487 16.1272M20.3388 13.3608C19.8663 13.0639 19.5622 12.5581 19.5622 12.0001C19.5621 11.442 19.8662 10.9361 20.3388 10.6392C20.6603 10.4372 20.8675 10.2757 21.0149 10.0836C21.3378 9.66278 21.4803 9.13092 21.411 8.60502C21.3591 8.2106 21.1261 7.80708 20.6602 7.00005C20.1943 6.19301 19.9613 5.7895 19.6457 5.54732C19.2249 5.22441 18.693 5.0819 18.1671 5.15113C17.9271 5.18274 17.6836 5.2814 17.3479 5.45883C16.8545 5.71964 16.2644 5.73004 15.781 5.45096C15.2978 5.1719 15.0118 4.6557 14.9909 4.09803C14.9767 3.71852 14.9405 3.45835 14.8478 3.23463C14.6448 2.74458 14.2555 2.35523 13.7654 2.15224C13.3979 2 12.9319 2 12.0001 2C11.0682 2 10.6022 2 10.2347 2.15224C9.74464 2.35523 9.35529 2.74458 9.1523 3.23463C9.05964 3.45833 9.02338 3.71848 9.00919 4.09794C8.98833 4.65566 8.70231 5.17191 8.21897 5.45096C7.73563 5.73002 7.14554 5.71959 6.65211 5.4588C6.31639 5.28136 6.07297 5.18269 5.83291 5.15108C5.30701 5.08185 4.77515 5.22436 4.35433 5.54727C4.03872 5.78945 3.80575 6.19297 3.33981 7C3.13237 7.35929 2.97111 7.63859 2.85144 7.87273" stroke="currentColor" stroke-width="1.5" stroke-linecap="round"/></g></svg>