<svg width="24" height="24" viewBox="0 0 24 24" fill="none" xmlns="http://www.w3.org/2000/svg"><g id="Line Duotone / Essentional, UI / Broom"><path id="Vector" d="M12.7277 5.53587C14.2898 3.97377 16.8224 3.9737 18.3845 5.53579C19.9466 7.09789 19.9467 9.63063 18.3846 11.1927M3.57927 12.9794L2.9124 11.8832C2.04035 10.1748 2.60058 7.96535 4.40748 7.01132C5.26129 6.56051 6.21821 6.13209 7.16909 5.86026C10.0286 5.0428 12.5345 5.34253 12.5345 5.34253L18.5777 11.3857C18.5777 11.3857 18.8774 13.8916 18.0599 16.7511C17.7881 17.702 17.3597 18.6589 16.9089 19.5127C15.9549 21.3196 13.7454 21.8799 12.037 21.0078L10.9407 20.3409C7.93327 18.5113 5.40879 15.9868 3.57927 12.9794Z" stroke="currentColor" stroke-width="1.5"/><path id="Vector_2" opacity="0.5" d="M20.5061 3.41406L18.3848 5.53538" stroke="currentColor" stroke-width="1.5" stroke-linecap="round"/></g></svg>