<svg width="24" height="24" viewBox="0 0 24 24" fill="none" xmlns="http://www.w3.org/2000/svg"><g id="Line Duotone / Essentional, UI / Figma"><path id="Vector" opacity="0.5" d="M11.9997 2H8.66634C6.82539 2 5.33301 3.49238 5.33301 5.33333C5.33301 7.17428 6.82539 8.66667 8.66634 8.66667H11.9997V2Z" stroke="currentColor" stroke-width="1.5"/><path id="Vector_2" d="M11.9997 8.6665H8.66634C6.82539 8.6665 5.33301 10.1589 5.33301 11.9998C5.33301 13.8408 6.82539 15.3332 8.66634 15.3332H11.9997V8.6665Z" stroke="currentColor" stroke-width="1.5"/><path id="Vector_3" opacity="0.5" d="M18.6667 11.9998C18.6667 13.8408 17.1743 15.3332 15.3333 15.3332C13.4924 15.3332 12 13.8408 12 11.9998C12 10.1589 13.4924 8.6665 15.3333 8.6665C17.1743 8.6665 18.6667 10.1589 18.6667 11.9998Z" stroke="currentColor" stroke-width="1.5"/><path id="Vector_4" opacity="0.5" d="M8.66634 15.3335H11.9997V18.6668C11.9997 20.5078 10.5073 22.0002 8.66634 22.0002C6.82539 22.0002 5.33301 20.5078 5.33301 18.6668C5.33301 16.8259 6.82539 15.3335 8.66634 15.3335Z" stroke="currentColor" stroke-width="1.5"/><path id="Vector_5" d="M12 2H15.3333C17.1743 2 18.6667 3.49238 18.6667 5.33333C18.6667 7.17428 17.1743 8.66667 15.3333 8.66667H12V2Z" stroke="currentColor" stroke-width="1.5"/></g></svg>