<svg width="24" height="24" viewBox="0 0 24 24" fill="none" xmlns="http://www.w3.org/2000/svg"><g id="Line Duotone / Essentional, UI / Gift"><path id="Vector" opacity="0.5" d="M22 12H2" stroke="currentColor" stroke-width="1.5" stroke-linecap="round"/><path id="Vector_2" opacity="0.5" d="M12 2V22" stroke="currentColor" stroke-width="1.5" stroke-linecap="round"/><path id="Vector_3" d="M13 12C13 14.2091 14.7909 16 17 16" stroke="currentColor" stroke-width="1.5" stroke-linecap="round"/><path id="Vector_4" d="M11 12C11 14.2091 9.20914 16 7 16" stroke="currentColor" stroke-width="1.5" stroke-linecap="round"/><path id="Vector_5" d="M12 10.0352C12 8.54529 13.014 7.24659 14.4594 6.88524C16.0631 6.48431 17.5158 7.93697 17.1148 9.5407C16.7535 10.9861 15.4548 12.0001 13.9649 12.0001H12V10.0352Z" stroke="currentColor" stroke-width="1.5"/><path id="Vector_6" d="M11.9996 10.0352C11.9996 8.54529 10.9856 7.24659 9.54022 6.88524C7.93649 6.48431 6.48382 7.93697 6.88476 9.5407C7.24611 10.9861 8.5448 12.0001 10.0347 12.0001H11.9996V10.0352Z" stroke="currentColor" stroke-width="1.5"/><path id="Vector_7" d="M2 12C2 7.28595 2 4.92893 3.46447 3.46447C4.92893 2 7.28595 2 12 2C16.714 2 19.0711 2 20.5355 3.46447C22 4.92893 22 7.28595 22 12C22 16.714 22 19.0711 20.5355 20.5355C19.0711 22 16.714 22 12 22C7.28595 22 4.92893 22 3.46447 20.5355C2 19.0711 2 16.714 2 12Z" stroke="currentColor" stroke-width="1.5"/></g></svg>